<svg xmlns="http://www.w3.org/2000/svg" width="24" height="24" viewBox="0 0 24 24"><path d="M19 12c-.341 0-.673-.033-1-.08v1.08h-2v-1.683c-.749-.356-1.427-.837-2-1.422v3.105h-8v-6h6.294c-.19-.634-.294-1.305-.294-2h-12v19h20v-12.08c-.327.047-.659.08-1 .08zm-15 10h-2v-2h2v2zm0-4h-2v-2h2v2zm0-5h-2v-2h2v2zm0-4h-2v-2h2v2zm10 13h-8v-6h8v6zm4 0h-2v-2h2v2zm0-4h-2v-2h2v2zm-3.711-14.667c.688-1.941 2.534-3.333 4.711-3.333 2.762 0 5 2.239 5 5 0 .285-.029.562-.074.833h-.635c-.474 0-.55-.211-.806-1.025-.186-.589-.493-1.479-1.171-1.479-.689 0-.957.923-1.205 1.669-.137.405-.217.65-.339.65-.116 0-.171-.245-.308-.65-.258-.759-.551-1.669-1.235-1.669-.711 0-1.016.995-1.22 1.628-.147.46-.194.691-.324.691-.111 0-.146-.187-.275-.56-.293-.85-.386-1.755-1.691-1.755h-.428zm8.941 3.334c-.957 0-1.185-.459-1.543-1.485-.221-.636-.245-.864-.373-.864-.126 0-.161.262-.408.964-.216.615-.514 1.379-1.136 1.379-.693 0-.987-.927-1.243-1.698-.142-.427-.177-.622-.3-.622-.115 0-.146.175-.291.598-.265.781-.559 1.722-1.253 1.722-.687 0-1-.926-1.171-1.479-.252-.818-.297-1.014-.755-1.014h-.684c-.044.27-.073.547-.073.832 0 2.761 2.238 5 5 5 2.177 0 4.022-1.392 4.709-3.333h-.479z"/></svg>