<svg xmlns="http://www.w3.org/2000/svg" width="24" height="24" viewBox="0 0 24 24"><path d="M21 21h-1.713l-.658-1.846h-3l-.663 1.846h-1.659l3.04-8h1.603l3.05 8zm-2.814-3.12l-1.049-3.018-1.054 3.018h2.103zm-9.464-12.037l.125-.562-1.02-.199-.101.464c-.345-.05-.712-.057-1.083-.019.009-.249.023-.494.045-.728h1.141v-.966h-1.004c.049-.246.092-.394.134-.533l-.997-.3c-.072.245-.134.484-.195.833h-1.138v.966h1.014c-.027.312-.043.637-.048.964-1.119.411-1.595 1.195-1.595 1.905 0 .84.663 1.578 1.709 1.482 1.301-.118 2.169-1.1 2.679-2.308.525.303.746.814.548 1.286-.185.436-.725.852-1.757.831v1.041c1.146.018 2.272-.417 2.715-1.469.431-1.028-.062-2.151-1.172-2.688zm-1.342.71c-.162.36-.375.717-.648.998-.041-.3-.07-.628-.086-.978.249-.032.499-.038.734-.02zm-1.758.336c.028.44.078.844.148 1.205-.927.169-.963-.744-.148-1.205zm15.378 5.111c.552 0 1 .449 1 1v8c0 .551-.448 1-1 1h-8c-.552 0-1-.449-1-1v-8c0-.551.448-1 1-1h8zm0-2h-8c-1.656 0-3 1.343-3 3v8c0 1.657 1.344 3 3 3h8c1.657 0 3-1.343 3-3v-8c0-1.657-1.343-3-3-3zm-13 3c0-.342.035-.677.102-1h-5.102c-.552 0-1-.449-1-1v-8c0-.551.448-1 1-1h8c.552 0 1 .449 1 1v5.101c.323-.066.657-.101 1-.101h1v-5c0-1.657-1.343-3-3-3h-8c-1.656 0-3 1.343-3 3v8c0 1.657 1.344 3 3 3h5v-1z"/></svg>