<svg xmlns="http://www.w3.org/2000/svg" width="24" height="24" viewBox="0 0 24 24"><path d="M12.55 23l-.083-1.999c1.239-.052 2.439-.306 3.566-.754l.739 1.859c-1.336.533-2.757.832-4.222.894zm-2.159-.087c-1.456-.18-2.848-.598-4.138-1.243l.896-1.789c1.084.543 2.258.895 3.486 1.046l-.244 1.986zm8.323-1.784l-1.053-1.701c1.053-.652 1.948-1.47 2.66-2.428l1.605 1.192c-.863 1.162-1.943 2.151-3.212 2.937zm-14.312-.603c-1.199-.9-2.184-1.987-2.929-3.231l1.716-1.028c.611 1.021 1.423 1.915 2.413 2.659l-1.2 1.6zm18.65-4.225l-1.815-.84c.506-1.096.763-2.259.763-3.456l2-.036v.036c0 1.489-.319 2.934-.948 4.296zm-22.508-1.009c-.361-1.06-.544-2.166-.544-3.287 0-.366.02-.729.057-1.085l1.989.211c-.03.287-.046.579-.046.874 0 .901.147 1.79.438 2.643l-1.894.644zm21.256-5.087c-.26-1.155-.764-2.239-1.499-3.222l1.602-1.198c.904 1.209 1.526 2.548 1.849 3.98l-1.952.44zm-19.373-.81l-1.896-.638c.465-1.384 1.214-2.653 2.227-3.773l1.483 1.343c-.826.914-1.437 1.946-1.814 3.068zm16.658-3.744c-.893-.807-1.93-1.446-3.083-1.9l.732-1.862c1.377.543 2.619 1.31 3.691 2.278l-1.34 1.484zm-13.509-.546l-1.206-1.596c1.152-.871 2.452-1.529 3.863-1.957l.579 1.915c-1.185.359-2.273.91-3.236 1.638zm8.675-1.876c-1.186-.245-2.447-.293-3.65-.142l-.249-1.985c.54-.068 1.089-.102 1.641-.102.897 0 1.797.09 2.665.271l-.407 1.958z"/></svg>