<svg xmlns="http://www.w3.org/2000/svg" width="24" height="24" viewBox="0 0 24 24"><path d="M15.82 10.736l-5.451 6.717c-.561.691-1.214 1.042-1.94 1.042-1.144 0-2.327-.899-2.753-2.091-.214-.6-.386-1.76.865-2.784 3.417-2.794 6.716-5.446 6.716-5.446l-3.363-4.174s-4.532 3.657-6.771 5.487c-2.581 2.108-3.123 4.468-3.123 6.075 0 4.416 4.014 8.438 8.42 8.438 1.604 0 3.963-.543 6.084-3.128 1.835-2.237 5.496-6.773 5.496-6.773l-4.18-3.363zm-2.604 9.079c-1.353 1.647-3.01 2.519-4.796 2.519-3.471 0-6.753-3.291-6.753-6.771 0-1.789.867-3.443 2.51-4.785 1.206-.986 2.885-2.348 4.18-3.398l1.247 1.599c-1.074.87-2.507 2.033-4.118 3.352-1.471 1.202-1.987 2.935-1.38 4.634.661 1.853 2.479 3.197 4.322 3.197h.001c.86 0 2.122-.288 3.233-1.658l3.355-4.134 1.572 1.294c-1.044 1.291-2.392 2.954-3.373 4.151zm.542-15.874l-.569-.701 2.075-1.682.568.702-2.074 1.681zm3.035 1.306l-.063-.9-2.664.188.063.9 2.664-.188zm-4.988-2.679l.868.249.734-2.568-.867-.249-.735 2.568zm8.924 8.2l-.704-.564 1.671-2.084.704.564-1.671 2.084zm3.271.631l-.281-.866-2.563.749.253.866 2.591-.749zm-5.472-1.558l.901.058.173-2.665-.901-.059-.173 2.666z"/></svg>