<svg width="24" height="24" xmlns="http://www.w3.org/2000/svg" fill-rule="evenodd" clip-rule="evenodd"><path d="M18.799 7.038c-.496-.535-.799-1.252-.799-2.038 0-1.656 1.344-3 3-3s3 1.344 3 3-1.344 3-3 3c-.146 0-.29-.01-.431-.031l-3.333 6.032c.475.53.764 1.231.764 1.999 0 1.656-1.344 3-3 3s-3-1.344-3-3c0-.583.167-1.127.455-1.587l-2.565-3.547c-.281.087-.58.134-.89.134l-.368-.022-3.355 6.069c.451.525.723 1.208.723 1.953 0 1.656-1.344 3-3 3s-3-1.344-3-3 1.344-3 3-3c.186 0 .367.017.543.049l3.298-5.967c-.52-.539-.841-1.273-.841-2.082 0-1.656 1.344-3 3-3s3 1.344 3 3c0 .617-.187 1.191-.507 1.669l2.527 3.495c.307-.106.637-.164.98-.164.164 0 .325.013.482.039l3.317-6.001zm-3.799 7.962c.552 0 1 .448 1 1s-.448 1-1 1-1-.448-1-1 .448-1 1-1zm-6-8c.552 0 1 .448 1 1s-.448 1-1 1-1-.448-1-1 .448-1 1-1z"/></svg>