<?xml version="1.0" encoding="UTF-8" standalone="no"?>
<!-- Generator: Adobe Illustrator 15.1.0, SVG Export Plug-In . SVG Version: 6.00 Build 0)  -->

<svg
   xmlns:dc="http://purl.org/dc/elements/1.1/"
   xmlns:cc="http://creativecommons.org/ns#"
   xmlns:rdf="http://www.w3.org/1999/02/22-rdf-syntax-ns#"
   xmlns:svg="http://www.w3.org/2000/svg"
   xmlns="http://www.w3.org/2000/svg"
   xmlns:sodipodi="http://sodipodi.sourceforge.net/DTD/sodipodi-0.dtd"
   xmlns:inkscape="http://www.inkscape.org/namespaces/inkscape"
   version="1.1"
   x="0px"
   y="0px"
   width="32px"
   height="32px"
   viewBox="0 0 32 32"
   style="enable-background:new 0 0 32 32;"
   xml:space="preserve"
   id="svg6"
   sodipodi:docname="iconmonstr-control-panel-22.svg"
   inkscape:version="0.92.4 (5da689c313, 2019-01-14)"><metadata
   id="metadata12"><rdf:RDF><cc:Work
       rdf:about=""><dc:format>image/svg+xml</dc:format><dc:type
         rdf:resource="http://purl.org/dc/dcmitype/StillImage" /></cc:Work></rdf:RDF></metadata><defs
   id="defs10" /><sodipodi:namedview
   pagecolor="#ffffff"
   bordercolor="#666666"
   borderopacity="1"
   objecttolerance="10"
   gridtolerance="10"
   guidetolerance="10"
   inkscape:pageopacity="0"
   inkscape:pageshadow="2"
   inkscape:window-width="2167"
   inkscape:window-height="1159"
   id="namedview8"
   showgrid="false"
   inkscape:zoom="20.85965"
   inkscape:cx="9.2931333"
   inkscape:cy="17.909737"
   inkscape:window-x="76"
   inkscape:window-y="30"
   inkscape:window-maximized="0"
   inkscape:current-layer="pin" />
<g
   id="Layer_1">
</g>
<g
   id="pin">
	<path
   style="fill:#010101"
   d="m 15.96875,3.96875 c -6.629,0 -12,5.371 -12,12 0,2.527 0.7890937,4.866875 2.1210938,6.796875 l 1.3046874,1.695313 1.8945313,1.476562 c 1.9100005,1.281 4.2066875,2.03125 6.6796875,2.03125 6.629,0 12,-5.371 12,-12 0,-0.346 -0.06956,-0.669812 -0.101562,-1.007812 -0.167261,-1.123229 -0.519301,-2.520288 -1.152344,-3.935547 A 4.1947012,3.9789739 0 0 1 23.259766,12.871094 4.1947012,3.9789739 0 0 1 18.986328,9.0078125 4.1947012,3.9789739 0 0 1 21.396484,5.296875 C 20.174468,4.6866971 18.750522,4.2464826 17.0625,4.0859375 c 0,-0.002 0.0039,-0.00386 0.0039,-0.00586 -0.367,-0.035 -0.722656,-0.1113281 -1.097656,-0.1113281 z m 0.03516,3.984375 C 16.003906,7.969125 16,7.984 16,8 c 0,0.695 0.11725,1.3550469 0.28125,1.9980469 l -3.171875,3.1738281 c -1.562,1.562 -1.562,4.09425 0,5.65625 1.562,1.562 4.09425,1.562 5.65625,0 L 21.90625,15.6875 c 0.66,0.18 1.343594,0.304594 2.058594,0.308594 -0.016,4.402 -3.594094,7.972656 -7.996094,7.972656 -4.414,0 -8,-3.586 -8,-8 0,-4.412 3.586,-8 8,-8 0.012,0 0.02325,0.00391 0.03125,0.00391 0,-0.008 0.0039,-0.013531 0.0039,-0.019531 z"
   id="path3"
   inkscape:connector-curvature="0" />
<g
   id="g839"
   transform="translate(-0.7552564,0.947015)"><g
     id="Layer_1-3">
</g><g
     id="pin-6">
	<path
   id="path825"
   d="M 32,8 C 32,3.584 28.414,0 24,0 21.016,0 18.438,1.658 17.062,4.086 17.062,4.084 17.0665,4.07766 17.066,4.08 14.43433,15.330967 20.781593,15.971292 27.579363,14.913061 30.245749,14.497976 32,11.006 32,8 Z m -8,4 c -2.203,0 -4,-1.795 -4,-4 0,-2.205 1.797,-4 4,-4 2.203,0 4,1.795 4,4 0,2.205 -1.797,4 -4,4 z"
   style="fill:#010101"
   inkscape:connector-curvature="0"
   sodipodi:nodetypes="sscssssssss" />
</g></g></g>
</svg>