<svg xmlns="http://www.w3.org/2000/svg" width="24" height="24" viewBox="0 0 24 24"><path d="M13 1c-4.971 0-10 1.343-10 3v3.073c-.471.452-.984 1.029-1.389 1.714-.417.705-.611 1.426-.611 2.105 0 .958.397 1.833 1.193 2.462.744.588 1.766.916 2.963.916 1.96 0 4.39-.879 6.844-2.919v1.15c0 .829.672 1.5 1.5 1.5s1.5-.671 1.5-1.5v-1.501c0-.552.447-1 1-1s1 .448 1 1v3c0 .552.447 1 1 1s1-.448 1-1v-4c0-.552.447-1 1-1s1 .448 1 1v.502l.001 8.744c-.065.273-2.626 1.754-7.972 1.754-5.397 0-7.966-1.481-8.029-1.747v-3.998c-.601-.006-1.396-.119-2-.339v4.336c0 1.995 4 3.748 10.029 3.748 5.94 0 9.971-1.745 9.971-3.747v-15.253c0-1.657-5.029-3-10-3zm-10.528 8.296c.158-.268.34-.512.528-.744v4.145l-.187-.127c-.971-.768-1.099-1.992-.341-3.274zm2.528 3.968v-6.665c3.171 1.595 6.674.288 6.971 3.443-2.73 2.505-5.195 3.292-6.971 3.222zm8.078-7.483c-2.053 0-7.489-.39-7.489-1.391 0-1.011 4.986-1.609 7.489-1.609 2.568 0 7.511.609 7.511 1.609 0 1.011-5.41 1.391-7.511 1.391z"/></svg>