<svg xmlns="http://www.w3.org/2000/svg" width="24" height="24" viewBox="0 0 24 24"><path d="M11.633 2.012c-.814.019-1.608.097-2.368.231l-.584-1.937c.984-.183 2.022-.293 3.101-.306l-.149 2.012zm-4.894-1.22c-1.085.346-2.074.794-2.941 1.332l1.613 1.414c.584-.312 1.222-.588 1.91-.813l-.582-1.933zm-4.132 5.208c.281-.459.646-.896 1.098-1.299l-1.529-1.341c-.825.784-1.437 1.674-1.797 2.64h2.228zm-.607 2h-2c0 1.158.362 2.247 1 3.231l1.537-1.347c-.342-.596-.537-1.229-.537-1.884zm20.496-3.927l-1.434 1.45c.364.466.724.96.875 1.477h2.059c-.19-1.058-.769-2.046-1.5-2.927zm-5.704-3.429c-.942-.267-1.954-.449-3.011-.55l-.148 1.997c.789.082 1.552.216 2.271.405l.888-1.852zm2.623 13.664c.556 2.777-1.596 4.727-3.76 4.727-.966 0-1.846-.367-2.684-.863-1.294 1.436-1.971 3.256-1.971 5.828h-2c0-3.035.82-5.229 2.296-6.951-.881-.618-1.782-1.221-2.637-1.377-.711-.135-1.4-.301-2.05-.514l.836-1.854c.467.147.953.272 1.455.376 1.116-.021 1.737-.501 2.51-1.116.858-.683 1.928-1.532 3.739-1.564h.002c1.547 0 2.669.625 3.388 1.488 1.693-.896 2.989-2.12 3.392-3.488h2.069c-.392 2.177-2.154 4.046-4.585 5.308zm-7.766.56c.356.232.761.517 1.117.769 1.076-.854 2.365-1.581 3.828-2.253-.34-.233-.782-.384-1.351-.384-1.688.028-2.26 1.024-3.594 1.868zm5.847.299c-1.101.5-2.068 1.02-2.897 1.597.583.259 1.14.357 1.671.155.903-.344 1.216-1.086 1.226-1.752zm3.546-12.468c-.69-.525-1.479-.992-2.357-1.378l-.88 1.837c.662.29 1.268.624 1.798.998l1.439-1.457zm-15.452 9.857c-.663-.337-1.254-.724-1.756-1.15l-1.54 1.35c.69.63 1.524 1.182 2.462 1.648l.834-1.848z"/></svg>