<svg xmlns="http://www.w3.org/2000/svg" width="24" height="24" viewBox="0 0 24 24"><path d="M16.25 6c.414 0 .75.336.75.75v9.5c0 .414-.336.75-.75.75h-9.5c-.414 0-.75-.336-.75-.75v-9.5c0-.414.336-.75.75-.75h9.5zm2.75 0c0-1.104-.896-2-2-2h-11c-1.104 0-2 .896-2 2v11c0 1.104.896 2 2 2h11c1.104 0 2-.896 2-2v-11zm-11 14v3h-1v-3h1zm4 0v3h-1v-3h1zm2 0v3h-1v-3h1zm-4 0v3h-1v-3h1zm6 0v3h-1v-3h1zm-8-20v3h-1v-3h1zm4 0v3h-1v-3h1zm2 0v3h-1v-3h1zm-4 0v3h-1v-3h1zm6 0v3h-1v-3h1zm4 15h3v1h-3v-1zm0-4h3v1h-3v-1zm0-2h3v1h-3v-1zm0 4h3v1h-3v-1zm0-6h3v1h-3v-1zm-20 8h3v1h-3v-1zm0-4h3v1h-3v-1zm0-2h3v1h-3v-1zm0 4h3v1h-3v-1zm0-6h3v1h-3v-1z"/></svg>