<svg xmlns="http://www.w3.org/2000/svg" width="24" height="24" viewBox="0 0 24 24"><path d="M17.5 15c-2.483 0-4.5 2.015-4.5 4.5s2.017 4.5 4.5 4.5 4.5-2.015 4.5-4.5-2.017-4.5-4.5-4.5zm2.5 5h-2v2h-1v-2h-2v-1h2v-2h1v2h2v1zm0-14v7.5c-.623-.26-1.297-.421-2-.475v-5.025h-4.148c-.974 0-1.736-.438-2.039-1.171-.293-.709-.078-1.547.561-2.185 1.3-1.247.105-2.644-1.185-2.644-1.314 0-2.481 1.397-1.184 2.642.641.639.855 1.477.562 2.187-.302.733-1.065 1.171-2.039 1.171h-4.528v4.531999999999999c.627-.485 1.549-1.072 2.744-1.072 1.572 0 3.256 1.499 3.256 3.729 0 2.231-1.684 3.73-3.256 3.73-1.197 0-2.117-.587-2.744-1.072v4.153h7.5c.312.749.763 1.424 1.316 2h-10.816v-6.148c0-.974.438-1.736 1.172-2.039.709-.293 1.547-.078 2.185.561 1.247 1.3 2.643.105 2.643-1.185 0-1.314-1.396-2.481-2.643-1.184-.639.641-1.477.855-2.186.562-.733-.302-1.171-1.065-1.171-2.039v-6.528h6.531999999999999c-.485-.627-1.072-1.549-1.072-2.744 0-1.572 1.499-3.256 3.729-3.256 2.231 0 3.73 1.684 3.73 3.256 0 1.197-.587 2.117-1.072 2.744h6.153z"/></svg>