<svg xmlns="http://www.w3.org/2000/svg" width="24" height="24" viewBox="0 0 24 24"><path d="M11.756 9.321l1.034 1.023-4.533 4.476c-1.017 1.005-1.626.132-2.941 1.023-.177.118-.362.165-.538.155-.437-.027-.806-.406-.776-.886.006-.159.064-.328.171-.499.79-1.257.021-1.914 1.013-2.892l4.504-4.447 1.031 1.024-2.731 2.702h2.057l1.709-1.679zm1.025-5.293c-.036.849-.333 1.218-.719 1.195-.215-.014-.425-.149-.618-.32-.279-.247-.705-.23-.973.036-.289.293-.283.768.01 1.055l3.609 3.569c.292.287.761.286 1.047-.006.265-.27.276-.697.025-.979-.191-.212-.34-.443-.324-.684.021-.35.393-.616 1.185-.659 2.664-.146 3.977-1.699 3.977-3.545 0-2.124-1.666-3.69-3.688-3.69-1.869 0-3.416 1.32-3.531 4.028zm-8.781 15.972c.551 0 1 .449 1 1s-.449 1-1 1-1-.449-1-1 .449-1 1-1zm0-2c-1.657 0-3 1.343-3 3s1.343 3 3 3 3-1.343 3-3-1.343-3-3-3zm8 0c-1.657 0-3 1.343-3 3s1.343 3 3 3 3-1.343 3-3-1.343-3-3-3zm8 0c-1.657 0-3 1.343-3 3s1.343 3 3 3 3-1.343 3-3-1.343-3-3-3z"/></svg>