<svg xmlns="http://www.w3.org/2000/svg" width="24" height="24" viewBox="0 0 24 24"><path d="M8 16.61c.33.2.944.39 1.672.39 1.429 0 2.305-.728 2.305-1.715 0-.745-.546-1.256-1.222-1.377v-.018c.693-.234 1.03-.71 1.03-1.308 0-.771-.667-1.403-1.862-1.403-.736 0-1.403.208-1.741.425l.27.953c.225-.139.71-.338 1.169-.338.563 0 .831.251.831.589 0 .476-.555.649-.996.649h-.52v.944h.537c.58 0 1.135.251 1.135.814 0 .416-.347.745-1.03.745-.537 0-1.074-.216-1.309-.347l-.269.997zm6.904-5.431c-1.456 0-2.14 1.282-2.14 2.919.008 1.594.65 2.902 2.105 2.902 1.43 0 2.131-1.204 2.131-2.937 0-1.542-.598-2.884-2.096-2.884zm-.009 4.824c-.502 0-.813-.615-.813-1.905 0-1.316.329-1.923.806-1.923.527 0 .797.658.797 1.905-.001 1.283-.279 1.923-.79 1.923zm8.105-3.003c0 6.075-4.925 11-11 11s-11-4.925-11-11c0-4.661 2.905-8.632 7-10.232v-2.768l6 4-6 4v-3.052c-2.96 1.475-5 4.527-5 8.052 0 4.962 4.037 9 9 9s9-4.038 9-9c0-1.246-.255-2.433-.715-3.513l1.701-1.078c.645 1.399 1.014 2.95 1.014 4.591zm-9-5v-8l6 4-6 4z"/></svg>