<svg xmlns="http://www.w3.org/2000/svg" width="24" height="24" viewBox="0 0 24 24"><path d="M12 0l-11 6v12.131l11 5.869 11-5.869v-12.066l-11-6.065zm-1 21.2l-8-4.268v-8.702l8 4.363v8.607zm10-4.268l-8 4.268v-9.793l-8.867-4.837 7.862-4.289 9.005 4.969v9.682zm-4.408-4.338l1.64-.917-.006.623-1.64.918.006-.624zm1.653-2.165l-1.641.919-.006.624 1.641-.918.006-.625zm0-1.19l-1.641.919-.006.624 1.641-.918.006-.625zm-3.747-.781l1.645-.96-.519-.273-1.646.959.52.274zm4.208 6.33l-.486-1.865-1.641.919-.523 2.431c-.229 1.105.422 1.31 1.311.812.886-.497 1.548-1.437 1.339-2.297zm-1.335 1.684c-.411.23-.821.262-.817-.136.005-.41.422-.852.835-1.083.407-.228.81-.25.806.165-.005.398-.415.825-.824 1.054zm-4.349-10.625l-.519-.274-1.646.96.52.274 1.645-.96zm-1.559-.826l-1.646.96.523.277 1.646-.96-.523-.277zm1.992 2.885l1.644-.958-.515-.274-1.647.958.518.274zm3.001 1.744l1.646-.96-.52-.273-1.645.959.519.274zm-6.029-5.177l-1.645.96.516.274 1.647-.959-.518-.275zm1.992 2.886l1.646-.96-.52-.274-1.645.959.519.275zm3.058 1.689l1.646-.959-.518-.274-1.646.96.518.273z"/></svg>