<svg xmlns="http://www.w3.org/2000/svg" width="24" height="24" viewBox="0 0 24 24"><path d="M13.673 18.837l-1.847 1.165c-.074-.721-.358-1.391-.826-1.948-.469-.557-6.115-7.376-7.523-9.178-.469-.601-.575-1.246-.295-1.817.268-.549.842-.918 1.43-.918.919 0 1.408.655 1.549 1.215.16.641-.035 1.231-.623 1.685l1.329 1.624 6.088-3.472 1.759 2.036c.564-.407 1.193-.73 1.872-.94-.729-.84-1.402-1.615-1.855-2.131 1.362-1.063 1.739-2.957.862-4.452-.618-1.053-1.759-1.706-2.978-1.706-1.188 0-.793-.016-9.565 4.475-1.234.591-2.05 1.787-2.05 3.202 0 .87.308 1.756.889 2.487 1.427 1.794 7.561 9.185 7.616 9.257.371.493.427 1.119.15 1.673-.277.555-.812.886-1.429.886-.919 0-1.408-.655-1.549-1.216-.156-.629.012-1.208.604-1.654l-1.277-1.545c-.822.665-1.277 1.496-1.377 2.442-.232 2.205 1.525 3.993 3.613 3.993.596 0 1.311-.177 1.841-.51l5.257-3.316c-.627-.351-1.188-.805-1.665-1.337zm-1.653-16.685c.188-.087.398-.134.609-.134.532 0 .997.281 1.243.752.312.596.226 1.469-.548 1.912l-5.097 2.888c-.051-1.089-.579-2.081-1.455-2.732l5.248-2.686zm10.98 12.348c0 2.485-2.017 4.5-4.5 4.5s-4.5-2.015-4.5-4.5 2.017-4.5 4.5-4.5 4.5 2.015 4.5 4.5zm-3.086-2.122l-1.414 1.414-1.414-1.414-.707.708 1.414 1.414-1.414 1.414.707.708 1.414-1.414 1.414 1.414.708-.708-1.414-1.414 1.414-1.414-.708-.708z"/></svg>