<svg xmlns="http://www.w3.org/2000/svg" width="24" height="24" viewBox="0 0 24 24"><path d="M21.169 19.754c.522-.79.831-1.735.831-2.754 0-2.761-2.238-5-5-5s-5 2.239-5 5 2.238 5 5 5c1.019 0 1.964-.309 2.755-.832l2.831 2.832 1.414-1.414-2.831-2.832zm-4.169.246c-1.654 0-3-1.346-3-3s1.346-3 3-3 3 1.346 3 3-1.346 3-3 3zm-4.89 2h-7.11l2.599-3h2.696c.345 1.152.976 2.18 1.815 3zm-2.11-5h-10v-17h22v12.11c-.574-.586-1.251-1.068-2-1.425v-8.685h-18v13h8.295c-.19.634-.295 1.305-.295 2zm-2.131-4.372l.945-5.759.965 4.145c.096.425.686.473.847.063l.895-2.328.479.974c.08.169.164.277.438.277h1.208v-.877h-.921l-.836-1.624c-.156-.364-.677-.356-.82.014l-.741 1.895-1.144-5.062c-.052-.232-.242-.346-.43-.346-.2 0-.4.127-.44.373l-.948 5.847-.969-3.6c-.109-.43-.715-.455-.853-.029l-.721 2.545h-.823v.864h1.172c.16 0 .334-.13.38-.284l.406-1.257 1.043 4.206c.117.468.791.437.868-.037z"/></svg>