<svg xmlns="http://www.w3.org/2000/svg" width="24" height="24" viewBox="0 0 24 24"><path d="M15.613 21.719c-1.443 1.409-3.424 2.281-5.613 2.281-4.421 0-8-3.547-8-7.925 0-4.376 3.13-8.878 8-16.075 2.473 3.653 4.493 6.61 5.887 9.211-.665.171-1.289.442-1.854.801-1.021-1.886-2.384-3.989-4.033-6.441-3.658 5.437-6 9.223-6 12.503 0 3.268 2.691 5.926 6 5.926 1.387 0 2.661-.471 3.678-1.254.581.424 1.231.759 1.935.973zm6.387-6.219c0 2.485-2.017 4.5-4.5 4.5s-4.5-2.015-4.5-4.5 2.017-4.5 4.5-4.5 4.5 2.015 4.5 4.5zm-2-.5h-2v-2h-1v2h-2v1h2v2h1v-2h2v-1z"/></svg>