<svg xmlns="http://www.w3.org/2000/svg" width="24" height="24" viewBox="0 0 24 24"><path d="M12 9c.552 0 1 .449 1 1s-.448 1-1 1-1-.449-1-1 .448-1 1-1zm0-2c-1.657 0-3 1.343-3 3s1.343 3 3 3 3-1.343 3-3-1.343-3-3-3zm-9 4c-1.657 0-3 1.343-3 3s1.343 3 3 3 3-1.343 3-3-1.343-3-3-3zm18 0c-1.657 0-3 1.343-3 3s1.343 3 3 3 3-1.343 3-3-1.343-3-3-3zm-9-6c.343 0 .677.035 1 .101v-3.101c0-.552-.447-1-1-1s-1 .448-1 1v3.101c.323-.066.657-.101 1-.101zm9 4c.343 0 .677.035 1 .101v-7.101c0-.552-.447-1-1-1s-1 .448-1 1v7.101c.323-.066.657-.101 1-.101zm0 10c-.343 0-.677-.035-1-.101v3.101c0 .552.447 1 1 1s1-.448 1-1v-3.101c-.323.066-.657.101-1 .101zm-18-10c.343 0 .677.035 1 .101v-7.101c0-.552-.447-1-1-1s-1 .448-1 1v7.101c.323-.066.657-.101 1-.101zm9 6c-.343 0-.677-.035-1-.101v7.101c0 .552.447 1 1 1s1-.448 1-1v-7.101c-.323.066-.657.101-1 .101zm-9 4c-.343 0-.677-.035-1-.101v3.101c0 .552.447 1 1 1s1-.448 1-1v-3.101c-.323.066-.657.101-1 .101z"/></svg>