<svg xmlns="http://www.w3.org/2000/svg" width="24" height="24" viewBox="0 0 24 24"><path d="M12 0c-6.627 0-12 5.373-12 12s5.373 12 12 12 12-5.373 12-12-5.373-12-12-12zm0 2c5.514 0 10 4.486 10 10 0 .685-.07 1.354-.201 2h-.973c-.975 0-1.129-.507-1.656-2.461-.381-1.414-1.014-3.551-2.408-3.551-1.42 0-1.969 2.215-2.48 4.006-.278.973-.446 1.561-.695 1.561-.24 0-.353-.588-.635-1.563-.528-1.822-1.132-4.003-2.541-4.003-1.463 0-2.088 2.387-2.507 3.908-.304 1.105-.399 1.659-.669 1.659-.229 0-.303-.449-.566-1.344-.602-2.04-.793-4.208-3.48-4.208h-.35c1.546-3.53 5.068-6.004 9.161-6.004zm0 20c-5.514 0-10-4.486-10-10 0-.685.07-1.354.201-2h1.073c.94 0 1.032.471 1.552 2.435.351 1.328.996 3.551 2.408 3.551 1.43 0 2.033-2.26 2.579-4.132.296-1.015.36-1.436.597-1.436.254 0 .328.467.618 1.491.524 1.851 1.13 4.076 2.558 4.076 1.28 0 1.892-1.836 2.336-3.311.508-1.686.582-2.312.84-2.312.264 0 .312.546.768 2.074.735 2.463 1.204 3.564 3.173 3.564h.456c-1.547 3.527-5.067 6-9.159 6z"/></svg>