<svg xmlns="http://www.w3.org/2000/svg" width="24" height="24" viewBox="0 0 24 24"><path d="M6.613 18.581m9.387-9.581c0 2.209-1.791 4-4 4s-4-1.791-4-4 1.791-4 4-4 4 1.791 4 4zm-2 0c0-1.103-.896-2-2-2s-2 .897-2 2 .896 2 2 2 2-.897 2-2zm-9 0c0 3.86 3.141 7 7 7s7-3.14 7-7-3.141-7-7-7-7 3.14-7 7zm16 0c0 4.97-4.029 9-9 9s-9-4.03-9-9 4.029-9 9-9 9 4.03 9 9zm-.404 12.501c1.007 1.142-.014 2.679-1.448 2.481-1.795-.245-3.236-1.702-7.147-1.702-3.91 0-5.352 1.458-7.146 1.702-1.436.198-2.456-1.34-1.449-2.481l2.898-3.289c.559.388 1.156.725 1.79.994l-2.025 2.298c1.295-.524 3.065-1.225 5.933-1.225s4.638.7 5.933 1.224l-2.025-2.298c.634-.27 1.231-.606 1.79-.994l2.896 3.29z"/></svg>