<svg xmlns="http://www.w3.org/2000/svg" width="24" height="24" viewBox="0 0 24 24"><path d="M4.264 17c.423-1.1 1.007-2.169 1.622-3.167l1.518.961-1.925-5.023-5.399.618 1.535.986c-.691 1.292-1.615 3.209-1.615 4.631 0 2.236 2.294 4.527 3.581 5.561.35.281.783.433 1.231.433h6.188v-5h-6.736zm-3.264-.994c0-.903.503-2.303 1.497-4.16l.415-.775 1.911-.219.662 1.728-.45.728c-1.047 1.697-2.285 4.083-2.285 6.051-.969-.875-1.75-2.349-1.75-3.353zm9 4.994h-5.453c-1.078 0-.885-2.006-.612-3h6.065v3zm9.743-4.037c-1.158.219-2.246.286-3.417.288v-1.796l-3.369 4.281 3.369 4.264v-1.824c1.462-.092 3.608-.316 4.817-1.064 1.901-1.178 2.641-4.334 2.842-5.973.055-.445-.044-.894-.28-1.275l-3.258-5.26-4.25 2.633 3.546 5.726zm.874 3.298c-.768.476-2.223.784-4.325.917l-.877.057-1.192-1.51 1.12-1.473h.856c1.995-.004 4.674-.208 6.348-1.244-.235 1.284-1.077 2.724-1.93 3.253zm-.494-10.281l2.871 4.635c.568.917-1.24 1.81-2.228 2.101l-3.193-5.156 2.55-1.58zm-8.22-6.227c.753.905 1.404 1.936 1.975 2.959l-1.578.857 5.325.766 2.089-5.017-1.608.86c-.793-1.232-2.017-2.973-3.259-3.666-.667-.371-1.47-.512-2.3-.512-1.598 0-3.294.524-4.301.933-.416.17-.759.473-.977.865l-3.014 5.404 4.368 2.436 3.28-5.885zm2.457-2.366c.789.44 1.765 1.561 2.904 3.333l.475.739-.739 1.776-1.83-.264-.417-.746c-.972-1.742-2.453-3.984-4.173-4.943 1.234-.42 2.902-.385 3.78.105zm-8.745 5.428l2.655-4.763c.525-.942 2.184.204 2.918.927l-2.952 5.297-2.621-1.461z"/></svg>