<svg xmlns="http://www.w3.org/2000/svg" width="24" height="24" viewBox="0 0 24 24"><path d="M12.031 0c-5.064 0-9.031 3.075-9.031 7v13.253c0 1.994 3 3.747 9.029 3.747 5.94 0 8.971-1.745 8.971-3.747v-13.253c0-3.925-3.939-7-8.969-7zm0 1c4.295 0 7.686 2.437 7.943 5.612-1.501-.958-4.505-1.612-7.974-1.612-3.467 0-6.472.654-7.975 1.612.261-3.175 3.678-5.612 8.006-5.612zm.047 8.781c-2.053 0-6.489-.39-6.489-1.391 0-1.01 3.986-1.39 6.489-1.39 2.568 0 6.512.39 6.512 1.391 0 1.01-4.41 1.39-6.512 1.39zm-.049 12.219c-5.397 0-6.966-1.481-7.029-1.747v-9.508c.3.152.632.294 1 .423v5.332c0 .829.672 1.5 1.5 1.5s1.5-.671 1.5-1.5v-1.5c0-.552.447-1 1-1s1 .448 1 1v3c0 .552.447 1 1 1s1-.448 1-1v-4c0-.552.447-1 1-1s1 .448 1 1v.5c0 .829.672 1.5 1.5 1.5s1.5-.671 1.5-1.5v-3.33c.369-.129.699-.272 1-.424l.002 9.5c-.066.273-1.627 1.754-6.973 1.754z"/></svg>