<svg xmlns="http://www.w3.org/2000/svg" width="24" height="24" viewBox="0 0 24 24"><path d="M20.715 24c-.864 0-1.711-.351-2.322-.962l-10.953-10.952c-.275-.274-.655-.432-1.044-.432l-.111.004c-1.681.129-3.373-.481-4.584-1.692-1.097-1.099-1.701-2.561-1.701-4.117 0-1.046.237-2.225.715-3.279l3.809 3.811c.436-.073.968-.393 1.405-.935.283-.35.427-.675.466-.91l-3.826-3.826c1.056-.476 2.219-.71 3.255-.71 1.533 0 3.043.601 4.143 1.702 1.208 1.209 1.823 2.88 1.69 4.584-.031.428.125.851.43 1.156l10.951 10.951c.62.621.962 1.446.962 2.322 0 1.811-1.474 3.285-3.285 3.285zm-14.319-14.343c.915 0 1.81.371 2.456 1.018l10.953 10.951c.239.24.571.377.909.377.71 0 1.288-.577 1.288-1.287 0-.344-.134-.667-.378-.911l-10.949-10.951c-.715-.716-1.083-1.707-1.009-2.718.088-1.127-.317-2.227-1.111-3.022-.493-.492-1.098-.833-1.758-1l1.49 1.491c.218 1.001.125 1.947-.804 3.097-1.002 1.243-2.292 1.932-3.88 1.586l-1.489-1.49c.167.66.508 1.266 1 1.759.796.794 1.893 1.2 3.017 1.11l.265-.01zm14.304 10.543c-.276 0-.5.224-.5.5s.224.5.5.5.5-.224.5-.5-.223-.5-.5-.5zm-11.32-3.346l-4.75 4.789c-.166.166-.437.166-.603 0-.165-.166-.166-.436 0-.602l4.751-4.789-.937-.936-4.743 4.781c-.165.168-.435.167-.601.001-.166-.167-.166-.436 0-.602l4.743-4.781-1.005-1.005-5.188 5.226-1.047 5.064 5.203-.912 5.187-5.225-1.01-1.009zm5.306-9.643l4.937-4.977c.167-.167.435-.167.603-.001.166.166.166.437 0 .603l-4.938 4.977.935.935 4.932-4.971c.165-.165.435-.165.601 0 .166.167.166.437.001.602l-4.933 4.971 1.012 1.012 6.164-6.21-4.152-4.152-6.164 6.209 1.002 1.002z"/></svg>