<svg xmlns="http://www.w3.org/2000/svg" width="24" height="24" viewBox="0 0 24 24"><path d="M13.623 5.431l-4.93 3.42c-1.361.945-1.698 2.814-.754 4.175l5.131 7.394c1.165 1.68 3.034 2.58 4.935 2.58 3.264 0 5.995-2.643 5.995-6.006 0-1.18-.347-2.373-1.071-3.416l-5.131-7.394c-.945-1.36-2.814-1.698-4.175-.753zm.855 1.232c.68-.472 1.615-.302 2.088.377l1.282 1.849-3.081 2.138-2.137-3.082 1.848-1.282zm-4.93 3.42l1.85-1.283 2.137 3.081-3.08 2.138-1.283-1.849c-.472-.678-.303-1.615.376-2.087zm11.018 10.613c-2.039 1.415-4.849.908-6.264-1.131l-2.992-4.313 7.394-5.131 2.993 4.313c1.414 2.039.907 4.848-1.131 6.262zm-14.957-11.365c.353-1.73-.451-2.938-1.033-4.231-1.025-2.284 1.564-3.706 3.041-1.643l2.067 2.879 1.191-.836-2.073-2.892c-.802-1.119-1.896-1.608-2.941-1.608-2.114 0-3.592 2.2-2.665 4.565.478 1.218 1.282 2.019.985 3.474-.247 1.207-1.803 2.077-3.367 1.023l-.814 1.209c2.463 1.658 5.165.238 5.609-1.94z"/></svg>