<svg xmlns="http://www.w3.org/2000/svg" width="24" height="24" viewBox="0 0 24 24"><path d="M20.587 7.574c-.578.593-.571 1.542.021 2.123l-1.05 1.071-5.355-5.252 1.053-1.071c.588.58 1.541.57 2.119-.021l2.756-2.748c.44-.45 1.022-.676 1.605-.676 1.261 0 2.264 1.031 2.264 2.248 0 .598-.241 1.153-.656 1.58l-2.757 2.746zm-4.222 2.165l1.073 1.049-6.053 5.946c-1.031 1.051-1.675.16-3.019 1.098-.181.125-.372.175-.553.167-.449-.021-.836-.407-.813-.902.008-.162.062-.338.169-.515.796-1.309-.003-1.975 1.002-2.997l6.052-5.948 1.071 1.05-3.38 3.313h2.144l2.307-2.261zm-7.371 6.197l.006-.001v-.025l-.006.026zm7.006-.841v5.905h-14v-12h7.952l2.017-2h-11.969v16h18v-9.938l-2 2.033z"/></svg>