<svg xmlns="http://www.w3.org/2000/svg" width="24" height="24" viewBox="0 0 24 24"><path d="M24 11.936c0-1-.986-6.373-1.486-8.25-.714-2.689-2.471-3.686-5.009-3.686-2.283 0-4.079.617-5.336 1.158-2.05.883-3.791 1.519-6.169 1.746v-.904h-6v12h6v-.73c2.454.585 4.852 2.066 6.4 7.402.483 1.66.972 3.328 2.833 3.328 3.448 0 3.005-5.531 2.196-8.814 1.106-.466 2.767-.692 3.977-.744 1.426-.06 2.594-.858 2.594-2.506zm-20 .064h-2v-8h2v8zm15.755-1.302l1.394.167c1.075.129 1.105 1.525.051 1.584-2.749.154-5.06 1.013-6.12 1.556.43 1.748.92 3.463.92 5.534 0 2.505-.781 3.666-1.679.574-1.993-6.859-5.057-8.364-8.321-9.113v-6c2.521-.072 4.72-1.041 6.959-2.005 1.731-.745 4.849-1.495 6.416-.614 1.295.836 1.114 1.734.292 1.661l-.771-.032c-.815-.094-.92 1.068-.109 1.141 0 0 1.321.062 1.745.115.976.123 1.028 1.607-.04 1.551-.457-.024-1.143-.041-1.143-.041-.797-.031-.875 1.078-.141 1.172 0 0 .714.005 1.761.099s1.078 1.609-.004 1.563c-.868-.037-1.069-.027-1.069-.027-.75.005-.875 1.028-.141 1.115z"/></svg>