<svg xmlns="http://www.w3.org/2000/svg" width="24" height="24" viewBox="0 0 24 24"><path d="M12.967 21.893c-.703.07-1.377.107-1.959.107-3.412 0-8.008-1.002-8.008-2.614v-2.04c2.117 1.342 5.17 1.78 8.008 1.78.339 0 .681-.007 1.022-.021-.06-.644-.036-1.28.129-2.019-.408.026-.797.04-1.151.04-3.412 0-8.008-1.001-8.008-2.613v-2.364c2.116 1.341 5.17 1.78 8.008 1.78 1.021 0 2.068-.06 3.089-.196 1.91-1.766 4.603-2.193 6.903-1.231v-8.14c0-3.362-5.965-4.362-9.992-4.362-4.225 0-10.008 1.001-10.008 4.361v15.277c0 3.362 6.209 4.362 10.008 4.362 1.081 0 2.359-.086 3.635-.281-.669-.495-1.239-1.115-1.676-1.826zm-1.959-19.893c3.638 0 7.992.909 7.992 2.361 0 1.581-5.104 2.361-7.992 2.361-3.412.001-8.008-.905-8.008-2.361 0-1.584 4.812-2.361 8.008-2.361zm-8.008 4.943c2.117 1.342 5.17 1.78 8.008 1.78 2.829 0 5.876-.438 7.992-1.78v2.372c0 1.753-5.131 2.614-7.992 2.614-3.426-.001-8.008-1.007-8.008-2.615v-2.371zm15.5 7.057c-2.483 0-4.5 2.015-4.5 4.5s2.017 4.5 4.5 4.5 4.5-2.015 4.5-4.5-2.017-4.5-4.5-4.5zm2.5 5h-2v2h-1v-2h-2v-1h2v-2h1v2h2v1z"/></svg>