<svg xmlns="http://www.w3.org/2000/svg" width="24" height="24" viewBox="0 0 24 24"><path d="M12.004 6c-4.226 0-10.004.953-10.004 4.15v4.701c0 3.197 6.204 4.149 10.004 4.149 3.785 0 9.996-.952 9.996-4.149v-4.701c0-3.198-5.967-4.15-9.996-4.15zm0 1.903c3.64 0 7.995.865 7.995 2.247 0 1.505-5.106 2.247-7.995 2.247-3.414 0-8.011-.861-8.011-2.247 0-1.507 4.814-2.247 8.011-2.247zm7.995 6.707c0 1.666-5.106 2.487-7.995 2.487-3.414 0-8.011-.954-8.011-2.487v-1.94c2.118 1.276 5.172 1.694 8.011 1.694 2.83 0 5.878-.418 7.995-1.694v1.94z"/></svg>