<svg xmlns="http://www.w3.org/2000/svg" width="24" height="24" viewBox="0 0 24 24"><path d="M9.408 9.14c-.036 1.615 4.452 1.618 4.397 0v-.957c-.131-1.527-4.271-1.536-4.384-.001h-.013v.958zm2.212-1.381c.764 0 1.385.256 1.385.57s-.621.57-1.385.57-1.385-.256-1.385-.57.621-.57 1.385-.57zm6.785-1.051v-.957c-.132-1.527-4.271-1.536-4.384-.001h-.014v.958c-.035 1.616 4.453 1.619 4.398 0zm-3.57-.81c0-.314.621-.57 1.385-.57s1.385.256 1.385.57c0 .314-.621.57-1.385.57s-1.385-.256-1.385-.57zm8.165.244v12.185l-11 5.673v-12.14l9.864-5.19-10.367-5.517-10.331 5.453 9.834 5.23v12.164l-11-5.674v-12.248l.009.005-.009-.019 11.5-6.064 11.5 6.142zm-18.188-.392h-.014v.958c-.036 1.615 4.451 1.618 4.397 0v-.957c-.131-1.527-4.271-1.535-4.383-.001zm3.583.147c0 .314-.621.571-1.385.571-.765 0-1.385-.256-1.385-.571 0-.314.62-.57 1.385-.57.763 0 1.385.256 1.385.57zm5.411-1.491v-.957c-.132-1.528-4.271-1.536-4.384-.001h-.014v.958c-.036 1.615 4.453 1.618 4.398 0zm-2.185-1.381c.763 0 1.385.256 1.385.57s-.622.571-1.385.571c-.765 0-1.385-.256-1.385-.571s.62-.57 1.385-.57z"/></svg>