<svg xmlns="http://www.w3.org/2000/svg" width="24" height="24" viewBox="0 0 24 24"><path d="M12 0l-11 6v12.131l11 5.869 11-5.869v-12.066l-11-6.065zm-9 11.74l2 1.057v2.066l-2-1.056v-2.067zm9.005-.876l-2.065-1.127 1.778-.988 2.082 1.157-1.795.958zm.995 1.736l2-1.067v2.279l-2 1.056v-2.268zm1.852-3.255l-2.104-1.168 1.884-1.047 2.144 1.188-1.924 1.027zm-2.099-4.4l2.029-1.127 1.884 1.039-2.034 1.13-1.879-1.042zm.849 1.614l-1.883 1.046-1.877-1.043 1.881-1.045 1.879 1.042zm-4.79-.569l-1.791-.995 1.895-1.033 1.776.985-1.88 1.043zm1.877 2.187l-1.789.993-1.893-1.032 1.806-1.003 1.876 1.042zm-4.689 5.148l2 1.056v2.066l-2-1.056v-2.066zm2 4.253v2.021l-2-1.067v-2.011l2 1.057zm-2-5.384v-2.328l2 1.091v2.294l-2-1.057zm5 .399v2.242l-2-1.056v-2.276l2 1.09zm-2 2.316l2 1.056v2.066l-2-1.056v-2.066zm4 1.09l2-1.056v2.066l-2 1.056v-2.066zm5 .556v1.978l-2 1.067v-1.988l2-1.057zm-2-.075v-2.066l2-1.056v2.066l-2 1.056zm0-3.196v-2.284l2-1.068v2.295l-2 1.057zm3-.454l2-1.056v2.066l-2 1.056v-2.066zm2-2.187l-2 1.056v-2.301l2-1.067v2.312zm-3.174-2.885l-2.164-1.2 2.019-1.121-.017-.03 2.246 1.239-2.084 1.112zm-4.078-4.51l-2.026 1.126-1.768-.979 2.041-1.113 1.753.966zm-7.767 2.314l1.802 1.001-1.815 1.008-1.835-1.001 1.848-1.008zm-.981 3.759v2.346l-2-1.057v-2.38l2 1.091zm-2 5.616l2 1.056v2.005l-2-1.067v-1.994zm6 5.196v-2.027l2 1.056v2.038l-2-1.067zm4-.938l2-1.056v1.994l-2 1.067v-2.005zm6-1.196v-1.972l2-1.056v1.961l-2 1.067z"/></svg>