<svg xmlns="http://www.w3.org/2000/svg" width="24" height="24" viewBox="0 0 24 24"><path d="M8.564 15.75c2.171 2.49 2.917 4.367 3.316 6.181l-3.859 2.069c-.595-2.949-2.312-5.035-3.564-6.271l-.914.432c-1.85.886-3.543-1.44-3.543-1.44l2.912-1.394c-.549-.801-.839-1.93-.838-2.884h4.743c.039.295.115.595.231.9l1.716-.82 3.265 1.575-3.465 1.652zm15.436 1.408c0 2.907-3.216 4.705-6.108 3.31-1.943-.938-2.953-2.99-2.499-4.837.26-1.054-.296-1.196-1.145-1.606l-14.188-6.843s1.7-2.322 3.546-1.432l.894.431c1.335-1.554 3.084-4.116 3.5-6.181l3.877 2.065c-.586 2.312-2.083 4.363-3.499 5.983 1.535.74 3.24 1.562 4.84 2.337l.986-.473c.849-.408 1.406-.549 1.149-1.604-.451-1.848.565-3.899 2.51-4.831 2.897-1.389 6.1.42 6.1 3.315 0 1.577-.986 3.146-2.613 3.96-1.625.813-2.765.18-4.379.962l-.505.244.553.269c1.612.786 2.753.155 4.377.973 1.623.819 2.604 2.385 2.604 3.958zm-6.599-8.984c.489 1.019 1.876 1.374 3.093.791 1.217-.583 1.809-1.887 1.32-2.906-.488-1.019-1.875-1.374-3.092-.791s-1.809 1.886-1.321 2.906zm-3.656 3.613c0-.407-.33-.737-.736-.737-.407 0-.738.33-.738.737s.331.736.738.736c.406 0 .736-.329.736-.736zm6.79 3.202c-1.215-.586-2.604-.235-3.094.783-.492 1.018.098 2.324 1.312 2.909 1.216.586 2.603.235 3.095-.783.49-1.019-.098-2.323-1.313-2.909z"/></svg>