<svg width="24" height="24" xmlns="http://www.w3.org/2000/svg" fill-rule="evenodd" clip-rule="evenodd"><path d="M14.139 2.63l3.068-1.441.786 3.297 3.39.032-.722 3.312 3.038 1.5-2.087 2.671 2.087 2.67-3.038 1.499.722 3.312-3.39.033-.786 3.296-3.068-1.441-2.139 2.63-2.138-2.63-3.068 1.441-.787-3.296-3.389-.033.722-3.312-3.039-1.499 2.088-2.67-2.088-2.671 3.039-1.5-.722-3.312 3.389-.032.787-3.297 3.068 1.441 2.138-2.63 2.139 2.63zm-3.742 2.342l-2.303-1.081-.59 2.474-2.542.024.542 2.483-2.279 1.125 1.566 2.004-1.566 2.002 2.279 1.124-.542 2.485 2.542.025.59 2.472 2.303-1.081 1.603 1.972 1.604-1.972 2.301 1.081.59-2.472 2.543-.025-.542-2.485 2.279-1.124-1.565-2.002 1.565-2.004-2.279-1.125.542-2.483-2.543-.024-.59-2.474-2.301 1.081-1.604-1.972-1.603 1.972zm1.603 9.528c.69 0 1.25.56 1.25 1.25s-.56 1.25-1.25 1.25-1.25-.56-1.25-1.25.56-1.25 1.25-1.25zm1-.947h-2v-6.553h2v6.553z"/></svg>