<svg xmlns="http://www.w3.org/2000/svg" width="24" height="24" viewBox="0 0 24 24"><path d="M15.82 10.736l-5.451 6.717c-.561.691-1.214 1.042-1.94 1.042-1.144 0-2.327-.899-2.753-2.091-.214-.6-.386-1.76.865-2.784 3.417-2.794 6.716-5.446 6.716-5.446l-3.363-4.174s-4.532 3.657-6.771 5.487c-2.581 2.108-3.123 4.468-3.123 6.075 0 4.416 4.014 8.438 8.42 8.438 1.604 0 3.963-.543 6.084-3.128 1.835-2.237 5.496-6.773 5.496-6.773l-4.18-3.363zm-2.604 9.079c-1.353 1.647-3.01 2.519-4.796 2.519-3.471 0-6.753-3.291-6.753-6.771 0-1.789.867-3.443 2.51-4.785 1.206-.986 2.885-2.348 4.18-3.398l1.247 1.599c-1.074.87-2.507 2.033-4.118 3.352-1.471 1.202-1.987 2.935-1.38 4.634.661 1.853 2.479 3.197 4.322 3.197h.001c.86 0 2.122-.288 3.233-1.658l3.355-4.134 1.572 1.294c-1.044 1.291-2.392 2.954-3.373 4.151zm3.912-10.815c-.015-.516-.223-1.173-.589-1.54s-1.023-.573-1.539-.588v-1.416c.895.015 1.907.37 2.54 1.003.634.634.989 1.647 1.004 2.541h-1.416zm2.726 0c-.015-1.244-.506-2.586-1.387-3.467-.881-.881-2.223-1.372-3.467-1.387v-1.443c1.629.015 3.334.656 4.487 1.81 1.153 1.153 1.795 2.858 1.81 4.487h-1.443zm2.744 0c-.016-1.977-.792-4.008-2.191-5.407s-3.43-2.176-5.407-2.191v-1.402c2.352.015 4.734.938 6.398 2.602s2.586 4.047 2.602 6.398h-1.402z"/></svg>