<svg xmlns="http://www.w3.org/2000/svg" width="24" height="24" viewBox="0 0 24 24"><path d="M19.647 15.247c-1.278 0-2.429.551-3.225 1.429l-7.788-3.846c.062-.343.079-.64.067-.942l8.058-4.231c.769.682 1.78 1.097 2.889 1.097 2.404-.001 4.352-1.949 4.352-4.353s-1.948-4.353-4.353-4.353-4.353 1.949-4.353 4.353c0 .18.012.356.033.53l-7.828 4.111c-.793-.829-1.908-1.347-3.146-1.347-2.405 0-4.353 1.949-4.353 4.353s1.948 4.353 4.353 4.353c1.013 0 1.943-.347 2.684-.927l8.26 4.078-.001.047c0 2.404 1.948 4.353 4.353 4.353s4.351-1.949 4.351-4.353-1.948-4.352-4.353-4.352z"/></svg>