<svg xmlns="http://www.w3.org/2000/svg" width="24" height="24" viewBox="0 0 24 24"><path d="M7.074 1.408c0-.778.641-1.408 1.431-1.408.942 0 1.626.883 1.38 1.776-.092.336-.042.695.139.995.4.664 1.084 1.073 1.977 1.078.881-.004 1.572-.408 1.977-1.078.181-.299.23-.658.139-.995-.248-.892.434-1.776 1.378-1.776.79 0 1.431.63 1.431 1.408 0 .675-.482 1.234-1.117 1.375-.322.071-.6.269-.77.548-.613 1.017.193 1.917.931 2.823-1.211.562-2.525.846-3.97.846-1.468 0-2.771-.277-3.975-.84.748-.92 1.555-1.803.936-2.83-.17-.279-.447-.477-.77-.548-.634-.14-1.117-.699-1.117-1.374zm12.207 15.18c-.104.645.27 1.162.764 1.383l2.42 1.078c.531.236.766.851.526 1.373-.241.524-.866.752-1.395.518l-2.561-1.14c-.341-.152-.706-.062-.964.364-1.063 1.76-3.138 3.509-6.071 3.836-2.991-.333-5.091-2.146-6.135-3.943-.2-.342-.564-.409-.901-.259l-2.561 1.14c-.534.237-1.155.002-1.395-.518-.239-.522-.005-1.137.526-1.373l2.42-1.078c.523-.233.863-.734.751-1.462-.106-.685-.692-1.057-1.265-1.057h-2.385c-.583.002-1.055-.462-1.055-1.035s.472-1.037 1.055-1.037h2.402c.552 0 1.129-.353 1.234-1.111.082-.58-.277-1.082-.773-1.274l-2.23-.866c-.542-.21-.808-.813-.594-1.346.212-.53.822-.796 1.367-.584.231.09 2.332.944 2.572.944.242 0 .502-.125.663-.491.181-.408.384-.787.601-1.146 1.709.998 3.59 1.496 5.703 1.496 2.08 0 3.986-.51 5.699-1.502.225.372.436.765.62 1.188.14.319.394.454.648.454.39 0 2.462-1.016 2.958-1.016.42 0 .817.249.98.657.214.533-.053 1.135-.594 1.346l-2.23.866c-.479.186-.857.655-.766 1.333.09.659.652 1.052 1.227 1.052h2.402c.583 0 1.055.464 1.055 1.037s-.472 1.037-1.055 1.037h-2.387c-.557 0-1.146.332-1.276 1.136zm-8.281 5.167v-10.798c-1.356-.093-2.652-.368-3.872-.839-1.247 2.763-1.274 10.056 3.872 11.637zm5.859-11.642c-1.224.473-2.516.749-3.859.843v10.799c5.093-1.564 5.152-8.716 3.859-11.642z"/></svg>