<svg xmlns="http://www.w3.org/2000/svg" width="24" height="24" viewBox="0 0 24 24"><path d="M22 4v16h-20v-16h20zm2-2h-24v20h24v-20zm-5 13.092v-6.184c.581-.207 1-.756 1-1.408 0-.828-.672-1.5-1.5-1.5-.652 0-1.201.419-1.408 1h-10.184c-.207-.581-.756-1-1.408-1-.828 0-1.5.672-1.5 1.5 0 .652.419 1.201 1 1.408v6.184c-.581.207-1 .756-1 1.408 0 .828.672 1.5 1.5 1.5.652 0 1.201-.419 1.408-1h10.184c.207.581.756 1 1.408 1 .828 0 1.5-.672 1.5-1.5 0-.652-.419-1.201-1-1.408zm-1.908.908h-10.184c-.15-.424-.484-.757-.908-.908v-6.184c.424-.151.757-.484.908-.908h10.184c.151.424.484.757.908.908v6.184c-.424.151-.758.484-.908.908zm-9.092-6c0-.552.448-1 1-1s1 .448 1 1-.448 1-1 1-1-.448-1-1zm8 5l-2.75-5-1.891 2.984-1.359-1.312-2 3.328h8z"/></svg>