<svg xmlns="http://www.w3.org/2000/svg" width="24" height="24" viewBox="0 0 24 24"><path d="M14.852 6h-.004c.485-.627 1.072-1.547 1.072-2.744 0-1.572-1.499-3.256-3.731-3.256-2.23 0-3.729 1.684-3.729 3.256 0 1.195.587 2.117 1.072 2.744h-6.531999999999999v6.528c0 .974.438 1.736 1.172 2.04.709.293 1.547.078 2.186-.562 1.246-1.298 2.642-.131 2.642 1.183 0 1.29-1.396 2.484-2.644 1.184-.638-.639-1.476-.854-2.185-.561-.733.303-1.171 1.066-1.171 2.04v6.148h18v-18h-6.148zm-9.852 16v-4.151999999999999c.627.485 1.547 1.072 2.744 1.072 1.572 0 3.256-1.499 3.256-3.73 0-2.23-1.684-3.729-3.256-3.729-1.195 0-2.117.587-2.744 1.072v-4.5329999999999995h4.528c.974 0 1.736-.438 2.04-1.171.293-.71.078-1.548-.562-2.187-1.298-1.245-.131-2.642 1.183-2.642 1.29 0 2.484 1.397 1.184 2.644-.639.638-.854 1.476-.561 2.185.303.733 1.066 1.171 2.04 1.171h4.148v14h-14z"/></svg>