<svg xmlns="http://www.w3.org/2000/svg" width="24" height="24" viewBox="0 0 24 24"><path d="M6 22l6-8h-4v-12h-4v12h-4l6 8zm13.936-6.323c.929-.998 3.024-1.006 3.737.691.212.503.319 1.217.327 1.944.008.774-.098 1.563-.313 2.129-.398 1.04-1.125 1.559-2.186 1.559-1.005 0-1.938-.605-2.056-1.758h1.32c.062.392.339.67.795.67.904 0 1.06-1.002 1.104-1.893-.63.79-1.915.743-2.73.016-.869-.774-.807-2.488.002-3.358zm2.23 2.677c.599-.383.547-1.452.184-1.907-.336-.42-.963-.421-1.314-.144-.512.399-.466 1.505-.137 1.909.269.331.866.404 1.267.142zm-4.166-12.879v-1.498c.565-.025 3.163.046 3.163-1.977h1.837v11h-2.255v-7.525h-2.745z"/></svg>