<svg width="24" height="24" xmlns="http://www.w3.org/2000/svg" fill-rule="evenodd" clip-rule="evenodd"><path d="M5.829 6c-.412 1.165-1.524 2-2.829 2-1.656 0-3-1.344-3-3s1.344-3 3-3c1.305 0 2.417.835 2.829 2h13.671c2.484 0 4.5 2.016 4.5 4.5s-2.016 4.5-4.5 4.5h-4.671c-.412 1.165-1.524 2-2.829 2-1.305 0-2.417-.835-2.829-2h-4.671c-1.38 0-2.5 1.12-2.5 2.5s1.12 2.5 2.5 2.5h13.671c.412-1.165 1.524-2 2.829-2 1.656 0 3 1.344 3 3s-1.344 3-3 3c-1.305 0-2.417-.835-2.829-2h-13.671c-2.484 0-4.5-2.016-4.5-4.5s2.016-4.5 4.5-4.5h4.671c.412-1.165 1.524-2 2.829-2 1.305 0 2.417.835 2.829 2h4.671c1.38 0 2.5-1.12 2.5-2.5s-1.12-2.5-2.5-2.5h-13.671zm6.171 5c.552 0 1 .448 1 1s-.448 1-1 1-1-.448-1-1 .448-1 1-1z"/></svg>