<svg xmlns="http://www.w3.org/2000/svg" width="24" height="24" viewBox="0 0 24 24"><path d="M11.826 20.002c-.074-.721-.358-1.391-.826-1.948s-6.114-7.376-7.523-9.178c-.47-.601-.575-1.246-.296-1.817.268-.549.842-.918 1.431-.918.918 0 1.408.655 1.548 1.215.161.641-.035 1.231-.623 1.685l1.329 1.624 6.088-3.472 1.759 2.036c.564-.407 1.193-.73 1.872-.94-.729-.84-1.402-1.615-1.855-2.131 1.362-1.063 1.739-2.957.862-4.452-.617-1.053-1.758-1.706-2.977-1.706-1.187 0-.792-.016-9.565 4.475-1.233.591-2.05 1.787-2.05 3.202 0 .87.308 1.756.889 2.487 1.426 1.794 7.56 9.185 7.616 9.257.371.493.427 1.119.15 1.673-.277.555-.812.886-1.429.886-.919 0-1.409-.655-1.549-1.216-.157-.629.011-1.208.604-1.654l-1.277-1.545c-.823.665-1.278 1.496-1.377 2.442-.233 2.205 1.525 3.993 3.614 3.993.595 0 1.311-.177 1.84-.51l5.257-3.316c-.627-.351-1.188-.805-1.665-1.336l-1.847 1.164zm.194-17.85c.188-.087.398-.134.609-.134.532 0 .997.281 1.243.752.312.596.226 1.469-.548 1.912l-5.098 2.888c-.05-1.089-.578-2.081-1.454-2.732l5.248-2.686zm6.48 7.848c-2.485 0-4.5 2.015-4.5 4.5s2.015 4.5 4.5 4.5c2.484 0 4.5-2.015 4.5-4.5s-2.016-4.5-4.5-4.5zm2.5 5h-2v2h-1v-2h-2v-1h2v-2h1v2h2v1z"/></svg>