<svg xmlns="http://www.w3.org/2000/svg" width="24" height="24" viewBox="0 0 24 24"><path d="M4.743 7.161l-1.934-1.936 1.412-1.414 1.934 1.936c-.52.42-.993.894-1.412 1.414zm-2.062 5.839c0-.338.018-.671.053-.999h-2.734v1.998h2.734c-.035-.328-.053-.661-.053-.999zm9.319-9.316c.337 0 .67.019.999.053v-2.737h-1.997v2.737c.328-.035.661-.053.998-.053zm7.257 3.477l1.934-1.936-1.412-1.414-1.934 1.936c.52.42.993.894 1.412 1.414zm2.009 4.84c.035.328.054.661.054.999s-.019.671-.054.999h2.734v-1.998h-2.734zm-16.523 6.861l-1.75 1.724 1.411 1.414 1.75-1.724c-.519-.42-.992-.894-1.411-1.414zm13.102 1.414l1.769 1.724 1.412-1.414-1.769-1.724c-.419.52-.892.994-1.412 1.414zm-9.359-15.929c.202-.082.405-.156.61-.223l-.648-1.569-1.318.547.649 1.568c.23-.117.466-.225.707-.323zm6.476-.203l.659-1.564 1.314.555-.659 1.564c-.248-.127-.502-.245-.763-.351-.181-.075-.366-.142-.551-.204zm5.371 4.643l1.567-.649.546 1.318-1.568.649c-.067-.206-.141-.409-.223-.611-.097-.241-.205-.477-.322-.707zm-16.666 8.45l-1.567.649-.546-1.319 1.568-.65c.067.206.141.41.223.612.097.241.205.476.322.708zm18.755-.601l-.555 1.315-1.562-.659c.127-.248.245-.502.35-.763l.204-.553 1.563.66zm-19.281-6.589l-1.563-.66.555-1.315 1.562.66c-.128.247-.245.502-.351.762l-.203.553zm8.859-4.366c-4.036 0-7.319 3.283-7.319 7.319s3.283 7.319 7.319 7.319 7.319-3.283 7.319-7.319-3.283-7.319-7.319-7.319zm0 12.638c-2.933 0-5.319-2.386-5.319-5.319 0-1.062.32-2.047.858-2.878l2.185 2.185 1.414-1.414-2.215-2.216c.87-.621 1.928-.996 3.077-.996 2.933 0 5.319 2.386 5.319 5.319s-2.386 5.319-5.319 5.319z"/></svg>