<svg width="24" height="24" xmlns="http://www.w3.org/2000/svg" xmlns:serif="http://www.serif.com/" fill-rule="evenodd" clip-rule="evenodd"><path serif:id="shape 18" d="M12 23.999h-12l6.871.001 5.129-.001m12 0h-12l5.12.001 6.88-.001m-12-24c-8.635.006-12.032 3.352-12 12-.032 8.647 3.365 11.993 12 12 8.635-.007 12.032-3.353 12-12 .032-8.648-3.365-11.994-12-12m-5.129-.001l-6.871.001h12l-5.129-.001m10.249 0l-5.12.001h12l-6.88-.001m-5.12 2.001c3.873.003 6.368.699 7.853 2.19 1.479 1.486 2.162 3.965 2.147 7.817.015 3.837-.668 6.316-2.147 7.802-1.485 1.492-3.981 2.188-7.852 2.191-3.873-.003-6.369-.699-7.854-2.191-1.479-1.486-2.161-3.965-2.147-7.817-.014-3.837.668-6.316 2.147-7.802 1.485-1.491 3.98-2.187 7.853-2.19"/></svg>