<svg xmlns="http://www.w3.org/2000/svg" width="24" height="24" viewBox="0 0 24 24"><path d="M20.021 12.593c-.141-.427-.314-.844-.516-1.242l-2.454 1.106c.217.394.39.81.517 1.242l2.453-1.106zm-12.573-.903c.271-.354.58-.675.919-.957l-1.89-1.969c-.328.294-.637.615-.918.957l1.889 1.969zm1.715-1.515c.379-.221.781-.396 1.198-.523l-1.034-2.569c-.41.142-.812.318-1.198.524l1.034 2.568zm-2.759 3.616c.121-.435.288-.854.498-1.25l-2.469-1.066c-.197.403-.364.822-.498 1.25l2.469 1.066zm9.434-6.2c-.387-.205-.79-.379-1.2-.519l-1.024 2.573c.417.125.82.299 1.2.519l1.024-2.573zm2.601 2.13c-.282-.342-.59-.663-.918-.957l-1.89 1.969c.339.282.647.604.918.957l1.89-1.969zm-5.791-3.059c-.219-.018-.437-.026-.649-.026s-.431.009-.65.026v2.784c.216-.025.434-.038.65-.038.216 0 .434.012.649.038v-2.784zm-.648 14.338c-1.294 0-2.343-1.049-2.343-2.343 0-.883.489-1.652 1.21-2.051l1.133-5.606 1.133 5.605c.722.399 1.21 1.168 1.21 2.051 0 1.295-1.049 2.344-2.343 2.344zm12-6c0 2.184-.586 4.233-1.61 5.999l-1.736-1.003c.851-1.471 1.346-3.174 1.346-4.996 0-5.523-4.477-10-10-10s-10 4.477-10 10c0 1.822.495 3.525 1.346 4.996l-1.736 1.003c-1.024-1.766-1.61-3.815-1.61-5.999 0-6.617 5.383-12 12-12s12 5.383 12 12z"/></svg>