<svg xmlns="http://www.w3.org/2000/svg" width="24" height="24" viewBox="0 0 24 24"><path d="M22 11v10h-20v-10h20zm2-2h-24v14h24v-14zm-18 3h-3v2h3v-2zm3 0h-2v2h2v-2zm3 0h-2v2h2v-2zm3 0h-2v2h2v-2zm3 0h-2v2h2v-2zm3 0h-2v2h2v-2zm-4 6h-10v2h10v-2zm4-3h-4v2h4v-2zm-14 0h-4v2h4v-2zm3 0h-2v2h2v-2zm3 0h-2v2h2v-2zm3 0h-2v2h2v-2zm-4.357-9.812c-1.037-.043-2.293-.086-3.049-1.027-.393-.489-.594-1.136-.594-1.847 0-.422.071-.867.217-1.314l1.206.363c-.205.634-.269 1.506.172 2.054.45.56 1.392.512 2.376.584 2.135.156 3.03 1.423 3.03 2.678 0 .461-.121.92-.345 1.321h-1.569c1.016-.804 1.059-2.706-1.444-2.812z"/></svg>