<svg xmlns="http://www.w3.org/2000/svg" width="24" height="24" viewBox="0 0 24 24"><path d="M4.411 14.836l1.078-6.565 1.1 4.726c.109.484.782.539.965.072l.997-2.548.573 1.165s.187.314.498.314h1.378v-1h-1.05l-.956-2.012c-.179-.415-.771-.406-.936.016l-.845 2.16-1.303-5.769c-.059-.265-.275-.395-.49-.395-.229 0-.457.145-.502.425l-1.081 6.665-1.105-4.104c-.123-.49-.814-.519-.972-.032l-.821 3.046h-.939v.984h1.337c.183 0 .381-.147.433-.323l.466-1.506 1.187 4.723c.133.533.9.498.988-.042zm19.589 2.75l-2.831-2.832c.522-.79.831-1.735.831-2.754 0-2.761-2.238-5-5-5s-5 2.239-5 5 2.238 5 5 5c1.019 0 1.964-.309 2.755-.832l2.831 2.832 1.414-1.414zm-10-5.586c0-1.654 1.346-3 3-3s3 1.346 3 3-1.346 3-3 3-3-1.346-3-3z"/></svg>