<?xml version="1.0" encoding="UTF-8" standalone="no"?>
<svg
   xmlns:dc="http://purl.org/dc/elements/1.1/"
   xmlns:cc="http://creativecommons.org/ns#"
   xmlns:rdf="http://www.w3.org/1999/02/22-rdf-syntax-ns#"
   xmlns:svg="http://www.w3.org/2000/svg"
   xmlns="http://www.w3.org/2000/svg"
   xmlns:sodipodi="http://sodipodi.sourceforge.net/DTD/sodipodi-0.dtd"
   xmlns:inkscape="http://www.inkscape.org/namespaces/inkscape"
   style="enable-background:new 0 0 32 24"
   xml:space="preserve"
   height="24px"
   width="32px"
   version="1.1"
   y="0px"
   x="0px"
   viewBox="0 0 32 24"
   id="svg8"
   sodipodi:docname="loop_alt4.svg"
   inkscape:version="0.92.4 (5da689c313, 2019-01-14)"><metadata
   id="metadata14"><rdf:RDF><cc:Work
       rdf:about=""><dc:format>image/svg+xml</dc:format><dc:type
         rdf:resource="http://purl.org/dc/dcmitype/StillImage" /></cc:Work></rdf:RDF></metadata><defs
   id="defs12" /><sodipodi:namedview
   pagecolor="#ffffff"
   bordercolor="#666666"
   borderopacity="1"
   objecttolerance="10"
   gridtolerance="10"
   guidetolerance="10"
   inkscape:pageopacity="0"
   inkscape:pageshadow="2"
   inkscape:window-width="2267"
   inkscape:window-height="1728"
   id="namedview10"
   showgrid="false"
   inkscape:zoom="9.8333333"
   inkscape:cx="61.91036"
   inkscape:cy="-14.74872"
   inkscape:window-x="1367"
   inkscape:window-y="154"
   inkscape:window-maximized="0"
   inkscape:current-layer="g6" />
	<g
   fill="#010101"
   id="g6">
		<path
   d="M 30.085366,16.735544 C 30.139296,19.007514 27.1,18.6127 26,18.6127 H 8 v -1.920627 l -8,2.88094 8,2.88094 v -1.920627 h 18 c 3.3,0 5.964045,-0.325649 6,-3.797782 z"
   id="path2"
   inkscape:connector-curvature="0"
   style="stroke-width:0.69293338"
   sodipodi:nodetypes="cscccccscc" />
		
	<path
   inkscape:connector-curvature="0"
   d="M 22.690895,5.7444899 H 0.96849043 c -0.47676267,0 -0.86331079,0.2802013 -0.86331079,0.6257985 v 2.9203923 c 0,0.3455972 0.38654812,0.6257983 0.86331079,0.6257983 H 22.690895 v 2.401971 c 0,1.115068 1.859787,1.673489 2.947558,0.885035 l 6.191304,-4.4879652 c 0.674317,-0.4888006 0.674317,-1.2812699 0,-1.7700184 L 25.638453,2.4575361 C 24.550754,1.6690823 22.690895,2.2275033 22.690895,3.3425714 Z"
   id="path2-3"
   style="stroke-width:0.06125189" /></g>
</svg>