mtllib shadow.mtl 
o square_border
v -1.000000 -1.000000 0.000000
v -1.400000 -1.400000 0.000000
v 1.000000 -1.000000 0.000000
v 1.400000 -1.400000 0.000000
v -1.000000 1.000000 0.000000
v -1.400000 1.400000 0.000000
v 1.000000 1.000000 0.000000
v 1.400000 1.400000 0.000000
vt 0.2 0.80
vt 1.00 1.00
vt -0.00 1.00
vt 0.80 0.80
vt 1.00 -0.00
vt 0.2 0.2
vt -0.00 -0.00
vt 0.8 0.2
vn 0.0000 0.0000 -1.0000
usemtl Shadow
s off
f 3/1/1 8/2/1 4/3/1
f 7/4/1 6/5/1 8/2/1
f 1/6/1 4/3/1 2/7/1
f 5/8/1 2/7/1 6/5/1
f 3/1/1 7/4/1 8/2/1
f 7/4/1 5/8/1 6/5/1
f 1/6/1 3/1/1 4/3/1
f 5/8/1 1/6/1 2/7/1
