ply
format ascii 1.0
comment Created by Blender 3.6.2 - www.blender.org
element vertex 152
property float x
property float y
property float z
property float nx
property float ny
property float nz
element face 150
property list uchar uint vertex_indices
end_header
-0.054269 0.035526 0.000000 0.000000 0.000000 1.000000
-0.051133 0.035460 0.000000 0.000000 0.000000 1.000000
-0.052691 0.035643 0.000000 0.000000 0.000000 1.000000
0.051265 0.035437 0.000000 0.000000 0.000000 1.000000
0.054401 0.035503 0.000000 0.000000 0.000000 1.000000
0.052822 0.035620 0.000000 0.000000 0.000000 1.000000
-0.055825 0.035091 0.000000 0.000000 0.000000 1.000000
0.055957 0.035068 0.000000 0.000000 0.000000 1.000000
-0.049640 0.034996 0.000000 0.000000 0.000000 1.000000
0.049772 0.034973 0.000000 0.000000 0.000000 1.000000
-0.057314 0.034321 0.000000 0.000000 0.000000 1.000000
0.057446 0.034298 0.000000 0.000000 0.000000 1.000000
-0.048257 0.034269 0.000000 0.000000 0.000000 1.000000
0.048388 0.034246 0.000000 0.000000 0.000000 1.000000
-0.058692 0.033196 0.000000 0.000000 0.000000 1.000000
0.058824 0.033173 0.000000 0.000000 0.000000 1.000000
-0.047026 0.033297 0.000000 0.000000 0.000000 1.000000
0.047158 0.033274 0.000000 0.000000 0.000000 1.000000
-0.045992 0.032098 0.000000 0.000000 0.000000 1.000000
0.046124 0.032075 0.000000 0.000000 0.000000 1.000000
-0.059232 0.032657 0.000000 0.000000 0.000000 1.000000
0.059363 0.032634 0.000000 0.000000 0.000000 1.000000
-0.060723 0.031166 0.000000 0.000000 0.000000 1.000000
0.060854 0.031143 0.000000 0.000000 0.000000 1.000000
-0.045199 0.030691 0.000000 0.000000 0.000000 1.000000
0.045331 0.030668 0.000000 0.000000 0.000000 1.000000
-0.062975 0.028914 0.000000 0.000000 0.000000 1.000000
0.063107 0.028891 0.000000 0.000000 0.000000 1.000000
-0.044692 0.029093 0.000000 0.000000 0.000000 1.000000
0.044824 0.029070 0.000000 0.000000 0.000000 1.000000
-0.044512 0.027324 0.000000 0.000000 0.000000 1.000000
0.044645 0.027300 0.000000 0.000000 0.000000 1.000000
-0.065799 0.026091 0.000000 0.000000 0.000000 1.000000
0.065930 0.026068 0.000000 0.000000 0.000000 1.000000
-0.044512 0.026975 0.000000 0.000000 0.000000 1.000000
0.044645 0.009597 0.000000 0.000000 0.000000 1.000000
-0.044512 0.026011 0.000000 0.000000 0.000000 1.000000
-0.069003 0.022888 0.000000 0.000000 0.000000 1.000000
0.069134 0.022865 0.000000 0.000000 0.000000 1.000000
-0.044512 0.024554 0.000000 0.000000 0.000000 1.000000
-0.044512 0.022728 0.000000 0.000000 0.000000 1.000000
-0.072397 0.019494 0.000000 0.000000 0.000000 1.000000
0.072529 0.019471 0.000000 0.000000 0.000000 1.000000
-0.044512 0.020656 0.000000 0.000000 0.000000 1.000000
-0.044512 0.018460 0.000000 0.000000 0.000000 1.000000
-0.075792 0.016100 0.000000 0.000000 0.000000 1.000000
0.075923 0.016077 0.000000 0.000000 0.000000 1.000000
-0.044512 0.016265 0.000000 0.000000 0.000000 1.000000
-0.044512 0.014193 0.000000 0.000000 0.000000 1.000000
-0.078996 0.012897 0.000000 0.000000 0.000000 1.000000
0.079127 0.012874 0.000000 0.000000 0.000000 1.000000
-0.044512 0.012367 0.000000 0.000000 0.000000 1.000000
-0.081819 0.010074 0.000000 0.000000 0.000000 1.000000
0.081951 0.010051 0.000000 0.000000 0.000000 1.000000
-0.044512 0.010910 0.000000 0.000000 0.000000 1.000000
-0.044512 0.009946 0.000000 0.000000 0.000000 1.000000
-0.084072 0.007822 0.000000 0.000000 0.000000 1.000000
0.084203 0.007799 0.000000 0.000000 0.000000 1.000000
-0.044512 0.009597 0.000000 0.000000 0.000000 1.000000
-0.009625 0.009597 0.000000 0.000000 0.000000 1.000000
0.009757 0.009597 0.000000 0.000000 0.000000 1.000000
-0.085563 0.006331 0.000000 0.000000 0.000000 1.000000
0.085694 0.006308 0.000000 0.000000 0.000000 1.000000
-0.086102 0.005792 0.000000 0.000000 0.000000 1.000000
0.086234 0.005769 0.000000 0.000000 0.000000 1.000000
-0.086845 0.004942 0.000000 0.000000 0.000000 1.000000
0.086977 0.004919 0.000000 0.000000 0.000000 1.000000
-0.087454 0.004021 0.000000 0.000000 0.000000 1.000000
0.087585 0.003998 0.000000 0.000000 0.000000 1.000000
-0.087927 0.003045 0.000000 0.000000 0.000000 1.000000
0.088058 0.003022 0.000000 0.000000 0.000000 1.000000
-0.088265 0.002027 0.000000 0.000000 0.000000 1.000000
0.088396 0.002003 0.000000 0.000000 0.000000 1.000000
-0.088467 0.000980 0.000000 0.000000 0.000000 1.000000
0.088599 0.000957 0.000000 0.000000 0.000000 1.000000
-0.088535 -0.000080 0.000000 0.000000 0.000000 1.000000
0.088667 -0.000103 0.000000 0.000000 0.000000 1.000000
-0.088467 -0.001140 0.000000 0.000000 0.000000 1.000000
0.088599 -0.001164 0.000000 0.000000 0.000000 1.000000
-0.088265 -0.002187 0.000000 0.000000 0.000000 1.000000
0.088396 -0.002210 0.000000 0.000000 0.000000 1.000000
-0.087927 -0.003205 0.000000 0.000000 0.000000 1.000000
0.088058 -0.003228 0.000000 0.000000 0.000000 1.000000
-0.087454 -0.004181 0.000000 0.000000 0.000000 1.000000
0.087585 -0.004205 0.000000 0.000000 0.000000 1.000000
-0.086845 -0.005102 0.000000 0.000000 0.000000 1.000000
0.086977 -0.005125 0.000000 0.000000 0.000000 1.000000
-0.086102 -0.005952 0.000000 0.000000 0.000000 1.000000
0.086234 -0.005975 0.000000 0.000000 0.000000 1.000000
-0.085563 -0.006491 0.000000 0.000000 0.000000 1.000000
0.085694 -0.006515 0.000000 0.000000 0.000000 1.000000
-0.084072 -0.007982 0.000000 0.000000 0.000000 1.000000
0.084203 -0.008005 0.000000 0.000000 0.000000 1.000000
-0.081819 -0.010234 0.000000 0.000000 0.000000 1.000000
-0.044512 -0.009780 0.000000 0.000000 0.000000 1.000000
-0.009625 -0.009780 0.000000 0.000000 0.000000 1.000000
0.009757 -0.009780 0.000000 0.000000 0.000000 1.000000
0.044645 -0.009780 0.000000 0.000000 0.000000 1.000000
0.081951 -0.010257 0.000000 0.000000 0.000000 1.000000
-0.044512 -0.027483 0.000000 0.000000 0.000000 1.000000
0.044645 -0.010129 0.000000 0.000000 0.000000 1.000000
0.044645 -0.011093 0.000000 0.000000 0.000000 1.000000
-0.078996 -0.013057 0.000000 0.000000 0.000000 1.000000
0.079127 -0.013080 0.000000 0.000000 0.000000 1.000000
0.044645 -0.012550 0.000000 0.000000 0.000000 1.000000
0.044645 -0.014376 0.000000 0.000000 0.000000 1.000000
-0.075792 -0.016260 0.000000 0.000000 0.000000 1.000000
0.075923 -0.016283 0.000000 0.000000 0.000000 1.000000
0.044645 -0.016448 0.000000 0.000000 0.000000 1.000000
-0.072397 -0.019654 0.000000 0.000000 0.000000 1.000000
0.072529 -0.019677 0.000000 0.000000 0.000000 1.000000
0.044645 -0.018643 0.000000 0.000000 0.000000 1.000000
0.044645 -0.020839 0.000000 0.000000 0.000000 1.000000
-0.069003 -0.023048 0.000000 0.000000 0.000000 1.000000
0.069134 -0.023071 0.000000 0.000000 0.000000 1.000000
0.044645 -0.022911 0.000000 0.000000 0.000000 1.000000
0.044645 -0.024737 0.000000 0.000000 0.000000 1.000000
-0.065799 -0.026251 0.000000 0.000000 0.000000 1.000000
0.065930 -0.026274 0.000000 0.000000 0.000000 1.000000
0.044645 -0.026194 0.000000 0.000000 0.000000 1.000000
0.044645 -0.027158 0.000000 0.000000 0.000000 1.000000
-0.062975 -0.029074 0.000000 0.000000 0.000000 1.000000
0.063107 -0.029097 0.000000 0.000000 0.000000 1.000000
0.044645 -0.027507 0.000000 0.000000 0.000000 1.000000
-0.044692 -0.029253 0.000000 0.000000 0.000000 1.000000
0.044823 -0.029276 0.000000 0.000000 0.000000 1.000000
-0.060723 -0.031326 0.000000 0.000000 0.000000 1.000000
0.060854 -0.031349 0.000000 0.000000 0.000000 1.000000
-0.045199 -0.030851 0.000000 0.000000 0.000000 1.000000
0.045331 -0.030874 0.000000 0.000000 0.000000 1.000000
-0.045992 -0.032258 0.000000 0.000000 0.000000 1.000000
0.046124 -0.032281 0.000000 0.000000 0.000000 1.000000
-0.059232 -0.032817 0.000000 0.000000 0.000000 1.000000
0.059363 -0.032840 0.000000 0.000000 0.000000 1.000000
-0.047026 -0.033457 0.000000 0.000000 0.000000 1.000000
0.047158 -0.033480 0.000000 0.000000 0.000000 1.000000
-0.058692 -0.033356 0.000000 0.000000 0.000000 1.000000
0.058824 -0.033379 0.000000 0.000000 0.000000 1.000000
-0.057314 -0.034481 0.000000 0.000000 0.000000 1.000000
0.057446 -0.034504 0.000000 0.000000 0.000000 1.000000
-0.048257 -0.034429 0.000000 0.000000 0.000000 1.000000
0.048388 -0.034452 0.000000 0.000000 0.000000 1.000000
-0.049640 -0.035156 0.000000 0.000000 0.000000 1.000000
0.049772 -0.035179 0.000000 0.000000 0.000000 1.000000
-0.055825 -0.035251 0.000000 0.000000 0.000000 1.000000
0.055957 -0.035274 0.000000 0.000000 0.000000 1.000000
-0.051133 -0.035620 0.000000 0.000000 0.000000 1.000000
0.051265 -0.035643 0.000000 0.000000 0.000000 1.000000
-0.054269 -0.035686 0.000000 0.000000 0.000000 1.000000
0.054401 -0.035709 0.000000 0.000000 0.000000 1.000000
-0.052690 -0.035803 0.000000 0.000000 0.000000 1.000000
0.052822 -0.035826 0.000000 0.000000 0.000000 1.000000
3 0 1 2
3 3 4 5
3 6 1 0
3 3 7 4
3 6 8 1
3 9 7 3
3 10 8 6
3 9 11 7
3 10 12 8
3 13 11 9
3 14 12 10
3 13 15 11
3 14 16 12
3 17 15 13
3 14 18 16
3 19 15 17
3 20 18 14
3 19 21 15
3 22 18 20
3 19 23 21
3 22 24 18
3 25 23 19
3 26 24 22
3 25 27 23
3 26 28 24
3 29 27 25
3 26 30 28
3 31 27 29
3 32 30 26
3 31 33 27
3 32 34 30
3 35 33 31
3 32 36 34
3 37 36 32
3 35 38 33
3 37 39 36
3 37 40 39
3 41 40 37
3 35 42 38
3 41 43 40
3 41 44 43
3 45 44 41
3 35 46 42
3 45 47 44
3 45 48 47
3 49 48 45
3 35 50 46
3 49 51 48
3 52 51 49
3 35 53 50
3 52 54 51
3 52 55 54
3 56 55 52
3 35 57 53
3 56 58 55
3 56 59 58
3 56 60 59
3 56 35 60
3 56 57 35
3 61 57 56
3 61 62 57
3 63 62 61
3 63 64 62
3 65 64 63
3 65 66 64
3 67 66 65
3 67 68 66
3 69 68 67
3 69 70 68
3 71 70 69
3 71 72 70
3 73 72 71
3 73 74 72
3 75 74 73
3 75 76 74
3 77 76 75
3 77 78 76
3 79 78 77
3 79 80 78
3 81 80 79
3 81 82 80
3 83 82 81
3 83 84 82
3 85 84 83
3 85 86 84
3 87 86 85
3 87 88 86
3 89 88 87
3 89 90 88
3 91 90 89
3 91 92 90
3 93 92 91
3 93 94 92
3 94 95 92
3 95 96 92
3 96 97 92
3 97 98 92
3 93 99 94
3 100 98 97
3 101 98 100
3 102 99 93
3 101 103 98
3 104 103 101
3 105 103 104
3 106 99 102
3 105 107 103
3 108 107 105
3 109 99 106
3 108 110 107
3 111 110 108
3 112 110 111
3 113 99 109
3 112 114 110
3 115 114 112
3 116 114 115
3 117 99 113
3 116 118 114
3 119 118 116
3 120 118 119
3 121 99 117
3 120 122 118
3 123 122 120
3 121 124 99
3 125 122 123
3 126 124 121
3 125 127 122
3 126 128 124
3 129 127 125
3 126 130 128
3 131 127 129
3 132 130 126
3 131 133 127
3 132 134 130
3 135 133 131
3 136 134 132
3 135 137 133
3 138 134 136
3 135 139 137
3 138 140 134
3 141 139 135
3 138 142 140
3 143 139 141
3 144 142 138
3 143 145 139
3 144 146 142
3 147 145 143
3 148 146 144
3 147 149 145
3 148 150 146
3 151 149 147
