ply
format ascii 1.0
comment Created by Blender 2.82 (sub 7) - www.blender.org, source file: 'border_large_sharp_2.blend'
element vertex 8
property float x
property float y
property float z
element face 8
property list uchar uint vertex_indices
end_header
0.048802 0.048843 0.000000
0.0002 -0.0002 0.000000
0.048802 -0.048258 0.000000
-0.0002 -0.0002 0.000000
-0.048299 -0.048258 0.000000
-0.048299 0.048843 0.000000
-0.0002 0.0002 0.000000
0.0002 0.0002 0.000000
3 0 1 2
3 2 3 4
3 3 5 4
3 0 6 7
3 0 7 1
3 2 1 3
3 3 6 5
3 0 5 6
