ply
format ascii 1.0
comment Created by Blender 2.93.3 - www.blender.org
element vertex 6
property float x
property float y
property float z
property float nx
property float ny
property float nz
element face 4
property list uchar uint vertex_indices
end_header
-0.469445 1.086125 0.000000 0.000000 0.000000 1.000000
0.636913 1.072620 0.000000 0.000000 0.000000 1.000000
0.637580 1.086125 0.000000 0.000000 0.000000 1.000000
-0.469437 1.099764 0.000000 -0.000000 0.000000 1.000000
-0.469437 1.072620 0.000000 0.000000 0.000000 1.000000
0.637568 1.099764 0.000000 -0.000000 0.000000 1.000000
3 0 1 2
3 2 3 0
3 0 4 1
3 2 5 3
