ply
format ascii 1.0
comment Created by Blender 2.82 (sub 7) - www.blender.org, source file: 'border_large_sharp_2.blend'
element vertex 16
property float x
property float y
property float z
property uchar red
property uchar green
property uchar blue
property uchar alpha
element face 16
property list uchar uint vertex_indices
end_header
0.040053 -1.008800 0.000000 255 255 255 255
-0.031947 -1.000800 0.000000 255 255 255 255
-0.039947 -1.008800 0.000000 255 255 255 255
-0.031947 -0.957118 0.000000 255 255 255 255
-0.039947 -0.949118 0.000000 255 255 255 255
0.040053 -0.949118 0.000000 255 255 255 255
0.032053 -0.957118 0.000000 255 255 255 255
0.032053 -1.000800 0.000000 255 255 255 255
0.040053 0.949146 0.000000 255 255 255 255
-0.031947 0.957146 0.000000 255 255 255 255
-0.039947 0.949146 0.000000 255 255 255 255
-0.031947 1.000827 0.000000 255 255 255 255
-0.039947 1.008827 0.000000 255 255 255 255
0.040053 1.008827 0.000000 255 255 255 255
0.032053 1.000827 0.000000 255 255 255 255
0.032053 0.957146 0.000000 255 255 255 255
3 0 1 2
3 2 3 4
3 3 5 4
3 0 6 7
3 0 7 1
3 2 1 3
3 3 6 5
3 0 5 6
3 8 9 10
3 10 11 12
3 11 13 12
3 8 14 15
3 8 15 9
3 10 9 11
3 11 14 13
3 8 13 14
