ply
format ascii 1.0
comment Created by Blender 2.82 (sub 7) - www.blender.org, source file: 'border_sharp.blend'
element vertex 14
property float x
property float y
property float z
property uchar red
property uchar green
property uchar blue
property uchar alpha
element face 10
property list uchar uint vertex_indices
end_header
0.003105 1.007836 0.000000 255 255 255 255
0.000170 1.049968 0.000000 255 255 255 255
0.000170 1.007309 0.000000 255 255 255 255
-0.003021 1.049968 0.000000 255 255 255 255
0.003114 1.006644 0.000000 255 255 255 255
0.003105 1.049968 0.000000 255 255 255 255
-0.003021 1.006735 0.000000 255 255 255 255
-0.002921 -1.007763 0.000000 255 255 255 255
0.000014 -1.049894 0.000000 255 255 255 255
0.000014 -1.007235 0.000000 255 255 255 255
0.003205 -1.049895 0.000000 255 255 255 255
-0.002930 -1.006571 0.000000 255 255 255 255
-0.002921 -1.049894 0.000000 255 255 255 255
0.003205 -1.006661 0.000000 255 255 255 255
3 0 1 2
3 3 2 1
3 4 0 2
3 0 5 1
3 3 6 2
3 7 8 9
3 10 9 8
3 11 7 9
3 7 12 8
3 10 13 9
