ply
format ascii 1.0
comment Created by Blender 3.6.2 - www.blender.org
element vertex 408
property float x
property float y
property float z
property float s
property float t
element face 416
property list uchar uint vertex_indices
end_header
-0.061080 0.071828 0.000000 0.002457 0.000000
-0.059392 0.071909 0.000000 0.705160 0.000000
-0.059904 0.071909 0.000000 0.000000 0.000000
-0.057977 0.071909 0.000000 0.702703 0.000000
-0.055840 0.071909 0.000000 0.700246 0.000000
-0.053161 0.071909 0.000000 0.697789 0.000000
-0.050120 0.071909 0.000000 0.695332 0.000000
-0.046899 0.071909 0.000000 0.692875 0.000000
-0.043678 0.071909 0.000000 0.690418 0.000000
-0.040638 0.071909 0.000000 0.687961 0.000000
-0.037958 0.071909 0.000000 0.685504 0.000000
-0.035821 0.071909 0.000000 0.683047 0.000000
-0.034406 0.071909 0.000000 0.680590 0.000000
-0.033895 0.071909 0.000000 0.678133 0.000000
-0.032718 0.071828 0.000000 0.675676 0.000000
0.034287 0.071828 0.000000 0.592138 0.000000
0.035975 0.071909 0.000000 0.587224 0.000000
0.035463 0.071909 0.000000 0.589681 0.000000
0.037389 0.071909 0.000000 0.584767 0.000000
0.039527 0.071909 0.000000 0.582310 0.000000
0.042206 0.071909 0.000000 0.579853 0.000000
0.045246 0.071909 0.000000 0.577396 0.000000
0.048467 0.071909 0.000000 0.574939 0.000000
0.051688 0.071909 0.000000 0.572482 0.000000
0.054729 0.071909 0.000000 0.570025 0.000000
0.057408 0.071909 0.000000 0.567568 0.000000
0.059545 0.071909 0.000000 0.565111 0.000000
0.060960 0.071909 0.000000 0.562654 0.000000
0.061472 0.071909 0.000000 0.560197 0.000000
0.062648 0.071828 0.000000 0.557740 0.000000
-0.062208 0.071595 0.000000 0.004914 0.000000
0.033158 0.071595 0.000000 0.594595 0.000000
-0.031590 0.071595 0.000000 0.673219 0.000000
0.063776 0.071595 0.000000 0.555283 0.000000
-0.063278 0.071219 0.000000 0.007371 0.000000
0.032089 0.071219 0.000000 0.597052 0.000000
-0.030520 0.071219 0.000000 0.670762 0.000000
0.064846 0.071219 0.000000 0.552826 0.000000
-0.064279 0.070711 0.000000 0.009828 0.000000
0.031087 0.070711 0.000000 0.599509 0.000000
-0.029519 0.070711 0.000000 0.668305 0.000000
0.065847 0.070711 0.000000 0.550369 0.000000
-0.065201 0.070081 0.000000 0.012285 0.000000
0.030165 0.070081 0.000000 0.601966 0.000000
-0.028597 0.070081 0.000000 0.665848 0.000000
0.066769 0.070081 0.000000 0.547912 0.000000
-0.066034 0.069339 0.000000 0.014742 0.000000
0.029333 0.069339 0.000000 0.604423 0.000000
-0.027765 0.069339 0.000000 0.663391 0.000000
0.067602 0.069339 0.000000 0.545455 0.000000
-0.066767 0.068497 0.000000 0.017199 0.000000
0.028600 0.068497 0.000000 0.606880 0.000000
-0.027032 0.068497 0.000000 0.660934 0.000000
0.068335 0.068497 0.000000 0.542998 0.000000
-0.067389 0.067564 0.000000 0.019656 0.000000
0.027977 0.067564 0.000000 0.609337 0.000000
-0.026409 0.067564 0.000000 0.658477 0.000000
0.068958 0.067564 0.000000 0.540541 0.000000
-0.067892 0.066551 0.000000 0.022113 0.000000
0.027475 0.066551 0.000000 0.611794 0.000000
-0.025906 0.066551 0.000000 0.656020 0.000000
0.069460 0.066551 0.000000 0.538084 0.000000
-0.068263 0.065469 0.000000 0.024570 0.000000
0.027103 0.065469 0.000000 0.614251 0.000000
-0.025535 0.065469 0.000000 0.653563 0.000000
0.069832 0.065469 0.000000 0.535627 0.000000
-0.068494 0.064327 0.000000 0.027027 0.000000
0.026872 0.064327 0.000000 0.616708 0.000000
-0.025304 0.064327 0.000000 0.651106 0.000000
0.070062 0.064327 0.000000 0.533170 0.000000
-0.068573 0.063137 0.000000 0.029484 0.000000
0.026793 0.063137 0.000000 0.619165 0.000000
-0.025225 0.063137 0.000000 0.648649 0.000000
0.070141 0.063137 0.000000 0.530713 0.000000
-0.068573 0.062620 0.000000 0.031941 0.000000
-0.024201 0.063137 0.000000 0.646192 0.000000
-0.021372 0.063137 0.000000 0.643735 0.000000
-0.017097 0.063137 0.000000 0.641278 0.000000
-0.011739 0.063137 0.000000 0.638821 0.000000
-0.005658 0.063137 0.000000 0.636364 0.000000
0.000784 0.063137 0.000000 0.633907 0.000000
0.007226 0.063137 0.000000 0.631450 0.000000
0.013307 0.063137 0.000000 0.628993 0.000000
0.018665 0.063137 0.000000 0.626536 0.000000
0.022940 0.063137 0.000000 0.624079 0.000000
0.025770 0.063137 0.000000 0.621622 0.000000
0.070141 0.062620 0.000000 0.528256 0.000000
0.070141 0.061188 0.000000 0.525798 0.000000
-0.068573 0.061188 0.000000 0.034398 0.000000
0.059807 0.060915 0.000000 0.719902 0.000000
0.070141 0.059026 0.000000 0.523342 0.000000
-0.068573 0.059026 0.000000 0.036855 0.000000
-0.057876 0.060915 0.000000 0.707617 0.000000
-0.057876 0.039359 0.000000 0.714988 0.000000
-0.036289 0.060915 0.000000 0.710074 0.000000
-0.036289 0.039359 0.000000 0.712531 0.000000
-0.025225 0.045595 0.000000 0.727273 0.000000
0.038220 0.060915 0.000000 0.717445 0.000000
0.026793 0.045595 0.000000 0.729730 0.000000
0.038220 0.039359 0.000000 0.724816 0.000000
0.059807 0.039359 0.000000 0.722359 0.000000
0.070141 0.056315 0.000000 0.520885 0.000000
-0.068573 0.056315 0.000000 0.039312 0.000000
0.070141 0.053239 0.000000 0.518427 0.000000
-0.068573 0.053239 0.000000 0.041769 0.000000
0.070141 0.049981 0.000000 0.515971 0.000000
-0.068573 0.049981 0.000000 0.044226 0.000000
0.070141 0.046722 0.000000 0.513514 0.000000
-0.068573 0.046722 0.000000 0.046683 0.000000
0.070141 0.043646 0.000000 0.511056 0.000000
-0.068573 0.043646 0.000000 0.049140 0.000000
-0.025225 0.045422 0.000000 0.980344 0.000000
0.026793 0.036824 0.000000 0.732187 0.000000
-0.025225 0.044945 0.000000 0.977887 0.000000
-0.025225 0.044225 0.000000 0.975430 0.000000
-0.025225 0.043321 0.000000 0.972973 0.000000
0.070141 0.040935 0.000000 0.508600 0.000000
-0.068573 0.040935 0.000000 0.051597 0.000000
-0.025225 0.042296 0.000000 0.970516 0.000000
-0.025225 0.041209 0.000000 0.968059 0.000000
-0.025225 0.040123 0.000000 0.965602 0.000000
0.070141 0.038773 0.000000 0.506142 0.000000
-0.068573 0.038773 0.000000 0.054054 0.000000
-0.025225 0.039098 0.000000 0.963145 0.000000
-0.025225 0.038194 0.000000 0.960688 0.000000
0.070141 0.037342 0.000000 0.503685 0.000000
-0.068573 0.037342 0.000000 0.056511 0.000000
-0.025225 0.037474 0.000000 0.958231 0.000000
-0.025225 0.036996 0.000000 0.955774 0.000000
0.070141 0.036824 0.000000 0.501229 0.000000
-0.068573 0.036824 0.000000 0.058968 0.000000
-0.025225 0.036824 0.000000 0.953317 0.000000
-0.068494 0.035634 0.000000 0.061425 0.000000
-0.025304 0.035634 0.000000 0.950860 0.000000
0.026872 0.035634 0.000000 0.734644 0.000000
0.070062 0.035634 0.000000 0.498771 0.000000
-0.025535 0.034492 0.000000 0.948403 0.000000
0.069832 0.034492 0.000000 0.496314 0.000000
-0.068264 0.034492 0.000000 0.063882 0.000000
0.027103 0.034492 0.000000 0.737101 0.000000
-0.025906 0.033410 0.000000 0.945946 0.000000
0.069460 0.033410 0.000000 0.493858 0.000000
-0.067892 0.033410 0.000000 0.066339 0.000000
0.027475 0.033410 0.000000 0.739558 0.000000
-0.026409 0.032397 0.000000 0.943489 0.000000
0.068958 0.032397 0.000000 0.491400 0.000000
-0.067389 0.032397 0.000000 0.068796 0.000000
0.027977 0.032397 0.000000 0.742015 0.000000
-0.027032 0.031464 0.000000 0.941032 0.000000
0.068335 0.031464 0.000000 0.488943 0.000000
-0.066767 0.031464 0.000000 0.071253 0.000000
0.028600 0.031464 0.000000 0.744472 0.000000
-0.027765 0.030622 0.000000 0.938575 0.000000
0.067602 0.030622 0.000000 0.486486 0.000000
-0.066034 0.030622 0.000000 0.073710 0.000000
0.029333 0.030622 0.000000 0.746929 0.000000
-0.028597 0.029881 0.000000 0.936118 0.000000
0.066769 0.029881 0.000000 0.484029 0.000000
-0.065201 0.029881 0.000000 0.076167 0.000000
0.030165 0.029881 0.000000 0.749386 0.000000
-0.029519 0.029250 0.000000 0.933661 0.000000
0.065847 0.029250 0.000000 0.481572 0.000000
-0.064279 0.029250 0.000000 0.078624 0.000000
0.031087 0.029250 0.000000 0.751843 0.000000
-0.030520 0.028742 0.000000 0.931204 0.000000
0.064846 0.028742 0.000000 0.479115 0.000000
-0.063278 0.028742 0.000000 0.081081 0.000000
0.032089 0.028742 0.000000 0.754300 0.000000
-0.031590 0.028366 0.000000 0.928747 0.000000
0.063776 0.028366 0.000000 0.476658 0.000000
-0.062208 0.028366 0.000000 0.083538 0.000000
0.033158 0.028366 0.000000 0.756757 0.000000
-0.032718 0.028133 0.000000 0.926290 0.000000
0.062648 0.028133 0.000000 0.474201 0.000000
-0.061080 0.028133 0.000000 0.085995 0.000000
0.034287 0.028133 0.000000 0.759214 0.000000
-0.033895 0.028053 0.000000 0.923833 0.000000
0.061472 0.028053 0.000000 0.471744 0.000000
-0.059904 0.028053 0.000000 0.088452 0.000000
0.035463 0.028053 0.000000 0.761671 0.000000
-0.059904 0.027017 0.000000 0.090909 0.000000
-0.042564 0.028053 0.000000 0.921376 0.000000
-0.042564 -0.024574 0.000000 0.918919 0.000000
0.035633 0.028053 0.000000 0.764128 0.000000
0.036105 0.028053 0.000000 0.766585 0.000000
0.036817 0.028053 0.000000 0.769042 0.000000
0.037710 0.028053 0.000000 0.771499 0.000000
0.038724 0.028053 0.000000 0.773956 0.000000
0.039798 0.028053 0.000000 0.776413 0.000000
0.040871 0.028053 0.000000 0.778870 0.000000
0.041885 0.028053 0.000000 0.781327 0.000000
0.042778 0.028053 0.000000 0.783784 0.000000
0.043490 0.028053 0.000000 0.786241 0.000000
0.043962 0.028053 0.000000 0.788698 0.000000
0.044132 0.028053 0.000000 0.791155 0.000000
0.044132 -0.024574 0.000000 0.793612 0.000000
0.061472 0.027017 0.000000 0.469287 0.000000
0.061472 0.024154 0.000000 0.466830 0.000000
-0.059904 0.024154 0.000000 0.093366 0.000000
0.061472 0.019830 0.000000 0.464373 0.000000
-0.059904 0.019830 0.000000 0.095823 0.000000
0.061472 0.014409 0.000000 0.461916 0.000000
-0.059904 0.014409 0.000000 0.098280 0.000000
0.061472 0.008257 0.000000 0.459459 0.000000
-0.059904 0.008257 0.000000 0.100737 0.000000
0.061472 0.001739 0.000000 0.457002 0.000000
-0.059904 0.001739 0.000000 0.103194 0.000000
0.061472 -0.004778 0.000000 0.454545 0.000000
-0.059904 -0.004778 0.000000 0.105651 0.000000
0.061472 -0.010930 0.000000 0.452088 0.000000
-0.059904 -0.010930 0.000000 0.108108 0.000000
0.061472 -0.016351 0.000000 0.449631 0.000000
-0.059904 -0.016351 0.000000 0.110565 0.000000
0.061472 -0.020676 0.000000 0.447174 0.000000
-0.059904 -0.020676 0.000000 0.113022 0.000000
0.061472 -0.023539 0.000000 0.444717 0.000000
-0.059904 -0.023539 0.000000 0.115479 0.000000
0.061472 -0.024574 0.000000 0.442260 0.000000
-0.059904 -0.024574 0.000000 0.117936 0.000000
-0.061080 -0.024654 0.000000 0.120393 0.000000
-0.042394 -0.024574 0.000000 0.916462 0.000000
-0.041922 -0.024574 0.000000 0.914005 0.000000
-0.041210 -0.024574 0.000000 0.911548 0.000000
-0.040317 -0.024574 0.000000 0.909091 0.000000
-0.039303 -0.024574 0.000000 0.906634 0.000000
-0.038229 -0.024574 0.000000 0.904177 0.000000
-0.037156 -0.024574 0.000000 0.901720 0.000000
-0.036142 -0.024574 0.000000 0.899263 0.000000
-0.035249 -0.024574 0.000000 0.896806 0.000000
-0.034537 -0.024574 0.000000 0.894349 0.000000
-0.034065 -0.024574 0.000000 0.891892 0.000000
-0.033895 -0.024574 0.000000 0.889435 0.000000
-0.032718 -0.024654 0.000000 0.886978 0.000000
0.034287 -0.024654 0.000000 0.798526 0.000000
0.035463 -0.024574 0.000000 0.796069 0.000000
0.062648 -0.024654 0.000000 0.439803 0.000000
-0.031590 -0.024888 0.000000 0.884521 0.000000
0.063776 -0.024888 0.000000 0.437346 0.000000
-0.062208 -0.024888 0.000000 0.122850 0.000000
0.033158 -0.024888 0.000000 0.800983 0.000000
-0.030520 -0.025264 0.000000 0.882064 0.000000
0.064846 -0.025264 0.000000 0.434889 0.000000
-0.063278 -0.025264 0.000000 0.125307 0.000000
0.032089 -0.025264 0.000000 0.803440 0.000000
-0.029519 -0.025772 0.000000 0.879607 0.000000
0.065847 -0.025772 0.000000 0.432432 0.000000
-0.064279 -0.025772 0.000000 0.127764 0.000000
0.031087 -0.025772 0.000000 0.805897 0.000000
-0.028597 -0.026402 0.000000 0.877150 0.000000
0.066769 -0.026402 0.000000 0.429975 0.000000
-0.065201 -0.026402 0.000000 0.130221 0.000000
0.030165 -0.026402 0.000000 0.808354 0.000000
-0.027765 -0.027144 0.000000 0.874693 0.000000
0.067602 -0.027144 0.000000 0.427518 0.000000
-0.066034 -0.027144 0.000000 0.132678 0.000000
0.029333 -0.027144 0.000000 0.810811 0.000000
-0.027032 -0.027986 0.000000 0.872236 0.000000
0.068335 -0.027986 0.000000 0.425061 0.000000
-0.066767 -0.027986 0.000000 0.135135 0.000000
0.028600 -0.027986 0.000000 0.813268 0.000000
-0.067389 -0.028919 0.000000 0.137592 0.000000
-0.026409 -0.028919 0.000000 0.869779 0.000000
0.027977 -0.028919 0.000000 0.815725 0.000000
0.068958 -0.028919 0.000000 0.422604 0.000000
-0.067892 -0.029932 0.000000 0.140049 0.000000
-0.025906 -0.029932 0.000000 0.867322 0.000000
0.027475 -0.029932 0.000000 0.818182 0.000000
0.069460 -0.029932 0.000000 0.420147 0.000000
-0.068263 -0.031014 0.000000 0.142506 0.000000
-0.025535 -0.031014 0.000000 0.864865 0.000000
0.027103 -0.031014 0.000000 0.820639 0.000000
0.069832 -0.031014 0.000000 0.417690 0.000000
-0.068494 -0.032156 0.000000 0.144963 0.000000
-0.025304 -0.032156 0.000000 0.862408 0.000000
0.026872 -0.032156 0.000000 0.823096 0.000000
0.070062 -0.032156 0.000000 0.415233 0.000000
-0.068573 -0.033346 0.000000 0.147420 0.000000
-0.025225 -0.033346 0.000000 0.859951 0.000000
0.026793 -0.033346 0.000000 0.825553 0.000000
0.070141 -0.033346 0.000000 0.412776 0.000000
-0.068573 -0.033863 0.000000 0.149877 0.000000
-0.036289 -0.036815 0.000000 0.985258 0.000000
-0.025225 -0.042117 0.000000 0.857494 0.000000
0.026793 -0.033518 0.000000 0.828010 0.000000
0.070141 -0.033863 0.000000 0.410319 0.000000
0.026793 -0.033995 0.000000 0.830467 0.000000
0.070141 -0.035295 0.000000 0.407862 0.000000
-0.068573 -0.035295 0.000000 0.152334 0.000000
0.026793 -0.034716 0.000000 0.832924 0.000000
0.026793 -0.035620 0.000000 0.835381 0.000000
0.059807 -0.036815 0.000000 0.995086 0.000000
0.070141 -0.037457 0.000000 0.405405 0.000000
-0.068573 -0.037457 0.000000 0.154791 0.000000
-0.057876 -0.036815 0.000000 0.982801 0.000000
0.026793 -0.036645 0.000000 0.837838 0.000000
0.026793 -0.037731 0.000000 0.840295 0.000000
0.038220 -0.036815 0.000000 0.992629 0.000000
-0.057876 -0.058370 0.000000 0.990172 0.000000
-0.036289 -0.058370 0.000000 0.987715 0.000000
0.038220 -0.058370 0.000000 1.000000 0.000000
0.059807 -0.058370 0.000000 0.997543 0.000000
0.070141 -0.040168 0.000000 0.402948 0.000000
-0.068573 -0.040168 0.000000 0.157248 0.000000
0.026793 -0.038817 0.000000 0.842752 0.000000
0.026793 -0.039843 0.000000 0.845209 0.000000
0.026793 -0.040746 0.000000 0.847666 0.000000
0.070141 -0.043244 0.000000 0.400491 0.000000
-0.068573 -0.043244 0.000000 0.159705 0.000000
0.026793 -0.041467 0.000000 0.850123 0.000000
0.026793 -0.041944 0.000000 0.852580 0.000000
0.026793 -0.042117 0.000000 0.855037 0.000000
0.070141 -0.046502 0.000000 0.398034 0.000000
-0.068573 -0.046502 0.000000 0.162162 0.000000
0.070141 -0.049761 0.000000 0.395577 0.000000
-0.068573 -0.049761 0.000000 0.164619 0.000000
0.070141 -0.052837 0.000000 0.393120 0.000000
-0.068573 -0.052837 0.000000 0.167076 0.000000
0.070141 -0.055548 0.000000 0.390663 0.000000
-0.068573 -0.055548 0.000000 0.169533 0.000000
0.070141 -0.057710 0.000000 0.388206 0.000000
-0.068573 -0.057710 0.000000 0.171990 0.000000
0.070141 -0.059141 0.000000 0.385749 0.000000
-0.068573 -0.059141 0.000000 0.174447 0.000000
-0.068573 -0.059659 0.000000 0.176904 0.000000
0.070141 -0.059659 0.000000 0.383292 0.000000
-0.068494 -0.060849 0.000000 0.179361 0.000000
-0.025225 -0.059659 0.000000 0.265356 0.000000
-0.025304 -0.060849 0.000000 0.262899 0.000000
-0.024201 -0.059659 0.000000 0.267813 0.000000
-0.021372 -0.059659 0.000000 0.270270 0.000000
-0.017097 -0.059659 0.000000 0.272727 0.000000
-0.011739 -0.059659 0.000000 0.275184 0.000000
-0.005658 -0.059659 0.000000 0.277641 0.000000
0.000784 -0.059659 0.000000 0.280098 0.000000
0.007226 -0.059659 0.000000 0.282555 0.000000
0.013307 -0.059659 0.000000 0.285012 0.000000
0.018665 -0.059659 0.000000 0.287469 0.000000
0.022940 -0.059659 0.000000 0.289926 0.000000
0.025770 -0.059659 0.000000 0.292383 0.000000
0.026793 -0.059659 0.000000 0.294840 0.000000
0.026872 -0.060849 0.000000 0.297297 0.000000
0.070062 -0.060849 0.000000 0.380835 0.000000
-0.068264 -0.061991 0.000000 0.181818 0.000000
0.027103 -0.061991 0.000000 0.299754 0.000000
-0.025535 -0.061991 0.000000 0.260442 0.000000
0.069832 -0.061991 0.000000 0.378378 0.000000
-0.067892 -0.063073 0.000000 0.184275 0.000000
0.027475 -0.063073 0.000000 0.302211 0.000000
-0.025906 -0.063073 0.000000 0.257985 0.000000
0.069460 -0.063073 0.000000 0.375921 0.000000
-0.067389 -0.064086 0.000000 0.186732 0.000000
0.027977 -0.064086 0.000000 0.304668 0.000000
-0.026409 -0.064086 0.000000 0.255528 0.000000
0.068958 -0.064086 0.000000 0.373464 0.000000
-0.066767 -0.065019 0.000000 0.189189 0.000000
0.028600 -0.065019 0.000000 0.307125 0.000000
-0.027032 -0.065019 0.000000 0.253071 0.000000
0.068335 -0.065019 0.000000 0.371007 0.000000
-0.066034 -0.065861 0.000000 0.191646 0.000000
0.029333 -0.065861 0.000000 0.309582 0.000000
-0.027765 -0.065861 0.000000 0.250614 0.000000
0.067602 -0.065861 0.000000 0.368550 0.000000
-0.065201 -0.066602 0.000000 0.194103 0.000000
0.030165 -0.066602 0.000000 0.312039 0.000000
-0.028597 -0.066602 0.000000 0.248157 0.000000
0.066769 -0.066602 0.000000 0.366093 0.000000
-0.064279 -0.067233 0.000000 0.196560 0.000000
0.031087 -0.067233 0.000000 0.314496 0.000000
-0.029519 -0.067233 0.000000 0.245700 0.000000
0.065847 -0.067233 0.000000 0.363636 0.000000
-0.063278 -0.067741 0.000000 0.199017 0.000000
0.032089 -0.067741 0.000000 0.316953 0.000000
-0.030520 -0.067741 0.000000 0.243243 0.000000
0.064846 -0.067741 0.000000 0.361179 0.000000
-0.062208 -0.068117 0.000000 0.201474 0.000000
0.033158 -0.068117 0.000000 0.319410 0.000000
-0.031590 -0.068117 0.000000 0.240786 0.000000
0.063776 -0.068117 0.000000 0.358722 0.000000
-0.061080 -0.068350 0.000000 0.203931 0.000000
0.034287 -0.068350 0.000000 0.321867 0.000000
-0.032718 -0.068350 0.000000 0.238329 0.000000
0.062648 -0.068350 0.000000 0.356265 0.000000
-0.059904 -0.068430 0.000000 0.206388 0.000000
0.035463 -0.068430 0.000000 0.324324 0.000000
-0.033895 -0.068430 0.000000 0.235872 0.000000
0.061472 -0.068430 0.000000 0.353808 0.000000
-0.059392 -0.068430 0.000000 0.208845 0.000000
-0.057977 -0.068430 0.000000 0.211302 0.000000
-0.055840 -0.068430 0.000000 0.213759 0.000000
-0.053161 -0.068430 0.000000 0.216216 0.000000
-0.050120 -0.068430 0.000000 0.218673 0.000000
-0.046899 -0.068430 0.000000 0.221130 0.000000
-0.043678 -0.068430 0.000000 0.223587 0.000000
-0.040638 -0.068430 0.000000 0.226044 0.000000
-0.037958 -0.068430 0.000000 0.228501 0.000000
-0.035821 -0.068430 0.000000 0.230958 0.000000
-0.034406 -0.068430 0.000000 0.233415 0.000000
0.035975 -0.068430 0.000000 0.326781 0.000000
0.037389 -0.068430 0.000000 0.329238 0.000000
0.039527 -0.068430 0.000000 0.331695 0.000000
0.042206 -0.068430 0.000000 0.334152 0.000000
0.045246 -0.068430 0.000000 0.336609 0.000000
0.048467 -0.068430 0.000000 0.339066 0.000000
0.051688 -0.068430 0.000000 0.341523 0.000000
0.054729 -0.068430 0.000000 0.343980 0.000000
0.057408 -0.068430 0.000000 0.346437 0.000000
0.059545 -0.068430 0.000000 0.348894 0.000000
0.060960 -0.068430 0.000000 0.351351 0.000000
3 0 1 2
3 0 3 1
3 0 4 3
3 0 5 4
3 0 6 5
3 0 7 6
3 0 8 7
3 0 9 8
3 0 10 9
3 0 11 10
3 0 12 11
3 0 13 12
3 0 14 13
3 15 16 17
3 15 18 16
3 15 19 18
3 15 20 19
3 15 21 20
3 15 22 21
3 15 23 22
3 15 24 23
3 15 25 24
3 15 26 25
3 15 27 26
3 15 28 27
3 15 29 28
3 30 14 0
3 31 29 15
3 30 32 14
3 31 33 29
3 34 32 30
3 35 33 31
3 34 36 32
3 35 37 33
3 38 36 34
3 39 37 35
3 38 40 36
3 39 41 37
3 42 40 38
3 43 41 39
3 42 44 40
3 43 45 41
3 46 44 42
3 47 45 43
3 46 48 44
3 47 49 45
3 50 48 46
3 51 49 47
3 50 52 48
3 51 53 49
3 54 52 50
3 55 53 51
3 54 56 52
3 55 57 53
3 58 56 54
3 59 57 55
3 58 60 56
3 59 61 57
3 62 60 58
3 63 61 59
3 62 64 60
3 63 65 61
3 66 64 62
3 67 65 63
3 66 68 64
3 67 69 65
3 70 68 66
3 71 69 67
3 70 72 68
3 71 73 69
3 74 72 70
3 74 75 72
3 74 76 75
3 74 77 76
3 74 78 77
3 74 79 78
3 74 80 79
3 74 81 80
3 74 82 81
3 74 83 82
3 74 84 83
3 74 85 84
3 74 71 85
3 74 73 71
3 74 86 73
3 74 87 86
3 88 87 74
3 88 89 87
3 89 90 87
3 91 92 88
3 92 89 88
3 91 93 92
3 94 89 92
3 95 96 94
3 96 97 94
3 97 89 94
3 96 98 97
3 98 99 97
3 100 90 89
3 100 101 90
3 102 93 91
3 100 103 101
3 104 93 102
3 100 105 103
3 106 93 104
3 100 107 105
3 108 93 106
3 100 109 107
3 110 93 108
3 95 111 96
3 112 99 98
3 95 113 111
3 95 114 113
3 95 115 114
3 100 116 109
3 117 93 110
3 95 118 115
3 95 119 118
3 95 120 119
3 100 121 116
3 122 93 117
3 95 123 120
3 122 95 93
3 122 123 95
3 112 100 99
3 112 121 100
3 122 124 123
3 112 125 121
3 126 124 122
3 126 127 124
3 126 128 127
3 112 129 125
3 130 128 126
3 130 131 128
3 132 131 130
3 132 133 131
3 134 129 112
3 134 135 129
3 132 136 133
3 134 137 135
3 138 136 132
3 139 137 134
3 138 140 136
3 139 141 137
3 142 140 138
3 143 141 139
3 142 144 140
3 143 145 141
3 146 144 142
3 147 145 143
3 146 148 144
3 147 149 145
3 150 148 146
3 151 149 147
3 150 152 148
3 151 153 149
3 154 152 150
3 155 153 151
3 154 156 152
3 155 157 153
3 158 156 154
3 159 157 155
3 158 160 156
3 159 161 157
3 162 160 158
3 163 161 159
3 162 164 160
3 163 165 161
3 166 164 162
3 167 165 163
3 166 168 164
3 167 169 165
3 170 168 166
3 171 169 167
3 170 172 168
3 171 173 169
3 174 172 170
3 175 173 171
3 174 176 172
3 175 177 173
3 178 176 174
3 179 177 175
3 180 181 178
3 181 176 178
3 180 182 181
3 183 177 179
3 184 177 183
3 185 177 184
3 186 177 185
3 187 177 186
3 188 177 187
3 189 177 188
3 190 177 189
3 191 177 190
3 192 177 191
3 193 177 192
3 194 177 193
3 195 177 194
3 195 196 177
3 195 197 196
3 198 182 180
3 195 199 197
3 200 182 198
3 195 201 199
3 202 182 200
3 195 203 201
3 204 182 202
3 195 205 203
3 206 182 204
3 195 207 205
3 208 182 206
3 195 209 207
3 210 182 208
3 195 211 209
3 212 182 210
3 195 213 211
3 214 182 212
3 195 215 213
3 216 182 214
3 195 217 215
3 218 182 216
3 219 182 218
3 219 220 182
3 219 221 220
3 219 222 221
3 219 223 222
3 219 224 223
3 219 225 224
3 219 226 225
3 219 227 226
3 219 228 227
3 219 229 228
3 219 230 229
3 219 231 230
3 219 232 231
3 233 195 234
3 233 217 195
3 233 235 217
3 219 236 232
3 233 237 235
3 238 236 219
3 239 237 233
3 238 240 236
3 239 241 237
3 242 240 238
3 243 241 239
3 242 244 240
3 243 245 241
3 246 244 242
3 247 245 243
3 246 248 244
3 247 249 245
3 250 248 246
3 251 249 247
3 250 252 248
3 251 253 249
3 254 252 250
3 255 253 251
3 254 256 252
3 255 257 253
3 258 256 254
3 259 257 255
3 260 256 258
3 260 261 256
3 262 257 259
3 262 263 257
3 264 261 260
3 264 265 261
3 266 263 262
3 266 267 263
3 268 265 264
3 268 269 265
3 270 267 266
3 270 271 267
3 272 269 268
3 272 273 269
3 274 271 270
3 274 275 271
3 276 273 272
3 276 277 273
3 278 275 274
3 278 279 275
3 280 277 276
3 280 281 277
3 281 282 277
3 283 279 278
3 283 284 279
3 285 284 283
3 285 286 284
3 287 281 280
3 288 286 285
3 289 286 288
3 289 290 286
3 290 291 286
3 292 293 287
3 293 281 287
3 294 290 289
3 295 296 294
3 296 290 294
3 292 297 293
3 298 282 281
3 295 299 296
3 300 291 290
3 300 301 291
3 302 297 292
3 303 299 295
3 304 299 303
3 305 299 304
3 300 306 301
3 307 297 302
3 308 299 305
3 309 299 308
3 310 299 309
3 298 310 282
3 298 299 310
3 300 311 306
3 312 297 307
3 300 313 311
3 314 297 312
3 300 315 313
3 316 297 314
3 300 317 315
3 318 297 316
3 300 319 317
3 320 297 318
3 300 321 319
3 322 297 320
3 322 298 297
3 322 299 298
3 322 300 299
3 322 321 300
3 323 321 322
3 323 324 321
3 325 326 323
3 326 324 323
3 325 327 326
3 328 324 326
3 329 324 328
3 330 324 329
3 331 324 330
3 332 324 331
3 333 324 332
3 334 324 333
3 335 324 334
3 336 324 335
3 337 324 336
3 338 324 337
3 339 324 338
3 340 324 339
3 340 341 324
3 342 327 325
3 343 341 340
3 342 344 327
3 343 345 341
3 346 344 342
3 347 345 343
3 346 348 344
3 347 349 345
3 350 348 346
3 351 349 347
3 350 352 348
3 351 353 349
3 354 352 350
3 355 353 351
3 354 356 352
3 355 357 353
3 358 356 354
3 359 357 355
3 358 360 356
3 359 361 357
3 362 360 358
3 363 361 359
3 362 364 360
3 363 365 361
3 366 364 362
3 367 365 363
3 366 368 364
3 367 369 365
3 370 368 366
3 371 369 367
3 370 372 368
3 371 373 369
3 374 372 370
3 375 373 371
3 374 376 372
3 375 377 373
3 378 376 374
3 379 377 375
3 378 380 376
3 379 381 377
3 382 380 378
3 383 381 379
3 382 384 380
3 383 385 381
3 386 384 382
3 387 384 386
3 388 384 387
3 389 384 388
3 390 384 389
3 391 384 390
3 392 384 391
3 393 384 392
3 394 384 393
3 395 384 394
3 396 384 395
3 397 385 383
3 398 385 397
3 399 385 398
3 400 385 399
3 401 385 400
3 402 385 401
3 403 385 402
3 404 385 403
3 405 385 404
3 406 385 405
3 407 385 406
