ply
format ascii 1.0
comment Created by Blender 2.91.2 - www.blender.org
element vertex 161
property float x
property float y
property float z
element face 161
property list uchar uint vertex_indices
end_header
-0.012242 0.075367 0.000000
-0.001435 0.075367 0.000000
-0.006839 0.075732 0.000000
-0.017428 0.074305 0.000000
0.003751 0.074305 0.000000
-0.022347 0.072593 0.000000
0.008670 0.072593 0.000000
-0.026951 0.070279 0.000000
0.013274 0.070279 0.000000
-0.031194 0.067412 0.000000
0.017517 0.067412 0.000000
-0.035026 0.064038 0.000000
0.021349 0.064038 0.000000
-0.038400 0.060207 0.000000
0.024723 0.060207 0.000000
-0.041268 0.055965 0.000000
0.027591 0.055965 0.000000
-0.043583 0.051362 0.000000
-0.009399 0.054572 0.000000
-0.006839 0.054745 0.000000
-0.004278 0.054572 0.000000
0.029905 0.051362 0.000000
-0.011855 0.054069 0.000000
-0.001822 0.054069 0.000000
-0.014185 0.053258 0.000000
0.000508 0.053258 0.000000
-0.016366 0.052163 0.000000
0.002689 0.052163 0.000000
-0.018376 0.050804 0.000000
0.004699 0.050804 0.000000
-0.045295 0.046444 0.000000
0.031618 0.046444 0.000000
-0.020191 0.049207 0.000000
0.006514 0.049206 0.000000
-0.021789 0.047392 0.000000
0.008112 0.047392 0.000000
-0.023148 0.045383 0.000000
0.009471 0.045383 0.000000
-0.046357 0.041260 0.000000
0.032680 0.041260 0.000000
-0.024244 0.043202 0.000000
0.010567 0.043202 0.000000
-0.025055 0.040872 0.000000
0.011378 0.040872 0.000000
0.033045 0.035857 0.000000
-0.046722 0.035857 0.000000
-0.025558 0.038416 0.000000
0.011881 0.038416 0.000000
-0.025731 0.035857 0.000000
0.012054 0.035857 0.000000
-0.046722 0.035485 0.000000
-0.025731 0.016969 0.000000
0.012054 0.035485 0.000000
0.033045 0.016969 0.000000
-0.046722 0.034458 0.000000
0.012054 0.034458 0.000000
-0.046722 0.032906 0.000000
0.012054 0.032906 0.000000
-0.046722 0.030960 0.000000
0.012054 0.030960 0.000000
-0.046722 0.028752 0.000000
0.012054 0.028752 0.000000
-0.046722 0.026413 0.000000
0.012054 0.026413 0.000000
-0.046722 0.024073 0.000000
0.012054 0.024073 0.000000
-0.046722 0.021865 0.000000
0.012054 0.021865 0.000000
-0.046722 0.019920 0.000000
0.012054 0.019920 0.000000
-0.046722 0.018368 0.000000
0.012054 0.018368 0.000000
-0.046722 0.017340 0.000000
0.012054 0.017340 0.000000
-0.046722 0.016969 0.000000
0.012054 0.016969 0.000000
-0.054728 0.016854 0.000000
-0.053020 0.016969 0.000000
0.039343 0.016969 0.000000
0.041051 0.016854 0.000000
0.042690 0.016519 0.000000
-0.056367 0.016519 0.000000
0.044244 0.015979 0.000000
-0.057921 0.015979 0.000000
0.045698 0.015249 0.000000
-0.059375 0.015249 0.000000
0.047038 0.014344 0.000000
-0.060715 0.014344 0.000000
0.048248 0.013279 0.000000
-0.061925 0.013279 0.000000
0.049312 0.012070 0.000000
-0.062989 0.012070 0.000000
0.050217 0.010731 0.000000
-0.063894 0.010731 0.000000
-0.064624 0.009277 0.000000
0.050947 0.009277 0.000000
-0.065164 0.007723 0.000000
0.051487 0.007723 0.000000
-0.065499 0.006084 0.000000
0.051822 0.006084 0.000000
-0.065614 0.004376 0.000000
0.051937 0.004376 0.000000
-0.065614 0.003385 0.000000
0.051937 0.003385 0.000000
0.051937 0.000645 0.000000
-0.065614 0.000645 0.000000
0.051937 -0.003494 0.000000
-0.065614 -0.003494 0.000000
0.051937 -0.008682 0.000000
-0.065614 -0.008682 0.000000
0.051937 -0.014570 0.000000
-0.065614 -0.014570 0.000000
0.051937 -0.020808 0.000000
-0.065614 -0.020808 0.000000
0.051937 -0.027046 0.000000
-0.065614 -0.027046 0.000000
0.051937 -0.032934 0.000000
-0.065614 -0.032934 0.000000
0.051937 -0.038122 0.000000
-0.065614 -0.038122 0.000000
0.051937 -0.042261 0.000000
-0.065614 -0.042261 0.000000
0.051937 -0.045001 0.000000
-0.065614 -0.045001 0.000000
0.051937 -0.045992 0.000000
-0.065614 -0.045992 0.000000
-0.065499 -0.047701 0.000000
0.051822 -0.047701 0.000000
-0.065164 -0.049339 0.000000
0.051487 -0.049339 0.000000
-0.064624 -0.050893 0.000000
0.050947 -0.050893 0.000000
-0.063894 -0.052347 0.000000
0.050217 -0.052347 0.000000
-0.062989 -0.053686 0.000000
0.049312 -0.053686 0.000000
-0.061925 -0.054896 0.000000
0.048248 -0.054896 0.000000
-0.060715 -0.055960 0.000000
0.047038 -0.055960 0.000000
-0.059375 -0.056865 0.000000
0.045698 -0.056865 0.000000
-0.057921 -0.057595 0.000000
0.044244 -0.057595 0.000000
-0.056367 -0.058135 0.000000
0.042690 -0.058135 0.000000
-0.054728 -0.058470 0.000000
0.041051 -0.058470 0.000000
-0.053020 -0.058585 0.000000
0.039343 -0.058585 0.000000
-0.051202 -0.058585 0.000000
-0.046178 -0.058585 0.000000
-0.038588 -0.058585 0.000000
-0.029074 -0.058585 0.000000
-0.018277 -0.058585 0.000000
-0.006839 -0.058585 0.000000
0.004600 -0.058585 0.000000
0.015397 -0.058585 0.000000
0.024911 -0.058585 0.000000
0.032501 -0.058585 0.000000
0.037525 -0.058585 0.000000
3 0 1 2
3 3 1 0
3 3 4 1
3 5 4 3
3 5 6 4
3 7 6 5
3 7 8 6
3 9 8 7
3 9 10 8
3 11 10 9
3 11 12 10
3 13 12 11
3 13 14 12
3 15 14 13
3 15 16 14
3 17 18 15
3 18 19 15
3 19 16 15
3 19 20 16
3 20 21 16
3 17 22 18
3 23 21 20
3 17 24 22
3 25 21 23
3 17 26 24
3 27 21 25
3 17 28 26
3 29 21 27
3 30 28 17
3 29 31 21
3 30 32 28
3 33 31 29
3 30 34 32
3 35 31 33
3 30 36 34
3 37 31 35
3 38 36 30
3 37 39 31
3 38 40 36
3 41 39 37
3 38 42 40
3 43 39 41
3 43 44 39
3 45 42 38
3 45 46 42
3 47 44 43
3 45 48 46
3 49 44 47
3 50 48 45
3 50 51 48
3 52 44 49
3 52 53 44
3 54 51 50
3 55 53 52
3 56 51 54
3 57 53 55
3 58 51 56
3 59 53 57
3 60 51 58
3 61 53 59
3 62 51 60
3 63 53 61
3 64 51 62
3 65 53 63
3 66 51 64
3 67 53 65
3 68 51 66
3 69 53 67
3 70 51 68
3 71 53 69
3 72 51 70
3 73 53 71
3 74 51 72
3 75 53 73
3 76 74 77
3 76 51 74
3 76 75 51
3 76 53 75
3 76 78 53
3 76 79 78
3 76 80 79
3 81 80 76
3 81 82 80
3 83 82 81
3 83 84 82
3 85 84 83
3 85 86 84
3 87 86 85
3 87 88 86
3 89 88 87
3 89 90 88
3 91 90 89
3 91 92 90
3 93 92 91
3 94 92 93
3 94 95 92
3 96 95 94
3 96 97 95
3 98 97 96
3 98 99 97
3 100 99 98
3 100 101 99
3 102 101 100
3 102 103 101
3 102 104 103
3 105 104 102
3 105 106 104
3 107 106 105
3 107 108 106
3 109 108 107
3 109 110 108
3 111 110 109
3 111 112 110
3 113 112 111
3 113 114 112
3 115 114 113
3 115 116 114
3 117 116 115
3 117 118 116
3 119 118 117
3 119 120 118
3 121 120 119
3 121 122 120
3 123 122 121
3 123 124 122
3 125 124 123
3 126 124 125
3 126 127 124
3 128 127 126
3 128 129 127
3 130 129 128
3 130 131 129
3 132 131 130
3 132 133 131
3 134 133 132
3 134 135 133
3 136 135 134
3 136 137 135
3 138 137 136
3 138 139 137
3 140 139 138
3 140 141 139
3 142 141 140
3 142 143 141
3 144 143 142
3 144 145 143
3 146 145 144
3 146 147 145
3 148 147 146
3 148 149 147
3 150 149 148
3 151 149 150
3 152 149 151
3 153 149 152
3 154 149 153
3 155 149 154
3 156 149 155
3 157 149 156
3 158 149 157
3 159 149 158
3 160 149 159
