ply
format ascii 1.0
comment Created by Blender 2.90.0 - www.blender.org
element vertex 12
property float x
property float y
property float z
property uchar red
property uchar green
property uchar blue
property uchar alpha
element face 8
property list uchar uint vertex_indices
end_header
0.580742 1.039382 0.000000 255 255 255 255
-0.582895 1.013523 0.000000 255 255 255 255
0.580702 1.013523 0.000000 255 255 255 255
-0.582300 1.000000 0.000000 255 255 255 255
0.580709 1.000000 0.000000 255 255 255 255
0.580702 -1.013506 0.000000 255 255 255 255
-0.581161 -1.000000 0.000000 255 255 255 255
-0.581743 -1.013506 0.000000 255 255 255 255
0.580698 -1.039350 0.000000 255 255 255 255
-0.583619 1.039382 0.000000 255 255 255 255
0.580693 -1.000000 0.000000 255 255 255 255
-0.582436 -1.039350 0.000000 255 255 255 255
3 0 1 2
3 2 3 4
3 5 6 7
3 7 8 5
3 0 9 1
3 2 1 3
3 5 10 6
3 7 11 8
