ply
format ascii 1.0
comment Created by Blender 2.91.2 - www.blender.org
element vertex 6
property float x
property float y
property float z
property uchar red
property uchar green
property uchar blue
property uchar alpha
element face 4
property list uchar uint vertex_indices
end_header
-0.275655 1.113506 0.000000 255 255 255 255
0.674727 1.100000 0.000000 255 255 255 255
0.675300 1.113506 0.000000 255 255 255 255
-0.275648 1.127145 0.000000 255 255 255 255
-0.275648 1.100000 0.000000 255 255 255 255
0.675290 1.127145 0.000000 255 255 255 255
3 0 1 2
3 2 3 0
3 0 4 1
3 2 5 3
