ply
format ascii 1.0
comment Created by Blender 2.91.2 - www.blender.org
element vertex 218
property float x
property float y
property float z
element face 216
property list uchar uint vertex_indices
end_header
0.040385 0.075489 0.000000
0.051230 0.075530 0.000000
0.045805 0.075878 0.000000
0.056437 0.074479 0.000000
0.035192 0.074396 0.000000
0.061378 0.072775 0.000000
0.030273 0.072647 0.000000
0.066004 0.070464 0.000000
0.025675 0.070292 0.000000
0.070267 0.067595 0.000000
0.021443 0.067380 0.000000
0.074118 0.064217 0.000000
0.017624 0.063960 0.000000
0.077509 0.060377 0.000000
0.014265 0.060083 0.000000
0.080392 0.056124 0.000000
0.011412 0.055797 0.000000
0.045753 0.054861 0.000000
0.048336 0.054711 0.000000
0.082719 0.051506 0.000000
0.009113 0.051151 0.000000
0.043198 0.054661 0.000000
0.050817 0.054224 0.000000
0.040752 0.054128 0.000000
0.053172 0.053424 0.000000
0.038435 0.053287 0.000000
0.055376 0.052333 0.000000
0.036271 0.052161 0.000000
0.057409 0.050975 0.000000
0.034279 0.050773 0.000000
0.084441 0.046572 0.000000
0.007413 0.046196 0.000000
0.059245 0.049374 0.000000
0.032483 0.049147 0.000000
0.060863 0.047551 0.000000
0.030904 0.047307 0.000000
0.062238 0.045532 0.000000
0.029563 0.045275 0.000000
0.085509 0.041369 0.000000
0.006358 0.040980 0.000000
0.063349 0.043338 0.000000
0.028482 0.043076 0.000000
0.064170 0.040994 0.000000
0.027683 0.040733 0.000000
0.085876 0.035946 0.000000
0.064680 0.038522 0.000000
0.005997 0.035552 0.000000
0.027188 0.038270 0.000000
0.064855 0.035946 0.000000
0.027018 0.035710 0.000000
0.064855 0.035533 0.000000
0.085876 0.035533 0.000000
0.027018 0.017031 0.000000
0.005997 0.035188 0.000000
0.064855 0.034389 0.000000
0.085876 0.034389 0.000000
0.005997 0.034180 0.000000
0.064855 0.032662 0.000000
0.085876 0.032662 0.000000
0.005997 0.032658 0.000000
0.064855 0.030497 0.000000
0.085876 0.030497 0.000000
0.005997 0.030750 0.000000
0.005997 0.028585 0.000000
0.064855 0.028041 0.000000
0.085876 0.028041 0.000000
0.005997 0.026292 0.000000
0.064855 0.025438 0.000000
0.085876 0.025438 0.000000
0.005997 0.023998 0.000000
0.064855 0.022835 0.000000
0.085876 0.022835 0.000000
0.005997 0.021833 0.000000
0.064855 0.020378 0.000000
0.085876 0.020378 0.000000
0.005997 0.019925 0.000000
0.064855 0.018213 0.000000
0.085876 0.018213 0.000000
0.005997 0.018403 0.000000
0.005997 0.017396 0.000000
0.064855 0.016486 0.000000
0.085876 0.016486 0.000000
0.005997 0.017031 0.000000
-0.054573 0.016916 0.000000
-0.052862 0.017031 0.000000
0.027266 0.017031 0.000000
0.027952 0.017031 0.000000
0.028988 0.017031 0.000000
0.030288 0.017031 0.000000
0.031762 0.017031 0.000000
0.033324 0.017031 0.000000
0.034886 0.017031 0.000000
0.036360 0.017031 0.000000
0.037660 0.017031 0.000000
0.038696 0.017031 0.000000
0.039382 0.017031 0.000000
0.039630 0.017031 0.000000
0.041341 0.016916 0.000000
-0.056214 0.016581 0.000000
0.042982 0.016581 0.000000
-0.057770 0.016040 0.000000
0.044539 0.016040 0.000000
0.064855 0.015343 0.000000
0.085876 0.015343 0.000000
-0.059227 0.015309 0.000000
0.045995 0.015309 0.000000
0.064855 0.014930 0.000000
0.085876 0.014930 0.000000
-0.060568 0.014403 0.000000
0.047336 0.014403 0.000000
0.064913 0.014072 0.000000
0.085819 0.014072 0.000000
-0.061780 0.013337 0.000000
0.048548 0.013337 0.000000
0.085652 0.013249 0.000000
0.065080 0.013249 0.000000
-0.062846 0.012126 0.000000
0.049614 0.012126 0.000000
0.085382 0.012470 0.000000
0.065349 0.012470 0.000000
0.085018 0.011742 0.000000
0.065714 0.011742 0.000000
-0.063752 0.010785 0.000000
0.050520 0.010785 0.000000
0.084566 0.011072 0.000000
0.066166 0.011072 0.000000
0.084034 0.010467 0.000000
0.066698 0.010467 0.000000
-0.064483 0.009329 0.000000
0.051251 0.009329 0.000000
0.083429 0.009935 0.000000
0.067303 0.009935 0.000000
0.082758 0.009483 0.000000
0.067974 0.009483 0.000000
0.082030 0.009118 0.000000
0.068702 0.009118 0.000000
-0.065024 0.007773 0.000000
0.051792 0.007773 0.000000
0.081251 0.008849 0.000000
0.069481 0.008849 0.000000
0.080428 0.008682 0.000000
0.070303 0.008682 0.000000
0.071162 0.008625 0.000000
0.079570 0.008625 0.000000
0.071327 0.008625 0.000000
0.071785 0.008625 0.000000
0.072476 0.008625 0.000000
0.073342 0.008625 0.000000
0.074325 0.008625 0.000000
0.075366 0.008625 0.000000
0.076407 0.008625 0.000000
0.077390 0.008625 0.000000
0.078256 0.008625 0.000000
0.078947 0.008625 0.000000
0.079405 0.008625 0.000000
-0.065359 0.006132 0.000000
0.052128 0.006132 0.000000
-0.065475 0.004421 0.000000
0.052243 0.004421 0.000000
-0.065475 0.003429 0.000000
0.052243 0.003429 0.000000
-0.065475 0.000685 0.000000
0.052243 0.000685 0.000000
-0.065475 -0.003460 0.000000
0.052243 -0.003460 0.000000
-0.065475 -0.008656 0.000000
0.052243 -0.008656 0.000000
-0.065475 -0.014552 0.000000
0.052243 -0.014552 0.000000
-0.065475 -0.020799 0.000000
0.052243 -0.020799 0.000000
-0.065475 -0.027045 0.000000
0.052243 -0.027045 0.000000
-0.065475 -0.032941 0.000000
0.052243 -0.032941 0.000000
-0.065475 -0.038137 0.000000
0.052243 -0.038137 0.000000
-0.065475 -0.042282 0.000000
0.052243 -0.042282 0.000000
-0.065475 -0.045026 0.000000
0.052243 -0.045026 0.000000
-0.065475 -0.046018 0.000000
0.052243 -0.046018 0.000000
-0.065359 -0.047729 0.000000
0.052128 -0.047729 0.000000
-0.065024 -0.049370 0.000000
0.051792 -0.049370 0.000000
-0.064483 -0.050926 0.000000
0.051251 -0.050926 0.000000
-0.063752 -0.052382 0.000000
0.050520 -0.052382 0.000000
-0.062846 -0.053723 0.000000
0.049614 -0.053723 0.000000
-0.061780 -0.054934 0.000000
0.048548 -0.054934 0.000000
-0.060568 -0.056000 0.000000
0.047336 -0.056000 0.000000
-0.059227 -0.056906 0.000000
0.045995 -0.056906 0.000000
-0.057770 -0.057637 0.000000
0.044539 -0.057637 0.000000
-0.056214 -0.058178 0.000000
0.042982 -0.058178 0.000000
-0.054573 -0.058513 0.000000
0.041341 -0.058513 0.000000
-0.052862 -0.058628 0.000000
0.039630 -0.058628 0.000000
-0.051042 -0.058628 0.000000
-0.046011 -0.058628 0.000000
-0.038410 -0.058628 0.000000
-0.028883 -0.058628 0.000000
-0.018070 -0.058628 0.000000
-0.006616 -0.058628 0.000000
0.004839 -0.058628 0.000000
0.015651 -0.058628 0.000000
0.025178 -0.058628 0.000000
0.032779 -0.058628 0.000000
0.037810 -0.058628 0.000000
3 0 1 2
3 0 3 1
3 4 3 0
3 4 5 3
3 6 5 4
3 6 7 5
3 8 7 6
3 8 9 7
3 10 9 8
3 10 11 9
3 12 11 10
3 12 13 11
3 14 13 12
3 14 15 13
3 16 15 14
3 16 17 15
3 17 18 15
3 18 19 15
3 20 21 16
3 21 17 16
3 22 19 18
3 20 23 21
3 24 19 22
3 20 25 23
3 26 19 24
3 20 27 25
3 28 19 26
3 20 29 27
3 28 30 19
3 31 29 20
3 32 30 28
3 31 33 29
3 34 30 32
3 31 35 33
3 36 30 34
3 31 37 35
3 36 38 30
3 39 37 31
3 40 38 36
3 39 41 37
3 42 38 40
3 39 43 41
3 42 44 38
3 45 44 42
3 46 43 39
3 46 47 43
3 48 44 45
3 46 49 47
3 50 44 48
3 50 51 44
3 46 52 49
3 53 52 46
3 54 51 50
3 54 55 51
3 56 52 53
3 57 55 54
3 57 58 55
3 59 52 56
3 60 58 57
3 60 61 58
3 62 52 59
3 63 52 62
3 64 61 60
3 64 65 61
3 66 52 63
3 67 65 64
3 67 68 65
3 69 52 66
3 70 68 67
3 70 71 68
3 72 52 69
3 73 71 70
3 73 74 71
3 75 52 72
3 76 74 73
3 76 77 74
3 78 52 75
3 79 52 78
3 80 77 76
3 80 81 77
3 82 52 79
3 83 82 84
3 83 52 82
3 83 85 52
3 83 86 85
3 83 87 86
3 83 88 87
3 83 89 88
3 83 90 89
3 83 91 90
3 83 92 91
3 83 93 92
3 83 94 93
3 83 95 94
3 83 96 95
3 83 97 96
3 98 97 83
3 98 99 97
3 100 99 98
3 100 101 99
3 102 81 80
3 102 103 81
3 104 101 100
3 104 105 101
3 106 103 102
3 106 107 103
3 108 105 104
3 108 109 105
3 110 107 106
3 110 111 107
3 112 109 108
3 112 113 109
3 110 114 111
3 115 114 110
3 116 113 112
3 116 117 113
3 115 118 114
3 119 118 115
3 119 120 118
3 121 120 119
3 122 117 116
3 122 123 117
3 121 124 120
3 125 124 121
3 125 126 124
3 127 126 125
3 128 123 122
3 128 129 123
3 127 130 126
3 131 130 127
3 131 132 130
3 133 132 131
3 133 134 132
3 135 134 133
3 136 129 128
3 136 137 129
3 135 138 134
3 139 138 135
3 139 140 138
3 141 140 139
3 142 140 141
3 142 143 140
3 144 143 142
3 145 143 144
3 146 143 145
3 147 143 146
3 148 143 147
3 149 143 148
3 150 143 149
3 151 143 150
3 152 143 151
3 153 143 152
3 154 143 153
3 155 137 136
3 155 156 137
3 157 156 155
3 157 158 156
3 159 158 157
3 159 160 158
3 161 160 159
3 161 162 160
3 163 162 161
3 163 164 162
3 165 164 163
3 165 166 164
3 167 166 165
3 167 168 166
3 169 168 167
3 169 170 168
3 171 170 169
3 171 172 170
3 173 172 171
3 173 174 172
3 175 174 173
3 175 176 174
3 177 176 175
3 177 178 176
3 179 178 177
3 179 180 178
3 181 180 179
3 181 182 180
3 183 182 181
3 183 184 182
3 185 184 183
3 185 186 184
3 187 186 185
3 187 188 186
3 189 188 187
3 189 190 188
3 191 190 189
3 191 192 190
3 193 192 191
3 193 194 192
3 195 194 193
3 195 196 194
3 197 196 195
3 197 198 196
3 199 198 197
3 199 200 198
3 201 200 199
3 201 202 200
3 203 202 201
3 203 204 202
3 205 204 203
3 205 206 204
3 207 206 205
3 208 206 207
3 209 206 208
3 210 206 209
3 211 206 210
3 212 206 211
3 213 206 212
3 214 206 213
3 215 206 214
3 216 206 215
3 217 206 216
