ply
format ascii 1.0
comment Created by Blender 2.90.1 - www.blender.org
element vertex 92
property float x
property float y
property float z
element face 84
property list uchar uint vertex_indices
end_header
-0.072407 -0.033213 0.000000
-0.000033 -0.032785 0.000000
-0.070745 -0.032785 0.000000
0.001629 -0.033213 0.000000
-0.073767 -0.034396 0.000000
0.002988 -0.034396 0.000000
-0.074824 -0.036184 0.000000
0.004046 -0.036184 0.000000
-0.075579 -0.038425 0.000000
0.004801 -0.038425 0.000000
-0.076032 -0.040968 0.000000
0.005254 -0.040968 0.000000
-0.076184 -0.043661 0.000000
0.005405 -0.043661 0.000000
-0.076032 -0.046355 0.000000
0.005254 -0.046355 0.000000
-0.075579 -0.048898 0.000000
0.004801 -0.048898 0.000000
-0.074824 -0.051139 0.000000
0.004046 -0.051139 0.000000
-0.073767 -0.052927 0.000000
0.002988 -0.052927 0.000000
-0.072407 -0.054110 0.000000
0.001629 -0.054110 0.000000
-0.070745 -0.054538 0.000000
-0.000033 -0.054538 0.000000
-0.072407 0.010293 0.000000
-0.000033 0.010721 0.000000
-0.070745 0.010721 0.000000
0.001504 0.010332 0.000000
0.002748 0.009178 0.000000
-0.073767 0.009110 0.000000
0.003703 0.007412 0.000000
-0.074824 0.007322 0.000000
0.004373 0.005184 0.000000
-0.075579 0.005081 0.000000
0.004762 0.002647 0.000000
-0.076032 0.002538 0.000000
0.004874 -0.000048 0.000000
-0.076184 -0.000155 0.000000
0.004713 -0.002748 0.000000
-0.076032 -0.002849 0.000000
0.004284 -0.005304 0.000000
-0.075579 -0.005392 0.000000
0.003591 -0.007561 0.000000
-0.074824 -0.007633 0.000000
0.002638 -0.009370 0.000000
-0.073767 -0.009421 0.000000
0.001428 -0.010577 0.000000
-0.072407 -0.010604 0.000000
-0.000033 -0.011032 0.000000
-0.070745 -0.011032 0.000000
-0.072407 0.053799 0.000000
-0.000033 0.054227 0.000000
-0.070745 0.054227 0.000000
0.001629 0.053801 0.000000
0.002988 0.052623 0.000000
-0.073767 0.052616 0.000000
0.004046 0.050842 0.000000
-0.074824 0.050828 0.000000
0.004801 0.048610 0.000000
-0.075579 0.048587 0.000000
0.005254 0.046075 0.000000
-0.076032 0.046044 0.000000
0.005405 0.043388 0.000000
-0.076184 0.043351 0.000000
0.005254 0.040699 0.000000
-0.076032 0.040657 0.000000
0.004801 0.038158 0.000000
-0.075579 0.038114 0.000000
0.004045 0.035915 0.000000
-0.074824 0.035873 0.000000
0.002988 0.034120 0.000000
-0.073767 0.034085 0.000000
0.001628 0.032923 0.000000
-0.072407 0.032902 0.000000
-0.000033 0.032474 0.000000
-0.070745 0.032474 0.000000
0.031984 0.014465 0.000000
0.043833 0.014410 0.000000
0.037905 0.014543 0.000000
0.026465 0.014169 0.000000
0.049375 0.014068 0.000000
0.021742 0.013652 0.000000
0.054137 0.013524 0.000000
0.018208 0.012908 0.000000
0.057724 0.012781 0.000000
0.016258 0.011932 0.000000
0.059743 0.011845 0.000000
0.016285 0.010721 0.000000
0.059800 0.010721 0.000000
0.038043 -0.016878 0.000000
3 0 1 2
3 0 3 1
3 4 3 0
3 4 5 3
3 6 5 4
3 6 7 5
3 8 7 6
3 8 9 7
3 10 9 8
3 10 11 9
3 12 11 10
3 12 13 11
3 14 13 12
3 14 15 13
3 16 15 14
3 16 17 15
3 18 17 16
3 18 19 17
3 20 19 18
3 20 21 19
3 22 21 20
3 22 23 21
3 24 23 22
3 24 25 23
3 26 27 28
3 26 29 27
3 26 30 29
3 31 30 26
3 31 32 30
3 33 32 31
3 33 34 32
3 35 34 33
3 35 36 34
3 37 36 35
3 37 38 36
3 39 38 37
3 39 40 38
3 41 40 39
3 41 42 40
3 43 42 41
3 43 44 42
3 45 44 43
3 45 46 44
3 47 46 45
3 47 48 46
3 49 48 47
3 49 50 48
3 51 50 49
3 52 53 54
3 52 55 53
3 52 56 55
3 57 56 52
3 57 58 56
3 59 58 57
3 59 60 58
3 61 60 59
3 61 62 60
3 63 62 61
3 63 64 62
3 65 64 63
3 65 66 64
3 67 66 65
3 67 68 66
3 69 68 67
3 69 70 68
3 71 70 69
3 71 72 70
3 73 72 71
3 73 74 72
3 75 74 73
3 75 76 74
3 77 76 75
3 78 79 80
3 81 79 78
3 81 82 79
3 83 82 81
3 83 84 82
3 85 84 83
3 85 86 84
3 87 86 85
3 87 88 86
3 89 88 87
3 89 90 88
3 91 90 89
