ply
format ascii 1.0
comment Created by Blender 2.82 (sub 7) - www.blender.org, source file: 'border_round.blend'
element vertex 12
property float x
property float y
property float z
property uchar red
property uchar green
property uchar blue
property uchar alpha
element face 8
property list uchar uint vertex_indices
end_header
-0.475648 -1.027167 0.000000 255 255 255 255
0.475433 -1.013523 0.000000 255 255 255 255
-0.475655 -1.013523 0.000000 255 255 255 255
0.475659 -1.000000 0.000000 255 255 255 255
-0.475662 -1.000000 0.000000 255 255 255 255
-0.475655 1.013506 0.000000 255 255 255 255
0.474727 1.000000 0.000000 255 255 255 255
0.475300 1.013506 0.000000 255 255 255 255
-0.475648 1.027145 0.000000 255 255 255 255
0.475346 -1.027167 0.000000 255 255 255 255
-0.475648 1.000000 0.000000 255 255 255 255
0.475290 1.027145 0.000000 255 255 255 255
3 0 1 2
3 2 3 4
3 5 6 7
3 7 8 5
3 0 9 1
3 2 1 3
3 5 10 6
3 7 11 8
