ply
format ascii 1.0
comment Created by Blender 2.91.2 - www.blender.org
element vertex 18
property float x
property float y
property float z
property uchar red
property uchar green
property uchar blue
property uchar alpha
element face 21
property list uchar uint vertex_indices
end_header
1.299734 1.127167 0.000000 255 255 255 255
0.236786 1.113523 0.000000 255 255 255 255
1.299741 1.113523 0.000000 255 255 255 255
0.248719 1.100000 0.000000 255 255 255 255
1.299747 1.100000 0.000000 255 255 255 255
0.224496 1.099211 0.000000 255 255 255 255
0.217461 1.111536 0.000000 255 255 255 255
0.208094 1.091539 0.000000 255 255 255 255
0.174890 1.091562 0.000000 255 255 255 255
0.197044 1.102581 0.000000 255 255 255 255
0.018332 1.027078 0.000000 255 255 255 255
0.186032 1.080750 0.000000 255 255 255 255
-0.014265 1.017066 0.000000 255 255 255 255
0.161270 1.104778 0.000000 255 255 255 255
0.183538 1.116078 0.000000 255 255 255 255
0.204229 1.125153 0.000000 255 255 255 255
0.223815 1.127167 0.000000 255 255 255 255
0.076770 1.027285 0.000000 255 255 255 255
3 0 1 2
3 2 3 4
3 1 5 3
3 6 7 5
3 8 7 9
3 10 11 8
3 8 12 10
3 13 9 14
3 9 15 14
3 6 16 15
3 0 16 1
3 2 1 3
3 1 6 5
3 6 9 7
3 8 11 7
3 10 17 11
3 8 13 12
3 13 8 9
3 9 6 15
3 6 1 16
3 10 12 17
