ply
format ascii 1.0
comment Created by Blender 2.90.0 - www.blender.org
element vertex 222
property float x
property float y
property float z
property uchar red
property uchar green
property uchar blue
property uchar alpha
element face 218
property list uchar uint vertex_indices
end_header
0.001849 -0.014168 0.000000 255 255 255 255
0.001849 -0.013014 0.000000 255 255 255 255
0.001812 -0.013591 0.000000 255 255 255 255
0.001959 -0.012445 0.000000 255 255 255 255
0.001959 -0.014736 0.000000 255 255 255 255
0.002143 -0.011892 0.000000 255 255 255 255
0.002143 -0.015290 0.000000 255 255 255 255
0.002400 -0.011361 0.000000 255 255 255 255
0.002400 -0.015821 0.000000 255 255 255 255
0.002730 -0.010860 0.000000 255 255 255 255
0.002730 -0.016322 0.000000 255 255 255 255
0.003134 -0.010398 0.000000 255 255 255 255
0.003134 -0.016784 0.000000 255 255 255 255
0.029287 -0.042943 0.000000 255 255 255 255
0.003275 -0.010257 0.000000 255 255 255 255
0.003665 -0.009868 0.000000 255 255 255 255
0.004253 -0.009279 0.000000 255 255 255 255
0.004990 -0.008541 0.000000 255 255 255 255
0.005827 -0.007704 0.000000 255 255 255 255
0.006714 -0.006818 0.000000 255 255 255 255
0.007601 -0.005931 0.000000 255 255 255 255
0.008438 -0.005094 0.000000 255 255 255 255
0.009175 -0.004356 0.000000 255 255 255 255
0.009763 -0.003767 0.000000 255 255 255 255
0.010153 -0.003378 0.000000 255 255 255 255
0.010294 -0.003237 0.000000 255 255 255 255
0.010756 -0.002833 0.000000 255 255 255 255
0.011256 -0.002502 0.000000 255 255 255 255
0.011787 -0.002245 0.000000 255 255 255 255
0.012341 -0.002061 0.000000 255 255 255 255
0.012909 -0.001951 0.000000 255 255 255 255
0.013486 -0.001914 0.000000 255 255 255 255
0.014062 -0.001951 0.000000 255 255 255 255
0.014631 -0.002061 0.000000 255 255 255 255
0.015185 -0.002245 0.000000 255 255 255 255
0.015716 -0.002502 0.000000 255 255 255 255
0.016216 -0.002833 0.000000 255 255 255 255
0.016678 -0.003237 0.000000 255 255 255 255
0.042831 -0.029396 0.000000 255 255 255 255
0.018138 -0.057873 0.000000 255 255 255 255
0.018084 -0.055318 0.000000 255 255 255 255
0.017989 -0.056604 0.000000 255 255 255 255
0.018438 -0.054051 0.000000 255 255 255 255
0.018516 -0.059088 0.000000 255 255 255 255
0.019067 -0.052837 0.000000 255 255 255 255
0.019109 -0.060215 0.000000 255 255 255 255
0.019984 -0.051714 0.000000 255 255 255 255
0.019902 -0.061217 0.000000 255 255 255 255
0.020879 -0.062058 0.000000 255 255 255 255
0.020167 -0.051541 0.000000 255 255 255 255
0.020673 -0.051064 0.000000 255 255 255 255
0.021438 -0.050343 0.000000 255 255 255 255
0.022027 -0.062704 0.000000 255 255 255 255
0.022396 -0.049440 0.000000 255 255 255 255
0.023329 -0.063117 0.000000 255 255 255 255
0.023483 -0.048414 0.000000 255 255 255 255
0.024773 -0.063263 0.000000 255 255 255 255
0.024636 -0.047328 0.000000 255 255 255 255
0.025788 -0.046242 0.000000 255 255 255 255
0.025394 -0.063263 0.000000 255 255 255 255
0.027114 -0.063263 0.000000 255 255 255 255
0.026875 -0.045217 0.000000 255 255 255 255
0.027834 -0.044313 0.000000 255 255 255 255
0.029711 -0.063263 0.000000 255 255 255 255
0.028598 -0.043592 0.000000 255 255 255 255
0.029104 -0.043115 0.000000 255 255 255 255
0.032966 -0.063263 0.000000 255 255 255 255
0.036660 -0.063263 0.000000 255 255 255 255
0.040574 -0.063263 0.000000 255 255 255 255
0.044488 -0.063263 0.000000 255 255 255 255
0.051587 -0.020104 0.000000 255 255 255 255
0.048182 -0.063263 0.000000 255 255 255 255
0.051438 -0.063263 0.000000 255 255 255 255
0.054035 -0.063263 0.000000 255 255 255 255
0.052710 -0.019187 0.000000 255 255 255 255
0.053925 -0.018558 0.000000 255 255 255 255
0.055193 -0.018204 0.000000 255 255 255 255
0.055754 -0.063263 0.000000 255 255 255 255
0.056480 -0.018108 0.000000 255 255 255 255
0.056375 -0.063263 0.000000 255 255 255 255
0.057294 -0.063201 0.000000 255 255 255 255
0.057750 -0.018257 0.000000 255 255 255 255
0.058176 -0.063022 0.000000 255 255 255 255
0.058967 -0.018636 0.000000 255 255 255 255
0.059011 -0.062733 0.000000 255 255 255 255
0.060095 -0.019229 0.000000 255 255 255 255
0.059793 -0.062342 0.000000 255 255 255 255
0.060514 -0.061857 0.000000 255 255 255 255
0.061098 -0.020021 0.000000 255 255 255 255
0.061164 -0.061286 0.000000 255 255 255 255
0.061941 -0.020999 0.000000 255 255 255 255
0.061736 -0.060637 0.000000 255 255 255 255
0.062223 -0.059918 0.000000 255 255 255 255
0.062587 -0.022147 0.000000 255 255 255 255
0.062615 -0.059138 0.000000 255 255 255 255
0.063002 -0.023450 0.000000 255 255 255 255
0.062906 -0.058303 0.000000 255 255 255 255
0.063086 -0.057422 0.000000 255 255 255 255
0.063148 -0.024894 0.000000 255 255 255 255
0.063148 -0.056503 0.000000 255 255 255 255
0.063148 -0.055881 0.000000 255 255 255 255
0.063148 -0.054162 0.000000 255 255 255 255
0.063148 -0.051564 0.000000 255 255 255 255
0.063148 -0.048308 0.000000 255 255 255 255
0.063148 -0.044613 0.000000 255 255 255 255
0.063148 -0.040698 0.000000 255 255 255 255
0.063148 -0.036784 0.000000 255 255 255 255
0.063148 -0.033089 0.000000 255 255 255 255
0.063148 -0.029833 0.000000 255 255 255 255
0.063148 -0.027235 0.000000 255 255 255 255
0.063148 -0.025515 0.000000 255 255 255 255
-0.063118 0.023362 0.000000 255 255 255 255
-0.063264 0.025428 0.000000 255 255 255 255
-0.063264 0.024806 0.000000 255 255 255 255
-0.063264 0.027147 0.000000 255 255 255 255
-0.063264 0.029745 0.000000 255 255 255 255
-0.063264 0.033001 0.000000 255 255 255 255
-0.063264 0.036696 0.000000 255 255 255 255
-0.063264 0.040610 0.000000 255 255 255 255
-0.063264 0.044525 0.000000 255 255 255 255
-0.063264 0.048220 0.000000 255 255 255 255
-0.063264 0.051476 0.000000 255 255 255 255
-0.063264 0.054074 0.000000 255 255 255 255
-0.063264 0.055793 0.000000 255 255 255 255
-0.063264 0.056415 0.000000 255 255 255 255
-0.063202 0.057334 0.000000 255 255 255 255
-0.063022 0.058215 0.000000 255 255 255 255
-0.062704 0.022059 0.000000 255 255 255 255
-0.062732 0.059050 0.000000 255 255 255 255
-0.062339 0.059830 0.000000 255 255 255 255
-0.062058 0.020911 0.000000 255 255 255 255
-0.061853 0.060549 0.000000 255 255 255 255
-0.061215 0.019934 0.000000 255 255 255 255
-0.061280 0.061198 0.000000 255 255 255 255
-0.060630 0.061769 0.000000 255 255 255 255
-0.060211 0.019141 0.000000 255 255 255 255
-0.059910 0.062254 0.000000 255 255 255 255
-0.059083 0.018548 0.000000 255 255 255 255
-0.059128 0.062645 0.000000 255 255 255 255
-0.058292 0.062934 0.000000 255 255 255 255
-0.057867 0.018169 0.000000 255 255 255 255
-0.057411 0.063114 0.000000 255 255 255 255
-0.056597 0.018020 0.000000 255 255 255 255
-0.056492 0.063175 0.000000 255 255 255 255
-0.055309 0.018116 0.000000 255 255 255 255
-0.055870 0.063175 0.000000 255 255 255 255
-0.054151 0.063175 0.000000 255 255 255 255
-0.054041 0.018470 0.000000 255 255 255 255
-0.051554 0.063175 0.000000 255 255 255 255
-0.052827 0.019099 0.000000 255 255 255 255
-0.051703 0.020016 0.000000 255 255 255 255
-0.042948 0.029308 0.000000 255 255 255 255
-0.048299 0.063175 0.000000 255 255 255 255
-0.044604 0.063175 0.000000 255 255 255 255
-0.040690 0.063175 0.000000 255 255 255 255
-0.016795 0.003149 0.000000 255 255 255 255
-0.036777 0.063175 0.000000 255 255 255 255
-0.029404 0.042855 0.000000 255 255 255 255
-0.033082 0.063175 0.000000 255 255 255 255
-0.029827 0.063175 0.000000 255 255 255 255
-0.027230 0.063175 0.000000 255 255 255 255
-0.003251 0.016696 0.000000 255 255 255 255
-0.029221 0.043027 0.000000 255 255 255 255
-0.028715 0.043504 0.000000 255 255 255 255
-0.027950 0.044225 0.000000 255 255 255 255
-0.026992 0.045129 0.000000 255 255 255 255
-0.025511 0.063175 0.000000 255 255 255 255
-0.025904 0.046154 0.000000 255 255 255 255
-0.024752 0.047240 0.000000 255 255 255 255
-0.024889 0.063175 0.000000 255 255 255 255
-0.023446 0.063029 0.000000 255 255 255 255
-0.023600 0.048327 0.000000 255 255 255 255
-0.022512 0.049352 0.000000 255 255 255 255
-0.022143 0.062616 0.000000 255 255 255 255
-0.021554 0.050255 0.000000 255 255 255 255
-0.020996 0.061971 0.000000 255 255 255 255
-0.020789 0.050976 0.000000 255 255 255 255
-0.020018 0.061129 0.000000 255 255 255 255
-0.020283 0.051453 0.000000 255 255 255 255
-0.020100 0.051626 0.000000 255 255 255 255
-0.019183 0.052749 0.000000 255 255 255 255
-0.019225 0.060127 0.000000 255 255 255 255
-0.018632 0.059001 0.000000 255 255 255 255
-0.018555 0.053963 0.000000 255 255 255 255
-0.018254 0.057785 0.000000 255 255 255 255
-0.018200 0.055231 0.000000 255 255 255 255
-0.018105 0.056517 0.000000 255 255 255 255
-0.016332 0.002745 0.000000 255 255 255 255
-0.015832 0.002414 0.000000 255 255 255 255
-0.015301 0.002157 0.000000 255 255 255 255
-0.014748 0.001973 0.000000 255 255 255 255
-0.014179 0.001863 0.000000 255 255 255 255
-0.013602 0.001826 0.000000 255 255 255 255
-0.013026 0.001863 0.000000 255 255 255 255
-0.012457 0.001973 0.000000 255 255 255 255
-0.011904 0.002157 0.000000 255 255 255 255
-0.011373 0.002414 0.000000 255 255 255 255
-0.010872 0.002745 0.000000 255 255 255 255
-0.010410 0.003149 0.000000 255 255 255 255
-0.010269 0.003290 0.000000 255 255 255 255
-0.009880 0.003680 0.000000 255 255 255 255
-0.009291 0.004268 0.000000 255 255 255 255
-0.008554 0.005006 0.000000 255 255 255 255
-0.007717 0.005843 0.000000 255 255 255 255
-0.006830 0.006730 0.000000 255 255 255 255
-0.005944 0.007617 0.000000 255 255 255 255
-0.005107 0.008454 0.000000 255 255 255 255
-0.004369 0.009191 0.000000 255 255 255 255
-0.003781 0.009780 0.000000 255 255 255 255
-0.003392 0.010169 0.000000 255 255 255 255
-0.003251 0.010310 0.000000 255 255 255 255
-0.002847 0.010773 0.000000 255 255 255 255
-0.002847 0.016234 0.000000 255 255 255 255
-0.002516 0.011273 0.000000 255 255 255 255
-0.002516 0.015733 0.000000 255 255 255 255
-0.002259 0.011804 0.000000 255 255 255 255
-0.002259 0.015202 0.000000 255 255 255 255
-0.002075 0.012358 0.000000 255 255 255 255
-0.002075 0.014649 0.000000 255 255 255 255
-0.001965 0.012927 0.000000 255 255 255 255
-0.001965 0.014080 0.000000 255 255 255 255
-0.001928 0.013503 0.000000 255 255 255 255
3 0 1 2
3 0 3 1
3 4 3 0
3 4 5 3
3 6 5 4
3 6 7 5
3 8 7 6
3 8 9 7
3 10 9 8
3 10 11 9
3 12 11 10
3 13 11 12
3 13 14 11
3 13 15 14
3 13 16 15
3 13 17 16
3 13 18 17
3 13 19 18
3 13 20 19
3 13 21 20
3 13 22 21
3 13 23 22
3 13 24 23
3 13 25 24
3 13 26 25
3 13 27 26
3 13 28 27
3 13 29 28
3 13 30 29
3 13 31 30
3 13 32 31
3 13 33 32
3 13 34 33
3 13 35 34
3 13 36 35
3 13 37 36
3 13 38 37
3 39 40 41
3 39 42 40
3 43 42 39
3 43 44 42
3 45 44 43
3 45 46 44
3 47 46 45
3 48 46 47
3 48 49 46
3 48 50 49
3 48 51 50
3 52 51 48
3 52 53 51
3 54 53 52
3 54 55 53
3 56 55 54
3 56 57 55
3 56 58 57
3 59 58 56
3 60 58 59
3 60 61 58
3 60 62 61
3 63 62 60
3 63 64 62
3 63 65 64
3 63 13 65
3 63 38 13
3 66 38 63
3 67 38 66
3 68 38 67
3 69 38 68
3 69 70 38
3 71 70 69
3 72 70 71
3 73 70 72
3 73 74 70
3 73 75 74
3 73 76 75
3 77 76 73
3 77 78 76
3 79 78 77
3 80 78 79
3 80 81 78
3 82 81 80
3 82 83 81
3 84 83 82
3 84 85 83
3 86 85 84
3 87 85 86
3 87 88 85
3 89 88 87
3 89 90 88
3 91 90 89
3 92 90 91
3 92 93 90
3 94 93 92
3 94 95 93
3 96 95 94
3 97 95 96
3 97 98 95
3 99 98 97
3 100 98 99
3 101 98 100
3 102 98 101
3 103 98 102
3 104 98 103
3 105 98 104
3 106 98 105
3 107 98 106
3 108 98 107
3 109 98 108
3 110 98 109
3 111 112 113
3 111 114 112
3 111 115 114
3 111 116 115
3 111 117 116
3 111 118 117
3 111 119 118
3 111 120 119
3 111 121 120
3 111 122 121
3 111 123 122
3 111 124 123
3 111 125 124
3 111 126 125
3 127 126 111
3 127 128 126
3 127 129 128
3 130 129 127
3 130 131 129
3 132 131 130
3 132 133 131
3 132 134 133
3 135 134 132
3 135 136 134
3 137 136 135
3 137 138 136
3 137 139 138
3 140 139 137
3 140 141 139
3 142 141 140
3 142 143 141
3 144 143 142
3 144 145 143
3 144 146 145
3 147 146 144
3 147 148 146
3 149 148 147
3 150 148 149
3 151 148 150
3 151 152 148
3 151 153 152
3 151 154 153
3 155 154 151
3 155 156 154
3 155 157 156
3 157 158 156
3 157 159 158
3 157 160 159
3 155 161 157
3 162 160 157
3 163 160 162
3 164 160 163
3 165 160 164
3 165 166 160
3 167 166 165
3 168 166 167
3 168 169 166
3 168 170 169
3 171 170 168
3 172 170 171
3 172 173 170
3 174 173 172
3 174 175 173
3 176 175 174
3 176 177 175
3 178 177 176
3 179 177 178
3 180 177 179
3 180 181 177
3 180 182 181
3 183 182 180
3 183 184 182
3 185 184 183
3 185 186 184
3 187 161 155
3 188 161 187
3 189 161 188
3 190 161 189
3 191 161 190
3 192 161 191
3 193 161 192
3 194 161 193
3 195 161 194
3 196 161 195
3 197 161 196
3 198 161 197
3 199 161 198
3 200 161 199
3 201 161 200
3 202 161 201
3 203 161 202
3 204 161 203
3 205 161 204
3 206 161 205
3 207 161 206
3 208 161 207
3 209 161 208
3 210 161 209
3 211 161 210
3 211 212 161
3 213 212 211
3 213 214 212
3 215 214 213
3 215 216 214
3 217 216 215
3 217 218 216
3 219 218 217
3 219 220 218
3 221 220 219
