ply
format ascii 1.0
comment Created by Blender 3.6.2 - www.blender.org
element vertex 181
property float x
property float y
property float z
property float nx
property float ny
property float nz
element face 181
property list uchar uint vertex_indices
end_header
-0.023240 0.055797 0.000000 0.000000 0.000000 1.000000
-0.017343 0.056143 0.000000 0.000000 0.000000 1.000000
-0.018053 0.056143 0.000000 0.000000 0.000000 1.000000
-0.015379 0.056143 0.000000 0.000000 0.000000 1.000000
-0.012413 0.056143 0.000000 0.000000 0.000000 1.000000
-0.008694 0.056143 0.000000 0.000000 0.000000 1.000000
-0.004474 0.056143 0.000000 0.000000 0.000000 1.000000
-0.000004 0.056143 0.000000 0.000000 0.000000 1.000000
0.004467 0.056143 0.000000 0.000000 0.000000 1.000000
0.008687 0.056143 0.000000 0.000000 0.000000 1.000000
0.012405 0.056143 0.000000 0.000000 0.000000 1.000000
0.015372 0.056143 0.000000 0.000000 0.000000 1.000000
0.017336 0.056143 0.000000 0.000000 0.000000 1.000000
0.018046 0.056143 0.000000 0.000000 0.000000 1.000000
0.023232 0.055797 0.000000 0.000000 0.000000 1.000000
-0.028210 0.054786 0.000000 0.000000 0.000000 1.000000
0.028202 0.054786 0.000000 0.000000 0.000000 1.000000
-0.032919 0.053157 0.000000 0.000000 0.000000 1.000000
0.032912 0.053157 0.000000 0.000000 0.000000 1.000000
-0.037323 0.050954 0.000000 0.000000 0.000000 1.000000
0.037315 0.050954 0.000000 0.000000 0.000000 1.000000
-0.041376 0.048221 0.000000 0.000000 0.000000 1.000000
0.041368 0.048221 0.000000 0.000000 0.000000 1.000000
-0.045034 0.045004 0.000000 0.000000 0.000000 1.000000
0.045026 0.045004 0.000000 0.000000 0.000000 1.000000
-0.048252 0.041347 0.000000 0.000000 0.000000 1.000000
0.048244 0.041347 0.000000 0.000000 0.000000 1.000000
-0.050985 0.037295 0.000000 0.000000 0.000000 1.000000
0.050977 0.037295 0.000000 0.000000 0.000000 1.000000
-0.053188 0.032892 0.000000 0.000000 0.000000 1.000000
0.053181 0.032892 0.000000 0.000000 0.000000 1.000000
-0.054818 0.028184 0.000000 0.000000 0.000000 1.000000
0.054810 0.028184 0.000000 0.000000 0.000000 1.000000
-0.055828 0.023215 0.000000 0.000000 0.000000 1.000000
0.055821 0.023215 0.000000 0.000000 0.000000 1.000000
-0.056175 0.018030 0.000000 0.000000 0.000000 1.000000
-0.007559 0.019518 0.000000 0.000000 0.000000 1.000000
0.007552 0.019518 0.000000 0.000000 0.000000 1.000000
0.056167 0.018030 0.000000 0.000000 0.000000 1.000000
-0.009190 0.019409 0.000000 0.000000 0.000000 1.000000
0.009182 0.019409 0.000000 0.000000 0.000000 1.000000
-0.010752 0.019091 0.000000 0.000000 0.000000 1.000000
0.010745 0.019091 0.000000 0.000000 0.000000 1.000000
-0.012232 0.018579 0.000000 0.000000 0.000000 1.000000
0.012225 0.018579 0.000000 0.000000 0.000000 1.000000
-0.013617 0.017887 0.000000 0.000000 0.000000 1.000000
0.013609 0.017887 0.000000 0.000000 0.000000 1.000000
-0.056175 0.017319 0.000000 0.000000 0.000000 1.000000
0.056167 0.017319 0.000000 0.000000 0.000000 1.000000
-0.014891 0.017028 0.000000 0.000000 0.000000 1.000000
0.014883 0.017028 0.000000 0.000000 0.000000 1.000000
0.056167 0.015356 0.000000 0.000000 0.000000 1.000000
-0.056175 0.015356 0.000000 0.000000 0.000000 1.000000
-0.016040 0.016017 0.000000 0.000000 0.000000 1.000000
0.016033 0.016017 0.000000 0.000000 0.000000 1.000000
-0.017052 0.014867 0.000000 0.000000 0.000000 1.000000
0.017044 0.014867 0.000000 0.000000 0.000000 1.000000
0.056167 0.012390 0.000000 0.000000 0.000000 1.000000
-0.056175 0.012390 0.000000 0.000000 0.000000 1.000000
-0.017910 0.013594 0.000000 0.000000 0.000000 1.000000
0.017903 0.013594 0.000000 0.000000 0.000000 1.000000
-0.018603 0.012210 0.000000 0.000000 0.000000 1.000000
0.018595 0.012210 0.000000 0.000000 0.000000 1.000000
0.056167 0.008673 0.000000 0.000000 0.000000 1.000000
-0.056175 0.008673 0.000000 0.000000 0.000000 1.000000
-0.019115 0.010730 0.000000 0.000000 0.000000 1.000000
0.019108 0.010730 0.000000 0.000000 0.000000 1.000000
-0.019433 0.009168 0.000000 0.000000 0.000000 1.000000
0.019425 0.009168 0.000000 0.000000 0.000000 1.000000
-0.019542 0.007538 0.000000 0.000000 0.000000 1.000000
0.019534 0.007538 0.000000 0.000000 0.000000 1.000000
0.056167 0.004453 0.000000 0.000000 0.000000 1.000000
-0.056175 0.004453 0.000000 0.000000 0.000000 1.000000
-0.019542 0.007241 0.000000 0.000000 0.000000 1.000000
0.019534 0.007241 0.000000 0.000000 0.000000 1.000000
-0.019542 0.006419 0.000000 0.000000 0.000000 1.000000
0.019534 0.006419 0.000000 0.000000 0.000000 1.000000
-0.019542 0.005177 0.000000 0.000000 0.000000 1.000000
0.019534 0.005177 0.000000 0.000000 0.000000 1.000000
-0.019542 0.003621 0.000000 0.000000 0.000000 1.000000
0.019534 0.003621 0.000000 0.000000 0.000000 1.000000
0.056167 -0.000016 0.000000 0.000000 0.000000 1.000000
-0.056175 -0.000016 0.000000 0.000000 0.000000 1.000000
-0.019542 0.001855 0.000000 0.000000 0.000000 1.000000
0.019534 0.001855 0.000000 0.000000 0.000000 1.000000
-0.019542 -0.000016 0.000000 0.000000 0.000000 1.000000
0.019534 -0.000016 0.000000 0.000000 0.000000 1.000000
0.056167 -0.004486 0.000000 0.000000 0.000000 1.000000
-0.019542 -0.001887 0.000000 0.000000 0.000000 1.000000
0.019534 -0.001887 0.000000 0.000000 0.000000 1.000000
-0.056175 -0.004486 0.000000 0.000000 0.000000 1.000000
-0.019542 -0.003653 0.000000 0.000000 0.000000 1.000000
0.019534 -0.003653 0.000000 0.000000 0.000000 1.000000
-0.019542 -0.005210 0.000000 0.000000 0.000000 1.000000
0.019534 -0.005210 0.000000 0.000000 0.000000 1.000000
0.056167 -0.008705 0.000000 0.000000 0.000000 1.000000
-0.056175 -0.008705 0.000000 0.000000 0.000000 1.000000
-0.019542 -0.006451 0.000000 0.000000 0.000000 1.000000
0.019534 -0.006451 0.000000 0.000000 0.000000 1.000000
-0.019542 -0.007273 0.000000 0.000000 0.000000 1.000000
0.019534 -0.007273 0.000000 0.000000 0.000000 1.000000
-0.019542 -0.007570 0.000000 0.000000 0.000000 1.000000
0.019534 -0.007570 0.000000 0.000000 0.000000 1.000000
-0.019433 -0.009200 0.000000 0.000000 0.000000 1.000000
0.019425 -0.009200 0.000000 0.000000 0.000000 1.000000
0.056167 -0.012423 0.000000 0.000000 0.000000 1.000000
-0.056175 -0.012423 0.000000 0.000000 0.000000 1.000000
-0.019115 -0.010762 0.000000 0.000000 0.000000 1.000000
0.019108 -0.010762 0.000000 0.000000 0.000000 1.000000
-0.018603 -0.012242 0.000000 0.000000 0.000000 1.000000
0.018595 -0.012242 0.000000 0.000000 0.000000 1.000000
-0.017910 -0.013626 0.000000 0.000000 0.000000 1.000000
0.017903 -0.013626 0.000000 0.000000 0.000000 1.000000
0.056167 -0.015389 0.000000 0.000000 0.000000 1.000000
-0.056175 -0.015389 0.000000 0.000000 0.000000 1.000000
-0.017051 -0.014900 0.000000 0.000000 0.000000 1.000000
0.017044 -0.014900 0.000000 0.000000 0.000000 1.000000
-0.016040 -0.016049 0.000000 0.000000 0.000000 1.000000
0.016033 -0.016049 0.000000 0.000000 0.000000 1.000000
0.056167 -0.017352 0.000000 0.000000 0.000000 1.000000
-0.056175 -0.017352 0.000000 0.000000 0.000000 1.000000
-0.014891 -0.017060 0.000000 0.000000 0.000000 1.000000
0.014883 -0.017060 0.000000 0.000000 0.000000 1.000000
-0.013617 -0.017919 0.000000 0.000000 0.000000 1.000000
0.013609 -0.017919 0.000000 0.000000 0.000000 1.000000
0.056167 -0.018062 0.000000 0.000000 0.000000 1.000000
-0.056175 -0.018062 0.000000 0.000000 0.000000 1.000000
-0.012232 -0.018611 0.000000 0.000000 0.000000 1.000000
0.012225 -0.018611 0.000000 0.000000 0.000000 1.000000
-0.055828 -0.023247 0.000000 0.000000 0.000000 1.000000
0.055821 -0.023247 0.000000 0.000000 0.000000 1.000000
-0.010752 -0.019123 0.000000 0.000000 0.000000 1.000000
0.010745 -0.019123 0.000000 0.000000 0.000000 1.000000
-0.009190 -0.019441 0.000000 0.000000 0.000000 1.000000
0.009182 -0.019441 0.000000 0.000000 0.000000 1.000000
-0.007559 -0.019550 0.000000 0.000000 0.000000 1.000000
0.007552 -0.019550 0.000000 0.000000 0.000000 1.000000
-0.007262 -0.019550 0.000000 0.000000 0.000000 1.000000
-0.006440 -0.019550 0.000000 0.000000 0.000000 1.000000
-0.005198 -0.019550 0.000000 0.000000 0.000000 1.000000
-0.003642 -0.019550 0.000000 0.000000 0.000000 1.000000
-0.001875 -0.019550 0.000000 0.000000 0.000000 1.000000
-0.000004 -0.019550 0.000000 0.000000 0.000000 1.000000
0.001868 -0.019550 0.000000 0.000000 0.000000 1.000000
0.003634 -0.019550 0.000000 0.000000 0.000000 1.000000
0.005191 -0.019550 0.000000 0.000000 0.000000 1.000000
0.006432 -0.019550 0.000000 0.000000 0.000000 1.000000
0.007255 -0.019550 0.000000 0.000000 0.000000 1.000000
-0.054818 -0.028216 0.000000 0.000000 0.000000 1.000000
0.054810 -0.028216 0.000000 0.000000 0.000000 1.000000
-0.053188 -0.032925 0.000000 0.000000 0.000000 1.000000
0.053181 -0.032925 0.000000 0.000000 0.000000 1.000000
-0.050985 -0.037327 0.000000 0.000000 0.000000 1.000000
0.050977 -0.037327 0.000000 0.000000 0.000000 1.000000
-0.048252 -0.041380 0.000000 0.000000 0.000000 1.000000
0.048244 -0.041380 0.000000 0.000000 0.000000 1.000000
-0.045034 -0.045037 0.000000 0.000000 0.000000 1.000000
0.045026 -0.045037 0.000000 0.000000 0.000000 1.000000
-0.041376 -0.048254 0.000000 0.000000 0.000000 1.000000
0.041368 -0.048254 0.000000 0.000000 0.000000 1.000000
-0.037323 -0.050986 0.000000 0.000000 0.000000 1.000000
0.037315 -0.050986 0.000000 0.000000 0.000000 1.000000
-0.032919 -0.053190 0.000000 0.000000 0.000000 1.000000
0.032912 -0.053190 0.000000 0.000000 0.000000 1.000000
-0.028210 -0.054819 0.000000 0.000000 0.000000 1.000000
0.028202 -0.054819 0.000000 0.000000 0.000000 1.000000
-0.023240 -0.055829 0.000000 0.000000 0.000000 1.000000
0.023232 -0.055829 0.000000 0.000000 0.000000 1.000000
-0.018053 -0.056176 0.000000 0.000000 0.000000 1.000000
0.018046 -0.056176 0.000000 0.000000 0.000000 1.000000
-0.017343 -0.056176 0.000000 -0.294992 -0.955500 0.000000
-0.015379 -0.056176 0.000000 -0.264056 -0.964507 0.000000
-0.012413 -0.056176 0.000000 -0.215761 -0.976446 0.000000
-0.008694 -0.056176 0.000000 -0.152950 -0.988234 0.000000
-0.004474 -0.056176 0.000000 -0.079399 -0.996843 0.000000
-0.000004 -0.056176 0.000000 -0.000068 -1.000000 0.000000
0.004467 -0.056176 0.000000 0.079265 -0.996854 0.000000
0.008687 -0.056176 0.000000 0.152819 -0.988254 0.000000
0.012405 -0.056176 0.000000 0.215635 -0.976474 0.000000
0.015372 -0.056176 0.000000 0.263935 -0.964540 0.000000
0.017336 -0.056176 0.000000 0.294874 -0.955536 0.000000
3 0 1 2
3 0 3 1
3 0 4 3
3 0 5 4
3 0 6 5
3 0 7 6
3 0 8 7
3 0 9 8
3 0 10 9
3 0 11 10
3 0 12 11
3 0 13 12
3 0 14 13
3 15 14 0
3 15 16 14
3 17 16 15
3 17 18 16
3 19 18 17
3 19 20 18
3 21 20 19
3 21 22 20
3 23 22 21
3 23 24 22
3 25 24 23
3 25 26 24
3 27 26 25
3 27 28 26
3 29 28 27
3 29 30 28
3 31 30 29
3 31 32 30
3 33 32 31
3 33 34 32
3 35 34 33
3 35 36 34
3 36 37 34
3 37 38 34
3 35 39 36
3 40 38 37
3 35 41 39
3 42 38 40
3 35 43 41
3 44 38 42
3 35 45 43
3 46 38 44
3 47 45 35
3 46 48 38
3 47 49 45
3 50 48 46
3 50 51 48
3 52 49 47
3 52 53 49
3 54 51 50
3 52 55 53
3 56 51 54
3 56 57 51
3 58 55 52
3 58 59 55
3 60 57 56
3 58 61 59
3 62 57 60
3 62 63 57
3 64 61 58
3 64 65 61
3 66 63 62
3 64 67 65
3 68 63 66
3 64 69 67
3 70 63 68
3 70 71 63
3 72 69 64
3 72 73 69
3 74 71 70
3 72 75 73
3 76 71 74
3 72 77 75
3 78 71 76
3 72 79 77
3 80 71 78
3 80 81 71
3 82 79 72
3 82 83 79
3 84 81 80
3 82 85 83
3 86 81 84
3 86 87 81
3 82 88 85
3 89 87 86
3 90 88 82
3 90 91 88
3 92 87 89
3 90 93 91
3 94 87 92
3 94 95 87
3 96 93 90
3 96 97 93
3 98 95 94
3 96 99 97
3 100 95 98
3 96 101 99
3 102 95 100
3 96 103 101
3 104 95 102
3 104 105 95
3 106 103 96
3 106 107 103
3 108 105 104
3 106 109 107
3 110 105 108
3 106 111 109
3 112 105 110
3 112 113 105
3 114 111 106
3 114 115 111
3 116 113 112
3 114 117 115
3 118 113 116
3 118 119 113
3 120 117 114
3 120 121 117
3 122 119 118
3 120 123 121
3 124 119 122
3 124 125 119
3 126 123 120
3 126 127 123
3 128 125 124
3 129 127 126
3 128 130 125
3 129 131 127
3 132 130 128
3 129 133 131
3 134 130 132
3 129 135 133
3 136 130 134
3 129 137 135
3 129 138 137
3 129 139 138
3 129 140 139
3 129 141 140
3 129 142 141
3 129 143 142
3 129 144 143
3 129 145 144
3 129 146 145
3 129 147 146
3 129 136 147
3 129 130 136
3 148 130 129
3 148 149 130
3 150 149 148
3 150 151 149
3 152 151 150
3 152 153 151
3 154 153 152
3 154 155 153
3 156 155 154
3 156 157 155
3 158 157 156
3 158 159 157
3 160 159 158
3 160 161 159
3 162 161 160
3 162 163 161
3 164 163 162
3 164 165 163
3 166 165 164
3 166 167 165
3 168 167 166
3 168 169 167
3 170 169 168
3 171 169 170
3 172 169 171
3 173 169 172
3 174 169 173
3 175 169 174
3 176 169 175
3 177 169 176
3 178 169 177
3 179 169 178
3 180 169 179
