ply
format ascii 1.0
comment Created by Blender 2.93.3 - www.blender.org
element vertex 18
property float x
property float y
property float z
property float nx
property float ny
property float nz
element face 21
property list uchar uint vertex_indices
end_header
1.253580 1.099993 0.000000 0.000000 -0.000000 1.000000
0.190633 1.086349 0.000000 0.000000 -0.000000 1.000000
1.253587 1.086349 0.000000 0.000000 -0.000000 1.000000
0.202565 1.072826 0.000000 0.000000 -0.000000 1.000000
1.253593 1.072827 0.000000 0.000000 -0.000000 1.000000
0.178844 1.071034 0.000000 0.000000 -0.000000 1.000000
0.171307 1.084362 0.000000 0.000000 -0.000000 1.000000
0.159933 1.064867 0.000000 0.000000 -0.000000 1.000000
0.129238 1.067900 0.000000 0.000000 0.000000 1.000000
0.150890 1.077414 0.000000 0.000000 0.000000 1.000000
0.000272 1.012947 0.000000 0.000000 0.000000 1.000000
0.139377 1.054579 0.000000 0.000000 0.000000 1.000000
-0.030319 1.014976 0.000000 0.000000 -0.000000 1.000000
0.118628 1.080113 0.000000 0.000000 0.000000 1.000000
0.138387 1.090409 0.000000 0.000000 0.000000 1.000000
0.158075 1.097979 0.000000 -0.000000 0.000000 1.000000
0.177661 1.099993 0.000000 -0.000000 0.000000 1.000000
0.033124 1.009642 0.000000 0.000000 0.000000 1.000000
3 0 1 2
3 2 3 4
3 1 5 3
3 6 7 5
3 8 7 9
3 10 11 8
3 8 12 10
3 13 9 14
3 9 15 14
3 6 16 15
3 0 16 1
3 2 1 3
3 1 6 5
3 6 9 7
3 8 11 7
3 10 17 11
3 8 13 12
3 13 8 9
3 9 6 15
3 6 1 16
3 10 12 17
