ply
format ascii 1.0
comment Created by Blender 2.82 (sub 7) - www.blender.org, source file: 'border_large_sharp_2.blend'
element vertex 8
property float x
property float y
property float z
element face 8
property list uchar uint vertex_indices
end_header
0.994343 0.997469 0.000000
0.795365 -0.793329 0.000000
0.994343 -0.992306 0.000000
-0.796455 -0.793329 0.000000
-0.995432 -0.992306 0.000000
-0.995432 0.997469 0.000000
-0.796454 0.798491 0.000000
0.795366 0.798491 0.000000
3 0 1 2
3 2 3 4
3 3 5 4
3 0 6 7
3 0 7 1
3 2 1 3
3 3 6 5
3 0 5 6
