ply
format ascii 1.0
comment Created by Blender 2.93.3 - www.blender.org
element vertex 42
property float x
property float y
property float z
property float nx
property float ny
property float nz
element face 48
property list uchar uint vertex_indices
end_header
0.016287 1.016200 0.000000 -0.000000 0.000000 1.000000
0.136328 1.079531 0.000000 -0.000000 0.000000 1.000000
-0.000785 1.024438 0.000000 -0.000000 0.000000 1.000000
0.154699 1.071804 0.000000 0.000000 -0.000000 1.000000
0.024618 1.000701 0.000000 0.000000 -0.000000 1.000000
0.161255 1.058592 0.000000 0.000000 -0.000000 1.000000
0.013495 -1.001311 0.000000 -0.000000 0.000000 1.000000
0.115010 -0.933052 0.000000 -0.000000 0.000000 1.000000
0.016206 -0.981096 0.000000 -0.000000 0.000000 1.000000
0.125834 -0.944192 0.000000 -0.000000 0.000000 1.000000
0.132131 -0.919079 0.000000 -0.000000 0.000000 1.000000
0.151583 -0.909279 0.000000 0.000000 -0.000000 1.000000
0.143181 -0.930121 0.000000 0.000000 -0.000000 1.000000
0.153706 -0.890582 0.000000 0.000000 -0.000000 1.000000
0.140441 -0.898466 0.000000 0.000000 -0.000000 1.000000
0.167355 -0.903547 0.000000 0.000000 0.000000 1.000000
0.165202 -0.922495 0.000000 0.000000 -0.000000 1.000000
0.156688 -0.943618 0.000000 0.000000 -0.000000 1.000000
0.139066 -0.957810 0.000000 0.000000 -0.000000 1.000000
0.006135 -1.020284 0.000000 0.000000 -0.000000 1.000000
0.167355 0.072449 0.000000 0.000000 -0.000000 1.000000
0.153706 1.035485 0.000000 -0.000000 0.000000 1.000000
0.153706 0.072452 0.000000 -0.000000 0.000000 1.000000
0.167355 1.048445 0.000000 -0.000000 -0.000000 1.000000
0.151421 1.060088 0.000000 -0.000000 -0.000000 1.000000
0.140280 1.049214 0.000000 -0.000000 0.000000 1.000000
0.140263 1.023564 0.000000 -0.000000 0.000000 1.000000
0.131793 1.064527 0.000000 -0.000000 -0.000000 1.000000
0.124732 1.083689 0.000000 0.000000 0.000000 1.000000
0.142839 1.075571 0.000000 0.000000 0.000000 1.000000
0.102495 1.085966 0.000000 0.000000 0.000000 1.000000
0.113885 1.072555 0.000000 0.000000 0.000000 1.000000
0.115454 1.099605 0.000000 -0.000000 0.000000 1.000000
0.137990 1.097297 0.000000 0.000000 0.000000 1.000000
0.156341 1.089070 0.000000 0.000000 0.000000 1.000000
0.165038 1.073379 0.000000 0.000000 0.000000 1.000000
0.141152 -0.878656 0.000000 0.000000 -0.000000 1.000000
-0.859808 1.085966 0.000000 0.000000 0.000000 1.000000
0.090575 1.072460 0.000000 0.000000 0.000000 1.000000
-0.859801 1.099605 0.000000 -0.000000 0.000000 1.000000
0.140263 0.072460 0.000000 0.000000 -0.000000 1.000000
-0.859801 1.072460 0.000000 0.000000 0.000000 1.000000
3 0 1 2
3 3 4 5
3 0 3 1
3 3 0 4
3 6 7 8
3 9 10 7
3 11 10 12
3 13 14 11
3 11 15 13
3 16 12 17
3 12 18 17
3 9 19 18
3 20 13 15
3 20 21 22
3 23 24 21
3 21 25 26
3 24 27 25
3 28 27 29
3 30 31 28
3 28 32 30
3 33 29 34
3 29 35 34
3 26 22 21
3 22 36 13
3 37 38 30
3 30 39 37
3 6 9 7
3 9 12 10
3 11 14 10
3 13 36 14
3 11 16 15
3 16 11 12
3 12 9 18
3 9 6 19
3 20 22 13
3 20 23 21
3 23 35 24
3 21 24 25
3 24 29 27
3 28 31 27
3 30 38 31
3 28 33 32
3 33 28 29
3 29 24 35
3 26 40 22
3 22 40 36
3 37 41 38
3 30 32 39
