ply
format ascii 1.0
comment Created by Blender 2.82 (sub 7) - www.blender.org, source file: 'border.blend'
element vertex 72
property float x
property float y
property float z
property uchar red
property uchar green
property uchar blue
property uchar alpha
element face 96
property list uchar uint vertex_indices
end_header
-1.026677 0.976163 0.000000 255 255 255 255
-1.011723 0.988680 0.000000 255 255 255 255
-1.013049 0.963196 0.000000 255 255 255 255
-1.025333 1.001990 0.000000 255 255 255 255
-1.002709 1.003049 0.000000 255 255 255 255
-0.991672 0.992002 0.000000 255 255 255 255
-1.000587 0.977791 0.000000 255 255 255 255
-0.986586 1.010839 0.000000 255 255 255 255
-0.962045 1.013040 0.000000 255 255 255 255
-0.975727 0.999706 0.000000 255 255 255 255
-0.950140 1.000495 0.000000 255 255 255 255
-0.000007 1.013040 0.000000 255 255 255 255
-0.000013 1.000495 0.000000 255 255 255 255
0.000000 1.026677 0.000000 255 255 255 255
0.962791 1.013040 0.000000 255 255 255 255
0.950865 1.000495 0.000000 255 255 255 255
0.971288 0.999918 0.000000 255 255 255 255
0.982108 1.011054 0.000000 255 255 255 255
0.991471 0.991066 0.000000 255 255 255 255
1.010913 0.981270 0.000000 255 255 255 255
1.002515 1.002103 0.000000 255 255 255 255
1.013035 0.962582 0.000000 255 255 255 255
0.999776 0.970463 0.000000 255 255 255 255
1.026677 0.975541 0.000000 255 255 255 255
1.024526 0.994481 0.000000 255 255 255 255
1.016015 1.015594 0.000000 255 255 255 255
0.995334 1.024665 0.000000 255 255 255 255
0.975757 1.026677 0.000000 255 255 255 255
-0.974986 1.026677 0.000000 255 255 255 255
-0.999859 1.024447 0.000000 255 255 255 255
-1.016198 1.016553 0.000000 255 255 255 255
1.026677 0.000000 0.000000 255 255 255 255
1.013035 -0.962588 0.000000 255 255 255 255
1.013035 -0.000003 0.000000 255 255 255 255
1.026677 -0.975541 0.000000 255 255 255 255
1.010751 -0.987179 0.000000 255 255 255 255
0.999616 -0.976310 0.000000 255 255 255 255
1.000487 -0.950672 0.000000 255 255 255 255
0.991132 -0.991616 0.000000 255 255 255 255
0.984074 -1.010769 0.000000 255 255 255 255
1.002173 -1.002655 0.000000 255 255 255 255
0.961848 -1.013045 0.000000 255 255 255 255
0.973233 -0.999640 0.000000 255 255 255 255
0.974801 -1.026677 0.000000 255 255 255 255
0.997326 -1.024371 0.000000 255 255 255 255
1.015669 -1.016148 0.000000 255 255 255 255
1.024362 -1.000464 0.000000 255 255 255 255
1.000487 0.950662 0.000000 255 255 255 255
-1.026677 -0.974622 0.000000 255 255 255 255
-1.011117 -0.987925 0.000000 255 255 255 255
-1.024719 -1.001219 0.000000 255 255 255 255
-1.013049 -0.961680 0.000000 255 255 255 255
-0.999987 -0.977048 0.000000 255 255 255 255
-0.992284 -0.992011 0.000000 255 255 255 255
-1.003327 -1.003055 0.000000 255 255 255 255
-1.002193 -1.025218 0.000000 255 255 255 255
-1.016824 -1.016553 0.000000 255 255 255 255
-0.988890 -1.011604 0.000000 255 255 255 255
-0.978005 -1.000466 0.000000 255 255 255 255
-0.963002 -1.013045 0.000000 255 255 255 255
-0.951086 -1.000505 0.000000 255 255 255 255
-0.000007 -1.013045 0.000000 255 255 255 255
0.949933 -1.000505 0.000000 255 255 255 255
0.000000 -1.026677 0.000000 255 255 255 255
-0.975957 -1.026677 0.000000 255 255 255 255
-1.026677 0.000000 0.000000 255 255 255 255
-1.013049 -0.000003 0.000000 255 255 255 255
-1.000513 0.951268 0.000000 255 255 255 255
-1.000513 -0.000005 0.000000 255 255 255 255
-1.000513 -0.949776 0.000000 255 255 255 255
1.000487 -0.000005 0.000000 255 255 255 255
-0.000013 -1.000505 0.000000 255 255 255 255
3 0 1 2
3 3 4 1
3 1 5 6
3 7 5 4
3 8 9 7
3 10 11 12
3 8 13 11
3 13 14 11
3 11 15 12
3 14 16 15
3 17 18 16
3 19 18 20
3 21 22 19
3 19 23 21
3 24 20 25
3 20 26 25
3 17 27 26
3 28 7 29
3 29 4 30
3 6 2 1
3 31 21 23
3 31 32 33
3 34 35 32
3 32 36 37
3 35 38 36
3 39 38 40
3 41 42 39
3 39 43 41
3 44 40 45
3 40 46 45
3 37 33 32
3 33 47 21
3 48 49 50
3 51 52 49
3 53 49 52
3 54 50 49
3 54 55 56
3 57 53 58
3 58 59 57
3 60 61 59
3 61 62 41
3 41 63 61
3 63 59 61
3 64 57 59
3 65 51 48
3 65 2 66
3 66 67 68
3 69 66 68
3 0 3 1
3 3 30 4
3 1 4 5
3 7 9 5
3 8 10 9
3 10 8 11
3 8 28 13
3 13 27 14
3 11 14 15
3 14 17 16
3 17 20 18
3 19 22 18
3 21 47 22
3 19 24 23
3 24 19 20
3 20 17 26
3 17 14 27
3 28 8 7
3 29 7 4
3 6 67 2
3 31 33 21
3 31 34 32
3 34 46 35
3 32 35 36
3 35 40 38
3 39 42 38
3 41 62 42
3 39 44 43
3 44 39 40
3 40 35 46
3 37 70 33
3 33 70 47
3 48 51 49
3 51 69 52
3 53 54 49
3 54 56 50
3 54 57 55
3 57 54 53
3 58 60 59
3 60 71 61
3 61 71 62
3 41 43 63
3 63 64 59
3 64 55 57
3 65 66 51
3 65 0 2
3 66 2 67
3 69 51 66
