ply
format ascii 1.0
comment Created by Blender 2.90.1 - www.blender.org
element vertex 4
property float x
property float y
property float z
property float s
property float t
property uchar red
property uchar green
property uchar blue
property uchar alpha
element face 2
property list uchar uint vertex_indices
end_header
0.1500000 -0.1500000 0.000000 1.000000 0.000000 255 255 255 65
-0.1500000 0.1500000 0.000000 0.000000 1.000000 255 255 255 65
-0.1500000 -0.1500000 0.000000 0.000000 0.000000 255 255 255 65
0.1500000 0.1500000 0.000000 1.000000 1.000000 255 255 255 65
3 0 1 2
3 0 3 1
