ply
format ascii 1.0
comment Created by Blender 3.6.2 - www.blender.org
element vertex 8
property float x
property float y
property float z
property float s
property float t
element face 8
property list uchar uint vertex_indices
end_header
0.000033 -0.077635 0.000000 1.000000 0.000000
-0.061729 -0.000433 0.000000 0.000000 1.000000
-0.077169 -0.000433 0.000000 0.000000 0.000000
0.000033 0.061329 0.000000 0.000000 1.000000
0.000033 0.076770 0.000000 0.000000 0.000000
0.077235 -0.000433 0.000000 0.000000 0.000000
0.061795 -0.000433 0.000000 0.000000 1.000000
0.000033 -0.062195 0.000000 1.000000 1.000000
3 0 1 2
3 2 3 4
3 3 5 4
3 0 6 7
3 0 7 1
3 2 1 3
3 3 6 5
3 0 5 6
