ply
format ascii 1.0
comment Created by Blender 2.90.0 - www.blender.org
element vertex 12
property float x
property float y
property float z
property uchar red
property uchar green
property uchar blue
property uchar alpha
element face 8
property list uchar uint vertex_indices
end_header
-0.571778 -1.027167 0.000000 255 255 255 255
0.571592 -1.013523 0.000000 255 255 255 255
-0.571786 -1.013523 0.000000 255 255 255 255
0.571863 -1.000000 0.000000 255 255 255 255
-0.571795 -1.000000 0.000000 255 255 255 255
-0.571786 1.013506 0.000000 255 255 255 255
0.570744 1.000000 0.000000 255 255 255 255
0.571432 1.013506 0.000000 255 255 255 255
-0.571778 1.027145 0.000000 255 255 255 255
0.571488 -1.027167 0.000000 255 255 255 255
-0.571778 1.000000 0.000000 255 255 255 255
0.571421 1.027145 0.000000 255 255 255 255
3 0 1 2
3 2 3 4
3 5 6 7
3 7 8 5
3 0 9 1
3 2 1 3
3 5 10 6
3 7 11 8
