ply
format ascii 1.0
comment Created by Blender 2.82 (sub 7) - www.blender.org, source file: 'circle.blend'
element vertex 192
property float x
property float y
property float z
property uchar red
property uchar green
property uchar blue
property uchar alpha
element face 256
property list uchar uint vertex_indices
end_header
-0.961670 -0.291719 0.000000 255 255 255 255
-0.921437 -0.381671 0.000000 255 255 255 0
-0.928456 -0.384579 0.000000 255 255 255 255
-0.893037 -0.477338 0.000000 255 255 255 0
-0.835589 -0.558322 0.000000 255 255 255 255
-0.841959 -0.562579 0.000000 255 255 255 0
0.782753 0.642390 0.000000 255 255 255 0
0.835588 0.558323 0.000000 255 255 255 255
0.776830 0.637529 0.000000 255 255 255 255
0.099252 1.007728 0.000000 255 255 255 0
0.196055 0.985644 0.000000 255 255 255 255
0.098501 1.000103 0.000000 255 255 255 255
-0.642389 0.782753 0.000000 255 255 255 0
-0.710610 0.710610 0.000000 255 255 255 255
-0.716027 0.716027 0.000000 255 255 255 0
-0.291719 -0.961670 0.000000 255 255 255 255
-0.381671 -0.921437 0.000000 255 255 255 0
-0.289514 -0.954399 0.000000 255 255 255 0
0.637529 -0.776830 0.000000 255 255 255 255
0.554102 -0.829271 0.000000 255 255 255 0
0.632709 -0.770957 0.000000 255 255 255 0
1.000103 -0.098501 0.000000 255 255 255 255
0.978192 -0.194574 0.000000 255 255 255 0
0.992542 -0.097756 0.000000 255 255 255 0
0.829271 0.554102 0.000000 255 255 255 0
0.770957 0.632710 0.000000 255 255 255 0
-0.776831 -0.637528 0.000000 255 255 255 255
-0.829271 -0.554101 0.000000 255 255 255 0
-0.770958 -0.632709 0.000000 255 255 255 0
-0.637528 -0.776831 0.000000 255 255 255 255
-0.705237 -0.705237 0.000000 255 255 255 0
-0.632709 -0.770958 0.000000 255 255 255 0
1.000103 0.098503 0.000000 255 255 255 255
0.997356 0.000001 0.000000 255 255 255 0
0.992542 0.097758 0.000000 255 255 255 0
-0.473726 -0.886280 0.000000 255 255 255 255
-0.554101 -0.829271 0.000000 255 255 255 0
-0.470145 -0.879579 0.000000 255 255 255 0
0.961669 0.291720 0.000000 255 255 255 255
0.978192 0.194576 0.000000 255 255 255 0
0.954399 0.289515 0.000000 255 255 255 0
-0.098501 -1.000103 0.000000 255 255 255 255
-0.194574 -0.978192 0.000000 255 255 255 0
-0.097757 -0.992542 0.000000 255 255 255 0
0.194573 0.978193 0.000000 255 255 255 0
0.097756 0.992542 0.000000 255 255 255 0
0.098502 -1.000103 0.000000 255 255 255 255
0.000000 -0.997356 0.000000 255 255 255 0
0.097757 -0.992542 0.000000 255 255 255 0
0.637527 0.776832 0.000000 255 255 255 255
0.705236 0.705238 0.000000 255 255 255 0
0.632708 0.770959 0.000000 255 255 255 0
0.473725 0.886280 0.000000 255 255 255 255
0.554100 0.829272 0.000000 255 255 255 0
0.470144 0.879580 0.000000 255 255 255 0
0.776831 -0.637528 0.000000 255 255 255 255
0.705238 -0.705237 0.000000 255 255 255 0
0.770958 -0.632708 0.000000 255 255 255 0
-0.961670 0.291719 0.000000 255 255 255 255
-0.921437 0.381672 0.000000 255 255 255 0
-0.954399 0.289514 0.000000 255 255 255 0
0.291720 -0.961669 0.000000 255 255 255 255
0.194575 -0.978192 0.000000 255 255 255 0
0.289514 -0.954399 0.000000 255 255 255 0
0.886280 -0.473726 0.000000 255 255 255 255
0.829272 -0.554101 0.000000 255 255 255 0
0.879580 -0.470144 0.000000 255 255 255 0
0.381670 0.921437 0.000000 255 255 255 0
0.384578 0.928457 0.000000 255 255 255 255
-0.000000 0.997356 0.000000 255 255 255 0
-0.000000 1.004954 0.000000 255 255 255 255
0.710609 0.710610 0.000000 255 255 255 255
-0.099252 -1.007728 0.000000 255 255 255 0
0.000000 -1.004954 0.000000 255 255 255 255
0.000000 -1.012616 0.000000 255 255 255 0
0.099253 -1.007728 0.000000 255 255 255 0
0.196057 -0.985644 0.000000 255 255 255 255
0.197552 -0.993158 0.000000 255 255 255 0
0.642390 -0.782753 0.000000 255 255 255 0
0.558323 -0.835588 0.000000 255 255 255 255
-0.293943 -0.969002 0.000000 255 255 255 0
-0.196057 -0.985644 0.000000 255 255 255 255
-0.197551 -0.993159 0.000000 255 255 255 0
0.477339 -0.893037 0.000000 255 255 255 0
0.384580 -0.928456 0.000000 255 255 255 255
0.473727 -0.886280 0.000000 255 255 255 255
-0.642389 -0.782753 0.000000 255 255 255 0
-0.558322 -0.835589 0.000000 255 255 255 255
-0.562579 -0.841959 0.000000 255 255 255 0
-0.782753 -0.642389 0.000000 255 255 255 0
-0.710610 -0.710610 0.000000 255 255 255 255
-0.716027 -0.716027 0.000000 255 255 255 0
-0.969001 -0.293943 0.000000 255 255 255 0
-0.935535 -0.387511 0.000000 255 255 255 0
-0.384579 -0.928456 0.000000 255 255 255 255
-1.007728 -0.099252 0.000000 255 255 255 0
-0.985644 -0.196057 0.000000 255 255 255 255
-0.993159 -0.197551 0.000000 255 255 255 0
0.558321 0.835589 0.000000 255 255 255 255
-1.000103 -0.098501 0.000000 255 255 255 255
-0.997356 0.000000 0.000000 255 255 255 0
-0.992542 -0.097757 0.000000 255 255 255 0
-0.978192 -0.194574 0.000000 255 255 255 0
-0.954399 -0.289514 0.000000 255 255 255 0
0.921437 0.381673 0.000000 255 255 255 0
0.928456 0.384580 0.000000 255 255 255 255
-1.000103 0.098502 0.000000 255 255 255 255
-0.978192 0.194575 0.000000 255 255 255 0
-0.992542 0.097757 0.000000 255 255 255 0
0.293944 -0.969001 0.000000 255 255 255 0
0.782754 -0.642389 0.000000 255 255 255 0
0.710610 -0.710609 0.000000 255 255 255 255
-0.477338 -0.893037 0.000000 255 255 255 0
-0.387511 -0.935535 0.000000 255 255 255 0
0.969002 -0.293943 0.000000 255 255 255 0
0.985644 -0.196056 0.000000 255 255 255 255
0.993159 -0.197551 0.000000 255 255 255 0
0.642388 0.782754 0.000000 255 255 255 0
-0.293943 0.969001 0.000000 255 255 255 0
-0.196057 0.985644 0.000000 255 255 255 255
-0.291719 0.961670 0.000000 255 255 255 255
0.893037 -0.477337 0.000000 255 255 255 0
0.928457 -0.384578 0.000000 255 255 255 255
0.935535 -0.387510 0.000000 255 255 255 0
0.969001 0.293944 0.000000 255 255 255 0
0.985644 0.196058 0.000000 255 255 255 255
-0.099253 1.007728 0.000000 255 255 255 0
-0.098502 1.000103 0.000000 255 255 255 255
0.562580 -0.841959 0.000000 255 255 255 0
0.835589 -0.558322 0.000000 255 255 255 255
0.841960 -0.562578 0.000000 255 255 255 0
0.893036 0.477339 0.000000 255 255 255 0
0.886279 0.473727 0.000000 255 255 255 255
0.961670 -0.291718 0.000000 255 255 255 255
1.007728 0.099254 0.000000 255 255 255 0
1.004954 0.000001 0.000000 255 255 255 255
0.387512 -0.935535 0.000000 255 255 255 0
1.007728 -0.099252 0.000000 255 255 255 0
0.716028 -0.716027 0.000000 255 255 255 0
-0.969001 0.293943 0.000000 255 255 255 0
-0.928456 0.384579 0.000000 255 255 255 255
-0.384579 0.928456 0.000000 255 255 255 255
-0.387511 0.935535 0.000000 255 255 255 0
-0.893037 0.477338 0.000000 255 255 255 0
-0.835589 0.558322 0.000000 255 255 255 255
-0.886280 0.473726 0.000000 255 255 255 255
0.841958 0.562580 0.000000 255 255 255 0
0.935534 0.387512 0.000000 255 255 255 0
-0.782753 0.642389 0.000000 255 255 255 0
-0.776831 0.637529 0.000000 255 255 255 255
0.993158 0.197553 0.000000 255 255 255 0
-0.558322 0.835589 0.000000 255 255 255 255
-0.637528 0.776831 0.000000 255 255 255 255
1.012616 0.000001 0.000000 255 255 255 0
-0.477338 0.893037 0.000000 255 255 255 0
-0.473726 0.886280 0.000000 255 255 255 255
0.477337 0.893037 0.000000 255 255 255 0
0.293942 0.969002 0.000000 255 255 255 0
0.291718 0.961670 0.000000 255 255 255 255
-0.197552 0.993158 0.000000 255 255 255 0
-0.000000 1.012616 0.000000 255 255 255 0
-0.935535 0.387511 0.000000 255 255 255 0
-0.886280 -0.473726 0.000000 255 255 255 255
0.197550 0.993159 0.000000 255 255 255 0
-1.004954 0.000000 0.000000 255 255 255 255
-0.841959 0.562579 0.000000 255 255 255 0
-1.007728 0.099253 0.000000 255 255 255 0
-0.985644 0.196057 0.000000 255 255 255 255
0.387510 0.935535 0.000000 255 255 255 0
0.716026 0.716028 0.000000 255 255 255 0
0.562578 0.841960 0.000000 255 255 255 0
-0.562579 0.841959 0.000000 255 255 255 0
-0.194575 0.978192 0.000000 255 255 255 0
-0.705237 0.705237 0.000000 255 255 255 0
-0.829271 0.554101 0.000000 255 255 255 0
-0.879579 -0.470145 0.000000 255 255 255 0
-1.012616 0.000000 0.000000 255 255 255 0
-0.993158 0.197552 0.000000 255 255 255 0
-0.381672 0.921437 0.000000 255 255 255 0
0.381672 -0.921437 0.000000 255 255 255 0
-0.289514 0.954399 0.000000 255 255 255 0
0.470145 -0.879579 0.000000 255 255 255 0
-0.470145 0.879579 0.000000 255 255 255 0
-0.770958 0.632709 0.000000 255 255 255 0
0.289512 0.954400 0.000000 255 255 255 0
0.921437 -0.381671 0.000000 255 255 255 0
-0.097757 0.992542 0.000000 255 255 255 0
-0.554101 0.829271 0.000000 255 255 255 0
-0.632709 0.770958 0.000000 255 255 255 0
0.954399 -0.289513 0.000000 255 255 255 0
-0.879579 0.470145 0.000000 255 255 255 0
0.879579 0.470146 0.000000 255 255 255 0
3 0 1 2
3 3 4 5
3 6 7 8
3 9 10 11
3 12 13 14
3 15 16 17
3 18 19 20
3 21 22 23
3 8 24 25
3 26 27 28
3 29 30 31
3 32 33 34
3 35 36 37
3 38 39 40
3 41 42 43
3 11 44 45
3 46 47 48
3 49 50 51
3 52 53 54
3 55 56 57
3 58 59 60
3 61 62 63
3 64 65 66
3 52 67 68
3 11 69 70
3 8 50 71
3 72 73 74
3 75 76 77
3 78 79 18
3 80 81 82
3 83 84 85
3 86 87 88
3 89 90 91
3 75 73 46
3 72 81 41
3 92 2 93
3 80 94 15
3 95 96 97
3 49 53 98
3 99 100 101
3 0 102 103
3 38 104 105
3 106 107 108
3 109 76 61
3 110 111 55
3 112 94 113
3 114 115 116
3 117 71 49
3 118 119 120
3 121 122 123
3 124 125 38
3 126 70 127
3 83 79 128
3 110 129 130
3 131 105 132
3 114 122 133
3 134 135 32
3 121 129 64
3 109 84 136
3 137 115 21
3 78 111 138
3 139 140 58
3 118 141 142
3 143 144 145
3 131 7 146
3 124 105 147
3 148 13 149
3 134 125 150
3 12 151 152
3 137 135 153
3 154 141 155
3 156 98 52
3 157 68 158
3 126 119 159
3 9 70 160
3 143 140 161
3 3 2 162
3 157 10 163
3 95 164 99
3 92 96 0
3 148 144 165
3 166 167 106
3 156 68 168
3 6 71 169
3 117 98 170
3 154 151 171
3 127 172 119
3 152 173 13
3 149 174 144
3 162 1 175
3 112 87 35
3 166 164 176
3 139 167 177
3 89 4 26
3 86 90 29
3 120 178 141
3 132 24 7
3 85 19 79
3 99 102 96
3 61 179 84
3 35 16 94
3 120 172 180
3 85 179 181
3 155 178 182
3 149 173 183
3 158 67 184
3 162 27 4
3 64 185 122
3 106 100 164
3 41 47 73
3 32 39 125
3 133 22 115
3 127 69 186
3 155 187 151
3 26 30 90
3 152 187 188
3 158 44 10
3 46 62 76
3 18 56 111
3 21 33 135
3 29 36 87
3 133 185 189
3 58 107 167
3 55 65 129
3 145 174 190
3 145 59 140
3 132 104 191
3 15 42 81
3 0 103 1
3 3 162 4
3 6 146 7
3 9 163 10
3 12 152 13
3 15 94 16
3 18 79 19
3 21 115 22
3 8 7 24
3 26 4 27
3 29 90 30
3 32 135 33
3 35 87 36
3 38 125 39
3 41 81 42
3 11 10 44
3 46 73 47
3 49 71 50
3 52 98 53
3 55 111 56
3 58 140 59
3 61 76 62
3 64 129 65
3 52 54 67
3 11 45 69
3 8 25 50
3 72 41 73
3 75 46 76
3 78 128 79
3 80 15 81
3 83 136 84
3 86 29 87
3 89 26 90
3 75 74 73
3 72 82 81
3 92 0 2
3 80 113 94
3 95 99 96
3 49 51 53
3 99 164 100
3 0 96 102
3 38 40 104
3 106 167 107
3 109 77 76
3 110 138 111
3 112 35 94
3 114 133 115
3 117 169 71
3 118 159 119
3 121 64 122
3 124 150 125
3 126 160 70
3 83 85 79
3 110 55 129
3 131 147 105
3 114 123 122
3 134 153 135
3 121 130 129
3 109 61 84
3 137 116 115
3 78 18 111
3 139 161 140
3 118 120 141
3 143 165 144
3 131 132 7
3 124 38 105
3 148 14 13
3 134 32 125
3 12 171 151
3 137 21 135
3 154 142 141
3 156 170 98
3 157 168 68
3 126 127 119
3 9 11 70
3 143 145 140
3 3 93 2
3 157 158 10
3 95 176 164
3 92 97 96
3 148 149 144
3 166 177 167
3 156 52 68
3 6 8 71
3 117 49 98
3 154 155 151
3 127 186 172
3 152 188 173
3 149 183 174
3 162 2 1
3 112 88 87
3 166 106 164
3 139 58 167
3 89 5 4
3 86 91 90
3 120 180 178
3 132 191 24
3 85 181 19
3 99 101 102
3 61 63 179
3 35 37 16
3 120 119 172
3 85 84 179
3 155 141 178
3 149 13 173
3 158 68 67
3 162 175 27
3 64 66 185
3 106 108 100
3 41 43 47
3 32 34 39
3 133 189 22
3 127 70 69
3 155 182 187
3 26 28 30
3 152 151 187
3 158 184 44
3 46 48 62
3 18 20 56
3 21 23 33
3 29 31 36
3 133 122 185
3 58 60 107
3 55 57 65
3 145 144 174
3 145 190 59
3 132 105 104
3 15 17 42
