ply
format ascii 1.0
comment Created by Blender 2.91.0 - www.blender.org
element vertex 21
property float x
property float y
property float z
property uchar red
property uchar green
property uchar blue
property uchar alpha
element face 24
property list uchar uint vertex_indices
end_header
-0.006000 0.200012 0.000000 255 255 255 255
-0.002199 0.014730 0.000000 255 255 255 255
-0.002199 0.200028 0.000000 255 255 255 255
0.000000 0.019503 0.000000 255 255 255 255
0.000000 0.200031 0.000000 255 255 255 255
0.000000 0.011329 0.000000 255 255 255 255
-0.001404 0.006999 0.000000 255 255 255 255
0.000000 -0.000000 0.000000 255 255 255 255
0.007305 -0.001503 0.000000 255 255 255 255
-0.001032 -0.001167 0.000000 255 255 255 255
0.014783 -0.002353 0.000000 255 255 255 255
0.011630 -0.000000 0.000000 255 255 255 255
0.004955 -0.006000 0.000000 255 255 255 255
-0.004236 -0.006000 0.000000 255 255 255 255
-0.006000 -0.006000 0.000000 255 255 255 255
-0.006000 -0.000126 0.000000 255 255 255 255
-0.006000 0.007802 0.000000 255 255 255 255
0.199994 -0.006001 0.000000 255 255 255 255
0.199997 -0.002353 0.000000 255 255 255 255
0.019554 -0.000000 0.000000 255 255 255 255
0.200000 0.000000 0.000000 255 255 255 255
3 0 1 2
3 2 3 4
3 1 5 3
3 6 7 5
3 8 7 9
3 10 11 8
3 8 12 10
3 13 9 14
3 9 15 14
3 6 16 15
3 17 10 12
3 18 19 10
3 0 16 1
3 2 1 3
3 1 6 5
3 6 9 7
3 8 11 7
3 10 19 11
3 8 13 12
3 13 8 9
3 9 6 15
3 6 1 16
3 17 18 10
3 18 20 19
