ply
format ascii 1.0
comment Created by Blender 2.82 (sub 7) - www.blender.org, source file: 'disk.blend'
element vertex 64
property float x
property float y
property float z
property float nx
property float ny
property float nz
property float s
property float t
element face 62
property list uchar uint vertex_indices
end_header
-0.000000 -0.998589 0.000000 0.000000 -0.000000 -1.000000 0.475571 0.003919
-0.880667 -0.470725 0.000000 0.000000 -0.000000 -1.000000 0.925984 0.244608
0.000000 0.998589 0.000000 0.000000 -0.000000 -1.000000 0.524429 0.996081
0.097878 0.993768 0.000000 0.000000 0.000000 -1.000000 0.475688 0.996081
0.993769 -0.097878 0.000000 0.000000 0.000000 -1.000000 0.003919 0.475688
0.194815 0.979401 0.000000 0.000000 0.000000 -1.000000 0.427182 0.991315
0.289872 0.955578 0.000000 0.000000 0.000000 -1.000000 0.379375 0.981806
0.470726 0.880666 0.000000 -0.000000 -0.000000 -1.000000 0.287697 0.949015
0.382143 0.922575 0.000000 -0.000000 -0.000000 -1.000000 0.332729 0.967668
0.554786 0.830296 0.000000 0.000000 0.000000 -1.000000 0.244704 0.926048
0.633490 0.771910 0.000000 0.000000 0.000000 -1.000000 0.204177 0.898969
0.706109 0.706109 0.000000 0.000000 0.000000 -1.000000 0.166490 0.868055
0.771910 0.633490 0.000000 0.000000 0.000000 -1.000000 0.132026 0.833590
0.830296 0.554786 0.000000 0.000000 0.000000 -1.000000 0.101097 0.795921
0.880666 0.470726 0.000000 0.000000 0.000000 -1.000000 0.074016 0.755393
0.955578 0.289872 0.000000 -0.000000 -0.000000 -1.000000 0.032377 0.667380
0.922575 0.382143 0.000000 -0.000000 -0.000000 -1.000000 0.051030 0.712411
0.979401 0.194815 0.000000 0.000000 0.000000 -1.000000 0.018217 0.620740
0.993768 0.097878 0.000000 0.000000 0.000000 -1.000000 0.008708 0.572935
0.998589 0.000000 0.000000 0.000000 0.000000 -1.000000 0.003919 0.524429
0.979401 -0.194815 0.000000 0.000000 0.000000 -1.000000 0.008685 0.427178
0.955579 -0.289871 0.000000 0.000000 0.000000 -1.000000 0.018194 0.379374
0.922576 -0.382143 0.000000 0.000000 0.000000 -1.000000 0.032332 0.332729
0.880666 -0.470726 0.000000 0.000000 0.000000 -1.000000 0.050985 0.287696
0.830296 -0.554786 0.000000 0.000000 0.000000 -1.000000 0.073951 0.244705
0.771910 -0.633490 0.000000 0.000000 0.000000 -1.000000 0.101031 0.204177
0.097877 -0.993769 0.000000 -0.000000 0.000000 -1.000000 0.427065 0.008708
0.289871 -0.955579 0.000000 -0.000000 0.000000 -1.000000 0.332620 0.032377
0.706109 -0.706109 0.000000 0.000000 0.000000 -1.000000 0.131945 0.166491
0.633490 -0.771910 0.000000 0.000000 0.000000 -1.000000 0.166410 0.132026
0.554786 -0.830296 0.000000 0.000000 0.000000 -1.000000 0.204081 0.101095
0.470726 -0.880666 0.000000 0.000000 0.000000 -1.000000 0.244608 0.074016
0.382143 -0.922576 0.000000 -0.000000 0.000000 -1.000000 0.287589 0.051029
0.194815 -0.979401 0.000000 0.000000 0.000000 -1.000000 0.379259 0.018217
-0.097878 -0.993768 0.000000 0.000000 0.000000 -1.000000 0.524313 0.003919
-0.771911 -0.633490 0.000000 0.000000 0.000000 -1.000000 0.867974 0.166410
-0.194815 -0.979401 0.000000 0.000000 0.000000 -1.000000 0.572821 0.008685
-0.289872 -0.955578 0.000000 0.000000 0.000000 -1.000000 0.620626 0.018194
-0.633491 -0.771910 0.000000 0.000000 0.000000 -1.000000 0.795823 0.101031
-0.382144 -0.922575 0.000000 0.000000 0.000000 -1.000000 0.667270 0.032332
-0.470726 -0.880666 0.000000 0.000000 0.000000 -1.000000 0.712303 0.050985
-0.554787 -0.830296 0.000000 0.000000 0.000000 -1.000000 0.755295 0.073951
-0.706109 -0.706108 0.000000 0.000000 0.000000 -1.000000 0.833508 0.131944
-0.830296 -0.554785 0.000000 0.000000 0.000000 -1.000000 0.898904 0.204080
-0.922576 -0.382143 0.000000 0.000000 0.000000 -1.000000 0.948971 0.287590
-0.955579 -0.289871 0.000000 0.000000 0.000000 -1.000000 0.967623 0.332621
-0.979401 -0.194814 0.000000 0.000000 0.000000 -1.000000 0.981783 0.379261
-0.993769 -0.097877 0.000000 0.000000 0.000000 -1.000000 0.991292 0.427065
-0.998589 0.000001 0.000000 0.000000 -0.000000 -1.000000 0.996081 0.475569
-0.993768 0.097879 0.000000 0.000000 -0.000000 -1.000000 0.996081 0.524313
-0.979401 0.194816 0.000000 0.000000 0.000000 -1.000000 0.991315 0.572820
-0.955578 0.289873 0.000000 0.000000 0.000000 -1.000000 0.981805 0.620627
-0.922575 0.382144 0.000000 0.000000 0.000000 -1.000000 0.967668 0.667273
-0.880666 0.470727 0.000000 0.000000 0.000000 -1.000000 0.949015 0.712304
-0.830295 0.554787 0.000000 0.000000 0.000000 -1.000000 0.926048 0.755297
-0.771910 0.633491 0.000000 0.000000 0.000000 -1.000000 0.898969 0.795823
-0.289870 0.955579 0.000000 0.000000 -0.000000 -1.000000 0.667379 0.967623
-0.470725 0.880667 0.000000 0.000000 -0.000000 -1.000000 0.755392 0.925984
-0.706108 0.706110 0.000000 0.000000 0.000000 -1.000000 0.868056 0.833508
-0.633489 0.771911 0.000000 0.000000 0.000000 -1.000000 0.833590 0.867975
-0.554785 0.830297 0.000000 0.000000 0.000000 -1.000000 0.795920 0.898904
-0.382142 0.922576 0.000000 0.000000 0.000000 -1.000000 0.712413 0.948970
-0.194814 0.979401 0.000000 0.000000 0.000000 -1.000000 0.620741 0.981783
-0.097877 0.993769 0.000000 0.000000 0.000000 -1.000000 0.572935 0.991292
3 0 1 2
3 2 3 4
3 3 5 6
3 7 6 8
3 3 6 7
3 7 9 10
3 10 11 12
3 10 3 7
3 12 13 14
3 15 14 16
3 12 14 15
3 15 17 18
3 18 19 4
3 18 12 15
3 4 20 21
3 21 22 23
3 4 0 2
3 23 24 25
3 26 25 27
3 25 28 29
3 23 25 26
3 29 30 31
3 27 31 32
3 29 31 27
3 27 33 26
3 26 0 21
3 25 29 27
3 0 34 35
3 34 36 37
3 34 38 35
3 37 39 40
3 34 37 38
3 40 41 38
3 38 42 35
3 35 43 1
3 1 44 45
3 45 46 47
3 47 48 49
3 49 50 51
3 51 52 53
3 49 1 47
3 53 54 55
3 56 55 57
3 55 58 59
3 53 55 56
3 59 60 57
3 57 61 56
3 56 62 63
3 51 63 1
3 63 2 1
3 56 63 51
3 3 10 4
3 12 18 10
3 4 21 0
3 21 23 26
3 40 38 37
3 35 1 0
3 45 47 1
3 49 51 1
3 51 53 56
3 59 57 55
3 10 18 4
