ply
format ascii 1.0
comment Created by Blender 2.91.0 - www.blender.org
element vertex 14
property float x
property float y
property float z
property uchar red
property uchar green
property uchar blue
property uchar alpha
element face 12
property list uchar uint vertex_indices
end_header
0.982449 0.001584 0.000000 255 255 255 255
1.000075 -0.001403 0.000000 255 255 255 255
1.000097 0.001584 0.000000 255 255 255 255
0.971637 -0.001403 0.000000 255 255 255 255
-0.036323 0.001584 0.000000 255 255 255 255
-0.963025 0.001584 0.000000 255 255 255 255
-0.976754 -0.001385 0.000000 255 255 255 255
-0.951104 -0.001403 0.000000 255 255 255 255
-0.987628 0.001584 0.000000 255 255 255 255
-1.000000 -0.001403 0.000000 255 255 255 255
-0.499475 0.001584 0.000000 255 255 255 255
-0.048249 -0.001403 0.000000 255 255 255 255
-1.000000 0.001584 0.000000 255 255 255 255
-0.499484 -0.001403 0.000000 255 255 255 255
3 0 1 2
3 3 0 4
3 5 6 7
3 8 9 6
3 7 10 5
3 10 11 4
3 0 3 1
3 4 11 3
3 5 8 6
3 8 12 9
3 7 13 10
3 10 13 11
