ply
format ascii 1.0
comment Created by Blender 2.83.1 - www.blender.org, source file: 'h_line.blend'
element vertex 26
property float x
property float y
property float z
property uchar red
property uchar green
property uchar blue
property uchar alpha
element face 24
property list uchar uint vertex_indices
end_header
0.003030 -0.016358 0.000000 255 255 255 255
-0.000000 -0.013902 0.000000 255 255 255 255
-0.000000 -0.016360 0.000000 255 255 255 255
0.003030 -0.010598 0.000000 255 255 255 255
-0.000000 -0.008243 0.000000 255 255 255 255
0.003030 -0.005245 0.000000 255 255 255 255
0.000000 0.000013 0.000000 255 255 255 255
-0.017626 0.003000 0.000000 255 255 255 255
0.003200 0.003000 0.000000 255 255 255 255
-0.036323 0.003000 0.000000 255 255 255 255
-0.028438 0.000013 0.000000 255 255 255 255
-0.963025 0.003000 0.000000 255 255 255 255
-0.976754 0.000031 0.000000 255 255 255 255
-0.951104 0.000013 0.000000 255 255 255 255
-0.987628 0.003000 0.000000 255 255 255 255
-1.000000 0.000013 0.000000 255 255 255 255
-1.003292 -0.004700 0.000000 255 255 255 255
-1.003000 0.003000 0.000000 255 255 255 255
-1.003287 -0.010859 0.000000 255 255 255 255
-1.000000 -0.007704 0.000000 255 255 255 255
-0.499475 0.003000 0.000000 255 255 255 255
-0.048249 0.000013 0.000000 255 255 255 255
-1.003287 -0.016722 0.000000 255 255 255 255
-1.000000 -0.014160 0.000000 255 255 255 255
-0.499484 0.000013 0.000000 255 255 255 255
-1.000000 -0.016720 0.000000 255 255 255 255
3 0 1 2
3 3 4 1
3 5 6 4
3 7 6 8
3 9 10 7
3 11 12 13
3 14 15 12
3 16 15 17
3 18 19 16
3 13 20 11
3 20 21 9
3 22 23 18
3 0 3 1
3 3 5 4
3 5 8 6
3 7 10 6
3 9 21 10
3 11 14 12
3 14 17 15
3 16 19 15
3 18 23 19
3 13 24 20
3 20 24 21
3 22 25 23
