ply
format ascii 1.0
comment Created by Blender 2.83.1 - www.blender.org, source file: 'h_line.blend'
element vertex 6
property float x
property float y
property float z
property uchar red
property uchar green
property uchar blue
property uchar alpha
element face 4
property list uchar uint vertex_indices
end_header
-0.001392 0.000000 0.000000 255 255 255 255
-0.000036 -0.020057 0.000000 255 255 255 255
-0.000036 0.000000 0.000000 255 255 255 255
0.001438 -0.020058 0.000000 255 255 255 255
-0.001392 -0.020057 0.000000 255 255 255 255
0.001438 -0.000000 0.000000 255 255 255 255
3 0 1 2
3 3 2 1
3 0 4 1
3 3 5 2
