ply
format ascii 1.0
comment Created in Blender version 5.2.2 LTS
element vertex 73
property float x
property float y
property float z
property float s
property float t
element face 61
property list uchar uint vertex_indices
end_header
-0.08556162 -0.11288421 0.0012501365 0.083333336 0
0.1032739 -0.061394494 0.0012501365 0.055555556 0
-0.10272848 -0.061394494 0.0012501365 0.06944445 0
0.08610702 -0.11288421 0.0012501365 0.097222224 0
-0.09341545 -0.044231262 0.0012501365 0.20833333 0
-0.08307241 0.007258459 0.0012501365 0.125 0
-0.10272848 0.024421696 0.0012501365 0.19444445 0
0.1032739 0.024421696 0.0012501365 0.18055555 0
0.08354058 0.007258459 0.0012501365 0.1388889 0
0.09367762 -0.044231262 0.0012501365 0.16666667 0
-0.0760855 -0.044231262 0.0012501365 0.11111111 0
0.07633908 -0.044231262 0.0012501365 0.15277778 0
-0.044546038 -0.0014018987 0.0012501365 0.375 0
-0.041914552 -0.0014017299 0.0012501365 0.4027778 0
-0.04323671 -0.0013231593 0.0012501365 0.3888889 0
-0.040638432 -0.0016306276 0.0012501365 0.41666666 0
-0.04578881 -0.0016312634 0.0012501365 0.3611111 0
-0.039420433 -0.0019996325 0.0012501365 0.43055555 0
-0.046954274 -0.0020009738 0.0012501365 0.3472222 0
-0.038272627 -0.0024985233 0.0012501365 0.44444445 0
-0.048031673 -0.002500749 0.0012501365 0.33333334 0
-0.037207074 -0.0031170803 0.0012501365 0.45833334 0
-0.049010232 -0.0031203097 0.0012501365 0.31944445 0
-0.036235854 -0.0038450824 0.0012501365 0.4722222 0
-0.049879216 -0.003849375 0.0012501365 0.30555555 0
-0.035371028 -0.00467231 0.0012501365 0.4861111 0
-0.05062785 -0.004677666 0.0012501365 0.29166666 0
-0.034624666 -0.0055885413 0.0012501365 0.5 0
-0.051245376 -0.005594901 0.0012501365 0.2777778 0
-0.034008853 -0.006583557 0.0012501365 0.5138889 0
-0.051721036 -0.0065908013 0.0012501365 0.2638889 0
-0.033535644 -0.0076471358 0.0012501365 0.5277778 0
-0.05204407 -0.0076550865 0.0012501365 0.25 0
-0.033217117 -0.008769057 0.0012501365 0.5416667 0
-0.052203722 -0.008777475 0.0012501365 0.2361111 0
-0.0028259144 -0.031024145 0.0012501365 0.9027778 0
0.04318987 -0.044231262 0.0012501365 0.9444444 0
0.012830268 -0.008025404 0.0012501365 0.8888889 0
-0.03306534 -0.009939101 0.0012501365 0.5555556 0
-0.05218923 -0.00994769 0.0012501365 0.22222222 0
-0.033088237 -0.011109316 0.0012501365 0.5694444 0
-0.0520019 -0.011117737 0.0012501365 0.875 0
-0.033278503 -0.012231705 0.0012501365 0.5833333 0
-0.051654004 -0.012239659 0.0012501365 0.8611111 0
-0.033625416 -0.01329599 0.0012501365 0.5972222 0
-0.05115775 -0.013303239 0.0012501365 0.8472222 0
-0.03411825 -0.01429189 0.0012501365 0.6111111 0
-0.050525323 -0.014298255 0.0012501365 0.8333333 0
-0.034746274 -0.015209126 0.0012501365 0.625 0
-0.04976891 -0.015214486 0.0012501365 0.8194444 0
-0.035498753 -0.016037416 0.0012501365 0.6388889 0
-0.04890071 -0.016041713 0.0012501365 0.8055556 0
-0.036364965 -0.016766483 0.0012501365 0.6527778 0
-0.0479329 -0.016769713 0.0012501365 0.7916667 0
-0.037334174 -0.017386043 0.0012501365 0.6666667 0
-0.046877675 -0.01738827 0.0012501365 0.7777778 0
-0.038395658 -0.01788582 0.0012501365 0.6805556 0
-0.045747235 -0.01788716 0.0012501365 0.7638889 0
-0.03953869 -0.018255528 0.0012501365 0.6944444 0
-0.04455375 -0.018256165 0.0012501365 0.75 0
-0.04075253 -0.018484894 0.0012501365 0.7083333 0
-0.043309428 -0.018485062 0.0012501365 0.7361111 0
-0.042026445 -0.018563632 0.0012501365 0.7222222 0
-0.042644456 -0.044231262 0.0012501365 0.9305556 0
-0.018387673 -0.019765062 0.0012501365 0.9166667 0
-0.08677186 0.041584928 0.0012501365 0.9583333 0
0.09148026 0.05874818 0.0012501365 0.9861111 0
-0.09096917 0.05874818 0.0012501365 0.9722222 0
0.0872658 0.041584928 0.0012501365 1 0
-0.07320148 0.07591142 0.0012501365 0 0
0.07748068 0.09307465 0.0012501365 0.027777778 0
-0.076969594 0.09307465 0.0012501365 0.013888889 0
0.07371254 0.07591142 0.0012501365 0.041666668 0
3 0 1 2
3 0 3 1
3 4 5 6
3 5 7 6
3 5 8 7
3 8 9 7
3 4 10 5
3 11 9 8
3 12 13 14
3 12 15 13
3 16 15 12
3 16 17 15
3 18 17 16
3 18 19 17
3 20 19 18
3 20 21 19
3 22 21 20
3 22 23 21
3 24 23 22
3 24 25 23
3 26 25 24
3 26 27 25
3 28 27 26
3 28 29 27
3 30 29 28
3 30 31 29
3 32 31 30
3 32 33 31
3 34 33 32
3 35 36 37
3 34 38 33
3 39 38 34
3 39 40 38
3 41 40 39
3 41 42 40
3 43 42 41
3 43 44 42
3 45 44 43
3 45 46 44
3 47 46 45
3 47 48 46
3 49 48 47
3 49 50 48
3 51 50 49
3 51 52 50
3 53 52 51
3 53 54 52
3 55 54 53
3 55 56 54
3 57 56 55
3 57 58 56
3 59 58 57
3 59 60 58
3 61 60 59
3 61 62 60
3 63 35 64
3 63 36 35
3 65 66 67
3 65 68 66
3 69 70 71
3 69 72 70
