ply
format ascii 1.0
comment Created in Blender version 4.2.2 LTS
element vertex 83
property float x
property float y
property float z
property float s
property float t
element face 79
property list uchar uint vertex_indices
end_header
-0.07290316 0.09147241 0 0.0121951215 0
0.1099843 0.10975728 0 0.06097561 0
-0.07290316 0.10975728 0 0 0
0.091695555 0.09147241 0 0.024390243 0
0.1099843 -0.07309154 0 0.048780486 0
0.091695555 -0.07309154 0 0.036585364 0
-0.10948064 -0.1096613 0 0.085365854 0
-0.05822414 -0.00053750724 0 0.597561 0
-0.10948064 0.07318752 0 0.07317073 0
-0.055750687 0.004383467 0 0.6097561 0
-0.05268512 0.00891722 0 0.6219512 0
-0.04907864 0.013012551 0 0.63414633 0
-0.04498244 0.016618274 0 0.64634144 0
-0.040447734 0.019683175 0 0.6585366 0
-0.035525717 0.022156127 0 0.6707317 0
0.07340681 0.07318752 0 0.1097561 0
-0.030267581 0.023985885 0 0.68292683 0
-0.024724536 0.025121279 0 0.69512194 0
-0.01894778 0.025511123 0 0.12195122 0
-0.013171017 0.025121279 0 0.13414635 0
-0.0076279715 0.023985885 0 0.14634146 0
-0.002369836 0.022156127 0 0.15853658 0
0.0025521815 0.019683175 0 0.17073171 0
0.007086888 0.01661826 0 0.18292683 0
0.011183083 0.013012543 0 0.19512194 0
0.014789559 0.0089172125 0 0.20731707 0
0.01785513 0.0043834597 0 0.2195122 0
0.020328574 -0.0005375147 0 0.23170732 0
0.07340681 -0.1096613 0 0.09756097 0
-0.01676885 -0.05068185 0 0.7195122 0
-0.012085743 0.015836112 0 1 0
-0.016340211 0.016440101 0 0.70731705 0
-0.008017488 0.014717221 0 0.9878049 0
-0.0041704625 0.0131183565 0 0.9756098 0
-0.000579685 0.011074416 0 0.9634146 0
0.0027198046 0.008620292 0 0.9512195 0
0.005692996 0.0057908893 0 0.9390244 0
0.008304864 0.0026211068 0 0.9268293 0
0.010520384 -0.00085414946 0 0.91463417 0
-0.060054287 -0.0057945326 0 0.58536583 0
0.02215872 -0.0057945326 0 0.24390244 0
0.01230453 -0.0045999885 0 0.902439 0
0.013622284 -0.008581497 0 0.8902439 0
-0.061189923 -0.011336409 0 0.5731707 0
0.023294352 -0.011336409 0 0.25609756 0
0.014438622 -0.012763783 0 0.8780488 0
-0.061579846 -0.01711195 0 0.5609756 0
0.023684286 -0.01711195 0 0.2682927 0
0.01471851 -0.01711195 0 0.86585367 0
-0.06118993 -0.02288749 0 0.5487805 0
0.014434196 -0.021496154 0 0.85365856 0
0.023294352 -0.02288749 0 0.2804878 0
0.013605081 -0.025710896 0 0.8414634 0
-0.060054295 -0.02842936 0 0.5365854 0
0.02215872 -0.02842936 0 0.29268292 0
0.012267001 -0.02972044 0 0.8292683 0
-0.05822415 -0.033686385 0 0.5243902 0
0.020328574 -0.033686377 0 0.30487806 0
0.010455765 -0.033489108 0 0.81707317 0
0.008207209 -0.03698118 0 0.80487806 0
0.01785513 -0.03860736 0 0.31707317 0
-0.055750694 -0.038607366 0 0.5121951 0
0.005557157 -0.040160954 0 0.79268295 0
0.0147895515 -0.043141104 0 0.3292683 0
-0.052685127 -0.04314111 0 0.5 0
0.0025414154 -0.042992726 0 0.7804878 0
-0.0008041933 -0.045440786 0 0.76829267 0
0.011183076 -0.047236435 0 0.34146342 0
-0.049078647 -0.047236446 0 0.4878049 0
-0.004443839 -0.047469437 0 0.75609756 0
0.0070868805 -0.050842155 0 0.35365853 0
-0.04498245 -0.050842166 0 0.47560975 0
-0.008341715 -0.04904297 0 0.74390244 0
-0.01246199 -0.050125673 0 0.73170733 0
0.002552174 -0.053907074 0 0.36585367 0
-0.04044774 -0.053907085 0 0.46341464 0
-0.0023698434 -0.056380007 0 0.37804878 0
-0.035525724 -0.05638002 0 0.4512195 0
-0.007627979 -0.058209766 0 0.3902439 0
-0.030267589 -0.058209777 0 0.4390244 0
-0.013171025 -0.05934516 0 0.40243903 0
-0.024724536 -0.059345167 0 0.42682928 0
-0.01894778 -0.059735004 0 0.41463414 0
3 0 1 2
3 0 3 1
3 3 4 1
3 5 4 3
3 6 7 8
3 7 9 8
3 9 10 8
3 10 11 8
3 11 12 8
3 12 13 8
3 13 14 8
3 14 15 8
3 14 16 15
3 16 17 15
3 17 18 15
3 18 19 15
3 19 20 15
3 20 21 15
3 21 22 15
3 22 23 15
3 23 24 15
3 24 25 15
3 25 26 15
3 26 27 15
3 27 28 15
3 29 30 31
3 29 32 30
3 29 33 32
3 29 34 33
3 29 35 34
3 29 36 35
3 29 37 36
3 29 38 37
3 6 39 7
3 40 28 27
3 29 41 38
3 29 42 41
3 6 43 39
3 44 28 40
3 29 45 42
3 6 46 43
3 47 28 44
3 29 48 45
3 6 49 46
3 29 50 48
3 51 28 47
3 29 52 50
3 6 53 49
3 54 28 51
3 29 55 52
3 6 56 53
3 57 28 54
3 29 58 55
3 29 59 58
3 60 28 57
3 6 61 56
3 29 62 59
3 63 28 60
3 6 64 61
3 29 65 62
3 29 66 65
3 67 28 63
3 6 68 64
3 29 69 66
3 70 28 67
3 6 71 68
3 29 72 69
3 29 73 72
3 74 28 70
3 6 75 71
3 76 28 74
3 6 77 75
3 78 28 76
3 6 79 77
3 80 28 78
3 6 81 79
3 82 28 80
3 6 82 81
3 6 28 82
