ply
format ascii 1.0
comment Created by Blender 2.82 (sub 7) - www.blender.org, source file: 'icons.blend'
element vertex 64
property float x
property float y
property float z
property uchar red
property uchar green
property uchar blue
property uchar alpha
element face 80
property list uchar uint vertex_indices
end_header
0.658177 -0.900641 0.000000 255 255 255 255
0.678184 -0.680614 0.000000 255 255 255 255
0.658177 -0.680614 0.000000 255 255 255 255
0.678184 -0.700617 0.000000 255 255 255 255
0.698190 -0.700617 0.000000 255 255 255 255
0.718197 -0.680614 0.000000 255 255 255 255
0.698190 -0.680614 0.000000 255 255 255 255
0.718197 -0.720619 0.000000 255 255 255 255
0.838237 -0.720619 0.000000 255 255 255 255
0.858243 -0.680614 0.000000 255 255 255 255
0.838237 -0.680614 0.000000 255 255 255 255
0.858243 -0.700617 0.000000 255 255 255 255
0.878250 -0.700617 0.000000 255 255 255 255
0.898256 -0.680614 0.000000 255 255 255 255
0.878250 -0.680614 0.000000 255 255 255 255
0.898256 -0.900641 0.000000 255 255 255 255
0.678184 -0.720619 0.000000 255 255 255 255
0.858243 -0.720619 0.000000 255 255 255 255
0.878250 -0.720619 0.000000 255 255 255 255
0.678184 -0.740622 0.000000 255 255 255 255
0.698190 -0.720619 0.000000 255 255 255 255
0.698190 -0.740622 0.000000 255 255 255 255
0.858243 -0.740622 0.000000 255 255 255 255
0.878250 -0.740622 0.000000 255 255 255 255
0.678184 -0.760624 0.000000 255 255 255 255
0.718197 -0.750623 0.000000 255 255 255 255
0.838237 -0.750623 0.000000 255 255 255 255
0.878250 -0.760624 0.000000 255 255 255 255
0.698190 -0.760624 0.000000 255 255 255 255
0.718197 -0.830632 0.000000 255 255 255 255
0.838237 -0.830632 0.000000 255 255 255 255
0.858243 -0.760624 0.000000 255 255 255 255
0.678184 -0.780626 0.000000 255 255 255 255
0.698190 -0.780626 0.000000 255 255 255 255
0.858243 -0.780626 0.000000 255 255 255 255
0.878250 -0.780626 0.000000 255 255 255 255
0.678184 -0.800629 0.000000 255 255 255 255
0.698190 -0.800629 0.000000 255 255 255 255
0.858243 -0.800629 0.000000 255 255 255 255
0.878250 -0.800629 0.000000 255 255 255 255
0.678184 -0.820631 0.000000 255 255 255 255
0.698190 -0.820631 0.000000 255 255 255 255
0.858243 -0.820631 0.000000 255 255 255 255
0.878250 -0.820631 0.000000 255 255 255 255
0.678184 -0.840634 0.000000 255 255 255 255
0.878250 -0.840634 0.000000 255 255 255 255
0.678184 -0.860636 0.000000 255 255 255 255
0.698190 -0.840634 0.000000 255 255 255 255
0.698190 -0.860636 0.000000 255 255 255 255
0.858243 -0.840634 0.000000 255 255 255 255
0.858243 -0.860636 0.000000 255 255 255 255
0.878250 -0.860636 0.000000 255 255 255 255
0.678184 -0.880638 0.000000 255 255 255 255
0.718197 -0.860636 0.000000 255 255 255 255
0.698190 -0.880638 0.000000 255 255 255 255
0.718197 -0.900641 0.000000 255 255 255 255
0.838237 -0.860636 0.000000 255 255 255 255
0.838237 -0.900641 0.000000 255 255 255 255
0.858243 -0.880638 0.000000 255 255 255 255
0.878250 -0.880638 0.000000 255 255 255 255
0.678184 -0.900641 0.000000 255 255 255 255
0.698190 -0.900641 0.000000 255 255 255 255
0.858243 -0.900641 0.000000 255 255 255 255
0.878250 -0.900641 0.000000 255 255 255 255
3 0 1 2
3 0 3 1
3 4 5 6
3 4 7 5
3 8 9 10
3 8 11 9
3 12 13 14
3 12 15 13
3 0 16 3
3 16 4 3
3 16 7 4
3 8 12 11
3 8 17 12
3 17 18 12
3 18 15 12
3 0 19 16
3 20 7 16
3 21 7 20
3 21 8 7
3 21 17 8
3 21 22 17
3 23 15 18
3 0 24 19
3 24 21 19
3 24 25 21
3 25 22 21
3 25 23 22
3 25 26 23
3 26 27 23
3 27 15 23
3 24 28 25
3 28 29 25
3 30 31 26
3 31 27 26
3 0 32 24
3 33 29 28
3 30 34 31
3 35 15 27
3 0 36 32
3 36 33 32
3 36 37 33
3 37 29 33
3 30 38 34
3 38 35 34
3 38 39 35
3 39 15 35
3 0 40 36
3 41 29 37
3 30 42 38
3 43 15 39
3 0 44 40
3 44 41 40
3 44 29 41
3 30 43 42
3 30 45 43
3 45 15 43
3 44 30 29
3 44 45 30
3 0 46 44
3 47 45 44
3 48 49 47
3 49 45 47
3 48 50 49
3 51 15 45
3 0 52 46
3 52 48 46
3 52 53 48
3 53 50 48
3 52 54 53
3 54 55 53
3 56 50 53
3 57 50 56
3 57 58 50
3 58 51 50
3 58 59 51
3 59 15 51
3 0 60 52
3 61 55 54
3 57 62 58
3 63 15 59
