ply
format ascii 1.0
comment Created by Blender 2.91.2 - www.blender.org
element vertex 207
property float x
property float y
property float z
element face 205
property list uchar uint vertex_indices
end_header
0.004060 0.080795 -0.000011
-0.006788 0.080836 -0.000011
-0.001361 0.081184 -0.000011
-0.011996 0.079785 -0.000011
0.009254 0.079701 -0.000011
-0.016937 0.078080 -0.000011
0.014174 0.077952 -0.000011
-0.021564 0.075769 -0.000011
0.018774 0.075596 -0.000011
-0.025828 0.072899 -0.000011
0.023007 0.072684 -0.000011
-0.029680 0.069520 -0.000011
0.026826 0.069264 -0.000011
-0.033072 0.065679 -0.000011
0.030186 0.065386 -0.000011
-0.035956 0.061426 -0.000011
0.033039 0.061099 -0.000011
-0.001309 0.060162 -0.000011
-0.003893 0.060012 -0.000011
-0.038283 0.056807 -0.000011
0.035339 0.056452 -0.000011
0.001246 0.059962 -0.000011
-0.006374 0.059526 -0.000011
0.003693 0.059430 -0.000011
-0.008729 0.058725 -0.000011
0.006010 0.058588 -0.000011
-0.010935 0.057634 -0.000011
0.008175 0.057462 -0.000011
-0.012968 0.056276 -0.000011
0.010167 0.056074 -0.000011
-0.040006 0.051871 -0.000011
0.037040 0.051495 -0.000011
-0.014804 0.054674 -0.000011
0.011964 0.054447 -0.000011
-0.016422 0.052851 -0.000011
0.013544 0.052606 -0.000011
-0.017798 0.050831 -0.000011
0.014885 0.050574 -0.000011
-0.041074 0.046667 -0.000011
0.038094 0.046278 -0.000011
-0.018909 0.048637 -0.000011
0.015966 0.048375 -0.000011
-0.019730 0.046292 -0.000011
0.016765 0.046032 -0.000011
-0.041441 0.041243 -0.000011
-0.020241 0.043820 -0.000011
0.038456 0.040849 -0.000011
0.017261 0.043568 -0.000011
-0.020416 0.041243 -0.000011
0.017430 0.041007 -0.000011
-0.020416 0.041161 -0.000011
-0.041441 0.041161 -0.000011
-0.020416 0.040932 -0.000011
-0.041441 0.040932 -0.000011
0.017430 0.009325 -0.000011
-0.020416 0.040586 -0.000011
-0.041441 0.040586 -0.000011
0.038456 0.040229 -0.000011
-0.020416 0.040153 -0.000011
-0.041441 0.040153 -0.000011
0.038456 0.038514 -0.000011
-0.020416 0.039662 -0.000011
-0.041441 0.039662 -0.000011
-0.020416 0.039141 -0.000011
-0.041441 0.039141 -0.000011
-0.020416 0.038621 -0.000011
-0.041441 0.038621 -0.000011
-0.020416 0.038129 -0.000011
-0.041441 0.038129 -0.000011
0.038456 0.035924 -0.000011
-0.020416 0.037696 -0.000011
-0.041441 0.037696 -0.000011
-0.020416 0.037351 -0.000011
-0.041441 0.037351 -0.000011
-0.020416 0.037122 -0.000011
-0.041441 0.037122 -0.000011
-0.020416 0.037039 -0.000011
-0.041441 0.037039 -0.000011
-0.020473 0.036181 -0.000011
-0.041384 0.036181 -0.000011
-0.020640 0.035359 -0.000011
-0.041217 0.035359 -0.000011
0.038456 0.032676 -0.000011
-0.020910 0.034579 -0.000011
-0.040947 0.034579 -0.000011
-0.021274 0.033851 -0.000011
-0.040583 0.033851 -0.000011
-0.021726 0.033180 -0.000011
-0.040131 0.033180 -0.000011
-0.022259 0.032575 -0.000011
-0.039598 0.032575 -0.000011
0.038456 0.028991 -0.000011
-0.022864 0.032043 -0.000011
-0.038993 0.032043 -0.000011
-0.023534 0.031591 -0.000011
-0.038323 0.031591 -0.000011
-0.024263 0.031227 -0.000011
-0.037594 0.031227 -0.000011
-0.025042 0.030957 -0.000011
-0.036815 0.030957 -0.000011
-0.025865 0.030790 -0.000011
-0.035992 0.030790 -0.000011
-0.026723 0.030733 -0.000011
-0.035134 0.030733 -0.000011
-0.026889 0.030733 -0.000011
-0.027346 0.030733 -0.000011
-0.028037 0.030733 -0.000011
-0.028904 0.030733 -0.000011
-0.029887 0.030733 -0.000011
-0.030929 0.030733 -0.000011
-0.031970 0.030733 -0.000011
-0.032953 0.030733 -0.000011
-0.033820 0.030733 -0.000011
-0.034511 0.030733 -0.000011
-0.034968 0.030733 -0.000011
0.038456 0.025087 -0.000011
0.038456 0.021183 -0.000011
0.038456 0.017498 -0.000011
0.038456 0.014251 -0.000011
0.038456 0.011660 -0.000011
0.038456 0.009945 -0.000011
0.038456 0.009325 -0.000011
0.046475 0.009210 -0.000011
0.044764 0.009325 -0.000011
-0.047749 0.009325 -0.000011
-0.049460 0.009210 -0.000011
0.048117 0.008874 -0.000011
-0.051102 0.008874 -0.000011
0.049673 0.008333 -0.000011
-0.052658 0.008333 -0.000011
0.051130 0.007602 -0.000011
-0.054115 0.007602 -0.000011
0.052472 0.006696 -0.000011
-0.055457 0.006696 -0.000011
0.053683 0.005630 -0.000011
-0.056668 0.005630 -0.000011
0.054750 0.004418 -0.000011
-0.057735 0.004418 -0.000011
0.055656 0.003077 -0.000011
-0.058641 0.003077 -0.000011
0.056387 0.001621 -0.000011
-0.059373 0.001621 -0.000011
0.056928 0.000064 -0.000011
-0.059914 0.000064 -0.000011
0.057264 -0.001577 -0.000011
-0.060249 -0.001577 -0.000011
0.057379 -0.003288 -0.000011
-0.060364 -0.003288 -0.000011
0.057379 -0.004115 -0.000011
-0.060364 -0.004115 -0.000011
0.057379 -0.006402 -0.000011
-0.060364 -0.006402 -0.000011
0.057379 -0.009857 -0.000011
-0.060364 -0.009857 -0.000011
0.057379 -0.014188 -0.000011
-0.060364 -0.014188 -0.000011
0.057379 -0.019102 -0.000011
-0.060364 -0.019102 -0.000011
0.057379 -0.024309 -0.000011
-0.060364 -0.024309 -0.000011
0.057379 -0.029516 -0.000011
-0.060364 -0.029516 -0.000011
0.057379 -0.034430 -0.000011
-0.060364 -0.034430 -0.000011
0.057379 -0.038761 -0.000011
-0.060364 -0.038761 -0.000011
0.057379 -0.042216 -0.000011
-0.060364 -0.042216 -0.000011
0.057379 -0.044503 -0.000011
-0.060364 -0.044503 -0.000011
0.057379 -0.045330 -0.000011
-0.060364 -0.045330 -0.000011
0.057264 -0.047041 -0.000011
-0.060249 -0.047041 -0.000011
0.056928 -0.048682 -0.000011
-0.059914 -0.048682 -0.000011
0.056387 -0.050239 -0.000011
-0.059373 -0.050239 -0.000011
0.055656 -0.051695 -0.000011
-0.058641 -0.051695 -0.000011
0.054750 -0.053036 -0.000011
-0.057735 -0.053036 -0.000011
0.053683 -0.054248 -0.000011
-0.056668 -0.054248 -0.000011
0.052472 -0.055314 -0.000011
-0.055457 -0.055314 -0.000011
0.051130 -0.056220 -0.000011
-0.054115 -0.056220 -0.000011
0.049673 -0.056951 -0.000011
-0.052658 -0.056951 -0.000011
0.048117 -0.057492 -0.000011
-0.051102 -0.057492 -0.000011
0.046475 -0.057828 -0.000011
-0.049460 -0.057828 -0.000011
0.044764 -0.057943 -0.000011
-0.047749 -0.057943 -0.000011
0.042944 -0.057943 -0.000011
0.037911 -0.057943 -0.000011
0.030309 -0.057943 -0.000011
0.020779 -0.057943 -0.000011
0.009964 -0.057943 -0.000011
-0.001493 -0.057943 -0.000011
-0.012950 -0.057943 -0.000011
-0.023764 -0.057943 -0.000011
-0.033294 -0.057943 -0.000011
-0.040896 -0.057943 -0.000011
-0.045929 -0.057943 -0.000011
3 0 1 2
3 0 3 1
3 4 3 0
3 4 5 3
3 6 5 4
3 6 7 5
3 8 7 6
3 8 9 7
3 10 9 8
3 10 11 9
3 12 11 10
3 12 13 11
3 14 13 12
3 14 15 13
3 16 15 14
3 16 17 15
3 17 18 15
3 18 19 15
3 20 21 16
3 21 17 16
3 22 19 18
3 20 23 21
3 24 19 22
3 20 25 23
3 26 19 24
3 20 27 25
3 28 19 26
3 20 29 27
3 28 30 19
3 31 29 20
3 32 30 28
3 31 33 29
3 34 30 32
3 31 35 33
3 36 30 34
3 31 37 35
3 36 38 30
3 39 37 31
3 40 38 36
3 39 41 37
3 42 38 40
3 39 43 41
3 42 44 38
3 45 44 42
3 46 43 39
3 46 47 43
3 48 44 45
3 46 49 47
3 50 44 48
3 50 51 44
3 52 51 50
3 52 53 51
3 46 54 49
3 55 53 52
3 55 56 53
3 57 54 46
3 58 56 55
3 58 59 56
3 60 54 57
3 61 59 58
3 61 62 59
3 63 62 61
3 63 64 62
3 65 64 63
3 65 66 64
3 67 66 65
3 67 68 66
3 69 54 60
3 70 68 67
3 70 71 68
3 72 71 70
3 72 73 71
3 74 73 72
3 74 75 73
3 76 75 74
3 76 77 75
3 78 77 76
3 78 79 77
3 80 79 78
3 80 81 79
3 82 54 69
3 83 81 80
3 83 84 81
3 85 84 83
3 85 86 84
3 87 86 85
3 87 88 86
3 89 88 87
3 89 90 88
3 91 54 82
3 92 90 89
3 92 93 90
3 94 93 92
3 94 95 93
3 96 95 94
3 96 97 95
3 98 97 96
3 98 99 97
3 100 99 98
3 100 101 99
3 102 101 100
3 102 103 101
3 104 103 102
3 105 103 104
3 106 103 105
3 107 103 106
3 108 103 107
3 109 103 108
3 110 103 109
3 111 103 110
3 112 103 111
3 113 103 112
3 114 103 113
3 115 54 91
3 116 54 115
3 117 54 116
3 118 54 117
3 119 54 118
3 120 54 119
3 121 54 120
3 122 121 123
3 122 54 121
3 122 124 54
3 122 125 124
3 126 125 122
3 126 127 125
3 128 127 126
3 128 129 127
3 130 129 128
3 130 131 129
3 132 131 130
3 132 133 131
3 134 133 132
3 134 135 133
3 136 135 134
3 136 137 135
3 138 137 136
3 138 139 137
3 140 139 138
3 140 141 139
3 142 141 140
3 142 143 141
3 144 143 142
3 144 145 143
3 146 145 144
3 146 147 145
3 148 147 146
3 148 149 147
3 150 149 148
3 150 151 149
3 152 151 150
3 152 153 151
3 154 153 152
3 154 155 153
3 156 155 154
3 156 157 155
3 158 157 156
3 158 159 157
3 160 159 158
3 160 161 159
3 162 161 160
3 162 163 161
3 164 163 162
3 164 165 163
3 166 165 164
3 166 167 165
3 168 167 166
3 168 169 167
3 170 169 168
3 170 171 169
3 172 171 170
3 172 173 171
3 174 173 172
3 174 175 173
3 176 175 174
3 176 177 175
3 178 177 176
3 178 179 177
3 180 179 178
3 180 181 179
3 182 181 180
3 182 183 181
3 184 183 182
3 184 185 183
3 186 185 184
3 186 187 185
3 188 187 186
3 188 189 187
3 190 189 188
3 190 191 189
3 192 191 190
3 192 193 191
3 194 193 192
3 194 195 193
3 196 195 194
3 197 195 196
3 198 195 197
3 199 195 198
3 200 195 199
3 201 195 200
3 202 195 201
3 203 195 202
3 204 195 203
3 205 195 204
3 206 195 205
