ply
format ascii 1.0
comment Created by Blender 2.91.0 - www.blender.org
element vertex 250
property float x
property float y
property float z
element face 246
property list uchar uint vertex_indices
end_header
-0.042157 0.063218 0.000000
-0.041120 0.063272 0.000000
-0.041354 0.063272 0.000000
-0.040476 0.063272 0.000000
-0.039503 0.063272 0.000000
-0.038283 0.063272 0.000000
-0.036898 0.063272 0.000000
-0.035432 0.063272 0.000000
-0.033965 0.063272 0.000000
-0.032581 0.063272 0.000000
-0.031361 0.063272 0.000000
-0.030387 0.063272 0.000000
-0.029743 0.063272 0.000000
-0.029510 0.063272 0.000000
-0.028707 0.063218 0.000000
-0.042927 0.063061 0.000000
-0.027936 0.063061 0.000000
-0.043658 0.062807 0.000000
-0.027206 0.062807 0.000000
-0.044342 0.062464 0.000000
-0.026522 0.062464 0.000000
-0.044972 0.062039 0.000000
-0.025892 0.062039 0.000000
-0.045540 0.061539 0.000000
-0.025323 0.061539 0.000000
-0.046041 0.060970 0.000000
-0.024823 0.060970 0.000000
-0.046467 0.060341 0.000000
-0.024397 0.060341 0.000000
-0.046810 0.059657 0.000000
-0.024054 0.059657 0.000000
-0.047064 0.058926 0.000000
-0.023800 0.058926 0.000000
-0.047221 0.058155 0.000000
-0.023642 0.058155 0.000000
-0.047275 0.057352 0.000000
-0.023588 0.057352 0.000000
-0.047275 0.057158 0.000000
-0.023588 0.055760 0.000000
-0.047275 0.056621 0.000000
-0.047275 0.055810 0.000000
-0.047275 0.054794 0.000000
-0.023588 0.051358 0.000000
-0.047275 0.053640 0.000000
-0.047275 0.052418 0.000000
-0.047275 0.051196 0.000000
-0.023588 0.044709 0.000000
-0.047275 0.050043 0.000000
-0.047275 0.049026 0.000000
-0.047275 0.048215 0.000000
-0.047275 0.047678 0.000000
-0.047275 0.047484 0.000000
-0.057948 0.047430 0.000000
-0.057145 0.047484 0.000000
-0.015693 0.023802 0.000000
-0.014605 0.047484 0.000000
-0.015693 0.047484 0.000000
-0.011599 0.047484 0.000000
-0.007057 0.047484 0.000000
-0.001363 0.047484 0.000000
0.005097 0.047484 0.000000
0.011942 0.047484 0.000000
0.018787 0.047484 0.000000
0.025248 0.047484 0.000000
0.030941 0.047484 0.000000
0.035483 0.047484 0.000000
0.038490 0.047484 0.000000
0.039577 0.047484 0.000000
0.040648 0.047412 0.000000
-0.058719 0.047273 0.000000
0.041676 0.047202 0.000000
-0.059449 0.047019 0.000000
0.042650 0.046864 0.000000
-0.060133 0.046676 0.000000
0.043562 0.046406 0.000000
-0.060763 0.046251 0.000000
0.044402 0.045839 0.000000
-0.061332 0.045751 0.000000
0.045160 0.045172 0.000000
-0.061832 0.045182 0.000000
-0.062258 0.044553 0.000000
0.045827 0.044414 0.000000
-0.023588 0.036374 0.000000
-0.062601 0.043869 0.000000
0.046395 0.043574 0.000000
-0.062855 0.043138 0.000000
0.046852 0.042663 0.000000
-0.063013 0.042367 0.000000
0.047191 0.041689 0.000000
-0.063067 0.041564 0.000000
0.047401 0.040661 0.000000
-0.063067 0.041331 0.000000
-0.063067 0.040687 0.000000
-0.063067 0.039714 0.000000
0.047473 0.039590 0.000000
-0.063067 0.038494 0.000000
0.023786 0.023802 0.000000
0.047473 -0.023562 0.000000
-0.063067 0.037110 0.000000
-0.063067 0.035643 0.000000
-0.023588 0.026916 0.000000
-0.063067 0.034177 0.000000
-0.063067 0.032793 0.000000
-0.063067 0.031573 0.000000
-0.063067 0.030600 0.000000
-0.063067 0.029956 0.000000
-0.063067 0.029723 0.000000
-0.063013 0.028920 0.000000
-0.062855 0.028149 0.000000
-0.062601 0.027419 0.000000
-0.062258 0.026735 0.000000
-0.047275 0.023802 0.000000
-0.023588 0.016895 0.000000
-0.061832 0.026105 0.000000
-0.061332 0.025537 0.000000
-0.060763 0.025036 0.000000
-0.060133 0.024611 0.000000
-0.059449 0.024268 0.000000
-0.058719 0.024014 0.000000
-0.057948 0.023856 0.000000
-0.057145 0.023802 0.000000
-0.056951 0.023802 0.000000
-0.056414 0.023802 0.000000
-0.055603 0.023802 0.000000
-0.054586 0.023802 0.000000
-0.053432 0.023802 0.000000
-0.052210 0.023802 0.000000
-0.050988 0.023802 0.000000
-0.049834 0.023802 0.000000
-0.048817 0.023802 0.000000
-0.048006 0.023802 0.000000
-0.047469 0.023802 0.000000
-0.047275 -0.039350 0.000000
0.023786 -0.057111 0.000000
-0.023588 0.006875 0.000000
-0.023588 -0.002584 0.000000
-0.023588 -0.010919 0.000000
-0.023588 -0.017568 0.000000
-0.023588 -0.021970 0.000000
-0.023588 -0.023562 0.000000
0.015890 -0.023562 0.000000
0.015890 -0.047244 0.000000
0.057342 -0.023562 0.000000
0.058146 -0.023616 0.000000
0.058916 -0.023773 0.000000
0.059647 -0.024027 0.000000
0.060331 -0.024370 0.000000
0.060960 -0.024795 0.000000
0.061529 -0.025295 0.000000
0.062030 -0.025864 0.000000
0.062455 -0.026493 0.000000
0.062798 -0.027177 0.000000
0.063052 -0.027908 0.000000
0.063210 -0.028679 0.000000
0.063264 -0.029482 0.000000
0.063264 -0.029715 0.000000
0.063264 -0.030359 0.000000
0.063264 -0.031332 0.000000
0.063264 -0.032552 0.000000
0.063264 -0.033936 0.000000
0.063264 -0.035403 0.000000
0.063264 -0.036869 0.000000
0.063264 -0.038253 0.000000
0.063264 -0.039473 0.000000
-0.047203 -0.040421 0.000000
0.063264 -0.040446 0.000000
-0.046993 -0.041448 0.000000
0.047473 -0.047244 0.000000
0.063264 -0.041090 0.000000
0.063264 -0.041323 0.000000
0.063210 -0.042126 0.000000
-0.046655 -0.042422 0.000000
0.063052 -0.042897 0.000000
-0.046197 -0.043334 0.000000
0.062798 -0.043627 0.000000
-0.045630 -0.044173 0.000000
0.062455 -0.044311 0.000000
-0.044962 -0.044931 0.000000
0.062030 -0.044940 0.000000
-0.044204 -0.045599 0.000000
0.061529 -0.045509 0.000000
0.060960 -0.046010 0.000000
-0.043364 -0.046166 0.000000
0.060331 -0.046435 0.000000
-0.042453 -0.046623 0.000000
0.059647 -0.046778 0.000000
-0.041478 -0.046962 0.000000
0.058916 -0.047032 0.000000
-0.040451 -0.047172 0.000000
0.058146 -0.047190 0.000000
-0.039380 -0.047244 0.000000
0.057342 -0.047244 0.000000
-0.038292 -0.047244 0.000000
-0.035286 -0.047244 0.000000
-0.030744 -0.047244 0.000000
-0.025050 -0.047244 0.000000
-0.018590 -0.047244 0.000000
-0.011745 -0.047244 0.000000
-0.004900 -0.047244 0.000000
0.001561 -0.047244 0.000000
0.007254 -0.047244 0.000000
0.011796 -0.047244 0.000000
0.014803 -0.047244 0.000000
0.047473 -0.047438 0.000000
0.047473 -0.047975 0.000000
0.047473 -0.048785 0.000000
0.047473 -0.049802 0.000000
0.047473 -0.050955 0.000000
0.047473 -0.052177 0.000000
0.047473 -0.053399 0.000000
0.047473 -0.054553 0.000000
0.047473 -0.055569 0.000000
0.047473 -0.056380 0.000000
0.047473 -0.056917 0.000000
0.047473 -0.057111 0.000000
0.023840 -0.057914 0.000000
0.047419 -0.057914 0.000000
0.023997 -0.058685 0.000000
0.047261 -0.058685 0.000000
0.024251 -0.059415 0.000000
0.047007 -0.059415 0.000000
0.024594 -0.060099 0.000000
0.046664 -0.060099 0.000000
0.025020 -0.060728 0.000000
0.046238 -0.060728 0.000000
0.025521 -0.061297 0.000000
0.045738 -0.061297 0.000000
0.026089 -0.061798 0.000000
0.045169 -0.061798 0.000000
0.026719 -0.062223 0.000000
0.044539 -0.062223 0.000000
0.027403 -0.062566 0.000000
0.043855 -0.062566 0.000000
0.028134 -0.062820 0.000000
0.043125 -0.062820 0.000000
0.028904 -0.062978 0.000000
0.042354 -0.062978 0.000000
0.029707 -0.063032 0.000000
0.041551 -0.063032 0.000000
0.029940 -0.063032 0.000000
0.030585 -0.063032 0.000000
0.031558 -0.063032 0.000000
0.032778 -0.063032 0.000000
0.034162 -0.063032 0.000000
0.035629 -0.063032 0.000000
0.037096 -0.063032 0.000000
0.038480 -0.063032 0.000000
0.039700 -0.063032 0.000000
0.040674 -0.063032 0.000000
0.041318 -0.063032 0.000000
3 0 1 2
3 0 3 1
3 0 4 3
3 0 5 4
3 0 6 5
3 0 7 6
3 0 8 7
3 0 9 8
3 0 10 9
3 0 11 10
3 0 12 11
3 0 13 12
3 0 14 13
3 15 14 0
3 15 16 14
3 17 16 15
3 17 18 16
3 19 18 17
3 19 20 18
3 21 20 19
3 21 22 20
3 23 22 21
3 23 24 22
3 25 24 23
3 25 26 24
3 27 26 25
3 27 28 26
3 29 28 27
3 29 30 28
3 31 30 29
3 31 32 30
3 33 32 31
3 33 34 32
3 35 34 33
3 35 36 34
3 37 36 35
3 37 38 36
3 39 38 37
3 40 38 39
3 41 38 40
3 41 42 38
3 43 42 41
3 44 42 43
3 45 42 44
3 45 46 42
3 47 46 45
3 48 46 47
3 49 46 48
3 50 46 49
3 51 46 50
3 52 51 53
3 52 46 51
3 54 55 56
3 54 57 55
3 54 58 57
3 54 59 58
3 54 60 59
3 54 61 60
3 54 62 61
3 54 63 62
3 54 64 63
3 54 65 64
3 54 66 65
3 54 67 66
3 54 68 67
3 69 46 52
3 54 70 68
3 71 46 69
3 54 72 70
3 73 46 71
3 54 74 72
3 75 46 73
3 54 76 74
3 77 46 75
3 54 78 76
3 79 46 77
3 80 46 79
3 54 81 78
3 80 82 46
3 83 82 80
3 54 84 81
3 85 82 83
3 54 86 84
3 87 82 85
3 54 88 86
3 89 82 87
3 54 90 88
3 91 82 89
3 92 82 91
3 93 82 92
3 54 94 90
3 95 82 93
3 54 96 94
3 96 97 94
3 98 82 95
3 99 82 98
3 99 100 82
3 101 100 99
3 102 100 101
3 103 100 102
3 104 100 103
3 105 100 104
3 106 100 105
3 107 100 106
3 108 100 107
3 109 100 108
3 110 100 109
3 110 111 100
3 111 112 100
3 113 111 110
3 114 111 113
3 115 111 114
3 116 111 115
3 117 111 116
3 118 111 117
3 119 111 118
3 120 111 119
3 121 111 120
3 122 111 121
3 123 111 122
3 124 111 123
3 125 111 124
3 126 111 125
3 127 111 126
3 128 111 127
3 129 111 128
3 130 111 129
3 131 111 130
3 132 112 111
3 133 97 96
3 132 134 112
3 132 135 134
3 132 136 135
3 132 137 136
3 132 138 137
3 132 139 138
3 132 140 139
3 132 141 140
3 133 142 97
3 133 143 142
3 133 144 143
3 133 145 144
3 133 146 145
3 133 147 146
3 133 148 147
3 133 149 148
3 133 150 149
3 133 151 150
3 133 152 151
3 133 153 152
3 133 154 153
3 133 155 154
3 133 156 155
3 133 157 156
3 133 158 157
3 133 159 158
3 133 160 159
3 133 161 160
3 133 162 161
3 133 163 162
3 164 141 132
3 133 165 163
3 166 141 164
3 133 167 165
3 167 168 165
3 167 169 168
3 167 170 169
3 171 141 166
3 167 172 170
3 173 141 171
3 167 174 172
3 175 141 173
3 167 176 174
3 177 141 175
3 167 178 176
3 179 141 177
3 167 180 178
3 167 181 180
3 182 141 179
3 167 183 181
3 184 141 182
3 167 185 183
3 186 141 184
3 167 187 185
3 188 141 186
3 167 189 187
3 190 141 188
3 167 191 189
3 192 141 190
3 193 141 192
3 194 141 193
3 195 141 194
3 196 141 195
3 197 141 196
3 198 141 197
3 199 141 198
3 200 141 199
3 201 141 200
3 202 141 201
3 133 203 167
3 133 204 203
3 133 205 204
3 133 206 205
3 133 207 206
3 133 208 207
3 133 209 208
3 133 210 209
3 133 211 210
3 133 212 211
3 133 213 212
3 133 214 213
3 215 214 133
3 215 216 214
3 217 216 215
3 217 218 216
3 219 218 217
3 219 220 218
3 221 220 219
3 221 222 220
3 223 222 221
3 223 224 222
3 225 224 223
3 225 226 224
3 227 226 225
3 227 228 226
3 229 228 227
3 229 230 228
3 231 230 229
3 231 232 230
3 233 232 231
3 233 234 232
3 235 234 233
3 235 236 234
3 237 236 235
3 237 238 236
3 239 238 237
3 240 238 239
3 241 238 240
3 242 238 241
3 243 238 242
3 244 238 243
3 245 238 244
3 246 238 245
3 247 238 246
3 248 238 247
3 249 238 248
