ply
format ascii 1.0
comment Created by Blender 2.82 (sub 7) - www.blender.org, source file: 'icons.blend'
element vertex 8
property float x
property float y
property float z
property uchar red
property uchar green
property uchar blue
property uchar alpha
element face 8
property list uchar uint vertex_indices
end_header
-0.122248 -0.092391 0.000000 255 255 255 255
-0.101952 0.069939 0.000000 255 255 255 255
-0.122248 0.090230 0.000000 255 255 255 255
0.121299 0.090230 0.000000 255 255 255 255
0.101003 0.069939 0.000000 255 255 255 255
0.121299 -0.092391 0.000000 255 255 255 255
-0.101952 -0.072100 0.000000 255 255 255 255
0.101003 -0.072100 0.000000 255 255 255 255
3 0 1 2
3 1 3 2
3 1 4 3
3 4 5 3
3 0 6 1
3 7 5 4
3 0 7 6
3 0 5 7
