ply
format ascii 1.0
comment Created in Blender version 4.2.2 LTS
element vertex 18
property float x
property float y
property float z
property float s
property float t
element face 14
property list uchar uint vertex_indices
end_header
-0.073069215 0.09155264 0 0.7058824 0
0.10989119 0.10984481 0 0.47058824 0
-0.073069215 0.10984481 0 0.7647059 0
0.09159514 0.09155264 0 0.64705884 0
0.10989119 -0.07307695 0 0.5294118 0
0.09159514 -0.07307695 0 0.5882353 0
-0.109661296 -0.1096613 0 0.4117647 0
-0.091365255 0.05496829 0 0 0
-0.109661296 0.073260464 0 0.23529412 0
0.07329911 0.073260464 0 0.29411766 0
0.055003062 0.05496829 0 0.1764706 0
0.07329911 -0.1096613 0 0.3529412 0
-0.091365255 -0.09136913 0 0.05882353 0
0.055003062 -0.09136913 0 0.11764706 0
-0.054773174 -0.027346507 0 1 0
0.01841098 -0.009054333 0 0.88235295 0
-0.054773174 -0.009054333 0 0.8235294 0
0.01841098 -0.027346507 0 0.9411765 0
3 0 1 2
3 0 3 1
3 3 4 1
3 5 4 3
3 6 7 8
3 7 9 8
3 7 10 9
3 10 11 9
3 6 12 7
3 13 11 10
3 14 15 16
3 14 17 15
3 6 13 12
3 6 11 13
