ply
format ascii 1.0
comment Created in Blender version 5.2.2 LTS
element vertex 120
property float x
property float y
property float z
element face 76
property list uchar uint vertex_indices
end_header
0.0003796252 0.09887897 0
0.09234756 0.048171993 0
0.09234756 -0.05071988 0
0.0004306918 -0.09975227 0
-0.09148618 -0.05071988 0
-0.09148618 0.04877443 0
0.0004306918 0.12216987 0
-0.111912146 0.060904894 0
-0.111912146 -0.06296267 0
0.0004306918 -0.122890025 0
0.11277353 -0.06296267 0
0.11277353 0.06024119 0
-0.050316494 -0.04667255 0
-0.05029811 -0.055540986 0
-0.02460628 -0.06966518 0
-0.024625078 -0.06079678 0
-0.07615463 0.038398713 0
-0.07611807 0.020661876 0
-0.06755414 0.015953897 0
-0.06757246 0.024822325 0
-0.05900852 0.020114357 0
-0.059026845 0.028982775 0
-0.050462805 0.024274806 0
-0.05044452 0.015406379 0
-0.024752697 0.0012824537 0
-0.024771485 0.010150848 0
-0.016207049 0.0054429206 0
-0.016187644 -0.0034254652 0
-0.0076236953 -0.008133426 0
-0.007604291 -0.017001811 0
0.000959658 -0.021709781 0
0.00092390884 -0.0039730263 0
-0.07609977 0.011793523 0
-0.07604492 -0.014811769 0
-0.067480974 -0.01951984 0
-0.06753582 0.0070854696 0
-0.0075882324 -0.025870332 0
-0.007534107 -0.05247549 0
0.001029842 -0.057183545 0
0.0009757085 -0.030578386 0
-0.0760266 -0.02368019 0
-0.07599004 -0.041417044 0
-0.05886216 -0.05083315 0
-0.05888054 -0.041964732 0
-0.06744448 -0.03725666 0
-0.06746287 -0.028388243 0
-0.007515074 -0.06134406 0
-0.007495679 -0.07021243 0
-0.016059628 -0.06550438 0
-0.016040225 -0.074372746 0
0.0010876573 -0.08378885 0
0.0010519082 -0.0660521 0
-0.0071701705 -0.029428449 0
-0.0071507664 -0.038297273 0
0.013024884 -0.049932726 0
0.013005481 -0.041063953 0
-0.040408462 0.059208024 0
-0.040370673 0.041470394 0
-0.03149358 0.036583535 0
-0.031512994 0.045452345 0
-0.022635914 0.04056547 0
-0.02265531 0.049434293 0
-0.013777193 0.0445474 0
-0.013757797 0.035678577 0
0.012873496 0.021017969 0
0.012854084 0.029886741 0
0.021731157 0.0249999 0
0.02175057 0.016131135 0
0.030627666 0.011244268 0
0.030647062 0.0023754947 0
0.03952414 -0.0025113719 0
0.039486345 0.015226142 0
-0.04035159 0.032601673 0
-0.04009266 0.010230848 0
-0.031215569 0.0053438796 0
-0.03147451 0.027714713 0
0.030665109 -0.00649338 0
0.03072129 -0.033099666 0
0.03959837 -0.037986644 0
0.039542206 -0.011380339 0
0.030740686 -0.041968625 0
0.030760098 -0.050837398 0
0.021883016 -0.04595044 0
0.021902412 -0.054819196 0
0.03965659 -0.06459313 0
0.039618794 -0.046855602 0
0.030928236 -0.0068120384 0
0.030947648 -0.015680956 0
0.052065752 -0.02765228 0
0.05204636 -0.018783405 0
-0.00042580508 0.081757665 0
-0.0003880085 0.064019844 0
0.008332485 0.059088234 0
0.008313082 0.067957155 0
0.017033584 0.063025564 0
0.017014181 0.07189447 0
0.025735736 0.06696289 0
0.025755148 0.058093965 0
0.051916707 0.043299153 0
0.05189731 0.052168045 0
0.060617812 0.0472365 0
0.060637224 0.038367607 0
0.069357745 0.033436026 0
0.069377154 0.024567151 0
0.07809768 0.019635554 0
0.078060925 0.03737327 0
-0.00036993594 0.05515104 0
-0.00031479142 0.02854435 0
0.008405737 0.023612633 0
0.008350584 0.050219342 0
0.06939419 0.015698176 0
0.069449365 -0.010908396 0
0.07816987 -0.01584007 0
0.07811471 0.010766495 0
0.06946876 -0.01977744 0
0.06948817 -0.028646315 0
0.060767636 -0.023714632 0
0.06078705 -0.03258351 0
0.07822807 -0.04244687 0
0.0781913 -0.024709137 0
3 7 0 6
3 0 11 6
3 7 5 0
3 1 11 0
3 8 5 7
3 1 10 11
3 8 4 5
3 2 10 1
3 8 3 4
3 3 10 2
3 9 3 8
3 3 9 10
3 17 19 16
3 19 21 16
3 19 20 21
3 17 18 19
3 23 25 22
3 24 25 23
3 27 31 26
3 28 31 27
3 28 30 31
3 29 30 28
3 33 35 32
3 33 34 35
3 37 39 36
3 37 38 39
3 41 45 40
3 41 44 45
3 41 43 44
3 42 43 41
3 47 51 46
3 49 47 48
3 47 50 51
3 49 50 47
3 13 15 12
3 14 15 13
3 57 59 56
3 59 61 56
3 59 60 61
3 57 58 59
3 63 65 62
3 64 65 63
3 67 71 66
3 68 71 67
3 68 70 71
3 69 70 68
3 73 75 72
3 73 74 75
3 77 79 76
3 77 78 79
3 81 85 80
3 83 81 82
3 81 84 85
3 83 84 81
3 53 55 52
3 54 55 53
3 91 93 90
3 93 95 90
3 93 94 95
3 91 92 93
3 97 99 96
3 98 99 97
3 101 105 100
3 102 105 101
3 102 104 105
3 103 104 102
3 107 109 106
3 107 108 109
3 111 113 110
3 111 112 113
3 115 119 114
3 117 115 116
3 115 118 119
3 117 118 115
3 87 89 86
3 88 89 87
