ply
format ascii 1.0
comment Created in Blender version 5.2.2 LTS
element vertex 201
property float x
property float y
property float z
property float s
property float t
element face 203
property list uchar uint vertex_indices
end_header
-0.08784495 0.041726727 0 0.95731705 0
0.09104638 0.058951512 0 0.9695122 0
-0.09205731 0.058951512 0 0.9634146 0
0.086816795 0.041726727 0 0.9756098 0
-0.07422589 0.0761763 0 0.98170733 0
0.076996595 0.0934011 0 0.99390244 0
-0.07800753 0.0934011 0 0.9878049 0
0.07321496 0.0761763 0 1 0
-0.0972232 -0.06162892 0 0.0121951215 0
0.09536891 -0.06162197 0 0 0
-0.09696028 -0.06162197 0 0.0060975607 0
0.095655255 -0.061629552 0 0.9512195 0
-0.09748446 -0.06164967 0 0.018292682 0
0.09593982 -0.061652146 0 0.94512194 0
-0.09774357 -0.06168404 0 0.024390243 0
0.09622202 -0.06168958 0 0.9390244 0
-0.09799999 -0.061731864 0 0.030487806 0
0.0965013 -0.061741676 0 0.93292683 0
-0.09825322 -0.06179298 0 0.036585364 0
0.0967771 -0.06180824 0 0.9268293 0
-0.09850274 -0.06186722 0 0.042682927 0
0.09704885 -0.061889093 0 0.9207317 0
-0.09874803 -0.06195441 0 0.048780486 0
0.097316004 -0.061984055 0 0.91463417 0
-0.09898857 -0.062054384 0 0.05487805 0
0.09757799 -0.06209294 0 0.9085366 0
-0.09922385 -0.062166978 0 0.06097561 0
0.097834244 -0.06221557 0 0.902439 0
-0.09945337 -0.06229202 0 0.067073174 0
0.09808421 -0.062351756 0 0.89634144 0
-0.09967659 -0.062429346 0 0.07317073 0
0.09832733 -0.06250131 0 0.8902439 0
-0.09989301 -0.06257878 0 0.07926829 0
0.09856304 -0.06266406 0 0.88414633 0
-0.100101225 -0.06273944 0 0.085365854 0
0.098789826 -0.062839046 0 0.8780488 0
-0.10029998 -0.062910266 0 0.09146342 0
0.09900628 -0.0630251 0 0.8719512 0
-0.10048894 -0.063090816 0 0.09756097 0
0.09921209 -0.063221745 0 0.86585367 0
-0.10066779 -0.06328065 0 0.103658535 0
0.09940688 -0.0634285 0 0.8597561 0
-0.10083622 -0.063479334 0 0.1097561 0
0.099590324 -0.06364489 0 0.85365856 0
-0.10099391 -0.06368642 0 0.11585366 0
0.09976207 -0.06387044 0 0.847561 0
-0.101140544 -0.06390148 0 0.12195122 0
0.09992178 -0.06410466 0 0.8414634 0
-0.10127581 -0.06412406 0 0.12804878 0
0.10006909 -0.06434709 0 0.83536583 0
-0.101399384 -0.06435373 0 0.13414635 0
0.100203685 -0.06459723 0 0.8292683 0
-0.10151095 -0.06459005 0 0.1402439 0
-0.1016102 -0.064832576 0 0.14634146 0
0.10032519 -0.06485461 0 0.8231707 0
-0.1016968 -0.065080866 0 0.15243903 0
0.10043328 -0.06511875 0 0.81707317 0
-0.101770155 -0.06533339 0 0.15853658 0
0.100527614 -0.06538918 0 0.8109756 0
-0.101829864 -0.06558854 0 0.16463415 0
0.1006075 -0.06566421 0 0.80487806 0
-0.10187594 -0.06584577 0 0.17073171 0
0.10067253 -0.0659421 0 0.7987805 0
-0.10190838 -0.066104546 0 0.17682926 0
0.10072271 -0.066222265 0 0.79268295 0
-0.101927176 -0.0663643 0 0.18292683 0
0.10075804 -0.066504106 0 0.7865854 0
-0.10193235 -0.06662453 0 0.18902439 0
0.10077851 -0.06678703 0 0.7804878 0
-0.10192388 -0.06688466 0 0.19512194 0
0.10078414 -0.06707044 0 0.7743902 0
-0.1019018 -0.06714417 0 0.20121951 0
0.10077492 -0.06735376 0 0.76829267 0
-0.101866096 -0.067402504 0 0.20731707 0
0.10075087 -0.0676364 0 0.7621951 0
-0.10181677 -0.06765913 0 0.21341464 0
0.10071199 -0.067917764 0 0.75609756 0
-0.10175383 -0.0679135 0 0.2195122 0
-0.101677276 -0.068165086 0 0.22560975 0
0.10065827 -0.068197265 0 0.75 0
-0.10143186 -0.06890117 0 0.23170732 0
0.10058972 -0.06847431 0 0.74390244 0
0.10050635 -0.06874832 0 0.7378049 0
0.1002618 -0.06948186 0 0.73170733 0
-0.100753374 -0.0709362 0 0.23780487 0
0.09958565 -0.07150987 0 0.7256098 0
-0.09972843 -0.0740104 0 0.24390244 0
0.09856424 -0.07457346 0 0.7195122 0
-0.098443635 -0.07786398 0 0.25 0
0.09728387 -0.07841374 0 0.7134146 0
-0.09698561 -0.08223713 0 0.25609756 0
0.09583087 -0.0827718 0 0.70731705 0
-0.09544096 -0.08687008 0 0.2621951 0
0.09429156 -0.08738876 0 0.7012195 0
-0.09389632 -0.09150303 0 0.2682927 0
0.09275225 -0.09200572 0 0.69512194 0
-0.092438295 -0.09587619 0 0.27439025 0
0.09129926 -0.09636379 0 0.6890244 0
-0.091153495 -0.09972976 0 0.2804878 0
0.09001889 -0.10020407 0 0.68292683 0
-0.09012855 -0.10280397 0 0.28658536 0
0.088997476 -0.10326766 0 0.6768293 0
-0.08945006 -0.104839 0 0.29268292 0
0.08832132 -0.10529567 0 0.6707317 0
-0.089204654 -0.105575085 0 0.2987805 0
0.088076755 -0.106029205 0 0.66463417 0
-0.08900302 -0.10613092 0 0.30487806 0
0.08788698 -0.106552355 0 0.6585366 0
-0.0887734 -0.10667359 0 0.3109756 0
0.08767087 -0.10706311 0 0.652439 0
-0.08851651 -0.10720214 0 0.31707317 0
0.087429084 -0.107560575 0 0.64634144 0
-0.08823304 -0.10771561 0 0.32317072 0
0.0871623 -0.10804385 0 0.6402439 0
-0.08792372 -0.10821303 0 0.3292683 0
0.08687117 -0.108512014 0 0.63414633 0
-0.08758924 -0.10869344 0 0.33536586 0
0.08655636 -0.10896417 0 0.6280488 0
-0.08723032 -0.109155886 0 0.34146342 0
0.08621854 -0.10939941 0 0.6219512 0
-0.086847655 -0.10959939 0 0.34756097 0
0.08585838 -0.109816834 0 0.61585367 0
-0.08644195 -0.110023 0 0.35365853 0
0.085476555 -0.11021554 0 0.6097561 0
-0.08601393 -0.11042576 0 0.3597561 0
0.0850737 -0.1105946 0 0.60365856 0
-0.08556429 -0.1108067 0 0.36585367 0
0.08465051 -0.11095314 0 0.597561 0
-0.085093744 -0.11116486 0 0.37195122 0
0.08420764 -0.111290224 0 0.5914634 0
-0.08460509 -0.1114979 0 0.37804878 0
0.08374775 -0.1116037 0 0.58536583 0
-0.08410144 -0.11180391 0 0.38414633 0
0.08327372 -0.11189171 0 0.5792683 0
-0.08358392 -0.11208252 0 0.3902439 0
0.08278664 -0.112153925 0 0.5731707 0
-0.08305367 -0.11233336 0 0.39634147 0
0.08228758 -0.112390004 0 0.56707317 0
-0.08251182 -0.112556055 0 0.40243903 0
0.0817776 -0.112599604 0 0.5609756 0
-0.081959516 -0.112750255 0 0.40853658 0
0.081257775 -0.11278238 0 0.55487806 0
-0.08139789 -0.112915576 0 0.41463414 0
0.08072919 -0.11293798 0 0.5487805 0
-0.08082808 -0.11305167 0 0.4207317 0
0.08019289 -0.11306606 0 0.54268295 0
-0.08025122 -0.11315815 0 0.42682928 0
0.079649955 -0.11316629 0 0.5365854 0
-0.07966844 -0.11323467 0 0.43292683 0
0.07910145 -0.1132383 0 0.5304878 0
-0.079080895 -0.11328084 0 0.4390244 0
0.078548454 -0.113281764 0 0.5243902 0
-0.07848971 -0.11329632 0 0.44512194 0
0.07799204 -0.11329632 0 0.51829267 0
-0.0754108 -0.11329632 0 0.4512195 0
-0.06689848 -0.11329632 0 0.45731708 0
-0.054039445 -0.11329632 0 0.46341464 0
-0.037920374 -0.11329632 0 0.4695122 0
-0.019627947 -0.11329632 0 0.47560975 0
-0.00024884017 -0.11329632 0 0.4817073 0
0.019130267 -0.11329632 0 0.4878049 0
0.037422694 -0.11329632 0 0.49390244 0
0.053541765 -0.11329632 0 0.5 0
0.0664008 -0.11329632 0 0.50609756 0
0.07491312 -0.11329632 0 0.5121951 0
-0.08744588 -0.05123539 0 0.028571429 0
-0.07908303 0.011939059 0 0.45714286 0
-0.09700816 0.028511314 0 0 0
0.09637018 0.028045753 0 0.42857143 0
-0.06319029 0.011922022 0 0.4857143 0
0.047342494 0.011755454 0 0.6 0
0.07866151 0.011705164 0 0.71428573 0
0.086308114 -0.05123458 0 0.4 0
-0.077517085 -0.0039174035 0 0.54285717 0
-0.061940867 -0.0039174035 0 0.51428574 0
-0.047314215 0.011888754 0 0.5714286 0
-0.04509856 -0.026552169 0 0.6571429 0
0.044826977 -0.026502319 0 0.62857145 0
0.06301869 0.0117222015 0 0.6857143 0
0.0616693 -0.004001008 0 0.7714286 0
0.076995626 -0.004001008 0 0.74285716 0
-0.07601777 -0.019124653 0 1 0
-0.060758073 -0.019107427 0 0.9142857 0
0.060353223 -0.019091092 0 0.8857143 0
0.07537969 -0.019073883 0 0.8 0
0.07384706 -0.033564202 0 0.82857144 0
0.059103806 -0.033581417 0 0.85714287 0
-0.059608597 -0.033714328 0 0.94285715 0
-0.07456843 -0.033731546 0 0.9714286 0
0.04389407 -0.040708523 0 0.22857143 0
0.07234774 -0.04748709 0 0.34285715 0
-0.07316907 -0.047754373 0 0.08571429 0
-0.043782502 -0.040841762 0 0.2 0
0.043194436 -0.051234823 0 0.25714287 0
0.057904348 -0.047520623 0 0.31428573 0
-0.058509104 -0.047737155 0 0.114285715 0
-0.0432494 -0.051234823 0 0.17142858 0
0.071948014 -0.05123458 0 0.37142858 0
0.05758785 -0.051234823 0 0.2857143 0
-0.058242552 -0.051234823 0 0.14285715 0
-0.072819225 -0.05123539 0 0.057142857 0
3 0 1 2
3 0 3 1
3 4 5 6
3 4 7 5
3 8 9 10
3 8 11 9
3 12 11 8
3 12 13 11
3 14 13 12
3 14 15 13
3 16 15 14
3 16 17 15
3 18 17 16
3 18 19 17
3 20 19 18
3 20 21 19
3 22 21 20
3 22 23 21
3 24 23 22
3 24 25 23
3 26 25 24
3 26 27 25
3 28 27 26
3 28 29 27
3 30 29 28
3 30 31 29
3 32 31 30
3 32 33 31
3 34 33 32
3 34 35 33
3 36 35 34
3 36 37 35
3 38 37 36
3 38 39 37
3 40 39 38
3 40 41 39
3 42 41 40
3 42 43 41
3 44 43 42
3 44 45 43
3 46 45 44
3 46 47 45
3 48 47 46
3 48 49 47
3 50 49 48
3 50 51 49
3 52 51 50
3 53 51 52
3 53 54 51
3 55 54 53
3 55 56 54
3 57 56 55
3 57 58 56
3 59 58 57
3 59 60 58
3 61 60 59
3 61 62 60
3 63 62 61
3 63 64 62
3 65 64 63
3 65 66 64
3 67 66 65
3 67 68 66
3 69 68 67
3 69 70 68
3 71 70 69
3 71 72 70
3 73 72 71
3 73 74 72
3 75 74 73
3 75 76 74
3 77 76 75
3 78 76 77
3 78 79 76
3 80 79 78
3 80 81 79
3 80 82 81
3 80 83 82
3 84 83 80
3 84 85 83
3 86 85 84
3 86 87 85
3 88 87 86
3 88 89 87
3 90 89 88
3 90 91 89
3 92 91 90
3 92 93 91
3 94 93 92
3 94 95 93
3 96 95 94
3 96 97 95
3 98 97 96
3 98 99 97
3 100 99 98
3 100 101 99
3 102 101 100
3 102 103 101
3 104 103 102
3 104 105 103
3 106 105 104
3 106 107 105
3 108 107 106
3 108 109 107
3 110 109 108
3 110 111 109
3 112 111 110
3 112 113 111
3 114 113 112
3 114 115 113
3 116 115 114
3 116 117 115
3 118 117 116
3 118 119 117
3 120 119 118
3 120 121 119
3 122 121 120
3 122 123 121
3 124 123 122
3 124 125 123
3 126 125 124
3 126 127 125
3 128 127 126
3 128 129 127
3 130 129 128
3 130 131 129
3 132 131 130
3 132 133 131
3 134 133 132
3 134 135 133
3 136 135 134
3 136 137 135
3 138 137 136
3 138 139 137
3 140 139 138
3 140 141 139
3 142 141 140
3 142 143 141
3 144 143 142
3 144 145 143
3 146 145 144
3 146 147 145
3 148 147 146
3 148 149 147
3 150 149 148
3 150 151 149
3 152 151 150
3 152 153 151
3 154 153 152
3 155 153 154
3 156 153 155
3 157 153 156
3 158 153 157
3 159 153 158
3 160 153 159
3 161 153 160
3 162 153 161
3 163 153 162
3 164 153 163
3 165 166 167
3 166 168 167
3 166 169 168
3 169 170 168
3 170 171 168
3 171 172 168
3 165 173 166
3 174 175 169
3 175 170 169
3 174 176 175
3 177 178 170
3 178 171 170
3 177 179 178
3 180 172 171
3 165 181 173
3 181 174 173
3 181 182 174
3 182 176 174
3 177 180 179
3 177 183 180
3 183 184 180
3 184 172 180
3 185 172 184
3 177 186 183
3 187 176 182
3 165 188 181
3 176 186 177
3 187 186 176
3 186 172 185
3 187 189 186
3 189 190 186
3 190 172 186
3 188 189 187
3 165 191 188
3 191 192 188
3 192 189 188
3 193 194 189
3 194 190 189
3 191 195 192
3 195 196 192
3 197 172 190
3 193 198 194
3 199 196 195
3 165 200 191
