ply
format ascii 1.0
comment Created by Blender 3.6.2 - www.blender.org
element vertex 61
property float x
property float y
property float z
property float nx
property float ny
property float nz
property float s
property float t
element face 59
property list uchar uint vertex_indices
end_header
-0.158401 0.243060 0.000000 0.000000 0.000000 1.000000 0.083333 0.000000
-0.143008 0.242698 0.000000 0.000000 0.000000 1.000000 0.050000 0.000000
-0.150696 0.243499 0.000000 0.000000 0.000000 1.000000 0.066667 0.000000
-0.165930 0.241406 0.000000 0.000000 0.000000 1.000000 0.100000 0.000000
-0.135532 0.240629 0.000000 0.000000 0.000000 1.000000 0.033333 0.000000
-0.173087 0.238563 0.000000 0.000000 0.000000 1.000000 0.116667 0.000000
-0.128464 0.237268 0.000000 0.000000 0.000000 1.000000 0.016667 0.000000
-0.179678 0.234558 0.000000 0.000000 0.000000 1.000000 0.133333 0.000000
0.206265 0.039420 0.000000 0.000000 0.000000 1.000000 0.000000 0.000000
-0.185507 0.229415 0.000000 0.000000 0.000000 1.000000 0.150000 0.000000
-0.190379 0.223163 0.000000 0.000000 0.000000 1.000000 0.166667 0.000000
-0.194101 0.215826 0.000000 0.000000 0.000000 1.000000 0.183333 0.000000
-0.196477 0.207430 0.000000 0.000000 0.000000 1.000000 0.200000 0.000000
-0.197312 0.198002 0.000000 0.000000 0.000000 1.000000 0.216667 0.000000
-0.197312 0.190219 0.000000 0.000000 0.000000 1.000000 0.233333 0.000000
-0.197312 0.168699 0.000000 0.000000 0.000000 1.000000 0.250000 0.000000
-0.197312 0.136190 0.000000 0.000000 0.000000 1.000000 0.266667 0.000000
-0.197312 0.095439 0.000000 0.000000 0.000000 1.000000 0.283333 0.000000
-0.197312 0.049194 0.000000 0.000000 0.000000 1.000000 0.300000 0.000000
-0.197312 0.000202 0.000000 0.000000 0.000000 1.000000 0.316667 0.000000
0.213128 0.034516 0.000000 0.000000 0.000000 1.000000 1.000000 0.000000
0.218740 0.028717 0.000000 0.000000 0.000000 1.000000 0.983333 0.000000
0.223101 0.022202 0.000000 0.000000 0.000000 1.000000 0.966667 0.000000
0.226214 0.015151 0.000000 0.000000 0.000000 1.000000 0.950000 0.000000
0.228078 0.007742 0.000000 0.000000 0.000000 1.000000 0.933333 0.000000
0.228696 0.000154 0.000000 0.000000 0.000000 1.000000 0.916667 0.000000
-0.197312 -0.048790 0.000000 0.000000 0.000000 1.000000 0.333333 0.000000
0.228067 -0.007434 0.000000 0.000000 0.000000 1.000000 0.900000 0.000000
0.226193 -0.014843 0.000000 0.000000 0.000000 1.000000 0.883333 0.000000
0.223075 -0.021894 0.000000 0.000000 0.000000 1.000000 0.866667 0.000000
0.218713 -0.028408 0.000000 0.000000 0.000000 1.000000 0.850000 0.000000
0.213110 -0.034207 0.000000 0.000000 0.000000 1.000000 0.833333 0.000000
0.206265 -0.039111 0.000000 0.000000 0.000000 1.000000 0.816667 0.000000
0.199679 -0.043002 0.000000 0.000000 0.000000 1.000000 0.800000 0.000000
0.181470 -0.053759 0.000000 0.000000 0.000000 1.000000 0.783333 0.000000
-0.197312 -0.095036 0.000000 0.000000 0.000000 1.000000 0.350000 0.000000
0.153964 -0.070010 0.000000 0.000000 0.000000 1.000000 0.766667 0.000000
0.119483 -0.090380 0.000000 0.000000 0.000000 1.000000 0.750000 0.000000
0.080354 -0.113497 0.000000 0.000000 0.000000 1.000000 0.733333 0.000000
-0.197312 -0.135786 0.000000 0.000000 0.000000 1.000000 0.366667 0.000000
0.038900 -0.137988 0.000000 0.000000 0.000000 1.000000 0.716667 0.000000
-0.197312 -0.168295 0.000000 0.000000 0.000000 1.000000 0.383333 0.000000
-0.002553 -0.162478 0.000000 0.000000 0.000000 1.000000 0.700000 0.000000
-0.041683 -0.185595 0.000000 0.000000 0.000000 1.000000 0.683333 0.000000
-0.197312 -0.189815 0.000000 0.000000 0.000000 1.000000 0.400000 0.000000
-0.076163 -0.205965 0.000000 0.000000 0.000000 1.000000 0.666667 0.000000
-0.197312 -0.197599 0.000000 0.000000 0.000000 1.000000 0.416667 0.000000
-0.196533 -0.206202 0.000000 0.000000 0.000000 1.000000 0.433333 0.000000
-0.103670 -0.222216 0.000000 0.000000 0.000000 1.000000 0.650000 0.000000
-0.194306 -0.214128 0.000000 0.000000 0.000000 1.000000 0.450000 0.000000
-0.190794 -0.221289 0.000000 0.000000 0.000000 1.000000 0.466667 0.000000
-0.186162 -0.227596 0.000000 0.000000 0.000000 1.000000 0.483333 0.000000
-0.121878 -0.232973 0.000000 0.000000 0.000000 1.000000 0.633333 0.000000
-0.180573 -0.232964 0.000000 0.000000 0.000000 1.000000 0.500000 0.000000
-0.174193 -0.237304 0.000000 0.000000 0.000000 1.000000 0.516667 0.000000
-0.128464 -0.236864 0.000000 0.000000 0.000000 1.000000 0.616667 0.000000
-0.136152 -0.240527 0.000000 0.000000 0.000000 1.000000 0.600000 0.000000
-0.167184 -0.240529 0.000000 0.000000 0.000000 1.000000 0.533333 0.000000
-0.144031 -0.242638 0.000000 0.000000 0.000000 1.000000 0.583333 0.000000
-0.159712 -0.242551 0.000000 0.000000 0.000000 1.000000 0.550000 0.000000
-0.151939 -0.243283 0.000000 0.000000 0.000000 1.000000 0.566667 0.000000
3 0 1 2
3 3 1 0
3 3 4 1
3 5 4 3
3 5 6 4
3 7 6 5
3 7 8 6
3 9 8 7
3 10 8 9
3 11 8 10
3 12 8 11
3 13 8 12
3 14 8 13
3 15 8 14
3 16 8 15
3 17 8 16
3 18 8 17
3 19 8 18
3 19 20 8
3 19 21 20
3 19 22 21
3 19 23 22
3 19 24 23
3 19 25 24
3 26 25 19
3 26 27 25
3 26 28 27
3 26 29 28
3 26 30 29
3 26 31 30
3 26 32 31
3 26 33 32
3 26 34 33
3 35 34 26
3 35 36 34
3 35 37 36
3 35 38 37
3 39 38 35
3 39 40 38
3 41 40 39
3 41 42 40
3 41 43 42
3 44 43 41
3 44 45 43
3 46 45 44
3 47 45 46
3 47 48 45
3 49 48 47
3 50 48 49
3 51 48 50
3 51 52 48
3 53 52 51
3 54 52 53
3 54 55 52
3 54 56 55
3 57 56 54
3 57 58 56
3 59 58 57
3 60 58 59
