ply
format ascii 1.0
comment Created by Blender 3.4.1 - www.blender.org
element vertex 48
property float x
property float y
property float z
element face 64
property list uchar uint vertex_indices
end_header
-0.095770 0.052446 0.000000
-0.059169 0.098427 0.000000
-0.065370 0.108653 0.000000
-0.002557 0.108653 0.000000
-0.014104 0.098427 0.000000
-0.005498 0.092637 0.000000
0.026488 0.056116 0.000000
-0.081265 0.057541 0.000000
-0.036699 0.057541 0.000000
-0.027736 0.052410 0.000000
0.016705 0.052464 0.000000
0.081407 0.056116 0.000000
0.075188 0.045890 0.000000
0.111806 -0.000110 0.000000
-0.005890 0.012022 0.000000
0.021926 0.040313 0.000000
0.030658 0.045890 0.000000
-0.069184 0.003293 0.000000
-0.081265 0.047333 0.000000
-0.036735 0.047333 0.000000
-0.059169 0.006464 0.000000
-0.014639 0.006464 0.000000
0.052771 0.005003 0.000000
0.097301 0.005003 0.000000
-0.000669 -0.000128 0.000000
0.043772 -0.000074 0.000000
-0.097855 -0.049744 0.000000
-0.061272 -0.003780 0.000000
0.021534 -0.040302 0.000000
0.052736 -0.005205 0.000000
0.097301 -0.005205 0.000000
0.081407 -0.056318 0.000000
-0.016207 -0.003780 0.000000
-0.007600 -0.009552 0.000000
-0.083368 -0.044631 0.000000
-0.038784 -0.044631 0.000000
0.030141 -0.046092 0.000000
0.075206 -0.046092 0.000000
-0.029839 -0.049779 0.000000
0.014620 -0.049726 0.000000
-0.007992 -0.090167 0.000000
0.022764 -0.056318 0.000000
-0.067473 -0.105969 0.000000
-0.083368 -0.054857 0.000000
-0.038820 -0.054857 0.000000
-0.061254 -0.095743 0.000000
-0.016724 -0.095743 0.000000
-0.004981 -0.105969 0.000000
3 0 1 2
3 1 3 2
3 1 4 3
3 4 5 3
3 5 6 3
3 0 7 1
3 8 5 4
3 8 9 5
3 10 6 5
3 0 8 7
3 0 9 8
3 10 11 6
3 10 12 11
3 12 13 11
3 14 15 10
3 15 16 10
3 16 12 10
3 17 18 0
3 18 9 0
3 18 19 9
3 19 14 9
3 17 20 18
3 21 14 19
3 15 22 16
3 23 13 12
3 14 24 15
3 25 22 15
3 21 24 14
3 17 21 20
3 17 24 21
3 25 23 22
3 25 13 23
3 26 27 17
3 27 24 17
3 28 29 25
3 29 13 25
3 29 30 13
3 30 31 13
3 27 32 24
3 32 33 24
3 33 28 24
3 26 34 27
3 35 33 32
3 28 36 29
3 37 31 30
3 35 38 33
3 39 28 33
3 39 36 28
3 26 35 34
3 26 38 35
3 39 37 36
3 39 31 37
3 40 41 39
3 41 31 39
3 42 43 26
3 43 38 26
3 43 44 38
3 44 40 38
3 42 45 43
3 46 40 44
3 40 47 41
3 46 47 40
3 42 46 45
3 42 47 46
