ply
format ascii 1.0
comment Created by Blender 2.90.1 - www.blender.org
element vertex 18
property float x
property float y
property float z
property uchar red
property uchar green
property uchar blue
property uchar alpha
element face 15
property list uchar uint vertex_indices
end_header
-0.098559 0.044351 0.000000 255 255 255 255
-0.080774 0.054762 0.000000 255 255 255 255
-0.098559 0.097694 0.000000 255 255 255 255
-0.000743 -0.000102 0.000000 255 255 255 255
-0.080774 0.026570 0.000000 255 255 255 255
-0.025899 -0.000102 0.000000 255 255 255 255
-0.214161 -0.044555 0.000000 255 255 255 255
-0.196376 0.026570 0.000000 255 255 255 255
-0.214161 0.044351 0.000000 255 255 255 255
-0.196376 -0.026773 0.000000 255 255 255 255
-0.080774 -0.054965 0.000000 255 255 255 255
-0.098559 -0.097898 0.000000 255 255 255 255
-0.080774 -0.026773 0.000000 255 255 255 255
-0.098559 -0.044555 0.000000 255 255 255 255
0.000234 -0.099325 -0.001878 255 255 255 255
0.020009 -0.099325 -0.001878 255 255 255 255
0.020009 0.097955 -0.001878 255 255 255 255
0.000234 0.097955 -0.001878 255 255 255 255
3 0 1 2
3 1 3 2
3 0 4 1
3 5 3 1
3 6 7 8
3 7 0 8
3 7 4 0
3 6 9 7
3 10 3 5
3 10 11 3
3 6 12 9
3 6 13 12
3 13 10 12
3 11 10 13
4 14 15 16 17
