ply
format ascii 1.0
comment Created by Blender 3.6.2 - www.blender.org
element vertex 61
property float x
property float y
property float z
property float nx
property float ny
property float nz
element face 59
property list uchar uint vertex_indices
end_header
-0.070374 0.120216 0.000000 0.000000 0.000000 1.000000
-0.062764 0.120037 0.000000 0.000000 0.000000 1.000000
-0.066565 0.120433 0.000000 0.000000 0.000000 1.000000
-0.074096 0.119398 0.000000 0.000000 0.000000 1.000000
-0.059069 0.119014 0.000000 0.000000 0.000000 1.000000
-0.077634 0.117992 0.000000 0.000000 0.000000 1.000000
-0.055574 0.117352 0.000000 0.000000 0.000000 1.000000
-0.080892 0.116012 0.000000 0.000000 0.000000 1.000000
0.109905 0.019542 0.000000 0.000000 0.000000 1.000000
-0.083774 0.113470 0.000000 0.000000 0.000000 1.000000
-0.086183 0.110379 0.000000 0.000000 0.000000 1.000000
-0.088023 0.106752 0.000000 0.000000 0.000000 1.000000
-0.089198 0.102601 0.000000 0.000000 0.000000 1.000000
-0.089610 0.097941 0.000000 0.000000 0.000000 1.000000
-0.089610 0.094092 0.000000 0.000000 0.000000 1.000000
-0.089610 0.083454 0.000000 0.000000 0.000000 1.000000
-0.089610 0.067382 0.000000 0.000000 0.000000 1.000000
-0.089610 0.047237 0.000000 0.000000 0.000000 1.000000
-0.089610 0.024375 0.000000 0.000000 0.000000 1.000000
-0.089610 0.000154 0.000000 0.000000 0.000000 1.000000
0.113298 0.017118 0.000000 0.000000 0.000000 1.000000
0.116072 0.014251 0.000000 0.000000 0.000000 1.000000
0.118228 0.011031 0.000000 0.000000 0.000000 1.000000
0.119767 0.007545 0.000000 0.000000 0.000000 1.000000
0.120689 0.003882 0.000000 0.000000 0.000000 1.000000
0.120994 0.000131 0.000000 0.000000 0.000000 1.000000
-0.089610 -0.024066 0.000000 0.000000 0.000000 1.000000
0.120683 -0.003620 0.000000 0.000000 0.000000 1.000000
0.119756 -0.007283 0.000000 0.000000 0.000000 1.000000
0.118215 -0.010769 0.000000 0.000000 0.000000 1.000000
0.116059 -0.013989 0.000000 0.000000 0.000000 1.000000
0.113289 -0.016856 0.000000 0.000000 0.000000 1.000000
0.109905 -0.019281 0.000000 0.000000 0.000000 1.000000
0.106649 -0.021204 0.000000 0.000000 0.000000 1.000000
0.097647 -0.026522 0.000000 0.000000 0.000000 1.000000
-0.089610 -0.046928 0.000000 0.000000 0.000000 1.000000
0.084049 -0.034556 0.000000 0.000000 0.000000 1.000000
0.067003 -0.044626 0.000000 0.000000 0.000000 1.000000
0.047659 -0.056055 0.000000 0.000000 0.000000 1.000000
-0.089610 -0.067074 0.000000 0.000000 0.000000 1.000000
0.027165 -0.068162 0.000000 0.000000 0.000000 1.000000
-0.089610 -0.083145 0.000000 0.000000 0.000000 1.000000
0.006672 -0.080269 0.000000 0.000000 0.000000 1.000000
-0.012672 -0.091697 0.000000 0.000000 0.000000 1.000000
-0.089610 -0.093784 0.000000 0.000000 0.000000 1.000000
-0.029718 -0.101768 0.000000 0.000000 0.000000 1.000000
-0.089610 -0.097632 0.000000 0.000000 0.000000 1.000000
-0.089225 -0.101885 0.000000 0.000000 0.000000 1.000000
-0.043317 -0.109802 0.000000 0.000000 0.000000 1.000000
-0.088124 -0.105803 0.000000 0.000000 0.000000 1.000000
-0.086388 -0.109343 0.000000 0.000000 0.000000 1.000000
-0.084098 -0.112461 0.000000 0.000000 0.000000 1.000000
-0.052318 -0.115120 0.000000 0.000000 0.000000 1.000000
-0.081335 -0.115115 0.000000 0.000000 0.000000 1.000000
-0.078181 -0.117261 0.000000 0.000000 0.000000 1.000000
-0.055574 -0.117043 0.000000 0.000000 0.000000 1.000000
-0.059375 -0.118854 0.000000 0.000000 0.000000 1.000000
-0.074716 -0.118855 0.000000 0.000000 0.000000 1.000000
-0.063270 -0.119897 0.000000 0.000000 0.000000 1.000000
-0.071022 -0.119855 0.000000 0.000000 0.000000 1.000000
-0.067180 -0.120217 0.000000 0.000000 0.000000 1.000000
3 0 1 2
3 3 1 0
3 3 4 1
3 5 4 3
3 5 6 4
3 7 6 5
3 7 8 6
3 9 8 7
3 10 8 9
3 11 8 10
3 12 8 11
3 13 8 12
3 14 8 13
3 15 8 14
3 16 8 15
3 17 8 16
3 18 8 17
3 19 8 18
3 19 20 8
3 19 21 20
3 19 22 21
3 19 23 22
3 19 24 23
3 19 25 24
3 26 25 19
3 26 27 25
3 26 28 27
3 26 29 28
3 26 30 29
3 26 31 30
3 26 32 31
3 26 33 32
3 26 34 33
3 35 34 26
3 35 36 34
3 35 37 36
3 35 38 37
3 39 38 35
3 39 40 38
3 41 40 39
3 41 42 40
3 41 43 42
3 44 43 41
3 44 45 43
3 46 45 44
3 47 45 46
3 47 48 45
3 49 48 47
3 50 48 49
3 51 48 50
3 51 52 48
3 53 52 51
3 54 52 53
3 54 55 52
3 54 56 55
3 57 56 54
3 57 58 56
3 59 58 57
3 60 58 59
