ply
format ascii 1.0
comment Created by Blender 2.90.0 - www.blender.org
element vertex 8
property float x
property float y
property float z
property uchar red
property uchar green
property uchar blue
property uchar alpha
element face 4
property list uchar uint vertex_indices
end_header
-0.570120 0.555828 0.000000 255 255 255 255
0.565539 -0.554918 0.000000 255 255 255 255
-0.557663 0.568285 0.000000 255 255 255 255
0.553082 -0.567374 0.000000 255 255 255 255
0.557664 0.568285 0.000000 255 255 255 255
-0.553082 -0.567374 0.000000 255 255 255 255
0.570120 0.555828 0.000000 255 255 255 255
-0.565539 -0.554918 0.000000 255 255 255 255
3 0 1 2
3 0 3 1
3 4 5 6
3 4 7 5
