ply
format ascii 1.0
comment Created by Blender 2.82 (sub 7) - www.blender.org, source file: 'icons.blend'
element vertex 61
property float x
property float y
property float z
property uchar red
property uchar green
property uchar blue
property uchar alpha
element face 57
property list uchar uint vertex_indices
end_header
-0.121622 1.052659 0.000000 255 255 255 255
-0.101327 1.214990 0.000000 255 255 255 255
-0.121622 1.235281 0.000000 255 255 255 255
0.121924 1.235281 0.000000 255 255 255 255
0.101629 1.214990 0.000000 255 255 255 255
0.121924 1.052659 0.000000 255 255 255 255
-0.101327 1.072951 0.000000 255 255 255 255
0.101629 1.072951 0.000000 255 255 255 255
-0.057726 1.194559 0.000000 255 255 255 255
-0.053597 1.194559 0.000000 255 255 255 255
-0.055662 1.194698 0.000000 255 255 255 255
-0.051617 1.194155 0.000000 255 255 255 255
-0.059707 1.194155 0.000000 255 255 255 255
-0.049739 1.193502 0.000000 255 255 255 255
-0.061585 1.193502 0.000000 255 255 255 255
-0.047981 1.192620 0.000000 255 255 255 255
-0.063343 1.192620 0.000000 255 255 255 255
-0.046362 1.191526 0.000000 255 255 255 255
-0.064961 1.191526 0.000000 255 255 255 255
-0.044900 1.190239 0.000000 255 255 255 255
-0.066424 1.190239 0.000000 255 255 255 255
-0.043613 1.188778 0.000000 255 255 255 255
-0.067711 1.188778 0.000000 255 255 255 255
-0.042519 1.187159 0.000000 255 255 255 255
-0.068804 1.187159 0.000000 255 255 255 255
-0.041637 1.185402 0.000000 255 255 255 255
-0.069687 1.185402 0.000000 255 255 255 255
-0.040984 1.183524 0.000000 255 255 255 255
-0.070339 1.183524 0.000000 255 255 255 255
-0.040579 1.181544 0.000000 255 255 255 255
-0.070744 1.181544 0.000000 255 255 255 255
-0.040440 1.179480 0.000000 255 255 255 255
-0.070883 1.179480 0.000000 255 255 255 255
-0.070744 1.177414 0.000000 255 255 255 255
-0.040579 1.177414 0.000000 255 255 255 255
-0.070339 1.175432 0.000000 255 255 255 255
-0.040984 1.175432 0.000000 255 255 255 255
-0.069687 1.173554 0.000000 255 255 255 255
-0.041637 1.173554 0.000000 255 255 255 255
-0.005116 1.133825 0.000000 255 255 255 255
0.071185 1.093242 0.000000 255 255 255 255
0.020447 1.174407 0.000000 255 255 255 255
-0.068804 1.171796 0.000000 255 255 255 255
-0.042519 1.171796 0.000000 255 255 255 255
-0.067711 1.170178 0.000000 255 255 255 255
-0.043613 1.170178 0.000000 255 255 255 255
-0.066424 1.168717 0.000000 255 255 255 255
-0.044900 1.168717 0.000000 255 255 255 255
-0.064961 1.167431 0.000000 255 255 255 255
-0.046362 1.167431 0.000000 255 255 255 255
-0.063343 1.166338 0.000000 255 255 255 255
-0.047981 1.166338 0.000000 255 255 255 255
-0.061585 1.165457 0.000000 255 255 255 255
-0.049739 1.165457 0.000000 255 255 255 255
-0.059707 1.164805 0.000000 255 255 255 255
-0.051617 1.164805 0.000000 255 255 255 255
-0.057726 1.164400 0.000000 255 255 255 255
-0.053597 1.164400 0.000000 255 255 255 255
-0.055662 1.164261 0.000000 255 255 255 255
-0.070883 1.093242 0.000000 255 255 255 255
-0.030292 1.153710 0.000000 255 255 255 255
3 0 1 2
3 1 3 2
3 1 4 3
3 4 5 3
3 0 6 1
3 7 5 4
3 8 9 10
3 8 11 9
3 12 11 8
3 12 13 11
3 14 13 12
3 14 15 13
3 16 15 14
3 16 17 15
3 18 17 16
3 18 19 17
3 20 19 18
3 20 21 19
3 22 21 20
3 22 23 21
3 24 23 22
3 24 25 23
3 26 25 24
3 26 27 25
3 28 27 26
3 28 29 27
3 30 29 28
3 30 31 29
3 32 31 30
3 33 31 32
3 33 34 31
3 35 34 33
3 35 36 34
3 37 36 35
3 37 38 36
3 39 40 41
3 42 38 37
3 42 43 38
3 44 43 42
3 44 45 43
3 46 45 44
3 46 47 45
3 48 47 46
3 48 49 47
3 50 49 48
3 50 51 49
3 52 51 50
3 52 53 51
3 54 53 52
3 54 55 53
3 56 55 54
3 56 57 55
3 58 57 56
3 59 39 60
3 59 40 39
3 0 7 6
3 0 5 7
