ply
format ascii 1.0
comment Created by Blender 2.90.0 - www.blender.org
element vertex 183
property float x
property float y
property float z
element face 187
property list uchar uint vertex_indices
end_header
-0.009432 0.094246 0.000000
0.003738 0.094295 0.000000
-0.002850 0.094717 0.000000
0.010061 0.093020 0.000000
-0.015738 0.092918 0.000000
0.016061 0.090949 0.000000
-0.021711 0.090794 0.000000
0.021679 0.088143 0.000000
-0.027296 0.087934 0.000000
0.026855 0.084659 0.000000
-0.032435 0.084398 0.000000
0.031532 0.080557 0.000000
-0.037073 0.080246 0.000000
0.035651 0.075894 0.000000
-0.041152 0.075537 0.000000
0.039152 0.070729 0.000000
-0.044616 0.070332 0.000000
-0.002914 0.069195 0.000000
0.000224 0.069013 0.000000
0.041977 0.065121 0.000000
-0.047408 0.064691 0.000000
-0.006016 0.068952 0.000000
0.003236 0.068422 0.000000
-0.008987 0.068306 0.000000
0.006096 0.067450 0.000000
-0.011800 0.067284 0.000000
0.008773 0.066126 0.000000
-0.014428 0.065917 0.000000
0.011241 0.064477 0.000000
-0.016847 0.064231 0.000000
0.044068 0.059129 0.000000
-0.049473 0.058673 0.000000
0.013472 0.062532 0.000000
-0.019028 0.062257 0.000000
0.015436 0.060319 0.000000
-0.020946 0.060022 0.000000
0.017106 0.057867 0.000000
-0.022575 0.057555 0.000000
0.045366 0.052811 0.000000
-0.050753 0.052338 0.000000
0.018454 0.055203 0.000000
-0.023887 0.054884 0.000000
0.019452 0.052356 0.000000
-0.024857 0.052039 0.000000
0.045811 0.046226 0.000000
0.020071 0.049354 0.000000
-0.051192 0.045747 0.000000
-0.025459 0.049048 0.000000
0.020284 0.046226 0.000000
-0.025665 0.045939 0.000000
0.020284 0.045572 0.000000
0.045811 0.045572 0.000000
-0.025665 0.013047 0.000000
-0.051192 0.045104 0.000000
0.020284 0.043764 0.000000
0.045811 0.043764 0.000000
-0.051192 0.043325 0.000000
0.020284 0.041034 0.000000
0.045811 0.041034 0.000000
-0.051192 0.040638 0.000000
0.020284 0.037611 0.000000
0.045811 0.037611 0.000000
-0.051192 0.037269 0.000000
0.020284 0.033727 0.000000
0.045811 0.033727 0.000000
-0.051192 0.033447 0.000000
0.020284 0.029612 0.000000
0.045811 0.029612 0.000000
-0.051192 0.029397 0.000000
0.020284 0.025496 0.000000
0.045811 0.025496 0.000000
-0.051192 0.025348 0.000000
0.020284 0.021612 0.000000
0.045811 0.021612 0.000000
-0.051192 0.021525 0.000000
0.020284 0.018189 0.000000
0.045811 0.018189 0.000000
-0.051192 0.018157 0.000000
0.020284 0.015459 0.000000
0.045811 0.015459 0.000000
-0.051192 0.015469 0.000000
-0.051192 0.013691 0.000000
0.020284 0.013651 0.000000
0.045811 0.013651 0.000000
-0.051192 0.013047 0.000000
0.020284 0.012997 0.000000
0.021859 0.012998 0.000000
0.023659 0.012999 0.000000
0.045811 0.012997 0.000000
-0.060928 0.012907 0.000000
-0.058851 0.013047 0.000000
0.053470 0.013047 0.000000
0.025647 0.012998 0.000000
0.027786 0.012997 0.000000
0.055547 0.012907 0.000000
0.043820 0.012995 0.000000
0.030038 0.012996 0.000000
0.032366 0.012995 0.000000
0.034731 0.012994 0.000000
0.041679 0.012994 0.000000
0.037097 0.012993 0.000000
0.039425 0.012993 0.000000
-0.062921 0.012500 0.000000
0.057540 0.012500 0.000000
-0.064811 0.011843 0.000000
0.059430 0.011843 0.000000
-0.066580 0.010956 0.000000
0.061199 0.010956 0.000000
-0.068209 0.009856 0.000000
0.062828 0.009856 0.000000
-0.069680 0.008561 0.000000
0.064299 0.008561 0.000000
-0.070975 0.007090 0.000000
0.065594 0.007090 0.000000
-0.072075 0.005461 0.000000
0.066694 0.005461 0.000000
-0.072963 0.003693 0.000000
0.067582 0.003693 0.000000
-0.073620 0.001804 0.000000
0.068239 0.001804 0.000000
-0.074027 -0.000189 0.000000
0.068646 -0.000189 0.000000
-0.074167 -0.002266 0.000000
0.068786 -0.002266 0.000000
-0.074167 -0.003270 0.000000
0.068786 -0.003270 0.000000
-0.074167 -0.006047 0.000000
0.068786 -0.006047 0.000000
-0.074167 -0.010242 0.000000
0.068786 -0.010242 0.000000
-0.074167 -0.015500 0.000000
0.068786 -0.015500 0.000000
-0.074167 -0.021467 0.000000
0.068786 -0.021467 0.000000
-0.074167 -0.027788 0.000000
0.068786 -0.027788 0.000000
-0.074167 -0.034109 0.000000
0.068786 -0.034109 0.000000
-0.074167 -0.040076 0.000000
0.068786 -0.040076 0.000000
-0.074167 -0.045334 0.000000
0.068786 -0.045334 0.000000
-0.074167 -0.049529 0.000000
0.068786 -0.049529 0.000000
-0.074167 -0.052306 0.000000
0.068786 -0.052306 0.000000
-0.074167 -0.053310 0.000000
0.068786 -0.053310 0.000000
-0.074027 -0.055387 0.000000
0.068646 -0.055387 0.000000
-0.073620 -0.057380 0.000000
0.068239 -0.057380 0.000000
-0.072963 -0.059269 0.000000
0.067582 -0.059269 0.000000
-0.072075 -0.061037 0.000000
0.066694 -0.061037 0.000000
-0.070975 -0.062666 0.000000
0.065594 -0.062666 0.000000
-0.069680 -0.064137 0.000000
0.064299 -0.064137 0.000000
-0.068209 -0.065431 0.000000
0.062828 -0.065431 0.000000
-0.066580 -0.066532 0.000000
0.061199 -0.066532 0.000000
-0.064811 -0.067419 0.000000
0.059430 -0.067419 0.000000
-0.062921 -0.068076 0.000000
0.057540 -0.068076 0.000000
-0.060928 -0.068483 0.000000
0.055547 -0.068483 0.000000
-0.058851 -0.068623 0.000000
0.053470 -0.068623 0.000000
-0.056641 -0.068623 0.000000
-0.050531 -0.068623 0.000000
-0.041301 -0.068623 0.000000
-0.029731 -0.068623 0.000000
-0.016601 -0.068623 0.000000
-0.002690 -0.068623 0.000000
0.011220 -0.068623 0.000000
0.024350 -0.068623 0.000000
0.035920 -0.068623 0.000000
0.045150 -0.068623 0.000000
0.051260 -0.068623 0.000000
3 0 1 2
3 0 3 1
3 4 3 0
3 4 5 3
3 6 5 4
3 6 7 5
3 8 7 6
3 8 9 7
3 10 9 8
3 10 11 9
3 12 11 10
3 12 13 11
3 14 13 12
3 14 15 13
3 16 15 14
3 16 17 15
3 17 18 15
3 18 19 15
3 20 21 16
3 21 17 16
3 22 19 18
3 20 23 21
3 24 19 22
3 20 25 23
3 26 19 24
3 20 27 25
3 28 19 26
3 20 29 27
3 28 30 19
3 31 29 20
3 32 30 28
3 31 33 29
3 34 30 32
3 31 35 33
3 36 30 34
3 31 37 35
3 36 38 30
3 39 37 31
3 40 38 36
3 39 41 37
3 42 38 40
3 39 43 41
3 42 44 38
3 45 44 42
3 46 43 39
3 46 47 43
3 48 44 45
3 46 49 47
3 50 44 48
3 50 51 44
3 46 52 49
3 53 52 46
3 54 51 50
3 54 55 51
3 56 52 53
3 57 55 54
3 57 58 55
3 59 52 56
3 60 58 57
3 60 61 58
3 62 52 59
3 63 61 60
3 63 64 61
3 65 52 62
3 66 64 63
3 66 67 64
3 68 52 65
3 69 67 66
3 69 70 67
3 71 52 68
3 72 70 69
3 72 73 70
3 74 52 71
3 75 73 72
3 75 76 73
3 77 52 74
3 78 76 75
3 78 79 76
3 80 52 77
3 81 52 80
3 82 79 78
3 82 83 79
3 84 52 81
3 85 83 82
3 85 86 83
3 86 87 83
3 87 88 83
3 89 84 90
3 89 52 84
3 89 91 52
3 89 87 91
3 87 92 91
3 92 93 91
3 93 88 91
3 88 94 91
3 89 93 87
3 93 88 87
3 95 94 88
3 89 96 93
3 89 97 96
3 89 98 97
3 99 94 95
3 89 100 98
3 101 94 99
3 89 101 100
3 89 94 101
3 102 94 89
3 102 103 94
3 104 103 102
3 104 105 103
3 106 105 104
3 106 107 105
3 108 107 106
3 108 109 107
3 110 109 108
3 110 111 109
3 112 111 110
3 112 113 111
3 114 113 112
3 114 115 113
3 116 115 114
3 116 117 115
3 118 117 116
3 118 119 117
3 120 119 118
3 120 121 119
3 122 121 120
3 122 123 121
3 124 123 122
3 124 125 123
3 126 125 124
3 126 127 125
3 128 127 126
3 128 129 127
3 130 129 128
3 130 131 129
3 132 131 130
3 132 133 131
3 134 133 132
3 134 135 133
3 136 135 134
3 136 137 135
3 138 137 136
3 138 139 137
3 140 139 138
3 140 141 139
3 142 141 140
3 142 143 141
3 144 143 142
3 144 145 143
3 146 145 144
3 146 147 145
3 148 147 146
3 148 149 147
3 150 149 148
3 150 151 149
3 152 151 150
3 152 153 151
3 154 153 152
3 154 155 153
3 156 155 154
3 156 157 155
3 158 157 156
3 158 159 157
3 160 159 158
3 160 161 159
3 162 161 160
3 162 163 161
3 164 163 162
3 164 165 163
3 166 165 164
3 166 167 165
3 168 167 166
3 168 169 167
3 170 169 168
3 170 171 169
3 172 171 170
3 173 171 172
3 174 171 173
3 175 171 174
3 176 171 175
3 177 171 176
3 178 171 177
3 179 171 178
3 180 171 179
3 181 171 180
3 182 171 181
