ply
format ascii 1.0
comment Created by Blender 2.90.0 - www.blender.org
element vertex 144
property float x
property float y
property float z
property uchar red
property uchar green
property uchar blue
property uchar alpha
element face 72
property list uchar uint vertex_indices
end_header
-0.009185 1.114442 0.000000 255 255 255 255
0.009185 1.013635 0.000000 255 255 255 255
0.009185 1.114442 0.000000 255 255 255 255
-0.009185 1.013635 0.000000 255 255 255 255
0.184475 1.099106 0.000000 255 255 255 255
0.185062 0.996641 0.000000 255 255 255 255
0.202566 1.095916 0.000000 255 255 255 255
0.166970 0.999830 0.000000 255 255 255 255
0.372530 1.050374 0.000000 255 255 255 255
0.355315 0.949364 0.000000 255 255 255 255
0.389793 1.044091 0.000000 255 255 255 255
0.338052 0.955647 0.000000 255 255 255 255
0.549266 0.969727 0.000000 255 255 255 255
0.514772 0.873241 0.000000 255 255 255 255
0.565175 0.960542 0.000000 255 255 255 255
0.498863 0.882426 0.000000 255 255 255 255
0.709313 0.859616 0.000000 255 255 255 255
0.658588 0.770585 0.000000 255 255 255 255
0.723385 0.847808 0.000000 255 255 255 255
0.644516 0.782394 0.000000 255 255 255 255
0.847808 0.723385 0.000000 255 255 255 255
0.782393 0.644516 0.000000 255 255 255 255
0.859616 0.709313 0.000000 255 255 255 255
0.770585 0.658588 0.000000 255 255 255 255
0.960542 0.565175 0.000000 255 255 255 255
0.882426 0.498863 0.000000 255 255 255 255
0.969727 0.549266 0.000000 255 255 255 255
0.873241 0.514772 0.000000 255 255 255 255
1.044091 0.389793 0.000000 255 255 255 255
0.955647 0.338052 0.000000 255 255 255 255
1.050374 0.372530 0.000000 255 255 255 255
0.949364 0.355315 0.000000 255 255 255 255
1.095916 0.202566 0.000000 255 255 255 255
0.999831 0.166970 0.000000 255 255 255 255
1.099106 0.184475 0.000000 255 255 255 255
0.996641 0.185061 0.000000 255 255 255 255
1.114442 0.009185 0.000000 255 255 255 255
1.013635 -0.009185 0.000000 255 255 255 255
1.114442 -0.009185 0.000000 255 255 255 255
1.013635 0.009185 0.000000 255 255 255 255
1.099106 -0.184475 0.000000 255 255 255 255
0.996641 -0.185061 0.000000 255 255 255 255
1.095916 -0.202566 0.000000 255 255 255 255
0.999831 -0.166970 0.000000 255 255 255 255
1.050374 -0.372530 0.000000 255 255 255 255
0.949364 -0.355315 0.000000 255 255 255 255
1.044091 -0.389793 0.000000 255 255 255 255
0.955647 -0.338052 0.000000 255 255 255 255
0.969727 -0.549266 0.000000 255 255 255 255
0.873241 -0.514772 0.000000 255 255 255 255
0.960542 -0.565175 0.000000 255 255 255 255
0.882426 -0.498863 0.000000 255 255 255 255
0.859616 -0.709313 0.000000 255 255 255 255
0.770585 -0.658588 0.000000 255 255 255 255
0.847808 -0.723386 0.000000 255 255 255 255
0.782394 -0.644516 0.000000 255 255 255 255
0.723385 -0.847808 0.000000 255 255 255 255
0.644516 -0.782394 0.000000 255 255 255 255
0.709313 -0.859616 0.000000 255 255 255 255
0.658588 -0.770585 0.000000 255 255 255 255
0.565175 -0.960542 0.000000 255 255 255 255
0.498863 -0.882426 0.000000 255 255 255 255
0.549266 -0.969727 0.000000 255 255 255 255
0.514772 -0.873241 0.000000 255 255 255 255
0.389793 -1.044091 0.000000 255 255 255 255
0.338052 -0.955647 0.000000 255 255 255 255
0.372530 -1.050374 0.000000 255 255 255 255
0.355315 -0.949364 0.000000 255 255 255 255
0.202566 -1.095916 0.000000 255 255 255 255
0.166970 -0.999831 0.000000 255 255 255 255
0.184475 -1.099106 0.000000 255 255 255 255
0.185062 -0.996641 0.000000 255 255 255 255
0.009185 -1.114442 0.000000 255 255 255 255
-0.009185 -1.013635 0.000000 255 255 255 255
-0.009185 -1.114442 0.000000 255 255 255 255
0.009185 -1.013635 0.000000 255 255 255 255
-0.184475 -1.099106 0.000000 255 255 255 255
-0.185062 -0.996641 0.000000 255 255 255 255
-0.202566 -1.095916 0.000000 255 255 255 255
-0.166970 -0.999830 0.000000 255 255 255 255
-0.372530 -1.050374 0.000000 255 255 255 255
-0.355315 -0.949364 0.000000 255 255 255 255
-0.389793 -1.044091 0.000000 255 255 255 255
-0.338052 -0.955647 0.000000 255 255 255 255
-0.549266 -0.969727 0.000000 255 255 255 255
-0.514772 -0.873241 0.000000 255 255 255 255
-0.565175 -0.960542 0.000000 255 255 255 255
-0.498863 -0.882426 0.000000 255 255 255 255
-0.709313 -0.859616 0.000000 255 255 255 255
-0.658588 -0.770585 0.000000 255 255 255 255
-0.723385 -0.847808 0.000000 255 255 255 255
-0.644516 -0.782394 0.000000 255 255 255 255
-0.847808 -0.723385 0.000000 255 255 255 255
-0.782394 -0.644516 0.000000 255 255 255 255
-0.859616 -0.709313 0.000000 255 255 255 255
-0.770585 -0.658588 0.000000 255 255 255 255
-0.960542 -0.565175 0.000000 255 255 255 255
-0.882426 -0.498863 0.000000 255 255 255 255
-0.969727 -0.549266 0.000000 255 255 255 255
-0.873241 -0.514772 0.000000 255 255 255 255
-1.044091 -0.389793 0.000000 255 255 255 255
-0.955647 -0.338052 0.000000 255 255 255 255
-1.050374 -0.372530 0.000000 255 255 255 255
-0.949364 -0.355315 0.000000 255 255 255 255
-1.095916 -0.202566 0.000000 255 255 255 255
-0.999831 -0.166970 0.000000 255 255 255 255
-1.099106 -0.184475 0.000000 255 255 255 255
-0.996641 -0.185061 0.000000 255 255 255 255
-1.114442 -0.009185 0.000000 255 255 255 255
-1.013635 0.009185 0.000000 255 255 255 255
-1.114442 0.009185 0.000000 255 255 255 255
-1.013635 -0.009185 0.000000 255 255 255 255
-1.099106 0.184475 0.000000 255 255 255 255
-0.996641 0.185062 0.000000 255 255 255 255
-1.095916 0.202566 0.000000 255 255 255 255
-0.999830 0.166970 0.000000 255 255 255 255
-1.050374 0.372530 0.000000 255 255 255 255
-0.949364 0.355315 0.000000 255 255 255 255
-1.044091 0.389793 0.000000 255 255 255 255
-0.955647 0.338052 0.000000 255 255 255 255
-0.969727 0.549266 0.000000 255 255 255 255
-0.873241 0.514772 0.000000 255 255 255 255
-0.960542 0.565175 0.000000 255 255 255 255
-0.882426 0.498863 0.000000 255 255 255 255
-0.859616 0.709313 0.000000 255 255 255 255
-0.770585 0.658588 0.000000 255 255 255 255
-0.847808 0.723385 0.000000 255 255 255 255
-0.782394 0.644516 0.000000 255 255 255 255
-0.723386 0.847808 0.000000 255 255 255 255
-0.644516 0.782393 0.000000 255 255 255 255
-0.709313 0.859616 0.000000 255 255 255 255
-0.658588 0.770585 0.000000 255 255 255 255
-0.565175 0.960542 0.000000 255 255 255 255
-0.498863 0.882426 0.000000 255 255 255 255
-0.549266 0.969727 0.000000 255 255 255 255
-0.514772 0.873241 0.000000 255 255 255 255
-0.389793 1.044091 0.000000 255 255 255 255
-0.338052 0.955647 0.000000 255 255 255 255
-0.372530 1.050374 0.000000 255 255 255 255
-0.355315 0.949364 0.000000 255 255 255 255
-0.202566 1.095916 0.000000 255 255 255 255
-0.166970 0.999831 0.000000 255 255 255 255
-0.184475 1.099106 0.000000 255 255 255 255
-0.185062 0.996641 0.000000 255 255 255 255
3 0 1 2
3 0 3 1
3 4 5 6
3 4 7 5
3 8 9 10
3 8 11 9
3 12 13 14
3 12 15 13
3 16 17 18
3 16 19 17
3 20 21 22
3 20 23 21
3 24 25 26
3 24 27 25
3 28 29 30
3 28 31 29
3 32 33 34
3 32 35 33
3 36 37 38
3 36 39 37
3 40 41 42
3 40 43 41
3 44 45 46
3 44 47 45
3 48 49 50
3 48 51 49
3 52 53 54
3 52 55 53
3 56 57 58
3 56 59 57
3 60 61 62
3 60 63 61
3 64 65 66
3 64 67 65
3 68 69 70
3 68 71 69
3 72 73 74
3 72 75 73
3 76 77 78
3 76 79 77
3 80 81 82
3 80 83 81
3 84 85 86
3 84 87 85
3 88 89 90
3 88 91 89
3 92 93 94
3 92 95 93
3 96 97 98
3 96 99 97
3 100 101 102
3 100 103 101
3 104 105 106
3 104 107 105
3 108 109 110
3 108 111 109
3 112 113 114
3 112 115 113
3 116 117 118
3 116 119 117
3 120 121 122
3 120 123 121
3 124 125 126
3 124 127 125
3 128 129 130
3 128 131 129
3 132 133 134
3 132 135 133
3 136 137 138
3 136 139 137
3 140 141 142
3 140 143 141
