ply
format ascii 1.0
comment Created by Blender 2.90.1 - www.blender.org
element vertex 12
property float x
property float y
property float z
element face 10
property list uchar uint vertex_indices
end_header
-0.120212 -0.072047 0.000000
-0.101239 0.089191 0.000000
-0.120212 0.108160 0.000000
0.119230 0.108160 0.000000
0.100257 0.089191 0.000000
0.119230 -0.072047 0.000000
-0.101239 -0.053078 0.000000
0.100257 -0.053078 0.000000
-0.057945 -0.110557 0.000000
0.031238 -0.082104 0.000000
-0.033289 -0.082104 0.000000
0.055894 -0.110557 0.000000
3 0 1 2
3 1 3 2
3 1 4 3
3 4 5 3
3 0 6 1
3 7 5 4
3 0 7 6
3 0 5 7
3 8 9 10
3 8 11 9
