ply
format ascii 1.0
comment Created by Blender 2.82 (sub 7) - www.blender.org, source file: 'icons.blend'
element vertex 61
property float x
property float y
property float z
property uchar red
property uchar green
property uchar blue
property uchar alpha
element face 57
property list uchar uint vertex_indices
end_header
-0.124093 1.079884 0.000000 255 255 255 255
-0.103797 1.242214 0.000000 255 255 255 255
-0.124093 1.262506 0.000000 255 255 255 255
0.119454 1.262506 0.000000 255 255 255 255
0.099159 1.242214 0.000000 255 255 255 255
0.119454 1.079884 0.000000 255 255 255 255
-0.103797 1.100175 0.000000 255 255 255 255
0.099159 1.100175 0.000000 255 255 255 255
-0.060197 1.221784 0.000000 255 255 255 255
-0.056067 1.221784 0.000000 255 255 255 255
-0.058132 1.221923 0.000000 255 255 255 255
-0.054087 1.221379 0.000000 255 255 255 255
-0.062177 1.221379 0.000000 255 255 255 255
-0.052209 1.220727 0.000000 255 255 255 255
-0.064055 1.220727 0.000000 255 255 255 255
-0.050451 1.219844 0.000000 255 255 255 255
-0.065813 1.219844 0.000000 255 255 255 255
-0.048832 1.218751 0.000000 255 255 255 255
-0.067432 1.218751 0.000000 255 255 255 255
-0.047370 1.217464 0.000000 255 255 255 255
-0.068894 1.217464 0.000000 255 255 255 255
-0.046083 1.216002 0.000000 255 255 255 255
-0.070181 1.216002 0.000000 255 255 255 255
-0.044989 1.214384 0.000000 255 255 255 255
-0.071274 1.214384 0.000000 255 255 255 255
-0.044107 1.212627 0.000000 255 255 255 255
-0.072157 1.212627 0.000000 255 255 255 255
-0.043454 1.210749 0.000000 255 255 255 255
-0.072810 1.210749 0.000000 255 255 255 255
-0.043049 1.208769 0.000000 255 255 255 255
-0.073215 1.208769 0.000000 255 255 255 255
-0.042910 1.206705 0.000000 255 255 255 255
-0.073354 1.206705 0.000000 255 255 255 255
-0.073215 1.204638 0.000000 255 255 255 255
-0.043049 1.204638 0.000000 255 255 255 255
-0.072810 1.202657 0.000000 255 255 255 255
-0.043454 1.202657 0.000000 255 255 255 255
-0.072157 1.200779 0.000000 255 255 255 255
-0.044107 1.200778 0.000000 255 255 255 255
-0.007586 1.161049 0.000000 255 255 255 255
0.068715 1.120467 0.000000 255 255 255 255
0.017976 1.201632 0.000000 255 255 255 255
-0.071274 1.199021 0.000000 255 255 255 255
-0.044989 1.199021 0.000000 255 255 255 255
-0.070181 1.197403 0.000000 255 255 255 255
-0.046083 1.197403 0.000000 255 255 255 255
-0.068894 1.195941 0.000000 255 255 255 255
-0.047370 1.195941 0.000000 255 255 255 255
-0.067432 1.194655 0.000000 255 255 255 255
-0.048832 1.194655 0.000000 255 255 255 255
-0.065813 1.193563 0.000000 255 255 255 255
-0.050451 1.193563 0.000000 255 255 255 255
-0.064055 1.192681 0.000000 255 255 255 255
-0.052209 1.192681 0.000000 255 255 255 255
-0.062177 1.192029 0.000000 255 255 255 255
-0.054087 1.192029 0.000000 255 255 255 255
-0.060197 1.191625 0.000000 255 255 255 255
-0.056067 1.191625 0.000000 255 255 255 255
-0.058132 1.191486 0.000000 255 255 255 255
-0.073354 1.120467 0.000000 255 255 255 255
-0.032763 1.180935 0.000000 255 255 255 255
3 0 1 2
3 1 3 2
3 1 4 3
3 4 5 3
3 0 6 1
3 7 5 4
3 8 9 10
3 8 11 9
3 12 11 8
3 12 13 11
3 14 13 12
3 14 15 13
3 16 15 14
3 16 17 15
3 18 17 16
3 18 19 17
3 20 19 18
3 20 21 19
3 22 21 20
3 22 23 21
3 24 23 22
3 24 25 23
3 26 25 24
3 26 27 25
3 28 27 26
3 28 29 27
3 30 29 28
3 30 31 29
3 32 31 30
3 33 31 32
3 33 34 31
3 35 34 33
3 35 36 34
3 37 36 35
3 37 38 36
3 39 40 41
3 42 38 37
3 42 43 38
3 44 43 42
3 44 45 43
3 46 45 44
3 46 47 45
3 48 47 46
3 48 49 47
3 50 49 48
3 50 51 49
3 52 51 50
3 52 53 51
3 54 53 52
3 54 55 53
3 56 55 54
3 56 57 55
3 58 57 56
3 59 39 60
3 59 40 39
3 0 7 6
3 0 5 7
