ply
format ascii 1.0
comment Created by Blender 2.90.0 - www.blender.org
element vertex 320
property float x
property float y
property float z
property uchar red
property uchar green
property uchar blue
property uchar alpha
element face 512
property list uchar uint vertex_indices
end_header
0.725448 -0.484725 0.000000 255 255 255 255
0.671290 -0.550488 0.000000 255 255 255 255
0.722325 -0.482639 0.000000 255 255 255 255
-0.858234 0.159934 0.000000 255 255 255 255
-0.863932 0.085421 0.000000 255 255 255 255
-0.868717 0.074886 0.000000 255 255 255 255
0.765479 -0.409524 0.000000 255 255 255 255
0.773932 -0.401622 0.000000 255 255 255 255
-0.872944 -0.010572 0.000000 255 255 255 255
-0.863997 -0.084764 0.000000 255 255 255 255
-0.866634 -0.096031 0.000000 255 255 255 255
0.854105 -0.180671 0.000000 255 255 255 255
0.830855 -0.251692 0.000000 255 255 255 255
0.852873 -0.169477 0.000000 255 255 255 255
-0.854107 -0.180672 0.000000 255 255 255 255
-0.830858 -0.251693 0.000000 255 255 255 255
-0.831247 -0.263257 0.000000 255 255 255 255
0.872941 -0.010571 0.000000 255 255 255 255
0.863994 -0.084764 0.000000 255 255 255 255
0.869549 0.000167 0.000000 255 255 255 255
-0.802448 -0.343828 0.000000 255 255 255 255
-0.765789 -0.408948 0.000000 255 255 255 255
-0.763915 -0.420366 0.000000 255 255 255 255
0.858231 0.159935 0.000000 255 255 255 255
0.863930 0.085422 0.000000 255 255 255 255
0.852809 0.169805 0.000000 255 255 255 255
-0.719951 -0.493771 0.000000 255 255 255 255
-0.671292 -0.550489 0.000000 255 255 255 255
-0.667226 -0.561321 0.000000 255 255 255 255
0.806073 0.333892 0.000000 255 255 255 255
0.830665 0.252326 0.000000 255 255 255 255
0.802604 0.332454 0.000000 255 255 255 255
-0.609787 -0.624738 0.000000 255 255 255 255
-0.550998 -0.670873 0.000000 255 255 255 255
-0.544897 -0.680705 0.000000 255 255 255 255
0.765786 0.408957 0.000000 255 255 255 255
0.763912 0.420375 0.000000 255 255 255 255
-0.476189 -0.731697 0.000000 255 255 255 255
-0.409529 -0.765477 0.000000 255 255 255 255
-0.401627 -0.773929 0.000000 255 255 255 255
-0.170216 0.855728 0.000000 255 255 255 255
-0.085419 0.863935 0.000000 255 255 255 255
-0.169483 0.852045 0.000000 255 255 255 255
0.624740 0.609790 0.000000 255 255 255 255
0.670875 0.551001 0.000000 255 255 255 255
0.614748 0.614984 0.000000 255 255 255 255
-0.324291 -0.810538 0.000000 255 255 255 255
-0.252322 -0.830664 0.000000 255 255 255 255
-0.242923 -0.837412 0.000000 255 255 255 255
-0.251698 0.830860 0.000000 255 255 255 255
-0.263262 0.831249 0.000000 255 255 255 255
0.493772 0.719954 0.000000 255 255 255 255
0.550490 0.671295 0.000000 255 255 255 255
0.482959 0.723099 0.000000 255 255 255 255
-0.159931 -0.858229 0.000000 255 255 255 255
-0.085419 -0.863928 0.000000 255 255 255 255
-0.074884 -0.868713 0.000000 255 255 255 255
-0.343833 0.802450 0.000000 255 255 255 255
-0.408953 0.765792 0.000000 255 255 255 255
-0.420371 0.763917 0.000000 255 255 255 255
0.343829 0.802451 0.000000 255 255 255 255
0.408950 0.765792 0.000000 255 255 255 255
0.332610 0.803426 0.000000 255 255 255 255
0.010575 -0.872939 0.000000 255 255 255 255
0.084767 -0.863992 0.000000 255 255 255 255
0.096033 -0.866629 0.000000 255 255 255 255
-0.616944 0.616947 0.000000 255 255 255 255
-0.550998 0.670880 0.000000 255 255 255 255
-0.614289 0.614291 0.000000 255 255 255 255
0.170212 0.855728 0.000000 255 255 255 255
0.251694 0.830860 0.000000 255 255 255 255
0.169479 0.852045 0.000000 255 255 255 255
0.333886 -0.806071 0.000000 255 255 255 255
0.252320 -0.830663 0.000000 255 255 255 255
0.332449 -0.802602 0.000000 255 255 255 255
-0.670878 0.551000 0.000000 255 255 255 255
-0.680710 0.544899 0.000000 255 255 255 255
0.085416 0.863935 0.000000 255 255 255 255
0.074881 0.868720 0.000000 255 255 255 255
0.408951 -0.765784 0.000000 255 255 255 255
0.420369 -0.763910 0.000000 255 255 255 255
-0.731702 0.476191 0.000000 255 255 255 255
-0.765482 0.409532 0.000000 255 255 255 255
-0.773934 0.401629 0.000000 255 255 255 255
0.609785 -0.624738 0.000000 255 255 255 255
0.550996 -0.670873 0.000000 255 255 255 255
0.614979 -0.614746 0.000000 255 255 255 255
-0.810542 0.324294 0.000000 255 255 255 255
-0.830668 0.252325 0.000000 255 255 255 255
-0.837416 0.242926 0.000000 255 255 255 255
0.797808 -0.330459 0.000000 255 255 255 255
0.753901 -0.402322 0.000000 255 255 255 255
0.789457 -0.327000 0.000000 255 255 255 255
-0.863964 0.000226 0.000000 255 255 255 255
-0.850479 -0.083191 0.000000 255 255 255 255
-0.858431 -0.084320 0.000000 255 255 255 255
0.817575 -0.248597 0.000000 255 255 255 255
0.829514 -0.236882 0.000000 255 255 255 255
-0.847406 -0.168329 0.000000 255 255 255 255
-0.817907 -0.247513 0.000000 255 255 255 255
-0.825485 -0.250171 0.000000 255 255 255 255
0.850100 -0.154775 0.000000 255 255 255 255
0.850366 -0.084319 0.000000 255 255 255 255
0.859789 -0.070500 0.000000 255 255 255 255
-0.798284 -0.330415 0.000000 255 255 255 255
-0.753903 -0.402322 0.000000 255 255 255 255
-0.760817 -0.406408 0.000000 255 255 255 255
0.847317 0.168773 0.000000 255 255 255 255
0.850366 0.084328 0.000000 255 255 255 255
0.839419 0.167263 0.000000 255 255 255 255
-0.718483 -0.479804 0.000000 255 255 255 255
-0.660927 -0.541671 0.000000 255 255 255 255
-0.666912 -0.547027 0.000000 255 255 255 255
0.797164 0.330201 0.000000 255 255 255 255
0.817575 0.248606 0.000000 255 255 255 255
0.789457 0.327009 0.000000 255 255 255 255
-0.611072 -0.610753 0.000000 255 255 255 255
-0.542552 -0.660203 0.000000 255 255 255 255
-0.547377 -0.666623 0.000000 255 255 255 255
0.753900 0.402330 0.000000 255 255 255 255
0.760814 0.406416 0.000000 255 255 255 255
-0.480178 -0.718232 0.000000 255 255 255 255
-0.403327 -0.753364 0.000000 255 255 255 255
-0.406807 -0.760602 0.000000 255 255 255 255
-0.160355 0.848656 0.000000 255 255 255 255
-0.084325 0.850370 0.000000 255 255 255 255
-0.167260 0.839424 0.000000 255 255 255 255
0.606081 0.614732 0.000000 255 255 255 255
0.660204 0.542555 0.000000 255 255 255 255
0.604223 0.604230 0.000000 255 255 255 255
-0.330831 -0.798109 0.000000 255 255 255 255
-0.248603 -0.817573 0.000000 255 255 255 255
-0.250603 -0.825351 0.000000 255 255 255 255
-0.317653 0.803574 0.000000 255 255 255 255
-0.248603 0.817580 0.000000 255 255 255 255
-0.327809 0.790664 0.000000 255 255 255 255
0.542549 0.660211 0.000000 255 255 255 255
0.536294 0.675723 0.000000 255 255 255 255
-0.168770 -0.847315 0.000000 255 255 255 255
-0.084325 -0.850363 0.000000 255 255 255 255
-0.084769 -0.858382 0.000000 255 255 255 255
-0.479759 0.718012 0.000000 255 255 255 255
-0.403327 0.753371 0.000000 255 255 255 255
-0.474738 0.710498 0.000000 255 255 255 255
0.468315 0.726164 0.000000 255 255 255 255
0.403324 0.753371 0.000000 255 255 255 255
0.394163 0.767366 0.000000 255 255 255 255
-0.000223 -0.863959 0.000000 255 255 255 255
0.083194 -0.850474 0.000000 255 255 255 255
0.084322 -0.858426 0.000000 255 255 255 255
-0.541676 0.660929 0.000000 255 255 255 255
-0.558111 0.657822 0.000000 255 255 255 255
0.168330 0.846270 0.000000 255 255 255 255
0.247514 0.817910 0.000000 255 255 255 255
0.166703 0.838088 0.000000 255 255 255 255
0.330196 -0.797161 0.000000 255 255 255 255
0.248601 -0.817573 0.000000 255 255 255 255
0.327003 -0.789455 0.000000 255 255 255 255
-0.616542 0.604819 0.000000 255 255 255 255
-0.660208 0.542554 0.000000 255 255 255 255
-0.666628 0.547379 0.000000 255 255 255 255
0.084321 0.850370 0.000000 255 255 255 255
0.084766 0.858389 0.000000 255 255 255 255
0.402325 -0.753898 0.000000 255 255 255 255
0.406411 -0.760812 0.000000 255 255 255 255
-0.718237 0.480180 0.000000 255 255 255 255
-0.753369 0.403330 0.000000 255 255 255 255
-0.760607 0.406809 0.000000 255 255 255 255
0.614727 -0.606079 0.000000 255 255 255 255
0.542550 -0.660203 0.000000 255 255 255 255
0.604224 -0.604221 0.000000 255 255 255 255
-0.798114 0.330833 0.000000 255 255 255 255
-0.817578 0.248605 0.000000 255 255 255 255
-0.825356 0.250606 0.000000 255 255 255 255
0.660205 -0.542547 0.000000 255 255 255 255
0.675718 -0.536292 0.000000 255 255 255 255
-0.847320 0.168772 0.000000 255 255 255 255
-0.850368 0.084327 0.000000 255 255 255 255
-0.858387 0.084772 0.000000 255 255 255 255
0.667224 -0.561321 0.000000 255 255 255 255
-0.852812 0.169804 0.000000 255 255 255 255
-0.869552 0.000166 0.000000 255 255 255 255
0.831244 -0.263256 0.000000 255 255 255 255
-0.852875 -0.169478 0.000000 255 255 255 255
0.866632 -0.096030 0.000000 255 255 255 255
-0.803423 -0.332609 0.000000 255 255 255 255
0.868715 0.074887 0.000000 255 255 255 255
-0.723096 -0.482958 0.000000 255 255 255 255
0.837414 0.242927 0.000000 255 255 255 255
-0.614981 -0.614747 0.000000 255 255 255 255
-0.483233 -0.722911 0.000000 255 255 255 255
-0.074884 0.868720 0.000000 255 255 255 255
0.680706 0.544900 0.000000 255 255 255 255
-0.332914 -0.803294 0.000000 255 255 255 255
0.561323 0.667230 0.000000 255 255 255 255
-0.169801 -0.852807 0.000000 255 255 255 255
-0.332614 0.803425 0.000000 255 255 255 255
0.420368 0.763918 0.000000 255 255 255 255
-0.000163 -0.869547 0.000000 255 255 255 255
-0.544897 0.680712 0.000000 255 255 255 255
0.263258 0.831249 0.000000 255 255 255 255
0.242921 -0.837412 0.000000 255 255 255 255
-0.722916 0.483235 0.000000 255 255 255 255
0.544895 -0.680704 0.000000 255 255 255 255
-0.803299 0.332916 0.000000 255 255 255 255
0.754059 -0.419047 0.000000 255 255 255 255
-0.855923 0.000286 0.000000 255 255 255 255
-0.839532 -0.166702 0.000000 255 255 255 255
0.839419 -0.167255 0.000000 255 255 255 255
-0.790878 -0.327283 0.000000 255 255 255 255
0.858384 0.084772 0.000000 255 255 255 255
-0.711831 -0.475287 0.000000 255 255 255 255
0.825353 0.250606 0.000000 255 255 255 255
-0.605429 -0.605025 0.000000 255 255 255 255
-0.475761 -0.711513 0.000000 255 255 255 255
-0.084769 0.858389 0.000000 255 255 255 255
0.666625 0.547380 0.000000 255 255 255 255
-0.327809 -0.790657 0.000000 255 255 255 255
-0.236888 0.829518 0.000000 255 255 255 255
-0.167260 -0.839417 0.000000 255 255 255 255
-0.394167 0.767365 0.000000 255 255 255 255
0.475757 0.711520 0.000000 255 255 255 255
-0.000283 -0.855918 0.000000 255 255 255 255
0.250172 0.825488 0.000000 255 255 255 255
0.250601 -0.825351 0.000000 255 255 255 255
-0.605030 0.605431 0.000000 255 255 255 255
-0.711518 0.475763 0.000000 255 255 255 255
0.547375 -0.666623 0.000000 255 255 255 255
-0.790662 0.327811 0.000000 255 255 255 255
-0.839422 0.167262 0.000000 255 255 255 255
-0.842938 0.093704 0.000000 255 255 255 255
-0.849083 0.010579 0.000000 255 255 255 255
-0.830705 0.176024 0.000000 255 255 255 255
0.648818 -0.546215 0.000000 255 255 255 255
0.706165 -0.471841 0.000000 255 255 255 255
0.600135 -0.600132 0.000000 255 255 255 255
-0.808461 0.256352 0.000000 255 255 255 255
-0.780403 0.334704 0.000000 255 255 255 255
0.476312 -0.712848 0.000000 255 255 255 255
0.471844 -0.706162 0.000000 255 255 255 255
0.480612 -0.719284 0.000000 255 255 255 255
-0.742915 0.409149 0.000000 255 255 255 255
-0.700111 0.480521 0.000000 255 255 255 255
0.390400 -0.752929 0.000000 255 255 255 255
0.324790 -0.784111 0.000000 255 255 255 255
0.093698 0.842940 0.000000 255 255 255 255
-0.000001 0.849302 0.000000 255 255 255 255
0.165575 0.832416 0.000000 255 255 255 255
-0.648820 0.546223 0.000000 255 255 255 255
-0.592915 0.607873 0.000000 255 255 255 255
0.167258 -0.840863 0.000000 255 255 255 255
0.165689 -0.832976 0.000000 255 255 255 255
0.168768 -0.848454 0.000000 255 255 255 255
0.328087 0.792083 0.000000 255 255 255 255
0.325010 0.784654 0.000000 255 255 255 255
0.323101 0.802407 0.000000 255 255 255 255
-0.529791 0.662306 0.000000 255 255 255 255
-0.471525 0.705688 0.000000 255 255 255 255
0.072548 -0.845016 0.000000 255 255 255 255
-0.010577 -0.849078 0.000000 255 255 255 255
0.409143 0.742918 0.000000 255 255 255 255
0.480516 0.700114 0.000000 255 255 255 255
-0.334701 0.780406 0.000000 255 255 255 255
-0.093701 -0.842933 0.000000 255 255 255 255
-0.176021 -0.830700 0.000000 255 255 255 255
0.546217 0.648823 0.000000 255 255 255 255
0.600134 0.600140 0.000000 255 255 255 255
-0.176021 0.830707 0.000000 255 255 255 255
-0.256350 -0.808456 0.000000 255 255 255 255
-0.334701 -0.780399 0.000000 255 255 255 255
0.712850 0.476317 0.000000 255 255 255 255
0.706164 0.471850 0.000000 255 255 255 255
0.719286 0.480617 0.000000 255 255 255 255
-0.000001 0.857344 0.000000 255 255 255 255
-0.000001 0.865084 0.000000 255 255 255 255
-0.409147 -0.742911 0.000000 255 255 255 255
-0.480519 -0.700107 0.000000 255 255 255 255
0.752931 0.390406 0.000000 255 255 255 255
0.784113 0.324795 0.000000 255 255 255 255
-0.546220 -0.648815 0.000000 255 255 255 255
-0.607871 -0.592910 0.000000 255 255 255 255
0.830702 0.176024 0.000000 255 255 255 255
-0.662303 -0.529786 0.000000 255 255 255 255
-0.711863 -0.462928 0.000000 255 255 255 255
0.857339 0.000004 0.000000 255 255 255 255
0.849298 0.000004 0.000000 255 255 255 255
0.864969 0.008562 0.000000 255 255 255 255
-0.752934 -0.390398 0.000000 255 255 255 255
-0.788498 -0.315155 0.000000 255 255 255 255
0.842935 -0.093696 0.000000 255 255 255 255
0.830702 -0.176016 0.000000 255 255 255 255
-0.814630 -0.236006 0.000000 255 255 255 255
-0.834831 -0.155271 0.000000 255 255 255 255
0.808458 -0.256344 0.000000 255 255 255 255
0.784114 -0.324787 0.000000 255 255 255 255
-0.845021 -0.072545 0.000000 255 255 255 255
0.712851 -0.476309 0.000000 255 255 255 255
0.719058 -0.480456 0.000000 255 255 255 255
0.483549 -0.723680 0.000000 255 255 255 255
0.485400 -0.726450 0.000000 255 255 255 255
0.169799 -0.853640 0.000000 255 255 255 255
0.170449 -0.856907 0.000000 255 255 255 255
-0.483551 0.723688 0.000000 255 255 255 255
-0.485402 0.726457 0.000000 255 255 255 255
0.723682 0.483555 0.000000 255 255 255 255
0.726452 0.485405 0.000000 255 255 255 255
-0.000001 0.870371 0.000000 255 255 255 255
-0.000001 0.873702 0.000000 255 255 255 255
0.804113 -0.333071 0.000000 255 255 255 255
0.807191 -0.334346 0.000000 255 255 255 255
0.546218 -0.648815 0.000000 255 255 255 255
0.256348 -0.808456 0.000000 255 255 255 255
0.236007 0.814633 0.000000 255 255 255 255
-0.409147 0.742918 0.000000 255 255 255 255
-0.256350 0.808463 0.000000 255 255 255 255
0.648817 0.546224 0.000000 255 255 255 255
-0.093702 0.842940 0.000000 255 255 255 255
0.808458 0.256353 0.000000 255 255 255 255
0.842935 0.093705 0.000000 255 255 255 255
0.752932 -0.390397 0.000000 255 255 255 255
3 0 1 2
3 3 4 5
3 0 6 7
3 8 9 10
3 11 12 13
3 14 15 16
3 17 18 19
3 20 21 22
3 23 24 25
3 26 27 28
3 29 30 31
3 32 33 34
3 29 35 36
3 37 38 39
3 40 41 42
3 43 44 45
3 46 47 48
3 40 49 50
3 51 52 53
3 54 55 56
3 57 58 59
3 60 61 62
3 63 64 65
3 66 67 68
3 69 70 71
3 72 73 74
3 66 75 76
3 69 77 78
3 72 79 80
3 81 82 83
3 84 85 86
3 87 88 89
3 90 91 92
3 93 94 95
3 90 96 97
3 98 99 100
3 101 102 103
3 104 105 106
3 107 108 109
3 110 111 112
3 113 114 115
3 116 117 118
3 113 119 120
3 121 122 123
3 124 125 126
3 127 128 129
3 130 131 132
3 133 134 135
3 127 136 137
3 138 139 140
3 141 142 143
3 144 145 146
3 147 148 149
3 141 150 151
3 152 153 154
3 155 156 157
3 158 159 160
3 152 161 162
3 155 163 164
3 165 166 167
3 168 169 170
3 171 172 173
3 168 174 175
3 176 177 178
3 0 179 1
3 3 180 4
3 0 2 6
3 8 181 9
3 11 182 12
3 14 183 15
3 17 184 18
3 20 185 21
3 23 186 24
3 26 187 27
3 29 188 30
3 32 189 33
3 29 31 35
3 37 190 38
3 40 191 41
3 43 192 44
3 46 193 47
3 40 42 49
3 51 194 52
3 54 195 55
3 57 196 58
3 60 197 61
3 63 198 64
3 66 199 67
3 69 200 70
3 72 201 73
3 66 68 75
3 69 71 77
3 72 74 79
3 81 202 82
3 84 203 85
3 87 204 88
3 90 205 91
3 93 206 94
3 90 92 96
3 98 207 99
3 101 208 102
3 104 209 105
3 107 210 108
3 110 211 111
3 113 212 114
3 116 213 117
3 113 115 119
3 121 214 122
3 124 215 125
3 127 216 128
3 130 217 131
3 133 218 134
3 127 129 136
3 138 219 139
3 141 220 142
3 144 221 145
3 147 222 148
3 141 143 150
3 152 223 153
3 155 224 156
3 158 225 159
3 152 154 161
3 155 157 163
3 165 226 166
3 168 227 169
3 171 228 172
3 168 170 174
3 176 229 177
3 177 230 231
3 177 229 230
3 229 232 230
3 174 233 234
3 174 170 233
3 170 235 233
3 172 236 232
3 172 228 236
3 228 237 236
3 169 238 239
3 169 227 238
3 227 240 238
3 166 241 237
3 166 226 241
3 226 242 241
3 163 243 239
3 163 157 243
3 157 244 243
3 161 245 246
3 161 154 245
3 154 247 245
3 159 248 242
3 159 225 248
3 225 249 248
3 156 250 251
3 156 224 250
3 224 252 250
3 153 253 254
3 153 223 253
3 223 255 253
3 150 256 249
3 150 143 256
3 143 257 256
3 148 258 251
3 148 222 258
3 222 259 258
3 145 260 254
3 145 221 260
3 221 261 260
3 142 135 262
3 142 220 135
3 220 133 135
3 139 263 259
3 139 219 263
3 219 264 263
3 136 265 261
3 136 129 265
3 129 266 265
3 134 126 267
3 134 218 126
3 218 124 126
3 131 268 264
3 131 217 268
3 217 269 268
3 128 270 271
3 128 216 270
3 216 272 270
3 125 273 246
3 125 215 273
3 215 274 273
3 122 275 269
3 122 214 275
3 214 276 275
3 119 277 271
3 119 115 277
3 115 278 277
3 117 279 276
3 117 213 279
3 213 280 279
3 114 109 281
3 114 212 109
3 212 107 109
3 111 282 280
3 111 211 282
3 211 283 282
3 108 284 285
3 108 210 284
3 210 286 284
3 105 287 283
3 105 209 287
3 209 288 287
3 102 289 285
3 102 208 289
3 208 290 289
3 99 291 288
3 99 207 291
3 207 292 291
3 96 293 290
3 96 92 293
3 92 294 293
3 94 295 292
3 94 206 295
3 206 231 295
3 91 296 234
3 91 205 296
3 205 297 296
3 88 173 176
3 88 204 173
3 204 171 173
3 85 298 240
3 85 203 298
3 203 299 298
3 82 167 171
3 82 202 167
3 202 165 167
3 79 164 240
3 79 74 164
3 74 155 164
3 77 162 274
3 77 71 162
3 71 152 162
3 75 160 165
3 75 68 160
3 68 158 160
3 73 300 252
3 73 201 300
3 201 301 300
3 70 62 255
3 70 200 62
3 200 60 62
3 67 302 141
3 67 199 302
3 199 303 302
3 64 149 252
3 64 198 149
3 198 147 149
3 61 53 144
3 61 197 53
3 197 51 53
3 58 220 141
3 58 196 220
3 196 133 220
3 55 140 147
3 55 195 140
3 195 138 140
3 52 45 127
3 52 194 45
3 194 43 45
3 49 218 133
3 49 42 218
3 42 124 218
3 47 132 138
3 47 193 132
3 193 130 132
3 44 304 272
3 44 192 304
3 192 305 304
3 41 306 274
3 41 191 306
3 191 307 306
3 38 123 130
3 38 190 123
3 190 121 123
3 35 120 272
3 35 31 120
3 31 113 120
3 33 118 121
3 33 189 118
3 189 116 118
3 30 25 107
3 30 188 25
3 188 23 25
3 27 112 116
3 27 187 112
3 187 110 112
3 24 19 286
3 24 186 19
3 186 17 19
3 21 106 110
3 21 185 106
3 185 104 106
3 18 13 101
3 18 184 13
3 184 11 13
3 15 100 104
3 15 183 100
3 183 98 100
3 12 308 90
3 12 182 308
3 182 309 308
3 9 95 98
3 9 181 95
3 181 93 95
3 6 205 90
3 6 2 205
3 2 297 205
3 4 178 93
3 4 180 178
3 180 176 178
3 1 86 168
3 1 179 86
3 179 84 86
3 178 206 93
3 178 177 206
3 177 231 206
3 175 296 297
3 175 174 296
3 174 234 296
3 173 229 176
3 173 172 229
3 172 232 229
3 170 310 235
3 170 169 310
3 169 239 310
3 167 228 171
3 167 166 228
3 166 237 228
3 164 238 240
3 164 163 238
3 163 239 238
3 162 273 274
3 162 161 273
3 161 246 273
3 160 226 165
3 160 159 226
3 159 242 226
3 157 311 244
3 157 156 311
3 156 251 311
3 154 312 247
3 154 153 312
3 153 254 312
3 151 225 158
3 151 150 225
3 150 249 225
3 149 250 252
3 149 148 250
3 148 251 250
3 146 253 255
3 146 145 253
3 145 254 253
3 143 313 257
3 143 142 313
3 142 262 313
3 140 222 147
3 140 139 222
3 139 259 222
3 137 221 144
3 137 136 221
3 136 261 221
3 135 314 262
3 135 134 314
3 134 267 314
3 132 219 138
3 132 131 219
3 131 264 219
3 129 315 266
3 129 128 315
3 128 271 315
3 126 316 267
3 126 125 316
3 125 246 316
3 123 217 130
3 123 122 217
3 122 269 217
3 120 270 272
3 120 119 270
3 119 271 270
3 118 214 121
3 118 117 214
3 117 276 214
3 115 317 278
3 115 114 317
3 114 281 317
3 112 213 116
3 112 111 213
3 111 280 213
3 109 318 281
3 109 108 318
3 108 285 318
3 106 211 110
3 106 105 211
3 105 283 211
3 103 284 286
3 103 102 284
3 102 285 284
3 100 209 104
3 100 99 209
3 99 288 209
3 97 208 101
3 97 96 208
3 96 290 208
3 95 207 98
3 95 94 207
3 94 292 207
3 92 319 294
3 92 91 319
3 91 234 319
3 89 180 3
3 89 88 180
3 88 176 180
3 86 227 168
3 86 85 227
3 85 240 227
3 83 204 87
3 83 82 204
3 82 171 204
3 80 298 299
3 80 79 298
3 79 240 298
3 78 306 307
3 78 77 306
3 77 274 306
3 76 202 81
3 76 75 202
3 75 165 202
3 74 224 155
3 74 73 224
3 73 252 224
3 71 223 152
3 71 70 223
3 70 255 223
3 68 151 158
3 68 67 151
3 67 141 151
3 65 300 301
3 65 64 300
3 64 252 300
3 62 146 255
3 62 61 146
3 61 144 146
3 59 302 303
3 59 58 302
3 58 141 302
3 56 198 63
3 56 55 198
3 55 147 198
3 53 137 144
3 53 52 137
3 52 127 137
3 50 196 57
3 50 49 196
3 49 133 196
3 48 195 54
3 48 47 195
3 47 138 195
3 45 216 127
3 45 44 216
3 44 272 216
3 42 215 124
3 42 41 215
3 41 274 215
3 39 193 46
3 39 38 193
3 38 130 193
3 36 304 305
3 36 35 304
3 35 272 304
3 34 190 37
3 34 33 190
3 33 121 190
3 31 212 113
3 31 30 212
3 30 107 212
3 28 189 32
3 28 27 189
3 27 116 189
3 25 210 107
3 25 24 210
3 24 286 210
3 22 187 26
3 22 21 187
3 21 110 187
3 19 103 286
3 19 18 103
3 18 101 103
3 16 185 20
3 16 15 185
3 15 104 185
3 13 97 101
3 13 12 97
3 12 90 97
3 10 183 14
3 10 9 183
3 9 98 183
3 7 308 309
3 7 6 308
3 6 90 308
3 5 181 8
3 5 4 181
3 4 93 181
3 2 175 297
3 2 1 175
3 1 168 175
