ply
format ascii 1.0
comment Created by Blender 3.6.2 - www.blender.org
element vertex 185
property float x
property float y
property float z
property float nx
property float ny
property float nz
property float s
property float t
element face 183
property list uchar uint vertex_indices
end_header
0.244805 0.237729 0.000000 0.000000 0.000000 1.000000 0.869565 0.000000
0.247792 0.237865 0.000000 0.000000 0.000000 1.000000 0.880435 0.000000
0.246816 0.237865 0.000000 0.000000 0.000000 1.000000 0.875000 0.000000
0.250490 0.237865 0.000000 0.000000 0.000000 1.000000 0.885870 0.000000
0.254565 0.237865 0.000000 0.000000 0.000000 1.000000 0.891304 0.000000
0.259673 0.237865 0.000000 0.000000 0.000000 1.000000 0.896739 0.000000
0.265470 0.237865 0.000000 0.000000 0.000000 1.000000 0.902174 0.000000
0.271612 0.237865 0.000000 0.000000 0.000000 1.000000 0.907609 0.000000
0.277753 0.237865 0.000000 0.000000 0.000000 1.000000 0.913043 0.000000
0.283550 0.237865 0.000000 0.000000 0.000000 1.000000 0.918478 0.000000
0.288658 0.237865 0.000000 0.000000 0.000000 1.000000 0.923913 0.000000
0.292733 0.237865 0.000000 0.000000 0.000000 1.000000 0.929348 0.000000
0.295431 0.237865 0.000000 0.000000 0.000000 1.000000 0.934783 0.000000
0.296407 0.237865 0.000000 0.000000 0.000000 1.000000 0.940217 0.000000
0.298418 0.237729 0.000000 0.000000 0.000000 1.000000 0.945652 0.000000
-0.293734 0.236557 0.000000 0.000000 0.000000 1.000000 0.576087 0.000000
-0.279332 0.237646 0.000000 0.000000 0.000000 1.000000 0.586957 0.000000
-0.286613 0.237755 0.000000 0.000000 0.000000 1.000000 0.581522 0.000000
-0.016027 0.236557 0.000000 0.000000 0.000000 1.000000 0.711957 0.000000
-0.001625 0.237646 0.000000 0.000000 0.000000 1.000000 0.722826 0.000000
-0.008906 0.237755 0.000000 0.000000 0.000000 1.000000 0.717391 0.000000
0.242873 0.237332 0.000000 0.000000 0.000000 1.000000 0.864130 0.000000
0.300350 0.237332 0.000000 0.000000 0.000000 1.000000 0.951087 0.000000
-0.272077 0.236152 0.000000 0.000000 0.000000 1.000000 0.592391 0.000000
0.005630 0.236152 0.000000 0.000000 0.000000 1.000000 0.728261 0.000000
0.241040 0.236692 0.000000 0.000000 0.000000 1.000000 0.858696 0.000000
0.302183 0.236692 0.000000 0.000000 0.000000 1.000000 0.956522 0.000000
0.239323 0.235827 0.000000 0.000000 0.000000 1.000000 0.853261 0.000000
0.303901 0.235827 0.000000 0.000000 0.000000 1.000000 0.961957 0.000000
-0.300509 0.234131 0.000000 0.000000 0.000000 1.000000 0.570652 0.000000
-0.022801 0.234131 0.000000 0.000000 0.000000 1.000000 0.706522 0.000000
-0.265033 0.233194 0.000000 0.000000 0.000000 1.000000 0.597826 0.000000
0.012674 0.233194 0.000000 0.000000 0.000000 1.000000 0.733696 0.000000
0.237740 0.234756 0.000000 0.000000 0.000000 1.000000 0.847826 0.000000
0.305483 0.234756 0.000000 0.000000 0.000000 1.000000 0.967391 0.000000
0.236309 0.233496 0.000000 0.000000 0.000000 1.000000 0.842391 0.000000
0.306914 0.233496 0.000000 0.000000 0.000000 1.000000 0.972826 0.000000
-0.306751 0.230556 0.000000 0.000000 0.000000 1.000000 0.565217 0.000000
-0.029044 0.230556 0.000000 0.000000 0.000000 1.000000 0.701087 0.000000
0.235049 0.232066 0.000000 0.000000 0.000000 1.000000 0.836957 0.000000
0.308174 0.232066 0.000000 0.000000 0.000000 1.000000 0.978261 0.000000
-0.258388 0.228693 0.000000 0.000000 0.000000 1.000000 0.603261 0.000000
0.019320 0.228693 0.000000 0.000000 0.000000 1.000000 0.739130 0.000000
0.233978 0.230483 0.000000 0.000000 0.000000 1.000000 0.831522 0.000000
0.309245 0.230483 0.000000 0.000000 0.000000 1.000000 0.983696 0.000000
-0.312276 0.225911 0.000000 0.000000 0.000000 1.000000 0.559783 0.000000
-0.034569 0.225911 0.000000 0.000000 0.000000 1.000000 0.695652 0.000000
0.233113 0.228767 0.000000 0.000000 0.000000 1.000000 0.826087 0.000000
0.310110 0.228767 0.000000 0.000000 0.000000 1.000000 0.989130 0.000000
0.232473 0.226934 0.000000 0.000000 0.000000 1.000000 0.820652 0.000000
0.310750 0.226934 0.000000 0.000000 0.000000 1.000000 0.994565 0.000000
-0.254204 0.224903 0.000000 0.000000 0.000000 1.000000 0.608696 0.000000
0.023503 0.224903 0.000000 0.000000 0.000000 1.000000 0.744565 0.000000
0.232076 0.225002 0.000000 0.000000 0.000000 1.000000 0.815217 0.000000
0.311148 0.225002 0.000000 0.000000 0.000000 1.000000 1.000000 0.000000
-0.316897 0.220274 0.000000 0.000000 0.000000 1.000000 0.554348 0.000000
-0.039190 0.220274 0.000000 0.000000 0.000000 1.000000 0.690217 0.000000
0.231939 0.222991 0.000000 0.000000 0.000000 1.000000 0.809783 0.000000
0.311284 0.222991 0.000000 0.000000 0.000000 1.000000 0.000000 0.000000
-0.242638 0.214425 0.000000 0.000000 0.000000 1.000000 0.614130 0.000000
0.035069 0.214425 0.000000 0.000000 0.000000 1.000000 0.750000 0.000000
0.231939 0.036074 0.000000 0.000000 0.000000 1.000000 0.804348 0.000000
0.311284 -0.223230 0.000000 0.000000 0.000000 1.000000 0.005435 0.000000
-0.320428 0.213724 0.000000 0.000000 0.000000 1.000000 0.548913 0.000000
-0.042720 0.213724 0.000000 0.000000 0.000000 1.000000 0.684783 0.000000
-0.225166 0.198596 0.000000 0.000000 0.000000 1.000000 0.619565 0.000000
0.052541 0.198596 0.000000 0.000000 0.000000 1.000000 0.755435 0.000000
-0.322682 0.206340 0.000000 0.000000 0.000000 1.000000 0.543478 0.000000
-0.044975 0.206340 0.000000 0.000000 0.000000 1.000000 0.679348 0.000000
-0.323475 0.198201 0.000000 0.000000 0.000000 1.000000 0.538043 0.000000
-0.045768 0.198201 0.000000 0.000000 0.000000 1.000000 0.673913 0.000000
-0.203264 0.178755 0.000000 0.000000 0.000000 1.000000 0.625000 0.000000
0.074443 0.178755 0.000000 0.000000 0.000000 1.000000 0.760870 0.000000
-0.323475 0.190397 0.000000 0.000000 0.000000 1.000000 0.532609 0.000000
-0.045768 0.036074 0.000000 0.000000 0.000000 1.000000 0.668478 0.000000
-0.323475 0.168820 0.000000 0.000000 0.000000 1.000000 0.527174 0.000000
-0.178409 0.156238 0.000000 0.000000 0.000000 1.000000 0.630435 0.000000
0.099298 0.156238 0.000000 0.000000 0.000000 1.000000 0.766304 0.000000
-0.323475 0.136226 0.000000 0.000000 0.000000 1.000000 0.521739 0.000000
-0.152078 0.132384 0.000000 0.000000 0.000000 1.000000 0.635870 0.000000
0.125629 0.132384 0.000000 0.000000 0.000000 1.000000 0.771739 0.000000
-0.323475 0.095368 0.000000 0.000000 0.000000 1.000000 0.516304 0.000000
-0.125747 0.108529 0.000000 0.000000 0.000000 1.000000 0.641304 0.000000
0.151961 0.108529 0.000000 0.000000 0.000000 1.000000 0.777174 0.000000
-0.100892 0.086012 0.000000 0.000000 0.000000 1.000000 0.646739 0.000000
0.176815 0.086012 0.000000 0.000000 0.000000 1.000000 0.782609 0.000000
-0.323475 0.049002 0.000000 0.000000 0.000000 1.000000 0.510870 0.000000
-0.078990 0.066171 0.000000 0.000000 0.000000 1.000000 0.652174 0.000000
0.198717 0.066171 0.000000 0.000000 0.000000 1.000000 0.788043 0.000000
-0.061518 0.050342 0.000000 0.000000 0.000000 1.000000 0.657609 0.000000
0.216189 0.050342 0.000000 0.000000 0.000000 1.000000 0.793478 0.000000
-0.049952 0.039864 0.000000 0.000000 0.000000 1.000000 0.663043 0.000000
0.227756 0.039864 0.000000 0.000000 0.000000 1.000000 0.798913 0.000000
-0.323475 -0.000119 0.000000 0.000000 0.000000 1.000000 0.505435 0.000000
0.231939 -0.034949 0.000000 0.000000 0.000000 1.000000 0.266304 0.000000
-0.323475 -0.049240 0.000000 0.000000 0.000000 1.000000 0.500000 0.000000
-0.045768 -0.034949 0.000000 0.000000 0.000000 1.000000 0.402174 0.000000
-0.258388 -0.228931 0.000000 0.000000 0.000000 1.000000 0.407609 0.000000
-0.045768 -0.038166 0.000000 0.000000 0.000000 1.000000 0.396739 0.000000
0.019320 -0.228931 0.000000 0.000000 0.000000 1.000000 0.271739 0.000000
0.231939 -0.038654 0.000000 0.000000 0.000000 1.000000 0.260870 0.000000
-0.045768 -0.047060 0.000000 0.000000 0.000000 1.000000 0.391304 0.000000
0.231939 -0.048896 0.000000 0.000000 0.000000 1.000000 0.255435 0.000000
-0.045768 -0.060495 0.000000 0.000000 0.000000 1.000000 0.385870 0.000000
0.231939 -0.064368 0.000000 0.000000 0.000000 1.000000 0.250000 0.000000
-0.323475 -0.095607 0.000000 0.000000 0.000000 1.000000 0.494565 0.000000
-0.045768 -0.077336 0.000000 0.000000 0.000000 1.000000 0.380435 0.000000
0.231939 -0.083763 0.000000 0.000000 0.000000 1.000000 0.244565 0.000000
-0.045768 -0.096447 0.000000 0.000000 0.000000 1.000000 0.375000 0.000000
0.231939 -0.105772 0.000000 0.000000 0.000000 1.000000 0.239130 0.000000
-0.323475 -0.136464 0.000000 0.000000 0.000000 1.000000 0.489130 0.000000
-0.045768 -0.116694 0.000000 0.000000 0.000000 1.000000 0.369565 0.000000
0.231939 -0.129089 0.000000 0.000000 0.000000 1.000000 0.233696 0.000000
-0.045768 -0.136941 0.000000 0.000000 0.000000 1.000000 0.364130 0.000000
0.231939 -0.152407 0.000000 0.000000 0.000000 1.000000 0.228261 0.000000
-0.323475 -0.169059 0.000000 0.000000 0.000000 1.000000 0.483696 0.000000
-0.045768 -0.156053 0.000000 0.000000 0.000000 1.000000 0.358696 0.000000
0.231939 -0.174416 0.000000 0.000000 0.000000 1.000000 0.222826 0.000000
-0.045768 -0.172894 0.000000 0.000000 0.000000 1.000000 0.353261 0.000000
-0.323475 -0.190635 0.000000 0.000000 0.000000 1.000000 0.478261 0.000000
-0.045768 -0.186329 0.000000 0.000000 0.000000 1.000000 0.347826 0.000000
0.231939 -0.193811 0.000000 0.000000 0.000000 1.000000 0.217391 0.000000
-0.045768 -0.195223 0.000000 0.000000 0.000000 1.000000 0.342391 0.000000
-0.323475 -0.198440 0.000000 0.000000 0.000000 1.000000 0.472826 0.000000
0.231939 -0.209283 0.000000 0.000000 0.000000 1.000000 0.211957 0.000000
-0.045768 -0.198440 0.000000 0.000000 0.000000 1.000000 0.336957 0.000000
-0.322682 -0.206581 0.000000 0.000000 0.000000 1.000000 0.467391 0.000000
-0.044975 -0.206581 0.000000 0.000000 0.000000 1.000000 0.331522 0.000000
-0.320428 -0.213971 0.000000 0.000000 0.000000 1.000000 0.461957 0.000000
-0.042720 -0.213971 0.000000 0.000000 0.000000 1.000000 0.326087 0.000000
0.231939 -0.219525 0.000000 0.000000 0.000000 1.000000 0.206522 0.000000
-0.316897 -0.220530 0.000000 0.000000 0.000000 1.000000 0.456522 0.000000
-0.039190 -0.220530 0.000000 0.000000 0.000000 1.000000 0.320652 0.000000
0.231939 -0.223230 0.000000 0.000000 0.000000 1.000000 0.201087 0.000000
-0.312276 -0.226177 0.000000 0.000000 0.000000 1.000000 0.451087 0.000000
-0.034569 -0.226177 0.000000 0.000000 0.000000 1.000000 0.315217 0.000000
0.232076 -0.225241 0.000000 0.000000 0.000000 1.000000 0.195652 0.000000
0.311148 -0.225241 0.000000 0.000000 0.000000 1.000000 0.010870 0.000000
0.232473 -0.227172 0.000000 0.000000 0.000000 1.000000 0.190217 0.000000
0.310750 -0.227172 0.000000 0.000000 0.000000 1.000000 0.016304 0.000000
-0.306751 -0.230832 0.000000 0.000000 0.000000 1.000000 0.445652 0.000000
-0.029044 -0.230832 0.000000 0.000000 0.000000 1.000000 0.309783 0.000000
0.233113 -0.229005 0.000000 0.000000 0.000000 1.000000 0.184783 0.000000
0.310110 -0.229005 0.000000 0.000000 0.000000 1.000000 0.021739 0.000000
-0.265033 -0.233459 0.000000 0.000000 0.000000 1.000000 0.413043 0.000000
0.012674 -0.233459 0.000000 0.000000 0.000000 1.000000 0.277174 0.000000
0.233978 -0.230722 0.000000 0.000000 0.000000 1.000000 0.179348 0.000000
0.309245 -0.230722 0.000000 0.000000 0.000000 1.000000 0.027174 0.000000
0.235049 -0.232304 0.000000 0.000000 0.000000 1.000000 0.173913 0.000000
0.308174 -0.232304 0.000000 0.000000 0.000000 1.000000 0.032609 0.000000
-0.300509 -0.234416 0.000000 0.000000 0.000000 1.000000 0.440217 0.000000
-0.022801 -0.234416 0.000000 0.000000 0.000000 1.000000 0.304348 0.000000
0.236309 -0.233734 0.000000 0.000000 0.000000 1.000000 0.168478 0.000000
0.306914 -0.233734 0.000000 0.000000 0.000000 1.000000 0.038043 0.000000
-0.272077 -0.236434 0.000000 0.000000 0.000000 1.000000 0.418478 0.000000
0.005630 -0.236434 0.000000 0.000000 0.000000 1.000000 0.282609 0.000000
0.237740 -0.234994 0.000000 0.000000 0.000000 1.000000 0.163043 0.000000
0.305483 -0.234994 0.000000 0.000000 0.000000 1.000000 0.043478 0.000000
-0.293734 -0.236848 0.000000 0.000000 0.000000 1.000000 0.434783 0.000000
-0.016027 -0.236848 0.000000 0.000000 0.000000 1.000000 0.298913 0.000000
0.239323 -0.236065 0.000000 0.000000 0.000000 1.000000 0.157609 0.000000
0.303901 -0.236065 0.000000 0.000000 0.000000 1.000000 0.048913 0.000000
0.241040 -0.236930 0.000000 0.000000 0.000000 1.000000 0.152174 0.000000
0.302183 -0.236930 0.000000 0.000000 0.000000 1.000000 0.054348 0.000000
-0.279332 -0.237937 0.000000 0.000000 0.000000 1.000000 0.423913 0.000000
-0.001625 -0.237937 0.000000 0.000000 0.000000 1.000000 0.288043 0.000000
-0.286613 -0.238049 0.000000 0.000000 0.000000 1.000000 0.429348 0.000000
-0.008906 -0.238049 0.000000 0.000000 0.000000 1.000000 0.293478 0.000000
0.242873 -0.237570 0.000000 0.000000 0.000000 1.000000 0.146739 0.000000
0.300350 -0.237570 0.000000 0.000000 0.000000 1.000000 0.059783 0.000000
0.244805 -0.237967 0.000000 0.000000 0.000000 1.000000 0.141304 0.000000
0.298418 -0.237967 0.000000 0.000000 0.000000 1.000000 0.065217 0.000000
0.246816 -0.238104 0.000000 0.000000 0.000000 1.000000 0.135870 0.000000
0.296407 -0.238104 0.000000 0.000000 0.000000 1.000000 0.070652 0.000000
0.247792 -0.238104 0.000000 0.721063 -0.692870 0.000000 0.130435 0.000000
0.250490 -0.238104 0.000000 0.724799 -0.688960 0.000000 0.125000 0.000000
0.254565 -0.238104 0.000000 0.730325 -0.683100 0.000000 0.119565 0.000000
0.259673 -0.238104 0.000000 0.737055 -0.675833 0.000000 0.114130 0.000000
0.265470 -0.238104 0.000000 0.744436 -0.667694 0.000000 0.108696 0.000000
0.271611 -0.238104 0.000000 0.751968 -0.659200 0.000000 0.103261 0.000000
0.277753 -0.238104 0.000000 0.759216 -0.650838 0.000000 0.097826 0.000000
0.283550 -0.238104 0.000000 0.765809 -0.643068 0.000000 0.092391 0.000000
0.288658 -0.238104 0.000000 0.771425 -0.636320 0.000000 0.086957 0.000000
0.292733 -0.238104 0.000000 0.775780 -0.631004 0.000000 0.081522 0.000000
0.295431 -0.238104 0.000000 0.778603 -0.627517 0.000000 0.076087 0.000000
3 0 1 2
3 0 3 1
3 0 4 3
3 0 5 4
3 0 6 5
3 0 7 6
3 0 8 7
3 0 9 8
3 0 10 9
3 0 11 10
3 0 12 11
3 0 13 12
3 0 14 13
3 15 16 17
3 18 19 20
3 21 14 0
3 21 22 14
3 15 23 16
3 18 24 19
3 25 22 21
3 25 26 22
3 27 26 25
3 27 28 26
3 29 23 15
3 30 24 18
3 29 31 23
3 30 32 24
3 33 28 27
3 33 34 28
3 35 34 33
3 35 36 34
3 37 31 29
3 38 32 30
3 39 36 35
3 39 40 36
3 37 41 31
3 38 42 32
3 43 40 39
3 43 44 40
3 45 41 37
3 46 42 38
3 47 44 43
3 47 48 44
3 49 48 47
3 49 50 48
3 45 51 41
3 46 52 42
3 53 50 49
3 53 54 50
3 55 51 45
3 56 52 46
3 57 54 53
3 57 58 54
3 55 59 51
3 56 60 52
3 61 58 57
3 61 62 58
3 63 59 55
3 64 60 56
3 63 65 59
3 64 66 60
3 67 65 63
3 68 66 64
3 69 65 67
3 70 66 68
3 69 71 65
3 70 72 66
3 73 71 69
3 74 72 70
3 75 71 73
3 75 76 71
3 74 77 72
3 78 76 75
3 78 79 76
3 74 80 77
3 81 79 78
3 81 82 79
3 74 83 80
3 81 84 82
3 74 85 83
3 86 84 81
3 86 87 84
3 74 88 85
3 86 89 87
3 74 90 88
3 86 91 89
3 74 92 90
3 93 91 86
3 93 74 91
3 74 61 92
3 93 61 74
3 93 94 61
3 94 62 61
3 95 96 93
3 96 94 93
3 95 97 96
3 98 94 96
3 98 99 94
3 100 62 94
3 101 99 98
3 102 62 100
3 103 99 101
3 104 62 102
3 105 97 95
3 106 99 103
3 107 62 104
3 108 99 106
3 109 62 107
3 110 97 105
3 111 99 108
3 112 62 109
3 113 99 111
3 114 62 112
3 115 97 110
3 116 99 113
3 117 62 114
3 118 99 116
3 119 97 115
3 120 99 118
3 121 62 117
3 122 99 120
3 123 97 119
3 124 62 121
3 125 99 122
3 126 97 123
3 127 99 125
3 128 97 126
3 129 99 127
3 130 62 124
3 131 97 128
3 132 99 129
3 133 62 130
3 134 97 131
3 135 99 132
3 136 62 133
3 136 137 62
3 138 137 136
3 138 139 137
3 140 97 134
3 141 99 135
3 142 139 138
3 142 143 139
3 140 144 97
3 141 145 99
3 146 143 142
3 146 147 143
3 148 147 146
3 148 149 147
3 150 144 140
3 151 145 141
3 152 149 148
3 152 153 149
3 150 154 144
3 151 155 145
3 156 153 152
3 156 157 153
3 158 154 150
3 159 155 151
3 160 157 156
3 160 161 157
3 162 161 160
3 162 163 161
3 158 164 154
3 159 165 155
3 166 164 158
3 167 165 159
3 168 163 162
3 168 169 163
3 170 169 168
3 170 171 169
3 172 171 170
3 172 173 171
3 174 173 172
3 175 173 174
3 176 173 175
3 177 173 176
3 178 173 177
3 179 173 178
3 180 173 179
3 181 173 180
3 182 173 181
3 183 173 182
3 184 173 183
