ply
format ascii 1.0
comment Created by Blender 2.91.0 - www.blender.org
element vertex 336
property float x
property float y
property float z
element face 334
property list uchar uint vertex_indices
end_header
-0.010156 0.068409 0.000014
0.011150 0.068410 0.000014
0.000497 0.068925 0.000014
0.021529 0.066895 0.000014
-0.020536 0.066893 0.000014
0.031590 0.064425 0.000014
-0.030598 0.064422 0.000014
0.041286 0.061046 0.000014
-0.040295 0.061042 0.000014
0.050572 0.056803 0.000014
-0.049582 0.056798 0.000014
0.059402 0.051743 0.000014
-0.058412 0.051736 0.000014
0.000497 0.052101 0.000014
-0.002837 0.051991 0.000014
0.003831 0.051991 0.000014
-0.006139 0.051663 0.000014
0.007132 0.051663 0.000014
0.067730 0.045910 0.000014
-0.066741 0.045901 0.000014
-0.009398 0.051122 0.000014
0.010392 0.051122 0.000014
-0.012605 0.050371 0.000014
0.013598 0.050371 0.000014
-0.015750 0.049416 0.000014
0.016743 0.049416 0.000014
-0.018822 0.048259 0.000014
0.019816 0.048259 0.000014
-0.021814 0.046904 0.000014
0.022807 0.046904 0.000014
-0.024713 0.045357 0.000014
0.025707 0.045357 0.000014
0.075511 0.039349 0.000014
-0.074522 0.039340 0.000014
-0.027511 0.043621 0.000014
0.028505 0.043621 0.000014
-0.030199 0.041699 0.000014
0.031192 0.041699 0.000014
-0.032765 0.039597 0.000014
0.033758 0.039597 0.000014
-0.035200 0.037318 0.000014
0.036194 0.037318 0.000014
0.082698 0.032107 0.000014
-0.081709 0.032098 0.000014
-0.037480 0.034883 0.000014
0.038474 0.034883 0.000014
-0.000254 0.035258 0.000014
0.002502 0.035221 0.000014
0.000497 0.035276 0.000014
-0.001003 0.035222 0.000014
-0.001751 0.035169 0.000014
0.004492 0.035048 0.000014
-0.002498 0.035100 0.000014
-0.003242 0.035014 0.000014
0.006461 0.034757 0.000014
-0.003985 0.034911 0.000014
-0.004724 0.034792 0.000014
-0.039583 0.032317 0.000014
0.040576 0.032317 0.000014
-0.005461 0.034656 0.000014
0.008405 0.034351 0.000014
-0.006196 0.034504 0.000014
-0.006926 0.034335 0.000014
0.010318 0.033833 0.000014
-0.007653 0.034150 0.000014
-0.008376 0.033948 0.000014
-0.007808 0.033125 0.000014
0.012195 0.033203 0.000014
0.014032 0.032463 0.000014
-0.007292 0.032274 0.000014
0.015824 0.031616 0.000014
-0.041505 0.029630 0.000014
0.042498 0.029630 0.000014
-0.006828 0.031397 0.000014
0.089246 0.024229 0.000014
-0.088256 0.024221 0.000014
0.017565 0.030662 0.000014
-0.006419 0.030496 0.000014
0.019252 0.029605 0.000014
-0.006063 0.029574 0.000014
-0.043242 0.026833 0.000014
0.044235 0.026833 0.000014
0.020878 0.028445 0.000014
-0.005763 0.028634 0.000014
-0.005519 0.027677 0.000014
0.022439 0.027185 0.000014
-0.005331 0.026707 0.000014
0.023922 0.025834 0.000014
-0.044789 0.023934 0.000014
0.045783 0.023934 0.000014
-0.005201 0.025726 0.000014
0.025316 0.024404 0.000014
-0.005128 0.024737 0.000014
-0.005115 0.023742 0.000014
0.026618 0.022898 0.000014
0.095110 0.015760 0.000014
-0.094119 0.015753 0.000014
-0.046144 0.020943 0.000014
0.047137 0.020943 0.000014
-0.005160 0.022743 0.000014
0.027825 0.021323 0.000014
-0.005265 0.021748 0.000014
-0.005429 0.020766 0.000014
0.028935 0.019681 0.000014
-0.047301 0.017871 0.000014
0.048295 0.017871 0.000014
-0.005649 0.019799 0.000014
-0.005926 0.018849 0.000014
0.029946 0.017978 0.000014
-0.006257 0.017918 0.000014
0.030854 0.016219 0.000014
-0.006643 0.017009 0.000014
-0.048257 0.014727 0.000014
0.049251 0.014727 0.000014
-0.007081 0.016125 0.000014
0.031658 0.014407 0.000014
-0.007571 0.015267 0.000014
0.100243 0.006745 0.000014
-0.099250 0.006742 0.000014
-0.008111 0.014438 0.000014
-0.049008 0.011521 0.000014
0.050001 0.011521 0.000014
-0.008702 0.013640 0.000014
0.032354 0.012549 0.000014
-0.009340 0.012876 0.000014
-0.010026 0.012148 0.000014
0.032941 0.010647 0.000014
-0.010754 0.011463 0.000014
-0.049549 0.008262 0.000014
0.050542 0.008262 0.000014
-0.011518 0.010824 0.000014
-0.012316 0.010234 0.000014
0.033416 0.008707 0.000014
-0.032298 0.008549 0.000014
-0.031007 0.009931 0.000014
-0.031830 0.010499 0.000014
-0.013145 0.009694 0.000014
-0.030156 0.009415 0.000014
-0.014003 0.009204 0.000014
-0.029278 0.008951 0.000014
-0.014888 0.008766 0.000014
-0.028377 0.008542 0.000014
-0.015797 0.008381 0.000014
0.033775 0.006734 0.000014
-0.032647 0.006582 0.000014
-0.027455 0.008187 0.000014
-0.016728 0.008049 0.000014
-0.049876 0.004961 0.000014
0.050870 0.004961 0.000014
-0.026515 0.007887 0.000014
-0.017678 0.007773 0.000014
-0.025558 0.007642 0.000014
-0.018645 0.007552 0.000014
-0.024588 0.007455 0.000014
-0.019628 0.007389 0.000014
-0.023607 0.007324 0.000014
-0.020622 0.007284 0.000014
-0.022617 0.007252 0.000014
-0.021621 0.007238 0.000014
0.100436 0.006345 0.000014
-0.099442 0.006342 0.000014
0.034017 0.004742 0.000014
-0.032877 0.004606 0.000014
0.100612 0.005939 0.000014
-0.099619 0.005936 0.000014
0.100772 0.005527 0.000014
-0.099779 0.005523 0.000014
0.100916 0.005109 0.000014
-0.099923 0.005106 0.000014
0.101043 0.004686 0.000014
-0.100050 0.004683 0.000014
-0.049987 0.001628 0.000014
0.050980 0.001628 0.000014
0.034138 0.002749 0.000014
0.101154 0.004259 0.000014
-0.100161 0.004256 0.000014
-0.032990 0.002624 0.000014
0.101248 0.003828 0.000014
-0.100255 0.003825 0.000014
0.101325 0.003393 0.000014
-0.100332 0.003390 0.000014
0.101385 0.002956 0.000014
-0.100392 0.002952 0.000014
0.101429 0.002516 0.000014
-0.100435 0.002512 0.000014
0.034141 0.000759 0.000014
-0.032986 0.000642 0.000014
0.101455 0.002073 0.000014
-0.100461 0.002070 0.000014
0.101463 0.001630 0.000014
-0.100470 0.001626 0.000014
0.101455 0.001186 0.000014
-0.049876 -0.001705 0.000014
0.050872 -0.001706 0.000014
-0.100461 0.001183 0.000014
0.101429 0.000744 0.000014
-0.100435 0.000740 0.000014
0.034026 -0.001223 0.000014
0.101386 0.000304 0.000014
-0.100392 0.000300 0.000014
-0.032865 -0.001334 0.000014
0.101325 -0.000134 0.000014
-0.100332 -0.000137 0.000014
0.101248 -0.000569 0.000014
-0.100255 -0.000572 0.000014
0.101154 -0.001000 0.000014
-0.100161 -0.001003 0.000014
0.101043 -0.001427 0.000014
-0.100050 -0.001430 0.000014
0.033795 -0.003191 0.000014
-0.032627 -0.003300 0.000014
0.100916 -0.001850 0.000014
-0.099923 -0.001853 0.000014
-0.049549 -0.005006 0.000014
0.050545 -0.005007 0.000014
0.100772 -0.002267 0.000014
-0.099779 -0.002271 0.000014
0.100612 -0.002680 0.000014
-0.099619 -0.002683 0.000014
0.100436 -0.003086 0.000014
-0.099442 -0.003089 0.000014
0.100243 -0.003486 0.000014
-0.099250 -0.003489 0.000014
0.033449 -0.005140 0.000014
-0.032274 -0.005250 0.000014
0.095112 -0.012497 0.000014
-0.094117 -0.012504 0.000014
-0.049008 -0.008265 0.000014
0.050005 -0.008266 0.000014
0.032988 -0.007066 0.000014
-0.031806 -0.007179 0.000014
0.032414 -0.008963 0.000014
-0.031222 -0.009081 0.000014
-0.048257 -0.011471 0.000014
0.049256 -0.011473 0.000014
0.031728 -0.010825 0.000014
-0.030525 -0.010952 0.000014
0.030930 -0.012649 0.000014
-0.029713 -0.012787 0.000014
-0.047301 -0.014615 0.000014
0.048300 -0.014618 0.000014
0.089250 -0.020965 0.000014
-0.088253 -0.020973 0.000014
0.030023 -0.014428 0.000014
-0.028793 -0.014570 0.000014
0.029007 -0.016157 0.000014
-0.027773 -0.016287 0.000014
-0.046144 -0.017687 0.000014
0.047144 -0.017691 0.000014
0.027889 -0.017823 0.000014
-0.026657 -0.017935 0.000014
-0.044789 -0.020678 0.000014
0.045790 -0.020682 0.000014
0.026679 -0.019412 0.000014
-0.025449 -0.019509 0.000014
0.025382 -0.020921 0.000014
-0.024151 -0.021007 0.000014
-0.043242 -0.023577 0.000014
0.044243 -0.023582 0.000014
0.024001 -0.022348 0.000014
0.082702 -0.028842 0.000014
-0.081704 -0.028851 0.000014
-0.022769 -0.022425 0.000014
0.022541 -0.023687 0.000014
-0.021306 -0.023759 0.000014
-0.041505 -0.026374 0.000014
0.042506 -0.026380 0.000014
0.021005 -0.024938 0.000014
-0.019765 -0.025006 0.000014
0.019399 -0.026096 0.000014
-0.018150 -0.026161 0.000014
0.017725 -0.027158 0.000014
-0.016466 -0.027221 0.000014
-0.039583 -0.029061 0.000014
0.040584 -0.029067 0.000014
0.015989 -0.028120 0.000014
-0.014715 -0.028183 0.000014
0.014194 -0.028981 0.000014
-0.012903 -0.029043 0.000014
0.075515 -0.036084 0.000014
-0.074517 -0.036093 0.000014
0.012345 -0.029736 0.000014
-0.011042 -0.029793 0.000014
-0.037480 -0.031627 0.000014
0.038481 -0.031633 0.000014
0.010446 -0.030383 0.000014
-0.009148 -0.030428 0.000014
0.008512 -0.030915 0.000014
-0.007226 -0.030947 0.000014
0.006558 -0.031329 0.000014
-0.005283 -0.031351 0.000014
0.004589 -0.031626 0.000014
-0.003322 -0.031639 0.000014
0.002612 -0.031804 0.000014
-0.035200 -0.034062 0.000014
0.036201 -0.034069 0.000014
-0.001349 -0.031811 0.000014
0.000631 -0.031866 0.000014
-0.032765 -0.036341 0.000014
0.033765 -0.036348 0.000014
0.067734 -0.042645 0.000014
-0.066736 -0.042654 0.000014
-0.030199 -0.038443 0.000014
0.031198 -0.038451 0.000014
-0.027511 -0.040365 0.000014
0.028511 -0.040372 0.000014
-0.024713 -0.042101 0.000014
0.025712 -0.042109 0.000014
-0.021814 -0.043648 0.000014
0.022812 -0.043656 0.000014
0.059406 -0.048480 0.000014
-0.058408 -0.048487 0.000014
-0.018822 -0.045003 0.000014
0.019820 -0.045009 0.000014
-0.015750 -0.046160 0.000014
0.016746 -0.046166 0.000014
-0.012605 -0.047115 0.000014
0.013601 -0.047121 0.000014
-0.009398 -0.047866 0.000014
0.010393 -0.047870 0.000014
-0.006139 -0.048407 0.000014
0.007134 -0.048410 0.000014
-0.002837 -0.048735 0.000014
0.003831 -0.048736 0.000014
0.050575 -0.053542 0.000014
-0.049579 -0.053547 0.000014
0.000497 -0.048845 0.000014
0.041289 -0.057786 0.000014
-0.040293 -0.057790 0.000014
0.031592 -0.061166 0.000014
-0.030597 -0.061169 0.000014
0.021530 -0.063637 0.000014
-0.020536 -0.063639 0.000014
0.011150 -0.065153 0.000014
-0.010156 -0.065154 0.000014
0.000497 -0.065669 0.000014
3 0 1 2
3 0 3 1
3 4 3 0
3 4 5 3
3 6 5 4
3 6 7 5
3 8 7 6
3 8 9 7
3 10 9 8
3 10 11 9
3 12 13 10
3 13 11 10
3 12 14 13
3 15 11 13
3 12 16 14
3 17 11 15
3 17 18 11
3 19 16 12
3 19 20 16
3 21 18 17
3 19 22 20
3 23 18 21
3 19 24 22
3 25 18 23
3 19 26 24
3 27 18 25
3 19 28 26
3 29 18 27
3 19 30 28
3 31 18 29
3 31 32 18
3 33 30 19
3 33 34 30
3 35 32 31
3 33 36 34
3 37 32 35
3 33 38 36
3 39 32 37
3 33 40 38
3 41 32 39
3 41 42 32
3 43 40 33
3 43 44 40
3 45 42 41
3 46 47 48
3 49 47 46
3 50 47 49
3 50 51 47
3 52 51 50
3 53 51 52
3 53 54 51
3 55 54 53
3 56 54 55
3 43 57 44
3 58 42 45
3 59 54 56
3 59 60 54
3 61 60 59
3 62 60 61
3 62 63 60
3 64 63 62
3 65 63 64
3 66 63 65
3 66 67 63
3 66 68 67
3 69 68 66
3 69 70 68
3 43 71 57
3 72 42 58
3 73 70 69
3 72 74 42
3 75 71 43
3 73 76 70
3 77 76 73
3 77 78 76
3 79 78 77
3 75 80 71
3 81 74 72
3 79 82 78
3 83 82 79
3 84 82 83
3 84 85 82
3 86 85 84
3 86 87 85
3 75 88 80
3 89 74 81
3 90 87 86
3 90 91 87
3 92 91 90
3 93 91 92
3 93 94 91
3 89 95 74
3 96 88 75
3 96 97 88
3 98 95 89
3 99 94 93
3 99 100 94
3 101 100 99
3 102 100 101
3 102 103 100
3 96 104 97
3 105 95 98
3 106 103 102
3 107 103 106
3 107 108 103
3 109 108 107
3 109 110 108
3 111 110 109
3 96 112 104
3 113 95 105
3 114 110 111
3 114 115 110
3 116 115 114
3 113 117 95
3 118 112 96
3 119 115 116
3 118 120 112
3 121 117 113
3 122 115 119
3 122 123 115
3 124 123 122
3 125 123 124
3 125 126 123
3 127 126 125
3 118 128 120
3 129 117 121
3 130 126 127
3 131 126 130
3 131 132 126
3 133 134 135
3 136 132 131
3 133 137 134
3 138 132 136
3 133 139 137
3 140 132 138
3 133 141 139
3 142 132 140
3 142 143 132
3 144 141 133
3 144 145 141
3 146 143 142
3 118 147 128
3 148 117 129
3 144 149 145
3 150 143 146
3 144 151 149
3 152 143 150
3 144 153 151
3 154 143 152
3 144 155 153
3 156 143 154
3 144 157 155
3 158 143 156
3 144 158 157
3 144 143 158
3 148 159 117
3 160 147 118
3 144 161 143
3 162 161 144
3 148 163 159
3 164 147 160
3 148 165 163
3 166 147 164
3 148 167 165
3 168 147 166
3 148 169 167
3 170 147 168
3 170 171 147
3 172 169 148
3 162 173 161
3 172 174 169
3 175 171 170
3 176 173 162
3 172 177 174
3 178 171 175
3 172 179 177
3 180 171 178
3 172 181 179
3 182 171 180
3 172 183 181
3 184 171 182
3 176 185 173
3 186 185 176
3 172 187 183
3 188 171 184
3 172 189 187
3 190 171 188
3 172 191 189
3 190 192 171
3 193 191 172
3 194 192 190
3 193 195 191
3 196 192 194
3 186 197 185
3 193 198 195
3 199 192 196
3 200 197 186
3 193 201 198
3 202 192 199
3 193 203 201
3 204 192 202
3 193 205 203
3 206 192 204
3 193 207 205
3 208 192 206
3 200 209 197
3 210 209 200
3 193 211 207
3 212 192 208
3 212 213 192
3 214 211 193
3 214 215 211
3 216 213 212
3 214 217 215
3 218 213 216
3 214 219 217
3 220 213 218
3 214 221 219
3 222 213 220
3 210 223 209
3 224 223 210
3 214 225 221
3 226 213 222
3 226 227 213
3 228 225 214
3 224 229 223
3 230 229 224
3 230 231 229
3 232 231 230
3 226 233 227
3 234 225 228
3 232 235 231
3 236 235 232
3 236 237 235
3 238 237 236
3 226 239 233
3 240 225 234
3 240 241 225
3 242 239 226
3 238 243 237
3 244 243 238
3 244 245 243
3 246 245 244
3 242 247 239
3 248 241 240
3 246 249 245
3 250 249 246
3 242 251 247
3 252 241 248
3 250 253 249
3 254 253 250
3 254 255 253
3 256 255 254
3 242 257 251
3 258 241 252
3 256 259 255
3 258 260 241
3 261 257 242
3 262 259 256
3 262 263 259
3 264 263 262
3 261 265 257
3 266 260 258
3 264 267 263
3 268 267 264
3 268 269 267
3 270 269 268
3 270 271 269
3 272 271 270
3 261 273 265
3 274 260 266
3 272 275 271
3 276 275 272
3 276 277 275
3 278 277 276
3 274 279 260
3 280 273 261
3 278 281 277
3 282 281 278
3 280 283 273
3 284 279 274
3 282 285 281
3 286 285 282
3 286 287 285
3 288 287 286
3 288 289 287
3 290 289 288
3 290 291 289
3 292 291 290
3 292 293 291
3 280 294 283
3 295 279 284
3 296 293 292
3 296 297 293
3 280 298 294
3 299 279 295
3 299 300 279
3 301 298 280
3 301 302 298
3 303 300 299
3 301 304 302
3 305 300 303
3 301 306 304
3 307 300 305
3 301 308 306
3 309 300 307
3 309 310 300
3 311 308 301
3 311 312 308
3 313 310 309
3 311 314 312
3 315 310 313
3 311 316 314
3 317 310 315
3 311 318 316
3 319 310 317
3 311 320 318
3 321 310 319
3 311 322 320
3 323 310 321
3 323 324 310
3 325 322 311
3 325 326 322
3 326 324 323
3 325 324 326
3 325 327 324
3 328 327 325
3 328 329 327
3 330 329 328
3 330 331 329
3 332 331 330
3 332 333 331
3 334 333 332
3 334 335 333
