ply
format ascii 1.0
comment Created in Blender version 4.2.2 LTS
element vertex 98
property float x
property float y
property float z
property float s
property float t
element face 96
property list uchar uint vertex_indices
end_header
-0.07283364 0.09149335 0 0.2 0
0.11040141 0.10981299 0 1 0
-0.07283364 0.10981299 0 0 0
0.092077896 0.09149335 0 0.4 0
0.11040141 -0.07338336 0 0.8 0
0.092077896 -0.07338336 0 0.6 0
-0.023650885 0.023889855 0 0.012048192 0
-0.012075409 0.02388984 0 0.56626505 0
-0.017863132 0.024280444 0 0 0
-0.02920451 0.022752255 0 0.024096385 0
-0.0065217763 0.02275224 0 0.55421686 0
-0.03447271 0.02091895 0 0.036144577 0
-0.0012535825 0.020918936 0 0.5421687 0
-0.039404176 0.018441245 0 0.04819277 0
0.0036778823 0.01844123 0 0.5301205 0
-0.0439476 0.015370399 0 0.060240965 0
0.008221306 0.015370384 0 0.5180723 0
-0.04805168 0.011757717 0 0.072289154 0
-0.015240908 0.015183553 0 0.57831323 0
0.012325391 0.011757709 0 0.5060241 0
-0.01524961 0.01386039 0 1 0
-0.010978632 0.014578551 0 0.5903614 0
-0.00690341 0.013457961 0 0.60240966 0
-0.015273668 0.010202244 0 0.9879518 0
-0.0030502453 0.011856705 0 0.61445785 0
0.00054587424 0.00980968 0 0.62650603 0
-0.05166512 0.007654503 0 0.084337346 0
0.015938833 0.0076544955 0 0.4939759 0
-0.015310019 0.004676111 0 0.97590363 0
0.0038499683 0.007351801 0 0.6385542 0
-0.054736618 0.0031120405 0 0.09638554 0
0.01901032 0.003112033 0 0.48192772 0
0.0068270415 0.004517995 0 0.6506024 0
-0.01535558 -0.002251014 0 0.96385545 0
0.009442098 0.0013431534 0 0.6626506 0
-0.05721486 -0.0018183812 0 0.10843374 0
0.021488577 -0.0018183887 0 0.4698795 0
0.011660151 -0.0021378025 0 0.67469877 0
-0.059048552 -0.0070854574 0 0.12048193 0
0.02332227 -0.0070854723 0 0.45783132 0
0.013446212 -0.005889952 0 0.686747 0
-0.015407287 -0.010112137 0 0.9518072 0
0.014765292 -0.009878382 0 0.6987952 0
-0.06018639 -0.012637913 0 0.13253012 0
0.024460107 -0.012637928 0 0.44578314 0
0.015582398 -0.014068201 0 0.7108434 0
-0.015462056 -0.018440254 0 0.939759 0
-0.060577072 -0.018424459 0 0.14457831 0
0.0248508 -0.018424459 0 0.43373495 0
0.01586257 -0.018424459 0 0.72289157 0
-0.06018639 -0.024210997 0 0.15662651 0
0.015577719 -0.02281712 0 0.73493975 0
0.024460122 -0.024210997 0 0.42168674 0
-0.0155168325 -0.026768379 0 0.92771083 0
0.014747098 -0.027040191 0 0.74698794 0
-0.059048552 -0.029763453 0 0.16867469 0
0.023322284 -0.029763453 0 0.40963855 0
-0.0155685395 -0.0346295 0 0.91566265 0
0.01340659 -0.031057857 0 0.7590361 0
-0.05721486 -0.035030536 0 0.18072289 0
0.021488592 -0.035030536 0 0.39759037 0
0.011592075 -0.034834288 0 0.7710843 0
-0.0156141 -0.04155662 0 0.90361446 0
0.009339415 -0.03833369 0 0.78313255 0
-0.054736618 -0.039960958 0 0.19277108 0
0.01901035 -0.039960958 0 0.38554215 0
0.006684497 -0.041520238 0 0.79518074 0
-0.05166512 -0.04450342 0 0.20481928 0
0.015938848 -0.04450342 0 0.37349397 0
0.0036632046 -0.044358127 0 0.8072289 0
-0.015650444 -0.04708276 0 0.8915663 0
0.00031141192 -0.04681153 0 0.8192771 0
-0.04805168 -0.048606638 0 0.21686748 0
0.0123254135 -0.048606638 0 0.36144578 0
-0.0033350065 -0.04884464 0 0.8313253 0
-0.015674502 -0.0507409 0 0.8795181 0
-0.0439476 -0.052219316 0 0.22891566 0
0.008221328 -0.052219316 0 0.3493976 0
-0.0072401613 -0.050421644 0 0.8433735 0
-0.011368185 -0.05150672 0 0.85542166 0
-0.015683204 -0.05206406 0 0.8674699 0
-0.039404176 -0.055290163 0 0.24096386 0
0.0036779046 -0.055290163 0 0.33734939 0
-0.03447271 -0.057767883 0 0.25301206 0
-0.0012535602 -0.057767883 0 0.3253012 0
-0.02920451 -0.05960119 0 0.26506025 0
-0.006521754 -0.05960119 0 0.31325302 0
-0.023650885 -0.060738787 0 0.27710843 0
-0.0120753795 -0.060738787 0 0.30120483 0
-0.017863132 -0.061129384 0 0.28915662 0
-0.10948065 -0.110022634 0 0.14285715 0
-0.091157146 0.05485408 0 0.5714286 0
-0.10948065 0.07317372 0 0 0
0.0737544 0.07317372 0 0.42857143 0
0.05543089 0.05485408 0 0.71428573 0
0.0737544 -0.110022634 0 0.2857143 0
-0.091157146 -0.091703 0 1 0
0.05543089 -0.091703 0 0.85714287 0
3 0 1 2
3 0 3 1
3 3 4 1
3 5 4 3
3 6 7 8
3 9 7 6
3 9 10 7
3 11 10 9
3 11 12 10
3 13 12 11
3 13 14 12
3 15 14 13
3 15 16 14
3 17 18 15
3 18 16 15
3 18 19 16
3 17 20 18
3 21 19 18
3 22 19 21
3 17 23 20
3 24 19 22
3 25 19 24
3 26 23 17
3 25 27 19
3 26 28 23
3 29 27 25
3 30 28 26
3 29 31 27
3 32 31 29
3 30 33 28
3 34 31 32
3 35 33 30
3 34 36 31
3 37 36 34
3 38 33 35
3 37 39 36
3 40 39 37
3 38 41 33
3 42 39 40
3 43 41 38
3 42 44 39
3 45 44 42
3 43 46 41
3 47 46 43
3 45 48 44
3 49 48 45
3 50 46 47
3 51 48 49
3 51 52 48
3 50 53 46
3 54 52 51
3 55 53 50
3 54 56 52
3 55 57 53
3 58 56 54
3 59 57 55
3 58 60 56
3 61 60 58
3 59 62 57
3 63 60 61
3 64 62 59
3 63 65 60
3 66 65 63
3 67 62 64
3 66 68 65
3 69 68 66
3 67 70 62
3 71 68 69
3 72 70 67
3 71 73 68
3 74 73 71
3 72 75 70
3 76 75 72
3 74 77 73
3 78 77 74
3 79 77 78
3 76 80 75
3 80 77 79
3 76 77 80
3 81 77 76
3 81 82 77
3 83 82 81
3 83 84 82
3 85 84 83
3 85 86 84
3 87 86 85
3 87 88 86
3 89 88 87
3 90 91 92
3 91 93 92
3 91 94 93
3 94 95 93
3 90 96 91
3 97 95 94
3 90 97 96
3 90 95 97
