ply
format ascii 1.0
comment Created by Blender 3.2.2 - www.blender.org
element vertex 486
property float x
property float y
property float z
element face 502
property list uchar uint vertex_indices
end_header
-0.007504 0.109871 0.000000
0.007009 0.109871 0.000000
-0.000247 0.110111 0.000000
0.014194 0.109158 0.000000
-0.014689 0.109158 0.000000
0.021287 0.107981 0.000000
-0.021782 0.107981 0.000000
0.028266 0.106348 0.000000
-0.028761 0.106348 0.000000
0.035110 0.104268 0.000000
-0.035605 0.104267 0.000000
0.041798 0.101750 0.000000
-0.042292 0.101749 0.000000
0.048307 0.098802 0.000000
-0.048802 0.098802 0.000000
-0.000227 0.097973 0.000000
-0.000227 0.097973 0.000000
-0.000227 0.097973 0.000000
-0.000227 0.097973 0.000000
-0.000227 0.097973 0.000000
-0.000227 0.097973 0.000000
-0.000227 0.097973 0.000000
-0.000227 0.097973 0.000000
-0.000227 0.097973 0.000000
-0.000227 0.097973 0.000000
-0.000227 0.097973 0.000000
-0.000227 0.097973 0.000000
-0.000227 0.097973 0.000000
0.054618 0.095435 0.000000
-0.055113 0.095435 0.000000
-0.004099 0.097467 0.000000
0.003644 0.097467 0.000000
0.007405 0.095980 0.000000
-0.007860 0.095980 0.000000
0.011035 0.093563 0.000000
-0.011490 0.093563 0.000000
0.027633 0.093875 0.000000
0.027633 0.093875 0.000000
0.027633 0.093875 0.000000
0.027633 0.093875 0.000000
0.027633 0.093875 0.000000
0.060708 0.091656 0.000000
-0.061203 0.091656 0.000000
-0.028127 0.093875 0.000000
-0.028127 0.093875 0.000000
-0.028127 0.093875 0.000000
-0.028127 0.093875 0.000000
-0.028127 0.093875 0.000000
-0.028127 0.093875 0.000000
-0.028127 0.093875 0.000000
-0.035048 0.091534 0.000000
-0.030469 0.090408 0.000000
0.029974 0.090408 0.000000
0.027633 0.093875 0.000000
0.027633 0.093875 0.000000
0.034561 0.091534 0.000000
-0.014970 0.090265 0.000000
0.014515 0.090265 0.000000
0.066556 0.087474 0.000000
-0.067051 0.087474 0.000000
0.041245 0.088701 0.000000
-0.041726 0.088701 0.000000
-0.032685 0.086676 0.000000
0.032190 0.086676 0.000000
-0.018281 0.086136 0.000000
0.017826 0.086136 0.000000
0.047663 0.085397 0.000000
-0.048140 0.085397 0.000000
0.072141 0.082899 0.000000
-0.072636 0.082898 0.000000
-0.034774 0.082693 0.000000
0.034280 0.082693 0.000000
-0.021403 0.081224 0.000000
0.020949 0.081224 0.000000
0.053793 0.081644 0.000000
-0.054268 0.081644 0.000000
0.077442 0.077938 0.000000
-0.077936 0.077938 0.000000
-0.036737 0.078475 0.000000
0.036244 0.078475 0.000000
-0.060088 0.077465 0.000000
0.059613 0.077465 0.000000
-0.024318 0.075579 0.000000
0.023864 0.075579 0.000000
-0.038572 0.074037 0.000000
0.038080 0.074037 0.000000
0.082404 0.072639 0.000000
-0.082898 0.072638 0.000000
-0.065578 0.072881 0.000000
0.065103 0.072881 0.000000
-0.027006 0.069250 0.000000
0.026552 0.069250 0.000000
-0.040279 0.069394 0.000000
0.039790 0.069394 0.000000
-0.070716 0.067914 0.000000
0.070241 0.067914 0.000000
0.086980 0.067055 0.000000
-0.087474 0.067055 0.000000
-0.041857 0.064562 0.000000
0.041371 0.064562 0.000000
-0.029448 0.062287 0.000000
0.028993 0.062287 0.000000
-0.075479 0.062585 0.000000
0.075005 0.062585 0.000000
0.091163 0.061208 0.000000
-0.091657 0.061208 0.000000
-0.043306 0.059555 0.000000
0.042823 0.059555 0.000000
-0.079846 0.056916 0.000000
0.079374 0.056916 0.000000
-0.031624 0.054740 0.000000
0.031169 0.054740 0.000000
0.094943 0.055119 0.000000
-0.095437 0.055119 0.000000
-0.044624 0.054389 0.000000
0.044147 0.054389 0.000000
-0.083795 0.050929 0.000000
0.083326 0.050929 0.000000
0.098311 0.048810 0.000000
-0.098805 0.048810 0.000000
-0.033515 0.046657 0.000000
0.033060 0.046657 0.000000
-0.045812 0.049079 0.000000
0.045340 0.049079 0.000000
-0.087304 0.044645 0.000000
0.086841 0.044645 0.000000
0.046403 0.043640 0.000000
-0.046867 0.043640 0.000000
0.101259 0.042302 0.000000
-0.101753 0.042301 0.000000
-0.035102 0.038088 0.000000
0.034647 0.038088 0.000000
-0.090350 0.038088 0.000000
0.089895 0.038088 0.000000
0.047336 0.038088 0.000000
-0.047791 0.038088 0.000000
0.103777 0.035615 0.000000
-0.104271 0.035615 0.000000
-0.089512 0.038088 0.000000
-0.087197 0.038088 0.000000
-0.083700 0.038088 0.000000
-0.079316 0.038088 0.000000
-0.074341 0.038088 0.000000
-0.069070 0.038088 0.000000
-0.063800 0.038088 0.000000
-0.058825 0.038088 0.000000
-0.054441 0.038088 0.000000
-0.050943 0.038088 0.000000
-0.048628 0.038088 0.000000
-0.033730 0.038088 0.000000
-0.029936 0.038088 0.000000
-0.024204 0.038088 0.000000
-0.017019 0.038088 0.000000
-0.008865 0.038088 0.000000
-0.000227 0.038088 0.000000
0.008411 0.038088 0.000000
0.016564 0.038088 0.000000
0.023749 0.038088 0.000000
0.029481 0.038088 0.000000
0.033275 0.038088 0.000000
0.048173 0.038088 0.000000
0.050489 0.038088 0.000000
0.053986 0.038088 0.000000
0.058370 0.038088 0.000000
0.063345 0.038088 0.000000
0.068616 0.038088 0.000000
0.073886 0.038088 0.000000
0.078861 0.038088 0.000000
0.083245 0.038088 0.000000
0.086743 0.038088 0.000000
0.089058 0.038088 0.000000
0.105858 0.028773 0.000000
-0.106352 0.028773 0.000000
0.094112 0.025480 0.000000
0.107491 0.021795 0.000000
-0.107986 0.021795 0.000000
-0.094567 0.025480 0.000000
-0.095080 0.023454 0.000000
-0.049367 0.025480 0.000000
-0.049566 0.023408 0.000000
-0.036757 0.025480 0.000000
-0.036956 0.023454 0.000000
0.036263 0.025480 0.000000
0.036462 0.023454 0.000000
0.048912 0.025480 0.000000
0.049112 0.023408 0.000000
0.094625 0.023454 0.000000
-0.095557 0.021415 0.000000
-0.037141 0.021415 0.000000
0.036647 0.021415 0.000000
0.095099 0.021415 0.000000
-0.049751 0.021328 0.000000
0.049296 0.021328 0.000000
0.108669 0.014704 0.000000
-0.109163 0.014704 0.000000
-0.095994 0.019363 0.000000
-0.037309 0.019363 0.000000
0.036815 0.019363 0.000000
0.095533 0.019363 0.000000
0.049465 0.019241 0.000000
-0.049919 0.019241 0.000000
-0.096391 0.017297 0.000000
-0.037462 0.017297 0.000000
0.036968 0.017297 0.000000
0.095926 0.017297 0.000000
0.049617 0.017148 0.000000
-0.050072 0.017148 0.000000
-0.096747 0.015217 0.000000
-0.037598 0.015217 0.000000
0.037104 0.015217 0.000000
0.096277 0.015217 0.000000
0.049754 0.015050 0.000000
-0.050208 0.015050 0.000000
-0.097059 0.013124 0.000000
-0.037718 0.013124 0.000000
0.037224 0.013124 0.000000
0.096585 0.013124 0.000000
0.049873 0.012947 0.000000
-0.050328 0.012947 0.000000
0.109382 0.007520 0.000000
-0.109876 0.007520 0.000000
-0.097327 0.011017 0.000000
-0.037820 0.011017 0.000000
0.037326 0.011017 0.000000
0.096848 0.011017 0.000000
0.049975 0.010839 0.000000
-0.050430 0.010839 0.000000
-0.097550 0.008895 0.000000
-0.037904 0.008895 0.000000
0.037410 0.008895 0.000000
0.097066 0.008895 0.000000
0.050060 0.008729 0.000000
-0.050514 0.008729 0.000000
-0.097725 0.006759 0.000000
-0.037971 0.006759 0.000000
0.037477 0.006759 0.000000
0.097237 0.006759 0.000000
0.050126 0.006615 0.000000
-0.050581 0.006615 0.000000
0.109622 0.000265 0.000000
-0.110116 0.000265 0.000000
-0.097852 0.004609 0.000000
-0.038019 0.004609 0.000000
0.037525 0.004609 0.000000
0.097361 0.004609 0.000000
0.050174 0.004500 0.000000
-0.050629 0.004500 0.000000
-0.097930 0.002445 0.000000
-0.038048 0.002445 0.000000
0.037554 0.002445 0.000000
0.097436 0.002445 0.000000
0.050203 0.002383 0.000000
-0.050658 0.002383 0.000000
-0.097956 0.000265 0.000000
-0.038058 0.000265 0.000000
0.037564 0.000265 0.000000
0.097462 0.000265 0.000000
0.050213 0.000265 0.000000
-0.050668 0.000265 0.000000
-0.109876 -0.006989 0.000000
-0.097930 -0.001914 0.000000
-0.050658 -0.001852 0.000000
-0.038048 -0.001914 0.000000
0.037554 -0.001914 0.000000
0.050203 -0.001852 0.000000
0.097436 -0.001914 0.000000
0.109382 -0.006989 0.000000
-0.050629 -0.003969 0.000000
0.050174 -0.003969 0.000000
0.037525 -0.004078 0.000000
0.097361 -0.004078 0.000000
-0.097852 -0.004078 0.000000
-0.038019 -0.004078 0.000000
-0.050582 -0.006084 0.000000
0.050126 -0.006084 0.000000
0.037477 -0.006229 0.000000
0.097237 -0.006229 0.000000
-0.097725 -0.006229 0.000000
-0.037971 -0.006229 0.000000
-0.050516 -0.008198 0.000000
0.050060 -0.008198 0.000000
0.037410 -0.008364 0.000000
0.097065 -0.008364 0.000000
-0.097550 -0.008364 0.000000
-0.037904 -0.008364 0.000000
-0.109163 -0.014173 0.000000
0.108669 -0.014173 0.000000
-0.050433 -0.010309 0.000000
0.049975 -0.010309 0.000000
0.037326 -0.010486 0.000000
0.096845 -0.010486 0.000000
-0.097327 -0.010486 0.000000
-0.037820 -0.010486 0.000000
-0.050333 -0.012416 0.000000
0.049873 -0.012416 0.000000
0.037224 -0.012593 0.000000
0.096580 -0.012593 0.000000
-0.097059 -0.012593 0.000000
-0.037718 -0.012593 0.000000
-0.050216 -0.014519 0.000000
0.049754 -0.014519 0.000000
0.037104 -0.014687 0.000000
0.096269 -0.014687 0.000000
-0.096747 -0.014687 0.000000
-0.037598 -0.014687 0.000000
-0.107986 -0.021264 0.000000
0.107491 -0.021265 0.000000
-0.050084 -0.016617 0.000000
0.049617 -0.016617 0.000000
-0.096391 -0.016766 0.000000
-0.037462 -0.016766 0.000000
0.036968 -0.016766 0.000000
0.095915 -0.016766 0.000000
-0.049937 -0.018710 0.000000
0.049465 -0.018710 0.000000
-0.095994 -0.018832 0.000000
-0.037309 -0.018832 0.000000
0.036815 -0.018832 0.000000
0.095517 -0.018832 0.000000
-0.049774 -0.020797 0.000000
0.049296 -0.020797 0.000000
-0.095557 -0.020885 0.000000
-0.037141 -0.020885 0.000000
0.036647 -0.020885 0.000000
0.095076 -0.020885 0.000000
-0.049597 -0.022877 0.000000
0.049112 -0.022877 0.000000
-0.095080 -0.022924 0.000000
-0.036956 -0.022924 0.000000
0.036462 -0.022924 0.000000
0.094595 -0.022924 0.000000
-0.106352 -0.028242 0.000000
0.105858 -0.028242 0.000000
-0.049407 -0.024949 0.000000
0.048912 -0.024949 0.000000
-0.094567 -0.024949 0.000000
-0.036757 -0.024949 0.000000
0.036263 -0.024949 0.000000
0.094073 -0.024949 0.000000
-0.093678 -0.024949 0.000000
-0.091222 -0.024949 0.000000
-0.087511 -0.024949 0.000000
-0.082859 -0.024949 0.000000
-0.077580 -0.024949 0.000000
-0.071987 -0.024949 0.000000
-0.066394 -0.024949 0.000000
-0.061115 -0.024949 0.000000
-0.056463 -0.024949 0.000000
-0.052752 -0.024949 0.000000
-0.050296 -0.024949 0.000000
-0.035320 -0.024949 0.000000
-0.031348 -0.024949 0.000000
-0.025348 -0.024949 0.000000
-0.017826 -0.024949 0.000000
-0.009290 -0.024949 0.000000
-0.000247 -0.024949 0.000000
0.008796 -0.024949 0.000000
0.017332 -0.024949 0.000000
0.024854 -0.024949 0.000000
0.030854 -0.024949 0.000000
0.034826 -0.024949 0.000000
0.049801 -0.024949 0.000000
0.052257 -0.024949 0.000000
0.055969 -0.024949 0.000000
0.060621 -0.024949 0.000000
0.065900 -0.024949 0.000000
0.071493 -0.024949 0.000000
0.077085 -0.024949 0.000000
0.082364 -0.024949 0.000000
0.087016 -0.024949 0.000000
0.090728 -0.024949 0.000000
0.093184 -0.024949 0.000000
-0.104271 -0.035085 0.000000
0.103777 -0.035085 0.000000
-0.101753 -0.041771 0.000000
-0.090350 -0.037557 0.000000
-0.047791 -0.037557 0.000000
-0.035102 -0.037557 0.000000
0.034647 -0.037557 0.000000
0.047376 -0.037557 0.000000
0.089935 -0.037557 0.000000
0.101259 -0.041771 0.000000
-0.087295 -0.044115 0.000000
-0.046858 -0.043109 0.000000
-0.033515 -0.046126 0.000000
0.033060 -0.046126 0.000000
0.046443 -0.043109 0.000000
0.086880 -0.044115 0.000000
-0.098805 -0.048279 0.000000
0.098311 -0.048279 0.000000
0.045380 -0.048548 0.000000
-0.045795 -0.048548 0.000000
-0.083781 -0.050398 0.000000
0.083364 -0.050398 0.000000
0.031169 -0.054209 0.000000
-0.031624 -0.054209 0.000000
-0.095437 -0.054588 0.000000
0.094943 -0.054588 0.000000
0.044187 -0.053858 0.000000
-0.044601 -0.053858 0.000000
-0.079829 -0.056385 0.000000
0.079409 -0.056385 0.000000
0.042863 -0.059024 0.000000
-0.043278 -0.059024 0.000000
0.028993 -0.061757 0.000000
-0.029448 -0.061757 0.000000
-0.091657 -0.060677 0.000000
0.091163 -0.060677 0.000000
-0.075460 -0.062054 0.000000
0.075036 -0.062054 0.000000
0.041411 -0.064031 0.000000
-0.041825 -0.064031 0.000000
-0.087474 -0.066524 0.000000
0.086980 -0.066524 0.000000
0.026552 -0.068719 0.000000
-0.027006 -0.068719 0.000000
-0.070696 -0.067383 0.000000
0.070269 -0.067383 0.000000
0.039830 -0.068864 0.000000
-0.040244 -0.068864 0.000000
-0.082898 -0.072108 0.000000
0.082404 -0.072108 0.000000
-0.065558 -0.072350 0.000000
0.065129 -0.072350 0.000000
0.023864 -0.075048 0.000000
-0.024318 -0.075048 0.000000
0.038120 -0.073506 0.000000
-0.038535 -0.073506 0.000000
-0.077936 -0.077407 0.000000
0.077442 -0.077407 0.000000
-0.060068 -0.076935 0.000000
0.059637 -0.076935 0.000000
0.036284 -0.077944 0.000000
-0.036699 -0.077944 0.000000
0.020949 -0.080693 0.000000
-0.021403 -0.080693 0.000000
-0.054248 -0.081114 0.000000
0.053815 -0.081114 0.000000
-0.072636 -0.082368 0.000000
0.072141 -0.082368 0.000000
0.034320 -0.082162 0.000000
-0.034735 -0.082162 0.000000
0.017826 -0.085605 0.000000
-0.018281 -0.085605 0.000000
-0.048118 -0.084866 0.000000
0.047686 -0.084866 0.000000
0.032230 -0.086145 0.000000
-0.032645 -0.086145 0.000000
-0.067051 -0.086943 0.000000
0.066556 -0.086943 0.000000
-0.041700 -0.088170 0.000000
0.041272 -0.088170 0.000000
0.014515 -0.089735 0.000000
-0.014970 -0.089735 0.000000
0.030014 -0.089878 0.000000
-0.030429 -0.089878 0.000000
-0.061203 -0.091125 0.000000
0.060708 -0.091125 0.000000
-0.035016 -0.091003 0.000000
0.034593 -0.091003 0.000000
-0.011490 -0.093033 0.000000
0.011035 -0.093033 0.000000
0.027673 -0.093345 0.000000
-0.028087 -0.093345 0.000000
-0.055113 -0.094904 0.000000
0.054618 -0.094904 0.000000
-0.007860 -0.095449 0.000000
0.007405 -0.095449 0.000000
-0.048802 -0.098271 0.000000
0.048307 -0.098272 0.000000
-0.004099 -0.096936 0.000000
0.003644 -0.096936 0.000000
-0.000227 -0.097442 0.000000
-0.042292 -0.101219 0.000000
0.041798 -0.101219 0.000000
-0.035605 -0.103737 0.000000
0.035110 -0.103737 0.000000
-0.028761 -0.105817 0.000000
0.028266 -0.105817 0.000000
-0.021782 -0.107450 0.000000
0.021287 -0.107450 0.000000
-0.014689 -0.108627 0.000000
0.014194 -0.108628 0.000000
-0.007504 -0.109341 0.000000
0.007009 -0.109341 0.000000
-0.000247 -0.109580 0.000000
3 0 1 2
3 0 3 1
3 4 3 0
3 4 5 3
3 6 5 4
3 6 7 5
3 8 7 6
3 8 9 7
3 10 9 8
3 10 11 9
3 12 11 10
3 12 13 11
3 14 13 12
3 14 15 13
3 15 16 13
3 16 17 13
3 17 18 13
3 18 19 13
3 19 20 13
3 20 21 13
3 21 22 13
3 22 23 13
3 23 24 13
3 24 25 13
3 25 26 13
3 26 27 13
3 27 28 13
3 29 15 14
3 29 30 15
3 31 28 27
3 32 28 31
3 29 33 30
3 34 28 32
3 29 35 33
3 34 36 28
3 36 37 28
3 37 38 28
3 38 39 28
3 39 40 28
3 40 41 28
3 42 43 29
3 43 44 29
3 44 45 29
3 45 46 29
3 46 47 29
3 47 48 29
3 48 49 29
3 49 35 29
3 42 50 43
3 51 35 49
3 34 52 36
3 53 38 37
3 54 38 53
3 55 41 40
3 51 56 35
3 57 52 34
3 55 58 41
3 59 50 42
3 60 58 55
3 59 61 50
3 62 56 51
3 57 63 52
3 62 64 56
3 65 63 57
3 66 58 60
3 59 67 61
3 66 68 58
3 69 67 59
3 70 64 62
3 65 71 63
3 70 72 64
3 73 71 65
3 74 68 66
3 69 75 67
3 74 76 68
3 77 75 69
3 78 72 70
3 73 79 71
3 77 80 75
3 81 76 74
3 78 82 72
3 83 79 73
3 84 82 78
3 83 85 79
3 81 86 76
3 87 80 77
3 87 88 80
3 89 86 81
3 84 90 82
3 91 85 83
3 92 90 84
3 91 93 85
3 87 94 88
3 95 86 89
3 95 96 86
3 97 94 87
3 98 90 92
3 91 99 93
3 98 100 90
3 101 99 91
3 97 102 94
3 103 96 95
3 103 104 96
3 105 102 97
3 106 100 98
3 101 107 99
3 105 108 102
3 109 104 103
3 106 110 100
3 111 107 101
3 109 112 104
3 113 108 105
3 114 110 106
3 111 115 107
3 113 116 108
3 117 112 109
3 117 118 112
3 119 116 113
3 114 120 110
3 121 115 111
3 122 120 114
3 121 123 115
3 119 124 116
3 125 118 117
3 121 126 123
3 127 120 122
3 125 128 118
3 129 124 119
3 127 130 120
3 131 126 121
3 129 132 124
3 133 128 125
3 131 134 126
3 135 130 127
3 133 136 128
3 137 132 129
3 137 138 132
3 137 139 138
3 137 140 139
3 137 141 140
3 137 142 141
3 137 143 142
3 137 144 143
3 137 145 144
3 137 146 145
3 137 147 146
3 137 148 147
3 137 135 148
3 137 130 135
3 137 149 130
3 137 150 149
3 137 151 150
3 137 152 151
3 137 153 152
3 137 154 153
3 137 155 154
3 137 156 155
3 137 157 156
3 137 158 157
3 137 159 158
3 137 131 159
3 137 134 131
3 137 160 134
3 137 161 160
3 137 162 161
3 137 163 162
3 137 164 163
3 137 165 164
3 137 166 165
3 137 167 166
3 137 168 167
3 137 169 168
3 137 170 169
3 137 133 170
3 137 136 133
3 137 171 136
3 172 171 137
3 172 173 171
3 173 174 171
3 175 176 172
3 176 173 172
3 175 177 176
3 178 173 176
3 179 180 178
3 180 173 178
3 179 181 180
3 182 173 180
3 183 184 182
3 184 173 182
3 183 185 184
3 186 174 173
3 175 187 177
3 179 188 181
3 189 185 183
3 190 174 186
3 191 188 179
3 189 192 185
3 190 193 174
3 194 187 175
3 194 195 187
3 191 196 188
3 197 192 189
3 198 193 190
3 197 199 192
3 200 196 191
3 194 201 195
3 200 202 196
3 203 199 197
3 204 193 198
3 203 205 199
3 206 202 200
3 194 207 201
3 206 208 202
3 209 205 203
3 210 193 204
3 209 211 205
3 212 208 206
3 194 213 207
3 212 214 208
3 215 211 209
3 216 193 210
3 215 217 211
3 218 214 212
3 216 219 193
3 220 213 194
3 220 221 213
3 218 222 214
3 223 217 215
3 224 219 216
3 223 225 217
3 226 222 218
3 220 227 221
3 226 228 222
3 229 225 223
3 230 219 224
3 229 231 225
3 232 228 226
3 220 233 227
3 232 234 228
3 235 231 229
3 236 219 230
3 235 237 231
3 238 234 232
3 236 239 219
3 240 233 220
3 240 241 233
3 238 242 234
3 243 237 235
3 244 239 236
3 243 245 237
3 246 242 238
3 240 247 241
3 246 248 242
3 249 245 243
3 250 239 244
3 249 251 245
3 252 248 246
3 240 253 247
3 252 254 248
3 255 251 249
3 256 239 250
3 255 257 251
3 258 254 252
3 259 253 240
3 259 260 253
3 261 254 258
3 261 262 254
3 263 257 255
3 263 264 257
3 265 239 256
3 265 266 239
3 267 262 261
3 263 268 264
3 269 268 263
3 270 266 265
3 259 271 260
3 267 272 262
3 273 272 267
3 269 274 268
3 275 274 269
3 276 266 270
3 259 277 271
3 273 278 272
3 279 278 273
3 275 280 274
3 281 280 275
3 282 266 276
3 259 283 277
3 279 284 278
3 285 283 259
3 282 286 266
3 287 284 279
3 281 288 280
3 289 288 281
3 290 286 282
3 285 291 283
3 287 292 284
3 293 292 287
3 289 294 288
3 295 294 289
3 296 286 290
3 285 297 291
3 293 298 292
3 299 298 293
3 295 300 294
3 301 300 295
3 302 286 296
3 285 303 297
3 299 304 298
3 305 303 285
3 302 306 286
3 307 304 299
3 301 308 300
3 305 309 303
3 307 310 304
3 311 308 301
3 312 306 302
3 313 310 307
3 311 314 308
3 305 315 309
3 313 316 310
3 317 314 311
3 318 306 312
3 319 316 313
3 317 320 314
3 305 321 315
3 319 322 316
3 323 320 317
3 324 306 318
3 325 322 319
3 323 326 320
3 305 327 321
3 325 328 322
3 329 326 323
3 330 306 324
3 331 327 305
3 330 332 306
3 333 328 325
3 329 334 326
3 331 335 327
3 333 336 328
3 337 334 329
3 338 332 330
3 331 339 335
3 331 340 339
3 331 341 340
3 331 342 341
3 331 343 342
3 331 344 343
3 331 345 344
3 331 346 345
3 331 347 346
3 331 348 347
3 331 349 348
3 331 333 349
3 331 336 333
3 331 350 336
3 331 351 350
3 331 352 351
3 331 353 352
3 331 354 353
3 331 355 354
3 331 356 355
3 331 357 356
3 331 358 357
3 331 359 358
3 331 360 359
3 331 337 360
3 331 334 337
3 331 361 334
3 331 362 361
3 331 363 362
3 331 364 363
3 331 365 364
3 331 366 365
3 331 367 366
3 331 368 367
3 331 369 368
3 331 370 369
3 331 371 370
3 331 338 371
3 331 332 338
3 372 332 331
3 372 373 332
3 374 375 372
3 375 373 372
3 375 376 373
3 376 377 373
3 377 378 373
3 378 379 373
3 379 380 373
3 380 381 373
3 374 382 375
3 383 377 376
3 383 384 377
3 385 379 378
3 385 386 379
3 387 381 380
3 388 382 374
3 387 389 381
3 385 390 386
3 391 384 383
3 388 392 382
3 393 389 387
3 394 390 385
3 391 395 384
3 396 392 388
3 393 397 389
3 394 398 390
3 399 395 391
3 396 400 392
3 401 397 393
3 394 402 398
3 403 395 399
3 404 402 394
3 403 405 395
3 406 400 396
3 401 407 397
3 406 408 400
3 409 407 401
3 404 410 402
3 411 405 403
3 412 408 406
3 409 413 407
3 414 410 404
3 411 415 405
3 412 416 408
3 417 413 409
3 414 418 410
3 419 415 411
3 420 416 412
3 417 421 413
3 420 422 416
3 423 421 417
3 424 418 414
3 419 425 415
3 424 426 418
3 427 425 419
3 428 422 420
3 423 429 421
3 428 430 422
3 431 429 423
3 424 432 426
3 433 425 427
3 434 432 424
3 433 435 425
3 428 436 430
3 437 429 431
3 438 436 428
3 437 439 429
3 434 440 432
3 441 435 433
3 442 440 434
3 441 443 435
3 438 444 436
3 445 439 437
3 442 446 440
3 447 443 441
3 448 444 438
3 445 449 439
3 448 450 444
3 451 449 445
3 452 446 442
3 447 453 443
3 452 454 446
3 455 453 447
3 456 450 448
3 451 457 449
3 456 458 450
3 459 457 451
3 455 460 453
3 461 454 452
3 461 462 454
3 463 460 455
3 456 463 458
3 462 457 459
3 464 463 456
3 462 465 457
3 463 466 460
3 467 462 461
3 464 466 463
3 467 465 462
3 468 466 464
3 467 469 465
3 468 470 466
3 471 469 467
3 468 472 470
3 472 469 471
3 468 469 472
3 473 469 468
3 473 474 469
3 475 474 473
3 475 476 474
3 477 476 475
3 477 478 476
3 479 478 477
3 479 480 478
3 481 480 479
3 481 482 480
3 483 482 481
3 483 484 482
3 485 484 483
