ply
format ascii 1.0
comment Created in Blender version 4.2.2 LTS
element vertex 18
property float x
property float y
property float z
property float s
property float t
element face 20
property list uchar uint vertex_indices
end_header
-0.11977417 0.06797172 0 0.05882353 0
-0.08921936 0.08527437 0 0.47058824 0
-0.09253149 0.091741174 0 0 0
0.118126765 0.091741174 0 0.4117647 0
0.11171061 0.08527437 0 0.5294118 0
0.118126765 -0.07195778 0 0.3529412 0
-0.10799964 0.06797172 0 0.7647059 0
0.11171061 -0.06849031 0 0.5882353 0
-0.1199129 -0.09180902 0 0.1764706 0
-0.1199129 0.06797172 0 0.11764706 0
-0.10215573 0.050218314 0 0.8235294 0
0.0931731 0.06797172 0 0.7058824 0
0.075415924 0.050218314 0 0.88235295 0
0.0931731 -0.08281095 0 0.64705884 0
-0.10215573 -0.0740556 0 1 0
0.075415924 -0.0740556 0 0.9411765 0
0.0931731 -0.091652974 0 0.29411766 0
0.0931731 -0.09180902 0 0.23529412 0
3 0 1 2
3 1 3 2
3 1 4 3
3 4 5 3
3 0 6 1
3 7 5 4
3 8 0 9
3 8 6 0
3 8 10 6
3 10 11 6
3 10 12 11
3 12 13 11
3 8 14 10
3 15 13 12
3 13 5 7
3 13 16 5
3 8 15 14
3 8 13 15
3 8 16 13
3 8 17 16
