ply
format ascii 1.0
comment Created by Blender 2.82 (sub 7) - www.blender.org, source file: 'icons.blend'
element vertex 16
property float x
property float y
property float z
element face 12
property list uchar uint vertex_indices
end_header
-0.112918 1.092333 0.000000
-0.093944 1.253571 0.000000
-0.112918 1.272540 0.000000
0.114760 1.272540 0.000000
0.095787 1.253571 0.000000
0.114760 1.092333 0.000000
-0.093944 1.111302 0.000000
0.095787 1.111302 0.000000
-0.084458 1.120787 0.000000
0.086300 1.244086 0.000000
-0.084458 1.244086 0.000000
0.086300 1.120787 0.000000
-0.055998 1.044910 0.000000
0.033185 1.073364 0.000000
-0.031343 1.073364 0.000000
0.057841 1.044910 0.000000
3 0 1 2
3 1 3 2
3 1 4 3
3 4 5 3
3 0 6 1
3 7 5 4
3 8 9 10
3 8 11 9
3 0 7 6
3 0 5 7
3 12 13 14
3 12 15 13
