ply
format ascii 1.0
comment Created in Blender version 4.2.2 LTS
element vertex 22
property float x
property float y
property float z
property float s
property float t
element face 20
property list uchar uint vertex_indices
end_header
-0.072711065 0.091354586 0 0.04761905 0
0.11023354 0.109645195 0 0.23809524 0
-0.072711065 0.109645195 0 0 0
0.091939084 0.091354586 0 0.0952381 0
0.11023354 -0.07326077 0 0.1904762 0
0.091939084 -0.07326077 0 0.14285715 0
-0.10929998 -0.109841965 0 0.33333334 0
-0.0544166 -0.0092436895 0 0.95238096 0
-0.10929998 0.07306399 0 0.2857143 0
-0.026974909 0.01819221 0 0.47619048 0
0.073644616 0.07306399 0 0.42857143 0
-0.008680448 0.01819221 0 0.52380955 0
0.01876124 -0.0092436895 0 0.61904764 0
0.073644616 -0.109841965 0 0.3809524 0
-0.026974909 -0.0092436895 0 1 0
-0.008680448 -0.0092436895 0 0.5714286 0
-0.0544166 -0.027534284 0 0.9047619 0
0.01876124 -0.027534284 0 0.6666667 0
-0.026974909 -0.027534284 0 0.85714287 0
-0.026974909 -0.054970175 0 0.8095238 0
-0.008680448 -0.054970175 0 0.7619048 0
-0.008680448 -0.027534284 0 0.71428573 0
3 0 1 2
3 0 3 1
3 3 4 1
3 5 4 3
3 6 7 8
3 7 9 8
3 9 10 8
3 9 11 10
3 11 12 10
3 12 13 10
3 7 14 9
3 15 12 11
3 6 16 7
3 17 13 12
3 6 18 16
3 6 19 18
3 20 17 21
3 20 13 17
3 6 20 19
3 6 13 20
