ply
format ascii 1.0
comment Created by Blender 2.91.2 - www.blender.org
element vertex 328
property float x
property float y
property float z
element face 326
property list uchar uint vertex_indices
end_header
-0.054947 0.061984 0.000000
-0.053447 0.062056 0.000000
-0.053901 0.062056 0.000000
-0.052189 0.062056 0.000000
-0.050289 0.062056 0.000000
-0.047907 0.062056 0.000000
-0.045204 0.062056 0.000000
-0.042340 0.062056 0.000000
-0.039477 0.062056 0.000000
-0.036774 0.062056 0.000000
-0.034392 0.062056 0.000000
-0.032492 0.062056 0.000000
-0.031234 0.062056 0.000000
-0.030779 0.062056 0.000000
-0.029733 0.061984 0.000000
0.029835 0.061984 0.000000
0.050684 0.062056 0.000000
0.030881 0.062056 0.000000
0.040676 0.052282 0.000000
-0.055950 0.061777 0.000000
-0.028730 0.061777 0.000000
0.028832 0.061777 0.000000
-0.056901 0.061443 0.000000
-0.027779 0.061443 0.000000
0.027881 0.061443 0.000000
-0.057791 0.060991 0.000000
-0.026889 0.060991 0.000000
0.026991 0.060991 0.000000
-0.058611 0.060431 0.000000
-0.026070 0.060431 0.000000
0.026171 0.060431 0.000000
-0.059351 0.059771 0.000000
-0.025329 0.059771 0.000000
0.025431 0.059771 0.000000
-0.060003 0.059023 0.000000
-0.024678 0.059023 0.000000
0.024780 0.059023 0.000000
-0.060556 0.058193 0.000000
-0.024124 0.058193 0.000000
0.024226 0.058193 0.000000
-0.061003 0.057293 0.000000
-0.023677 0.057293 0.000000
0.023779 0.057293 0.000000
-0.061333 0.056331 0.000000
-0.023347 0.056331 0.000000
0.023449 0.056331 0.000000
-0.061538 0.055316 0.000000
-0.023142 0.055316 0.000000
0.023244 0.055316 0.000000
-0.061609 0.054258 0.000000
-0.023071 0.054258 0.000000
0.023173 0.054258 0.000000
-0.061609 0.053798 0.000000
-0.022161 0.054258 0.000000
-0.019646 0.054258 0.000000
-0.015846 0.054258 0.000000
-0.011082 0.054258 0.000000
-0.005676 0.054258 0.000000
0.000051 0.054258 0.000000
0.005778 0.054258 0.000000
0.011184 0.054258 0.000000
0.015948 0.054258 0.000000
0.019748 0.054258 0.000000
0.022263 0.054258 0.000000
-0.061609 0.052525 0.000000
-0.061609 0.050603 0.000000
-0.052099 0.052282 0.000000
-0.052099 0.033119 0.000000
-0.032907 0.052282 0.000000
-0.032907 0.033119 0.000000
-0.023071 0.038663 0.000000
0.033332 0.052282 0.000000
0.033332 0.045109 0.000000
-0.061609 0.048193 0.000000
-0.061609 0.045459 0.000000
0.052523 0.037198 0.000000
0.061711 0.045870 0.000000
0.061711 0.046171 0.000000
0.061711 0.045037 0.000000
-0.061609 0.042561 0.000000
0.023173 0.038663 0.000000
0.023173 0.035187 0.000000
0.061711 0.043779 0.000000
0.061711 0.042203 0.000000
-0.061609 0.039664 0.000000
0.061711 0.040414 0.000000
0.061711 0.038518 0.000000
-0.061609 0.036930 0.000000
-0.023071 0.038509 0.000000
0.061711 0.036622 0.000000
-0.023071 0.038085 0.000000
-0.023071 0.037444 0.000000
-0.023071 0.036641 0.000000
0.052523 0.033119 0.000000
-0.061609 0.034520 0.000000
-0.023071 0.035729 0.000000
0.061711 0.034833 0.000000
-0.023071 0.034764 0.000000
0.061711 0.033257 0.000000
-0.023071 0.033798 0.000000
-0.061609 0.032598 0.000000
-0.023071 0.032887 0.000000
0.061711 0.031999 0.000000
0.038054 0.023067 0.000000
0.048347 0.033119 0.000000
-0.023071 0.032083 0.000000
-0.061609 0.031325 0.000000
-0.023071 0.031443 0.000000
0.061711 0.031166 0.000000
-0.023071 0.031018 0.000000
-0.061609 0.030865 0.000000
0.061711 0.030865 0.000000
-0.023071 0.030865 0.000000
-0.061538 0.029807 0.000000
-0.023142 0.029807 0.000000
0.061640 0.029807 0.000000
-0.023347 0.028792 0.000000
0.061435 0.028792 0.000000
-0.061333 0.028792 0.000000
-0.023677 0.027830 0.000000
0.061105 0.027830 0.000000
-0.061003 0.027830 0.000000
-0.024124 0.026930 0.000000
0.060658 0.026930 0.000000
-0.060556 0.026930 0.000000
-0.024678 0.026100 0.000000
0.060105 0.026100 0.000000
-0.060003 0.026100 0.000000
-0.025329 0.025351 0.000000
0.059453 0.025351 0.000000
-0.059351 0.025351 0.000000
-0.026070 0.024692 0.000000
0.058713 0.024692 0.000000
-0.058611 0.024692 0.000000
-0.026889 0.024132 0.000000
0.057893 0.024132 0.000000
-0.057791 0.024132 0.000000
-0.027779 0.023680 0.000000
0.057003 0.023680 0.000000
-0.056901 0.023680 0.000000
-0.028730 0.023345 0.000000
0.056052 0.023345 0.000000
-0.055950 0.023345 0.000000
-0.029733 0.023138 0.000000
0.055049 0.023138 0.000000
-0.054947 0.023138 0.000000
-0.030779 0.023067 0.000000
0.054003 0.023067 0.000000
-0.053901 0.023067 0.000000
-0.053901 0.022146 0.000000
-0.038486 0.023067 0.000000
-0.038486 -0.023719 0.000000
0.038588 0.023067 0.000000
0.038588 -0.023719 0.000000
0.054003 0.022146 0.000000
0.054003 0.019601 0.000000
-0.053901 0.019601 0.000000
0.054003 0.015756 0.000000
-0.053901 0.015756 0.000000
0.054003 0.010937 0.000000
-0.053901 0.010937 0.000000
0.054003 0.005468 0.000000
-0.053901 0.005468 0.000000
0.054003 -0.000326 0.000000
-0.053901 -0.000326 0.000000
0.054003 -0.006120 0.000000
-0.053901 -0.006120 0.000000
0.054003 -0.011589 0.000000
-0.053901 -0.011589 0.000000
0.054003 -0.016409 0.000000
-0.053901 -0.016409 0.000000
0.054003 -0.020254 0.000000
-0.053901 -0.020254 0.000000
0.054003 -0.022799 0.000000
-0.053901 -0.022799 0.000000
0.054003 -0.023719 0.000000
-0.053901 -0.023719 0.000000
-0.054947 -0.023790 0.000000
-0.037141 -0.023719 0.000000
-0.048284 -0.034601 0.000000
0.029835 -0.023790 0.000000
0.030881 -0.023719 0.000000
0.055049 -0.023790 0.000000
-0.055950 -0.023998 0.000000
0.028832 -0.023998 0.000000
0.056052 -0.023998 0.000000
-0.056901 -0.024332 0.000000
0.027881 -0.024332 0.000000
0.057003 -0.024332 0.000000
-0.057791 -0.024784 0.000000
0.026991 -0.024784 0.000000
0.057893 -0.024784 0.000000
-0.058611 -0.025344 0.000000
0.026171 -0.025344 0.000000
0.058713 -0.025344 0.000000
-0.059351 -0.026004 0.000000
0.025431 -0.026004 0.000000
0.059453 -0.026004 0.000000
-0.060003 -0.026753 0.000000
0.024780 -0.026753 0.000000
0.060105 -0.026753 0.000000
-0.060556 -0.027582 0.000000
0.024226 -0.027582 0.000000
0.060658 -0.027582 0.000000
-0.061003 -0.028482 0.000000
0.023779 -0.028482 0.000000
0.061105 -0.028482 0.000000
-0.061333 -0.029445 0.000000
0.023449 -0.029445 0.000000
0.061435 -0.029445 0.000000
-0.061538 -0.030459 0.000000
0.023244 -0.030459 0.000000
0.061640 -0.030459 0.000000
-0.061609 -0.031517 0.000000
0.023173 -0.031517 0.000000
0.061711 -0.031517 0.000000
-0.061609 -0.031834 0.000000
0.023173 -0.031671 0.000000
0.061711 -0.031978 0.000000
0.023173 -0.032095 0.000000
-0.061609 -0.032710 0.000000
0.061711 -0.033250 0.000000
0.023173 -0.032736 0.000000
-0.061609 -0.034033 0.000000
0.023173 -0.033539 0.000000
0.052523 -0.034601 0.000000
0.061711 -0.035173 0.000000
0.023173 -0.034451 0.000000
-0.061609 -0.035691 0.000000
-0.052099 -0.034601 0.000000
0.023173 -0.035416 0.000000
0.033332 -0.034601 0.000000
-0.052099 -0.038327 0.000000
0.033332 -0.053764 0.000000
0.052523 -0.053764 0.000000
0.061711 -0.037582 0.000000
0.023173 -0.036382 0.000000
-0.061609 -0.037573 0.000000
0.023173 -0.037293 0.000000
-0.032907 -0.046238 0.000000
-0.023071 -0.039315 0.000000
-0.023071 -0.036632 0.000000
0.023173 -0.038097 0.000000
-0.061609 -0.039566 0.000000
0.061711 -0.040317 0.000000
0.023173 -0.038737 0.000000
-0.061609 -0.041560 0.000000
-0.061609 -0.043442 0.000000
-0.061609 -0.045100 0.000000
-0.061609 -0.046423 0.000000
-0.061609 -0.047299 0.000000
-0.061609 -0.047615 0.000000
0.023173 -0.039162 0.000000
0.023173 -0.039315 0.000000
0.061711 -0.043214 0.000000
0.061711 -0.046111 0.000000
0.061711 -0.048846 0.000000
-0.032907 -0.053764 0.000000
0.061711 -0.051255 0.000000
0.061711 -0.053178 0.000000
0.061711 -0.054450 0.000000
-0.049771 -0.062708 0.000000
-0.040614 -0.053764 0.000000
-0.023071 -0.054910 0.000000
0.061711 -0.054910 0.000000
-0.023142 -0.055968 0.000000
-0.022161 -0.054910 0.000000
-0.019646 -0.054910 0.000000
-0.015846 -0.054910 0.000000
-0.011082 -0.054910 0.000000
-0.005676 -0.054910 0.000000
0.000051 -0.054910 0.000000
0.005778 -0.054910 0.000000
0.011184 -0.054910 0.000000
0.015948 -0.054910 0.000000
0.019748 -0.054910 0.000000
0.022263 -0.054910 0.000000
0.023173 -0.054910 0.000000
0.023244 -0.055968 0.000000
0.061640 -0.055968 0.000000
-0.023347 -0.056983 0.000000
0.023449 -0.056983 0.000000
0.061435 -0.056983 0.000000
-0.023677 -0.057945 0.000000
0.023779 -0.057945 0.000000
0.061105 -0.057945 0.000000
-0.024124 -0.058846 0.000000
0.024226 -0.058846 0.000000
0.060658 -0.058846 0.000000
-0.024678 -0.059675 0.000000
0.024780 -0.059675 0.000000
0.060105 -0.059675 0.000000
-0.025329 -0.060424 0.000000
0.025431 -0.060424 0.000000
0.059453 -0.060424 0.000000
-0.026070 -0.061083 0.000000
0.026171 -0.061083 0.000000
0.058713 -0.061083 0.000000
-0.026889 -0.061643 0.000000
0.026991 -0.061643 0.000000
0.057893 -0.061643 0.000000
-0.027779 -0.062095 0.000000
0.027881 -0.062095 0.000000
0.057003 -0.062095 0.000000
-0.028730 -0.062429 0.000000
0.028832 -0.062429 0.000000
0.056052 -0.062429 0.000000
-0.029733 -0.062637 0.000000
0.029835 -0.062637 0.000000
0.055049 -0.062637 0.000000
-0.030779 -0.062708 0.000000
0.030881 -0.062708 0.000000
0.054003 -0.062708 0.000000
0.031336 -0.062708 0.000000
0.032594 -0.062708 0.000000
0.034494 -0.062708 0.000000
0.036876 -0.062708 0.000000
0.039579 -0.062708 0.000000
0.042442 -0.062708 0.000000
0.045306 -0.062708 0.000000
0.048009 -0.062708 0.000000
0.050390 -0.062708 0.000000
0.052291 -0.062708 0.000000
0.053548 -0.062708 0.000000
-0.071576 -0.061008 0.000000
0.073069 0.060167 0.000000
0.064126 0.071586 0.000000
-0.062632 -0.072426 0.000000
3 0 1 2
3 0 3 1
3 0 4 3
3 0 5 4
3 0 6 5
3 0 7 6
3 0 8 7
3 0 9 8
3 0 10 9
3 0 11 10
3 0 12 11
3 0 13 12
3 0 14 13
3 15 16 17
3 15 18 16
3 19 14 0
3 19 20 14
3 21 18 15
3 22 20 19
3 22 23 20
3 24 18 21
3 25 23 22
3 25 26 23
3 27 18 24
3 28 26 25
3 28 29 26
3 30 18 27
3 31 29 28
3 31 32 29
3 33 18 30
3 34 32 31
3 34 35 32
3 36 18 33
3 37 35 34
3 37 38 35
3 39 18 36
3 40 38 37
3 40 41 38
3 42 18 39
3 43 41 40
3 43 44 41
3 45 18 42
3 46 44 43
3 46 47 44
3 48 18 45
3 49 47 46
3 49 50 47
3 51 18 48
3 52 50 49
3 52 53 50
3 52 54 53
3 52 55 54
3 52 56 55
3 52 57 56
3 52 58 57
3 52 59 58
3 52 60 59
3 52 61 60
3 52 62 61
3 52 63 62
3 52 51 63
3 52 18 51
3 64 18 52
3 65 66 64
3 66 18 64
3 65 67 66
3 68 18 66
3 69 70 68
3 70 71 68
3 71 18 68
3 70 72 71
3 73 67 65
3 74 67 73
3 75 76 77
3 75 78 76
3 79 67 74
3 70 80 72
3 80 81 72
3 75 82 78
3 75 83 82
3 84 67 79
3 75 85 83
3 75 86 85
3 87 67 84
3 69 88 70
3 75 89 86
3 69 90 88
3 69 91 90
3 69 92 91
3 93 89 75
3 94 67 87
3 69 95 92
3 93 96 89
3 69 97 95
3 93 98 96
3 69 99 97
3 100 67 94
3 69 101 99
3 93 102 98
3 100 69 67
3 100 101 69
3 103 93 104
3 103 102 93
3 100 105 101
3 106 105 100
3 106 107 105
3 103 108 102
3 106 109 107
3 110 109 106
3 103 111 108
3 110 112 109
3 113 112 110
3 113 114 112
3 103 115 111
3 113 116 114
3 103 117 115
3 118 116 113
3 118 119 116
3 103 120 117
3 121 119 118
3 121 122 119
3 103 123 120
3 124 122 121
3 124 125 122
3 103 126 123
3 127 125 124
3 127 128 125
3 103 129 126
3 130 128 127
3 130 131 128
3 103 132 129
3 133 131 130
3 133 134 131
3 103 135 132
3 136 134 133
3 136 137 134
3 103 138 135
3 139 137 136
3 139 140 137
3 103 141 138
3 142 140 139
3 142 143 140
3 103 144 141
3 145 143 142
3 145 146 143
3 103 147 144
3 148 146 145
3 149 150 148
3 150 146 148
3 149 151 150
3 152 147 103
3 153 147 152
3 153 154 147
3 153 155 154
3 156 151 149
3 153 157 155
3 158 151 156
3 153 159 157
3 160 151 158
3 153 161 159
3 162 151 160
3 153 163 161
3 164 151 162
3 153 165 163
3 166 151 164
3 153 167 165
3 168 151 166
3 153 169 167
3 170 151 168
3 153 171 169
3 172 151 170
3 153 173 171
3 174 151 172
3 153 175 173
3 176 151 174
3 177 151 176
3 177 178 151
3 177 179 178
3 180 153 181
3 180 175 153
3 180 182 175
3 183 179 177
3 184 182 180
3 184 185 182
3 186 179 183
3 187 185 184
3 187 188 185
3 189 179 186
3 190 188 187
3 190 191 188
3 192 179 189
3 193 191 190
3 193 194 191
3 195 179 192
3 196 194 193
3 196 197 194
3 198 179 195
3 199 197 196
3 199 200 197
3 201 179 198
3 202 200 199
3 202 203 200
3 204 179 201
3 205 203 202
3 205 206 203
3 207 179 204
3 208 206 205
3 208 209 206
3 210 179 207
3 211 209 208
3 211 212 209
3 213 179 210
3 214 212 211
3 214 215 212
3 216 179 213
3 217 215 214
3 217 218 215
3 219 218 217
3 220 179 216
3 219 221 218
3 222 221 219
3 223 179 220
3 224 221 222
3 224 225 221
3 225 226 221
3 227 225 224
3 228 229 223
3 229 179 223
3 230 231 227
3 231 225 227
3 228 232 229
3 230 233 231
3 234 226 225
3 234 235 226
3 236 233 230
3 237 232 228
3 238 233 236
3 239 240 241
3 242 233 238
3 243 232 237
3 234 244 235
3 245 233 242
3 243 246 232
3 246 247 232
3 247 248 232
3 248 249 232
3 249 250 232
3 250 251 232
3 252 233 245
3 253 233 252
3 239 253 240
3 239 233 253
3 234 254 244
3 234 255 254
3 234 256 255
3 257 233 239
3 234 258 256
3 234 259 258
3 234 260 259
3 261 257 262
3 261 263 257
3 263 233 257
3 263 234 233
3 263 260 234
3 263 264 260
3 261 265 263
3 266 264 263
3 267 264 266
3 268 264 267
3 269 264 268
3 270 264 269
3 271 264 270
3 272 264 271
3 273 264 272
3 274 264 273
3 275 264 274
3 276 264 275
3 277 264 276
3 278 264 277
3 278 279 264
3 261 280 265
3 281 279 278
3 281 282 279
3 261 283 280
3 284 282 281
3 284 285 282
3 261 286 283
3 287 285 284
3 287 288 285
3 261 289 286
3 290 288 287
3 290 291 288
3 261 292 289
3 293 291 290
3 293 294 291
3 261 295 292
3 296 294 293
3 296 297 294
3 261 298 295
3 299 297 296
3 299 300 297
3 261 301 298
3 302 300 299
3 302 303 300
3 261 304 301
3 305 303 302
3 305 306 303
3 261 307 304
3 308 306 305
3 308 309 306
3 261 310 307
3 311 309 308
3 311 312 309
3 313 312 311
3 314 312 313
3 315 312 314
3 316 312 315
3 317 312 316
3 318 312 317
3 319 312 318
3 320 312 319
3 321 312 320
3 322 312 321
3 323 312 322
3 324 325 326
3 324 327 325
