ply
format ascii 1.0
comment Created in Blender version 4.2.2 LTS
element vertex 10
property float x
property float y
property float z
property float s
property float t
element face 6
property list uchar uint vertex_indices
end_header
-0.07297526 0.09135432 0 0.11111111 0
0.11032981 0.10968094 0 0.5555556 0
-0.07297526 0.10968094 0 0 0
0.09199931 0.09135432 0 0.22222222 0
0.11032981 -0.073585406 0 0.44444445 0
0.09199931 -0.073585406 0 0.33333334 0
-0.10963628 -0.11023868 0 0.7777778 0
0.07366879 0.07302768 0 1 0
-0.10963628 0.07302768 0 0.6666667 0
0.07366879 -0.11023868 0 0.8888889 0
3 0 1 2
3 0 3 1
3 3 4 1
3 5 4 3
3 6 7 8
3 6 9 7
