ply
format ascii 1.0
comment Created by Blender 2.90.0 - www.blender.org
element vertex 207
property float x
property float y
property float z
element face 205
property list uchar uint vertex_indices
end_header
-0.009432 0.099819 0.000000
0.003738 0.099869 0.000000
-0.002850 0.100291 0.000000
0.010061 0.098593 0.000000
-0.015738 0.098491 0.000000
0.016061 0.096523 0.000000
-0.021711 0.096368 0.000000
0.021679 0.093717 0.000000
-0.027296 0.093508 0.000000
0.026855 0.090233 0.000000
-0.032435 0.089972 0.000000
0.031532 0.086130 0.000000
-0.037073 0.085819 0.000000
0.035651 0.081468 0.000000
-0.041152 0.081111 0.000000
0.039152 0.076303 0.000000
-0.044616 0.075906 0.000000
-0.002914 0.074769 0.000000
0.000224 0.074587 0.000000
0.041977 0.070695 0.000000
-0.047408 0.070264 0.000000
-0.006016 0.074526 0.000000
0.003236 0.073996 0.000000
-0.008987 0.073879 0.000000
0.006096 0.073024 0.000000
-0.011800 0.072858 0.000000
0.008773 0.071699 0.000000
-0.014428 0.071490 0.000000
0.011241 0.070051 0.000000
-0.016847 0.069805 0.000000
0.044068 0.064703 0.000000
-0.049473 0.064247 0.000000
0.013472 0.068106 0.000000
-0.019028 0.067830 0.000000
0.015436 0.065893 0.000000
-0.020946 0.065595 0.000000
0.017106 0.063440 0.000000
-0.022575 0.063128 0.000000
0.045366 0.058385 0.000000
-0.050753 0.057912 0.000000
0.018454 0.060776 0.000000
-0.023887 0.060458 0.000000
0.019452 0.057930 0.000000
-0.024857 0.057613 0.000000
0.045811 0.051799 0.000000
0.020071 0.054928 0.000000
-0.051192 0.051321 0.000000
-0.025459 0.054621 0.000000
0.020284 0.051799 0.000000
-0.025665 0.051512 0.000000
0.020284 0.051699 0.000000
0.045811 0.051699 0.000000
0.020284 0.051421 0.000000
0.045811 0.051421 0.000000
-0.025665 0.013047 0.000000
0.020284 0.051002 0.000000
0.045811 0.051002 0.000000
-0.051192 0.050568 0.000000
0.020284 0.050476 0.000000
0.045811 0.050476 0.000000
-0.051192 0.048486 0.000000
0.020284 0.049879 0.000000
0.045811 0.049879 0.000000
0.020284 0.049247 0.000000
0.045811 0.049247 0.000000
0.020284 0.048615 0.000000
0.045811 0.048615 0.000000
0.020284 0.048018 0.000000
0.045811 0.048018 0.000000
-0.051192 0.045341 0.000000
0.020284 0.047493 0.000000
0.045811 0.047493 0.000000
0.020284 0.047073 0.000000
0.045811 0.047073 0.000000
0.020284 0.046795 0.000000
0.045811 0.046795 0.000000
0.020284 0.046695 0.000000
0.045811 0.046695 0.000000
0.020354 0.045653 0.000000
0.045742 0.045653 0.000000
0.020557 0.044655 0.000000
0.045539 0.044655 0.000000
-0.051192 0.041398 0.000000
0.020884 0.043709 0.000000
0.045212 0.043709 0.000000
0.021327 0.042824 0.000000
0.044769 0.042824 0.000000
0.021875 0.042010 0.000000
0.044220 0.042010 0.000000
0.022522 0.041276 0.000000
0.043574 0.041276 0.000000
-0.051192 0.036924 0.000000
0.023257 0.040629 0.000000
0.042839 0.040629 0.000000
0.024071 0.040081 0.000000
0.042025 0.040081 0.000000
0.024955 0.039638 0.000000
0.041140 0.039638 0.000000
0.025901 0.039311 0.000000
0.040194 0.039311 0.000000
0.026900 0.039108 0.000000
0.039195 0.039108 0.000000
0.027942 0.039038 0.000000
0.038153 0.039038 0.000000
0.028143 0.039038 0.000000
0.028699 0.039038 0.000000
0.029538 0.039038 0.000000
0.030590 0.039038 0.000000
0.031783 0.039038 0.000000
0.033048 0.039038 0.000000
0.034312 0.039038 0.000000
0.035506 0.039038 0.000000
0.036558 0.039038 0.000000
0.037397 0.039038 0.000000
0.037952 0.039038 0.000000
-0.051192 0.032184 0.000000
-0.051192 0.027444 0.000000
-0.051192 0.022970 0.000000
-0.051192 0.019027 0.000000
-0.051192 0.015882 0.000000
-0.051192 0.013800 0.000000
-0.051192 0.013047 0.000000
-0.060928 0.012907 0.000000
-0.058851 0.013047 0.000000
0.053470 0.013047 0.000000
0.055547 0.012907 0.000000
-0.062921 0.012500 0.000000
0.057540 0.012500 0.000000
-0.064811 0.011843 0.000000
0.059430 0.011843 0.000000
-0.066580 0.010956 0.000000
0.061199 0.010956 0.000000
-0.068209 0.009856 0.000000
0.062828 0.009856 0.000000
-0.069680 0.008561 0.000000
0.064299 0.008561 0.000000
-0.070975 0.007090 0.000000
0.065594 0.007090 0.000000
-0.072075 0.005461 0.000000
0.066694 0.005461 0.000000
-0.072963 0.003693 0.000000
0.067582 0.003693 0.000000
-0.073620 0.001804 0.000000
0.068239 0.001804 0.000000
-0.074027 -0.000189 0.000000
0.068646 -0.000189 0.000000
-0.074167 -0.002266 0.000000
0.068786 -0.002266 0.000000
-0.074167 -0.003270 0.000000
0.068786 -0.003270 0.000000
-0.074167 -0.006047 0.000000
0.068786 -0.006047 0.000000
-0.074167 -0.010242 0.000000
0.068786 -0.010242 0.000000
-0.074167 -0.015500 0.000000
0.068786 -0.015500 0.000000
-0.074167 -0.021467 0.000000
0.068786 -0.021467 0.000000
-0.074167 -0.027788 0.000000
0.068786 -0.027788 0.000000
-0.074167 -0.034109 0.000000
0.068786 -0.034109 0.000000
-0.074167 -0.040076 0.000000
0.068786 -0.040076 0.000000
-0.074167 -0.045334 0.000000
0.068786 -0.045334 0.000000
-0.074167 -0.049529 0.000000
0.068786 -0.049529 0.000000
-0.074167 -0.052306 0.000000
0.068786 -0.052306 0.000000
-0.074167 -0.053310 0.000000
0.068786 -0.053310 0.000000
-0.074027 -0.055387 0.000000
0.068646 -0.055387 0.000000
-0.073620 -0.057380 0.000000
0.068239 -0.057380 0.000000
-0.072963 -0.059269 0.000000
0.067582 -0.059269 0.000000
-0.072075 -0.061037 0.000000
0.066694 -0.061037 0.000000
-0.070975 -0.062666 0.000000
0.065594 -0.062666 0.000000
-0.069680 -0.064137 0.000000
0.064299 -0.064137 0.000000
-0.068209 -0.065431 0.000000
0.062828 -0.065431 0.000000
-0.066580 -0.066532 0.000000
0.061199 -0.066532 0.000000
-0.064811 -0.067419 0.000000
0.059430 -0.067419 0.000000
-0.062921 -0.068076 0.000000
0.057540 -0.068076 0.000000
-0.060928 -0.068483 0.000000
0.055547 -0.068483 0.000000
-0.058851 -0.068623 0.000000
0.053470 -0.068623 0.000000
-0.056641 -0.068623 0.000000
-0.050531 -0.068623 0.000000
-0.041301 -0.068623 0.000000
-0.029731 -0.068623 0.000000
-0.016601 -0.068623 0.000000
-0.002690 -0.068623 0.000000
0.011220 -0.068623 0.000000
0.024350 -0.068623 0.000000
0.035920 -0.068623 0.000000
0.045150 -0.068623 0.000000
0.051260 -0.068623 0.000000
3 0 1 2
3 0 3 1
3 4 3 0
3 4 5 3
3 6 5 4
3 6 7 5
3 8 7 6
3 8 9 7
3 10 9 8
3 10 11 9
3 12 11 10
3 12 13 11
3 14 13 12
3 14 15 13
3 16 15 14
3 16 17 15
3 17 18 15
3 18 19 15
3 20 21 16
3 21 17 16
3 22 19 18
3 20 23 21
3 24 19 22
3 20 25 23
3 26 19 24
3 20 27 25
3 28 19 26
3 20 29 27
3 28 30 19
3 31 29 20
3 32 30 28
3 31 33 29
3 34 30 32
3 31 35 33
3 36 30 34
3 31 37 35
3 36 38 30
3 39 37 31
3 40 38 36
3 39 41 37
3 42 38 40
3 39 43 41
3 42 44 38
3 45 44 42
3 46 43 39
3 46 47 43
3 48 44 45
3 46 49 47
3 50 44 48
3 50 51 44
3 52 51 50
3 52 53 51
3 46 54 49
3 55 53 52
3 55 56 53
3 57 54 46
3 58 56 55
3 58 59 56
3 60 54 57
3 61 59 58
3 61 62 59
3 63 62 61
3 63 64 62
3 65 64 63
3 65 66 64
3 67 66 65
3 67 68 66
3 69 54 60
3 70 68 67
3 70 71 68
3 72 71 70
3 72 73 71
3 74 73 72
3 74 75 73
3 76 75 74
3 76 77 75
3 78 77 76
3 78 79 77
3 80 79 78
3 80 81 79
3 82 54 69
3 83 81 80
3 83 84 81
3 85 84 83
3 85 86 84
3 87 86 85
3 87 88 86
3 89 88 87
3 89 90 88
3 91 54 82
3 92 90 89
3 92 93 90
3 94 93 92
3 94 95 93
3 96 95 94
3 96 97 95
3 98 97 96
3 98 99 97
3 100 99 98
3 100 101 99
3 102 101 100
3 102 103 101
3 104 103 102
3 105 103 104
3 106 103 105
3 107 103 106
3 108 103 107
3 109 103 108
3 110 103 109
3 111 103 110
3 112 103 111
3 113 103 112
3 114 103 113
3 115 54 91
3 116 54 115
3 117 54 116
3 118 54 117
3 119 54 118
3 120 54 119
3 121 54 120
3 122 121 123
3 122 54 121
3 122 124 54
3 122 125 124
3 126 125 122
3 126 127 125
3 128 127 126
3 128 129 127
3 130 129 128
3 130 131 129
3 132 131 130
3 132 133 131
3 134 133 132
3 134 135 133
3 136 135 134
3 136 137 135
3 138 137 136
3 138 139 137
3 140 139 138
3 140 141 139
3 142 141 140
3 142 143 141
3 144 143 142
3 144 145 143
3 146 145 144
3 146 147 145
3 148 147 146
3 148 149 147
3 150 149 148
3 150 151 149
3 152 151 150
3 152 153 151
3 154 153 152
3 154 155 153
3 156 155 154
3 156 157 155
3 158 157 156
3 158 159 157
3 160 159 158
3 160 161 159
3 162 161 160
3 162 163 161
3 164 163 162
3 164 165 163
3 166 165 164
3 166 167 165
3 168 167 166
3 168 169 167
3 170 169 168
3 170 171 169
3 172 171 170
3 172 173 171
3 174 173 172
3 174 175 173
3 176 175 174
3 176 177 175
3 178 177 176
3 178 179 177
3 180 179 178
3 180 181 179
3 182 181 180
3 182 183 181
3 184 183 182
3 184 185 183
3 186 185 184
3 186 187 185
3 188 187 186
3 188 189 187
3 190 189 188
3 190 191 189
3 192 191 190
3 192 193 191
3 194 193 192
3 194 195 193
3 196 195 194
3 197 195 196
3 198 195 197
3 199 195 198
3 200 195 199
3 201 195 200
3 202 195 201
3 203 195 202
3 204 195 203
3 205 195 204
3 206 195 205
