ply
format ascii 1.0
comment Created by Blender 2.91.2 - www.blender.org
element vertex 183
property float x
property float y
property float z
element face 187
property list uchar uint vertex_indices
end_header
-0.007900 0.079000 -0.000010
0.003131 0.079042 -0.000010
-0.002387 0.079396 -0.000010
0.008428 0.077974 -0.000010
-0.013182 0.077888 -0.000010
0.013453 0.076239 -0.000010
-0.018186 0.076109 -0.000010
0.018159 0.073889 -0.000010
-0.022864 0.073714 -0.000010
0.022495 0.070971 -0.000010
-0.027169 0.070752 -0.000010
0.026412 0.067534 -0.000010
-0.031053 0.067274 -0.000010
0.029862 0.063628 -0.000010
-0.034470 0.063330 -0.000010
0.032795 0.059302 -0.000010
-0.037372 0.058970 -0.000010
-0.002441 0.058018 -0.000010
0.000188 0.057865 -0.000010
0.035162 0.054605 -0.000010
-0.039711 0.054244 -0.000010
-0.005039 0.057814 -0.000010
0.002711 0.057370 -0.000010
-0.007527 0.057272 -0.000010
0.005106 0.056556 -0.000010
-0.009884 0.056417 -0.000010
0.007349 0.055446 -0.000010
-0.012086 0.055271 -0.000010
0.009416 0.054065 -0.000010
-0.014111 0.053859 -0.000010
0.036913 0.049586 -0.000010
-0.041440 0.049204 -0.000010
0.011284 0.052436 -0.000010
-0.015938 0.052205 -0.000010
0.012930 0.050582 -0.000010
-0.017545 0.050333 -0.000010
0.014329 0.048528 -0.000010
-0.018909 0.048267 -0.000010
0.038000 0.044294 -0.000010
-0.042513 0.043898 -0.000010
0.015458 0.046297 -0.000010
-0.020009 0.046030 -0.000010
0.016294 0.043912 -0.000010
-0.020821 0.043647 -0.000010
0.038373 0.038777 -0.000010
0.016813 0.041398 -0.000010
-0.042881 0.038377 -0.000010
-0.021325 0.041141 -0.000010
0.016991 0.038777 -0.000010
-0.021498 0.038537 -0.000010
0.016991 0.038230 -0.000010
0.038373 0.038230 -0.000010
-0.021498 0.010986 -0.000010
-0.042881 0.037838 -0.000010
0.016991 0.036716 -0.000010
0.038373 0.036716 -0.000010
-0.042881 0.036348 -0.000010
0.016991 0.034428 -0.000010
0.038373 0.034428 -0.000010
-0.042881 0.034097 -0.000010
0.016991 0.031561 -0.000010
0.038373 0.031561 -0.000010
-0.042881 0.031275 -0.000010
0.016991 0.028308 -0.000010
0.038373 0.028308 -0.000010
-0.042881 0.028073 -0.000010
0.016991 0.024861 -0.000010
0.038373 0.024861 -0.000010
-0.042881 0.024681 -0.000010
0.016991 0.021414 -0.000010
0.038373 0.021414 -0.000010
-0.042881 0.021289 -0.000010
0.016991 0.018160 -0.000010
0.038373 0.018160 -0.000010
-0.042881 0.018087 -0.000010
0.016991 0.015293 -0.000010
0.038373 0.015293 -0.000010
-0.042881 0.015266 -0.000010
0.016991 0.013006 -0.000010
0.038373 0.013006 -0.000010
-0.042881 0.013015 -0.000010
-0.042881 0.011525 -0.000010
0.016991 0.011492 -0.000010
0.038373 0.011492 -0.000010
-0.042881 0.010986 -0.000010
0.016991 0.010944 -0.000010
0.018310 0.010945 -0.000010
0.019818 0.010945 -0.000010
0.038373 0.010944 -0.000010
-0.051036 0.010869 -0.000010
-0.049295 0.010986 -0.000010
0.044788 0.010986 -0.000010
0.021483 0.010945 -0.000010
0.023275 0.010944 -0.000010
0.046528 0.010869 -0.000010
0.036705 0.010942 -0.000010
0.025161 0.010943 -0.000010
0.027111 0.010942 -0.000010
0.029092 0.010941 -0.000010
0.034912 0.010941 -0.000010
0.031073 0.010941 -0.000010
0.033024 0.010941 -0.000010
-0.052705 0.010528 -0.000010
0.048198 0.010528 -0.000010
-0.054288 0.009978 -0.000010
0.049781 0.009978 -0.000010
-0.055769 0.009234 -0.000010
0.051262 0.009234 -0.000010
-0.057134 0.008313 -0.000010
0.052627 0.008313 -0.000010
-0.058366 0.007228 -0.000010
0.053859 0.007228 -0.000010
-0.059451 0.005996 -0.000010
0.054944 0.005996 -0.000010
-0.060373 0.004632 -0.000010
0.055865 0.004632 -0.000010
-0.061116 0.003151 -0.000010
0.056609 0.003151 -0.000010
-0.061666 0.001568 -0.000010
0.057159 0.001568 -0.000010
-0.062008 -0.000101 -0.000010
0.057500 -0.000101 -0.000010
-0.062125 -0.001841 -0.000010
0.057618 -0.001841 -0.000010
-0.062125 -0.002682 -0.000010
0.057618 -0.002682 -0.000010
-0.062125 -0.005008 -0.000010
0.057618 -0.005008 -0.000010
-0.062125 -0.008522 -0.000010
0.057618 -0.008522 -0.000010
-0.062125 -0.012926 -0.000010
0.057618 -0.012926 -0.000010
-0.062125 -0.017924 -0.000010
0.057618 -0.017924 -0.000010
-0.062125 -0.023219 -0.000010
0.057618 -0.023219 -0.000010
-0.062125 -0.028514 -0.000010
0.057618 -0.028514 -0.000010
-0.062125 -0.033512 -0.000010
0.057618 -0.033512 -0.000010
-0.062125 -0.037916 -0.000010
0.057618 -0.037916 -0.000010
-0.062125 -0.041430 -0.000010
0.057618 -0.041430 -0.000010
-0.062125 -0.043756 -0.000010
0.057618 -0.043756 -0.000010
-0.062125 -0.044597 -0.000010
0.057618 -0.044597 -0.000010
-0.062008 -0.046337 -0.000010
0.057500 -0.046337 -0.000010
-0.061666 -0.048006 -0.000010
0.057159 -0.048006 -0.000010
-0.061116 -0.049589 -0.000010
0.056609 -0.049589 -0.000010
-0.060373 -0.051070 -0.000010
0.055865 -0.051070 -0.000010
-0.059451 -0.052434 -0.000010
0.054944 -0.052434 -0.000010
-0.058366 -0.053666 -0.000010
0.053859 -0.053666 -0.000010
-0.057134 -0.054750 -0.000010
0.052627 -0.054750 -0.000010
-0.055769 -0.055672 -0.000010
0.051262 -0.055672 -0.000010
-0.054288 -0.056415 -0.000010
0.049781 -0.056415 -0.000010
-0.052705 -0.056965 -0.000010
0.048198 -0.056965 -0.000010
-0.051036 -0.057307 -0.000010
0.046528 -0.057307 -0.000010
-0.049295 -0.057424 -0.000010
0.044788 -0.057424 -0.000010
-0.047444 -0.057424 -0.000010
-0.042326 -0.057424 -0.000010
-0.034595 -0.057424 -0.000010
-0.024903 -0.057424 -0.000010
-0.013905 -0.057424 -0.000010
-0.002254 -0.057424 -0.000010
0.009398 -0.057424 -0.000010
0.020396 -0.057424 -0.000010
0.030087 -0.057424 -0.000010
0.037819 -0.057424 -0.000010
0.042937 -0.057424 -0.000010
3 0 1 2
3 0 3 1
3 4 3 0
3 4 5 3
3 6 5 4
3 6 7 5
3 8 7 6
3 8 9 7
3 10 9 8
3 10 11 9
3 12 11 10
3 12 13 11
3 14 13 12
3 14 15 13
3 16 15 14
3 16 17 15
3 17 18 15
3 18 19 15
3 20 21 16
3 21 17 16
3 22 19 18
3 20 23 21
3 24 19 22
3 20 25 23
3 26 19 24
3 20 27 25
3 28 19 26
3 20 29 27
3 28 30 19
3 31 29 20
3 32 30 28
3 31 33 29
3 34 30 32
3 31 35 33
3 36 30 34
3 31 37 35
3 36 38 30
3 39 37 31
3 40 38 36
3 39 41 37
3 42 38 40
3 39 43 41
3 42 44 38
3 45 44 42
3 46 43 39
3 46 47 43
3 48 44 45
3 46 49 47
3 50 44 48
3 50 51 44
3 46 52 49
3 53 52 46
3 54 51 50
3 54 55 51
3 56 52 53
3 57 55 54
3 57 58 55
3 59 52 56
3 60 58 57
3 60 61 58
3 62 52 59
3 63 61 60
3 63 64 61
3 65 52 62
3 66 64 63
3 66 67 64
3 68 52 65
3 69 67 66
3 69 70 67
3 71 52 68
3 72 70 69
3 72 73 70
3 74 52 71
3 75 73 72
3 75 76 73
3 77 52 74
3 78 76 75
3 78 79 76
3 80 52 77
3 81 52 80
3 82 79 78
3 82 83 79
3 84 52 81
3 85 83 82
3 85 86 83
3 86 87 83
3 87 88 83
3 89 84 90
3 89 52 84
3 89 91 52
3 89 87 91
3 87 92 91
3 92 93 91
3 93 88 91
3 88 94 91
3 89 93 87
3 93 88 87
3 95 94 88
3 89 96 93
3 89 97 96
3 89 98 97
3 99 94 95
3 89 100 98
3 101 94 99
3 89 101 100
3 89 94 101
3 102 94 89
3 102 103 94
3 104 103 102
3 104 105 103
3 106 105 104
3 106 107 105
3 108 107 106
3 108 109 107
3 110 109 108
3 110 111 109
3 112 111 110
3 112 113 111
3 114 113 112
3 114 115 113
3 116 115 114
3 116 117 115
3 118 117 116
3 118 119 117
3 120 119 118
3 120 121 119
3 122 121 120
3 122 123 121
3 124 123 122
3 124 125 123
3 126 125 124
3 126 127 125
3 128 127 126
3 128 129 127
3 130 129 128
3 130 131 129
3 132 131 130
3 132 133 131
3 134 133 132
3 134 135 133
3 136 135 134
3 136 137 135
3 138 137 136
3 138 139 137
3 140 139 138
3 140 141 139
3 142 141 140
3 142 143 141
3 144 143 142
3 144 145 143
3 146 145 144
3 146 147 145
3 148 147 146
3 148 149 147
3 150 149 148
3 150 151 149
3 152 151 150
3 152 153 151
3 154 153 152
3 154 155 153
3 156 155 154
3 156 157 155
3 158 157 156
3 158 159 157
3 160 159 158
3 160 161 159
3 162 161 160
3 162 163 161
3 164 163 162
3 164 165 163
3 166 165 164
3 166 167 165
3 168 167 166
3 168 169 167
3 170 169 168
3 170 171 169
3 172 171 170
3 173 171 172
3 174 171 173
3 175 171 174
3 176 171 175
3 177 171 176
3 178 171 177
3 179 171 178
3 180 171 179
3 181 171 180
3 182 171 181
