ply
format ascii 1.0
comment Created by Blender 2.91.0 - www.blender.org
element vertex 470
property float x
property float y
property float z
element face 468
property list uchar uint vertex_indices
end_header
-0.099706 0.091319 0.000014
-0.098970 0.091314 0.000014
-0.099337 0.091328 0.000014
-0.100075 0.091285 0.000014
-0.098605 0.091275 0.000014
-0.100442 0.091227 0.000014
-0.098245 0.091213 0.000014
-0.100802 0.091145 0.000014
-0.097890 0.091128 0.000014
-0.101154 0.091040 0.000014
-0.097541 0.091019 0.000014
-0.101498 0.090913 0.000014
-0.097200 0.090889 0.000014
-0.101831 0.090764 0.000014
-0.096867 0.090735 0.000014
-0.102155 0.090594 0.000014
-0.096544 0.090560 0.000014
-0.102466 0.090403 0.000014
-0.096231 0.090364 0.000014
-0.102765 0.090192 0.000014
-0.095931 0.090146 0.000014
-0.103049 0.089962 0.000014
-0.095053 0.089467 0.000014
-0.103319 0.089713 0.000014
-0.103574 0.089445 0.000014
-0.092625 0.087591 0.000014
-0.103811 0.089160 0.000014
-0.103946 0.088986 0.000014
-0.104321 0.088503 0.000014
-0.104887 0.087775 0.000014
-0.105596 0.086862 0.000014
-0.088957 0.084756 0.000014
-0.106401 0.085826 0.000014
-0.107254 0.084728 0.000014
-0.084360 0.081204 0.000014
-0.108107 0.083630 0.000014
-0.108912 0.082594 0.000014
-0.109622 0.081681 0.000014
-0.110188 0.080953 0.000014
-0.079142 0.077172 0.000014
-0.110562 0.080471 0.000014
-0.110698 0.080296 0.000014
-0.110916 0.079996 0.000014
-0.111112 0.079684 0.000014
-0.111287 0.079361 0.000014
-0.111440 0.079029 0.000014
-0.111571 0.078687 0.000014
-0.111679 0.078339 0.000014
-0.111764 0.077984 0.000014
-0.111826 0.077624 0.000014
-0.111864 0.077260 0.000014
-0.111879 0.076893 0.000014
-0.073615 0.072901 0.000014
-0.111870 0.076524 0.000014
-0.111836 0.076155 0.000014
-0.111778 0.075789 0.000014
-0.111696 0.075429 0.000014
-0.111591 0.075077 0.000014
-0.111464 0.074734 0.000014
-0.111315 0.074400 0.000014
-0.111145 0.074077 0.000014
-0.110954 0.073766 0.000014
-0.110744 0.073467 0.000014
-0.110513 0.073183 0.000014
-0.110264 0.072913 0.000014
-0.109997 0.072659 0.000014
-0.068087 0.068629 0.000014
-0.109712 0.072422 0.000014
-0.105650 0.069283 0.000014
-0.094422 0.060607 0.000014
-0.004122 0.068780 0.000014
0.011047 0.068364 0.000014
0.000386 0.068879 0.000014
-0.008613 0.068493 0.000014
-0.062870 0.064597 0.000014
-0.013080 0.068021 0.000014
0.021434 0.066847 0.000014
-0.017518 0.067364 0.000014
-0.021922 0.066525 0.000014
0.031502 0.064376 0.000014
-0.026285 0.065505 0.000014
-0.030601 0.064305 0.000014
-0.058272 0.061045 0.000014
0.041205 0.060994 0.000014
-0.034867 0.062926 0.000014
-0.039075 0.061370 0.000014
-0.043220 0.059639 0.000014
-0.054604 0.058210 0.000014
0.050498 0.056749 0.000014
-0.077459 0.047500 0.000014
-0.047296 0.057733 0.000014
-0.052176 0.056334 0.000014
-0.051298 0.055655 0.000014
0.059334 0.051684 0.000014
-0.002527 0.051955 0.000014
0.000386 0.052043 0.000014
0.002600 0.051995 0.000014
0.004804 0.051852 0.000014
-0.005419 0.051700 0.000014
0.006996 0.051612 0.000014
-0.008281 0.051278 0.000014
0.067668 0.045847 0.000014
0.009172 0.051278 0.000014
-0.011107 0.050693 0.000014
0.011329 0.050849 0.000014
0.013465 0.050327 0.000014
-0.013890 0.049948 0.000014
0.015576 0.049713 0.000014
-0.016623 0.049043 0.000014
0.017659 0.049007 0.000014
-0.019299 0.047983 0.000014
0.019711 0.048211 0.000014
0.021729 0.047324 0.000014
-0.021912 0.046769 0.000014
-0.056197 0.031070 0.000014
0.023711 0.046348 0.000014
-0.024455 0.045404 0.000014
0.025652 0.045284 0.000014
0.075455 0.039282 0.000014
-0.026920 0.043891 0.000014
0.027545 0.044136 0.000014
0.029382 0.042909 0.000014
-0.029302 0.042232 0.000014
0.031160 0.041605 0.000014
-0.031592 0.040429 0.000014
0.032876 0.040227 0.000014
-0.031084 0.040036 0.000014
0.034530 0.038777 0.000014
-0.029679 0.038951 0.000014
0.082647 0.032034 0.000014
-0.027557 0.037311 0.000014
0.036118 0.037257 0.000014
-0.024897 0.035256 0.000014
0.037638 0.035669 0.000014
0.039088 0.034016 0.000014
-0.021878 0.032923 0.000014
-0.001705 0.035113 0.000014
0.001731 0.035197 0.000014
0.000013 0.035199 0.000014
0.003447 0.035105 0.000014
-0.003417 0.034937 0.000014
0.005156 0.034926 0.000014
-0.005122 0.034673 0.000014
0.006857 0.034657 0.000014
-0.006815 0.034320 0.000014
0.008545 0.034300 0.000014
-0.008493 0.033877 0.000014
0.010216 0.033855 0.000014
0.040467 0.032300 0.000014
-0.007985 0.033148 0.000014
0.011867 0.033322 0.000014
0.013489 0.032703 0.000014
-0.007517 0.032396 0.000014
-0.018680 0.030452 0.000014
0.015070 0.032003 0.000014
-0.007091 0.031623 0.000014
0.041771 0.030523 0.000014
0.089200 0.024150 0.000014
0.016609 0.031223 0.000014
-0.006707 0.030829 0.000014
0.018103 0.030367 0.000014
-0.032067 0.012424 0.000014
-0.006367 0.030018 0.000014
0.042998 0.028687 0.000014
-0.015481 0.027980 0.000014
0.019548 0.029436 0.000014
-0.006069 0.029190 0.000014
0.020942 0.028432 0.000014
-0.005815 0.028348 0.000014
0.044146 0.026794 0.000014
0.022283 0.027358 0.000014
-0.005606 0.027493 0.000014
-0.012462 0.025648 0.000014
-0.005442 0.026628 0.000014
0.023567 0.026215 0.000014
0.045211 0.024853 0.000014
-0.005324 0.025753 0.000014
0.024792 0.025005 0.000014
-0.087751 0.024625 0.000014
-0.085826 0.025590 0.000014
-0.086550 0.026150 0.000014
-0.005252 0.024870 0.000014
-0.009802 0.023592 0.000014
-0.083824 0.024043 0.000014
0.025955 0.023731 0.000014
-0.005227 0.023982 0.000014
0.046187 0.022872 0.000014
-0.088935 0.023085 0.000014
0.095068 0.015675 0.000014
-0.080800 0.021706 0.000014
-0.005243 0.023686 0.000014
0.027053 0.022395 0.000014
-0.005264 0.023390 0.000014
-0.007680 0.021952 0.000014
-0.005290 0.023095 0.000014
-0.005322 0.022800 0.000014
-0.090099 0.021529 0.000014
0.047074 0.020854 0.000014
-0.005359 0.022507 0.000014
-0.005402 0.022213 0.000014
0.028083 0.020999 0.000014
-0.005449 0.021921 0.000014
-0.006275 0.020867 0.000014
-0.005502 0.021630 0.000014
-0.077009 0.018777 0.000014
-0.005561 0.021339 0.000014
-0.091242 0.019956 0.000014
-0.005624 0.021050 0.000014
-0.005693 0.020761 0.000014
0.029039 0.019550 0.000014
-0.005767 0.020474 0.000014
0.047871 0.018802 0.000014
-0.092362 0.018365 0.000014
0.029915 0.018060 0.000014
0.048576 0.016719 0.000014
-0.072706 0.015453 0.000014
-0.093458 0.016755 0.000014
0.030711 0.016529 0.000014
-0.094528 0.015126 0.000014
0.049191 0.014609 0.000014
0.031424 0.014963 0.000014
0.100205 0.006654 0.000014
-0.068149 0.011932 0.000014
-0.095571 0.013476 0.000014
0.032055 0.013364 0.000014
0.049713 0.012474 0.000014
-0.096584 0.011804 0.000014
0.032602 0.011735 0.000014
0.050141 0.010317 0.000014
-0.006504 -0.007329 0.000014
-0.063591 0.008410 0.000014
-0.097567 0.010110 0.000014
0.033065 0.010081 0.000014
0.050476 0.008141 0.000014
-0.098517 0.008392 0.000014
0.033441 0.008404 0.000014
-0.059289 0.005086 0.000014
0.033730 0.006707 0.000014
-0.099432 0.006651 0.000014
0.050715 0.005950 0.000014
0.033932 0.004994 0.000014
0.100398 0.006254 0.000014
-0.099625 0.006251 0.000014
0.100575 0.005848 0.000014
-0.099802 0.005844 0.000014
0.050859 0.003747 0.000014
0.100735 0.005435 0.000014
-0.099962 0.005432 0.000014
0.100879 0.005017 0.000014
-0.100106 0.005014 0.000014
-0.055498 0.002157 0.000014
0.101006 0.004594 0.000014
-0.100233 0.004590 0.000014
0.034044 0.003268 0.000014
0.101117 0.004167 0.000014
-0.100344 0.004163 0.000014
0.101211 0.003735 0.000014
-0.100438 0.003732 0.000014
0.050906 0.001533 0.000014
0.101288 0.003300 0.000014
-0.100515 0.003297 0.000014
0.101348 0.002862 0.000014
-0.100575 0.002859 0.000014
0.034066 0.001533 0.000014
0.101391 0.002422 0.000014
-0.100619 0.002418 0.000014
0.101417 0.001979 0.000014
-0.100645 0.001976 0.000014
-0.052474 -0.000180 0.000014
0.101426 0.001535 0.000014
-0.100653 0.001532 0.000014
0.101417 0.001091 0.000014
0.034043 0.000647 0.000014
0.050868 -0.000353 0.000014
-0.100645 0.001088 0.000014
0.101392 0.000649 0.000014
-0.100619 0.000645 0.000014
0.101348 0.000208 0.000014
0.033996 -0.000238 0.000014
-0.100575 0.000205 0.000014
0.101288 -0.000230 0.000014
-0.100515 -0.000233 0.000014
-0.050472 -0.001727 0.000014
0.101211 -0.000665 0.000014
-0.100438 -0.000668 0.000014
0.033925 -0.001121 0.000014
0.050755 -0.002217 0.000014
0.101117 -0.001096 0.000014
-0.100344 -0.001100 0.000014
0.101006 -0.001524 0.000014
-0.100233 -0.001527 0.000014
0.033830 -0.002001 0.000014
0.100879 -0.001947 0.000014
-0.100106 -0.001950 0.000014
-0.049748 -0.002286 0.000014
0.100735 -0.002365 0.000014
-0.099962 -0.002368 0.000014
0.033713 -0.002879 0.000014
0.050569 -0.004058 0.000014
-0.048853 -0.008687 0.000014
0.100575 -0.002777 0.000014
-0.099802 -0.002781 0.000014
0.100398 -0.003184 0.000014
-0.099625 -0.003188 0.000014
0.033572 -0.003752 0.000014
0.100205 -0.003584 0.000014
-0.099432 -0.003588 0.000014
0.098392 -0.006978 0.000014
-0.094295 -0.012609 0.000014
0.033408 -0.004621 0.000014
0.050313 -0.005877 0.000014
0.033221 -0.005486 0.000014
0.033010 -0.006346 0.000014
0.049990 -0.007672 0.000014
0.032777 -0.007201 0.000014
0.096470 -0.010306 0.000014
0.032521 -0.008049 0.000014
0.019059 -0.027082 0.000014
0.049601 -0.009444 0.000014
0.032242 -0.008891 0.000014
-0.047194 -0.014806 0.000014
0.046030 -0.019547 0.000014
0.049149 -0.011192 0.000014
0.094441 -0.013564 0.000014
0.048637 -0.012915 0.000014
-0.088427 -0.021084 0.000014
0.048066 -0.014612 0.000014
0.092307 -0.016751 0.000014
0.047440 -0.016285 0.000014
-0.044820 -0.020591 0.000014
0.046760 -0.017931 0.000014
0.090071 -0.019865 0.000014
0.046030 -0.019551 0.000014
0.046030 -0.019547 0.000014
0.046030 -0.019547 0.000014
0.046030 -0.019548 0.000014
0.046030 -0.019548 0.000014
0.046030 -0.019549 0.000014
0.046030 -0.019549 0.000014
0.046030 -0.019549 0.000014
0.046030 -0.019550 0.000014
0.046030 -0.019550 0.000014
0.046030 -0.019550 0.000014
0.046030 -0.019551 0.000014
0.087733 -0.022902 0.000014
-0.041782 -0.025990 0.000014
-0.081874 -0.028968 0.000014
0.085297 -0.025861 0.000014
0.082764 -0.028738 0.000014
-0.038131 -0.030949 0.000014
0.043189 -0.045727 0.000014
0.080135 -0.031532 0.000014
-0.074682 -0.036215 0.000014
-0.033916 -0.035417 0.000014
0.077414 -0.034239 0.000014
0.074602 -0.036858 0.000014
-0.029188 -0.039342 0.000014
-0.066895 -0.042780 0.000014
0.071700 -0.039386 0.000014
-0.023998 -0.042670 0.000014
0.110485 -0.069355 0.000014
-0.018395 -0.045350 0.000014
-0.058561 -0.048618 0.000014
-0.012429 -0.047330 0.000014
0.064452 -0.062157 0.000014
-0.006152 -0.048556 0.000014
0.008756 -0.048200 0.000014
0.009866 -0.048338 0.000014
0.009508 -0.048060 0.000014
0.008001 -0.048328 0.000014
0.007245 -0.048444 0.000014
0.010857 -0.049104 0.000014
0.006487 -0.048550 0.000014
0.005728 -0.048643 0.000014
0.000386 -0.048976 0.000014
-0.049725 -0.053682 0.000014
0.004968 -0.048725 0.000014
0.004207 -0.048796 0.000014
0.003444 -0.048855 0.000014
0.002681 -0.048903 0.000014
0.001917 -0.048939 0.000014
0.001152 -0.048963 0.000014
0.012353 -0.050261 0.000014
0.014228 -0.051712 0.000014
0.016356 -0.053358 0.000014
0.018611 -0.055102 0.000014
-0.040433 -0.057928 0.000014
0.020865 -0.056846 0.000014
0.022993 -0.058492 0.000014
-0.030729 -0.061309 0.000014
0.024868 -0.059943 0.000014
0.026364 -0.061100 0.000014
0.027355 -0.061866 0.000014
-0.020661 -0.063780 0.000014
0.027713 -0.062143 0.000014
0.025512 -0.062692 0.000014
0.081414 -0.075264 0.000014
0.023296 -0.063202 0.000014
0.021068 -0.063673 0.000014
0.018825 -0.064102 0.000014
-0.010274 -0.065297 0.000014
0.016569 -0.064487 0.000014
0.014298 -0.064828 0.000014
0.012014 -0.065121 0.000014
0.009716 -0.065365 0.000014
0.000386 -0.065812 0.000014
0.007405 -0.065558 0.000014
0.005079 -0.065698 0.000014
0.002740 -0.065783 0.000014
0.110770 -0.069592 0.000014
0.111038 -0.069846 0.000014
0.111287 -0.070116 0.000014
0.111517 -0.070400 0.000014
0.111728 -0.070699 0.000014
0.111919 -0.071010 0.000014
0.112089 -0.071333 0.000014
0.112238 -0.071666 0.000014
0.112366 -0.072010 0.000014
0.112470 -0.072362 0.000014
0.112552 -0.072721 0.000014
0.112611 -0.073087 0.000014
0.112645 -0.073457 0.000014
0.112654 -0.073825 0.000014
0.112640 -0.074192 0.000014
0.112601 -0.074556 0.000014
0.112540 -0.074917 0.000014
0.112454 -0.075271 0.000014
0.092643 -0.083941 0.000014
0.112346 -0.075620 0.000014
0.112216 -0.075961 0.000014
0.112063 -0.076294 0.000014
0.111888 -0.076617 0.000014
0.111692 -0.076929 0.000014
0.111474 -0.077230 0.000014
0.111339 -0.077404 0.000014
0.110964 -0.077886 0.000014
0.110398 -0.078614 0.000014
0.109688 -0.079528 0.000014
0.108882 -0.080564 0.000014
0.108029 -0.081661 0.000014
0.107176 -0.082759 0.000014
0.106370 -0.083795 0.000014
0.105660 -0.084708 0.000014
0.096704 -0.087079 0.000014
0.105094 -0.085437 0.000014
0.104719 -0.085919 0.000014
0.104584 -0.086093 0.000014
0.104347 -0.086379 0.000014
0.104092 -0.086646 0.000014
0.103822 -0.086895 0.000014
0.103538 -0.087126 0.000014
0.097004 -0.087297 0.000014
0.103239 -0.087337 0.000014
0.097317 -0.087494 0.000014
0.102928 -0.087527 0.000014
0.097640 -0.087669 0.000014
0.102604 -0.087698 0.000014
0.097973 -0.087822 0.000014
0.102271 -0.087847 0.000014
0.098314 -0.087953 0.000014
0.101927 -0.087974 0.000014
0.098663 -0.088061 0.000014
0.101575 -0.088078 0.000014
0.099018 -0.088146 0.000014
0.101215 -0.088160 0.000014
0.099378 -0.088208 0.000014
0.100848 -0.088218 0.000014
0.099743 -0.088247 0.000014
0.100479 -0.088252 0.000014
0.100110 -0.088262 0.000014
3 0 1 2
3 3 1 0
3 3 4 1
3 5 4 3
3 5 6 4
3 7 6 5
3 7 8 6
3 9 8 7
3 9 10 8
3 11 10 9
3 11 12 10
3 13 12 11
3 13 14 12
3 15 14 13
3 15 16 14
3 17 16 15
3 17 18 16
3 19 18 17
3 19 20 18
3 21 20 19
3 21 22 20
3 23 22 21
3 24 22 23
3 24 25 22
3 26 25 24
3 27 25 26
3 28 25 27
3 29 25 28
3 30 25 29
3 30 31 25
3 32 31 30
3 33 31 32
3 33 34 31
3 35 34 33
3 36 34 35
3 37 34 36
3 38 34 37
3 38 39 34
3 40 39 38
3 41 39 40
3 42 39 41
3 43 39 42
3 44 39 43
3 45 39 44
3 46 39 45
3 47 39 46
3 48 39 47
3 49 39 48
3 50 39 49
3 51 39 50
3 51 52 39
3 53 52 51
3 54 52 53
3 55 52 54
3 56 52 55
3 57 52 56
3 58 52 57
3 59 52 58
3 60 52 59
3 61 52 60
3 62 52 61
3 63 52 62
3 64 52 63
3 65 52 64
3 65 66 52
3 67 66 65
3 68 66 67
3 69 66 68
3 70 71 72
3 73 71 70
3 69 74 66
3 75 71 73
3 75 76 71
3 77 76 75
3 78 76 77
3 78 79 76
3 80 79 78
3 81 79 80
3 69 82 74
3 81 83 79
3 84 83 81
3 85 83 84
3 86 83 85
3 69 87 82
3 86 88 83
3 89 87 69
3 90 88 86
3 89 91 87
3 92 88 90
3 92 93 88
3 89 92 91
3 89 94 92
3 94 95 92
3 95 93 92
3 96 93 95
3 97 93 96
3 89 98 94
3 99 93 97
3 89 100 98
3 99 101 93
3 102 101 99
3 89 103 100
3 104 101 102
3 105 101 104
3 89 106 103
3 107 101 105
3 89 108 106
3 109 101 107
3 89 110 108
3 111 101 109
3 112 101 111
3 89 113 110
3 114 113 89
3 115 101 112
3 114 116 113
3 117 101 115
3 117 118 101
3 114 119 116
3 120 118 117
3 121 118 120
3 114 122 119
3 123 118 121
3 114 124 122
3 125 118 123
3 114 126 124
3 127 118 125
3 114 128 126
3 127 129 118
3 114 130 128
3 131 129 127
3 114 132 130
3 133 129 131
3 134 129 133
3 114 135 132
3 136 137 138
3 136 139 137
3 140 139 136
3 140 141 139
3 142 141 140
3 142 143 141
3 144 143 142
3 144 145 143
3 146 145 144
3 146 147 145
3 148 129 134
3 149 147 146
3 149 150 147
3 149 151 150
3 152 151 149
3 114 153 135
3 152 154 151
3 155 154 152
3 156 129 148
3 156 157 129
3 155 158 154
3 159 158 155
3 159 160 158
3 161 153 114
3 162 160 159
3 163 157 156
3 161 164 153
3 162 165 160
3 166 165 162
3 166 167 165
3 168 167 166
3 169 157 163
3 168 170 167
3 171 170 168
3 161 172 164
3 173 170 171
3 173 174 170
3 175 157 169
3 176 174 173
3 176 177 174
3 178 179 180
3 181 177 176
3 161 182 172
3 178 183 179
3 181 184 177
3 185 184 181
3 186 157 175
3 187 183 178
3 186 188 157
3 187 189 183
3 190 184 185
3 190 191 184
3 192 191 190
3 161 193 182
3 194 191 192
3 195 191 194
3 196 189 187
3 197 188 186
3 198 191 195
3 199 191 198
3 199 200 191
3 201 200 199
3 161 202 193
3 203 200 201
3 196 204 189
3 205 200 203
3 206 204 196
3 207 200 205
3 208 200 207
3 208 209 200
3 161 210 202
3 211 188 197
3 210 209 208
3 161 209 210
3 212 204 206
3 161 213 209
3 214 188 211
3 212 215 204
3 216 215 212
3 161 217 213
3 218 215 216
3 219 188 214
3 161 220 217
3 219 221 188
3 218 222 215
3 223 222 218
3 161 224 220
3 225 221 219
3 226 222 223
3 161 227 224
3 228 221 225
3 229 227 161
3 226 230 222
3 231 230 226
3 229 232 227
3 233 221 228
3 234 230 231
3 229 235 232
3 234 236 230
3 229 237 235
3 238 236 234
3 239 221 233
3 229 240 237
3 239 241 221
3 242 236 238
3 239 243 241
3 244 236 242
3 245 243 239
3 245 246 243
3 247 236 244
3 245 248 246
3 249 236 247
3 249 250 236
3 245 251 248
3 252 250 249
3 229 253 240
3 245 254 251
3 255 250 252
3 245 256 254
3 257 250 255
3 258 256 245
3 258 259 256
3 260 250 257
3 258 261 259
3 262 250 260
3 229 263 253
3 258 264 261
3 265 250 262
3 258 266 264
3 267 250 265
3 267 268 250
3 258 269 266
3 270 268 267
3 258 271 269
3 229 272 263
3 273 271 258
3 274 268 270
3 273 275 271
3 276 268 274
3 273 277 275
3 229 278 272
3 279 268 276
3 273 280 277
3 281 268 279
3 281 282 268
3 273 283 280
3 284 282 281
3 229 285 278
3 286 283 273
3 286 287 283
3 288 282 284
3 286 289 287
3 290 282 288
3 229 291 285
3 286 292 289
3 293 282 290
3 293 294 282
3 286 295 292
3 296 294 293
3 229 297 291
3 298 295 286
3 296 299 294
3 298 300 295
3 301 299 296
3 298 302 300
3 303 299 301
3 229 304 297
3 298 305 302
3 306 299 303
3 298 307 305
3 308 299 306
3 229 309 304
3 310 307 298
3 229 311 309
3 229 312 311
3 313 307 310
3 229 314 312
3 313 315 307
3 229 316 314
3 317 316 229
3 318 315 313
3 317 319 316
3 308 320 299
3 317 321 319
3 322 315 318
3 322 323 315
3 324 323 322
3 325 320 308
3 326 323 324
3 326 327 323
3 328 327 326
3 325 329 320
3 330 327 328
3 330 331 327
3 332 331 330
3 317 333 321
3 317 334 333
3 317 335 334
3 317 336 335
3 317 337 336
3 317 338 337
3 317 339 338
3 317 340 339
3 317 341 340
3 317 342 341
3 317 343 342
3 317 332 343
3 317 331 332
3 317 344 331
3 325 345 329
3 346 345 325
3 317 347 344
3 317 348 347
3 346 349 345
3 350 348 317
3 350 351 348
3 352 349 346
3 352 353 349
3 350 354 351
3 350 355 354
3 352 356 353
3 357 356 352
3 350 358 355
3 357 359 356
3 350 360 358
3 357 361 359
3 362 361 357
3 362 363 361
3 364 360 350
3 362 365 363
3 366 367 368
3 369 367 366
3 370 367 369
3 370 371 367
3 372 371 370
3 373 371 372
3 362 374 365
3 375 374 362
3 376 371 373
3 377 371 376
3 378 371 377
3 379 371 378
3 380 371 379
3 381 371 380
3 374 371 381
3 375 371 374
3 375 382 371
3 375 383 382
3 375 384 383
3 375 385 384
3 386 385 375
3 386 387 385
3 386 388 387
3 389 388 386
3 389 390 388
3 389 391 390
3 389 392 391
3 393 392 389
3 393 394 392
3 393 395 394
3 396 360 364
3 393 397 395
3 393 398 397
3 393 399 398
3 400 399 393
3 400 401 399
3 400 402 401
3 400 403 402
3 400 404 403
3 405 404 400
3 405 406 404
3 405 407 406
3 405 408 407
3 396 409 360
3 396 410 409
3 396 411 410
3 396 412 411
3 396 413 412
3 396 414 413
3 396 415 414
3 396 416 415
3 396 417 416
3 396 418 417
3 396 419 418
3 396 420 419
3 396 421 420
3 396 422 421
3 396 423 422
3 396 424 423
3 396 425 424
3 396 426 425
3 427 426 396
3 427 428 426
3 427 429 428
3 427 430 429
3 427 431 430
3 427 432 431
3 427 433 432
3 427 434 433
3 427 435 434
3 427 436 435
3 427 437 436
3 427 438 437
3 427 439 438
3 427 440 439
3 427 441 440
3 427 442 441
3 443 442 427
3 443 444 442
3 443 445 444
3 443 446 445
3 443 447 446
3 443 448 447
3 443 449 448
3 443 450 449
3 451 450 443
3 451 452 450
3 453 452 451
3 453 454 452
3 455 454 453
3 455 456 454
3 457 456 455
3 457 458 456
3 459 458 457
3 459 460 458
3 461 460 459
3 461 462 460
3 463 462 461
3 463 464 462
3 465 464 463
3 465 466 464
3 467 466 465
3 467 468 466
3 469 468 467
