ply
format ascii 1.0
comment Created by Blender 2.90.0 - www.blender.org
element vertex 8
property float x
property float y
property float z
property uchar red
property uchar green
property uchar blue
property uchar alpha
element face 8
property list uchar uint vertex_indices
end_header
0.554467 -0.554467 0.000000 255 255 255 255
-0.574228 -0.574228 0.000000 255 255 255 255
0.574228 -0.574228 0.000000 255 255 255 255
-0.554467 -0.554467 0.000000 255 255 255 255
-0.574228 0.574228 0.000000 255 255 255 255
0.554467 0.554467 0.000000 255 255 255 255
0.574228 0.574228 0.000000 255 255 255 255
-0.554467 0.554467 0.000000 255 255 255 255
3 0 1 2
3 3 4 1
3 5 2 6
3 7 6 4
3 0 3 1
3 3 7 4
3 5 0 2
3 7 5 6
