ply
format ascii 1.0
comment Created in Blender version 4.2.2 LTS
element vertex 17
property float x
property float y
property float z
property float s
property float t
element face 15
property list uchar uint vertex_indices
end_header
-0.07285437 0.09114095 0 0.0625 0
0.10981976 0.109412126 0 0.3125 0
-0.07285437 0.109412126 0 0 0
0.091544725 0.09114095 0 0.125 0
0.10981976 -0.07322149 0 0.25 0
0.091544725 -0.07322149 0 0.1875 0
-0.10948064 -0.109841965 0 0.4375 0
-0.058492586 0.025407545 0 0.625 0
-0.10948064 0.07286977 0 0.375 0
0.07326969 0.07286977 0 0.5625 0
0.028688602 -0.0070309266 0 0.6875 0
0.07326969 -0.109841965 0 0.5 0
-0.058492586 0.0056197196 0 1 0
-0.058492586 -0.04143212 0 0.875 0
0.009610474 -0.017736696 0 0.9375 0
0.028688602 -0.02860304 0 0.75 0
-0.058492586 -0.060863078 0 0.8125 0
3 0 1 2
3 0 3 1
3 3 4 1
3 5 4 3
3 6 7 8
3 7 9 8
3 7 10 9
3 10 11 9
3 6 12 7
3 6 13 12
3 13 14 12
3 15 11 10
3 16 11 15
3 6 16 13
3 6 11 16
