ply
format ascii 1.0
comment Created by Blender 2.82 (sub 7) - www.blender.org, source file: 'icons.blend'
element vertex 61
property float x
property float y
property float z
property uchar red
property uchar green
property uchar blue
property uchar alpha
element face 57
property list uchar uint vertex_indices
end_header
-0.121043 1.084839 0.000000 255 255 255 255
-0.100747 1.247170 0.000000 255 255 255 255
-0.121043 1.267461 0.000000 255 255 255 255
0.122504 1.267461 0.000000 255 255 255 255
0.102208 1.247170 0.000000 255 255 255 255
0.122504 1.084839 0.000000 255 255 255 255
-0.100747 1.105131 0.000000 255 255 255 255
0.102208 1.105131 0.000000 255 255 255 255
-0.057147 1.226739 0.000000 255 255 255 255
-0.053018 1.226740 0.000000 255 255 255 255
-0.055082 1.226879 0.000000 255 255 255 255
-0.051037 1.226335 0.000000 255 255 255 255
-0.059127 1.226335 0.000000 255 255 255 255
-0.049159 1.225682 0.000000 255 255 255 255
-0.061005 1.225682 0.000000 255 255 255 255
-0.047402 1.224800 0.000000 255 255 255 255
-0.062763 1.224800 0.000000 255 255 255 255
-0.045783 1.223706 0.000000 255 255 255 255
-0.064382 1.223706 0.000000 255 255 255 255
-0.044321 1.222420 0.000000 255 255 255 255
-0.065844 1.222420 0.000000 255 255 255 255
-0.043034 1.220958 0.000000 255 255 255 255
-0.067131 1.220958 0.000000 255 255 255 255
-0.041940 1.219339 0.000000 255 255 255 255
-0.068225 1.219339 0.000000 255 255 255 255
-0.041057 1.217582 0.000000 255 255 255 255
-0.069107 1.217582 0.000000 255 255 255 255
-0.040405 1.215704 0.000000 255 255 255 255
-0.069760 1.215704 0.000000 255 255 255 255
-0.040000 1.213724 0.000000 255 255 255 255
-0.070165 1.213724 0.000000 255 255 255 255
-0.039861 1.211660 0.000000 255 255 255 255
-0.070304 1.211660 0.000000 255 255 255 255
-0.070165 1.209594 0.000000 255 255 255 255
-0.040000 1.209594 0.000000 255 255 255 255
-0.069760 1.207612 0.000000 255 255 255 255
-0.040405 1.207612 0.000000 255 255 255 255
-0.069107 1.205734 0.000000 255 255 255 255
-0.041057 1.205734 0.000000 255 255 255 255
-0.004536 1.166005 0.000000 255 255 255 255
0.071765 1.125422 0.000000 255 255 255 255
0.021026 1.206587 0.000000 255 255 255 255
-0.068225 1.203976 0.000000 255 255 255 255
-0.041940 1.203976 0.000000 255 255 255 255
-0.067131 1.202358 0.000000 255 255 255 255
-0.043034 1.202358 0.000000 255 255 255 255
-0.065844 1.200897 0.000000 255 255 255 255
-0.044321 1.200897 0.000000 255 255 255 255
-0.064382 1.199611 0.000000 255 255 255 255
-0.045783 1.199611 0.000000 255 255 255 255
-0.062763 1.198518 0.000000 255 255 255 255
-0.047402 1.198518 0.000000 255 255 255 255
-0.061005 1.197637 0.000000 255 255 255 255
-0.049159 1.197637 0.000000 255 255 255 255
-0.059127 1.196985 0.000000 255 255 255 255
-0.051037 1.196985 0.000000 255 255 255 255
-0.057147 1.196580 0.000000 255 255 255 255
-0.053018 1.196580 0.000000 255 255 255 255
-0.055082 1.196442 0.000000 255 255 255 255
-0.070304 1.125422 0.000000 255 255 255 255
-0.029713 1.185890 0.000000 255 255 255 255
3 0 1 2
3 1 3 2
3 1 4 3
3 4 5 3
3 0 6 1
3 7 5 4
3 8 9 10
3 8 11 9
3 12 11 8
3 12 13 11
3 14 13 12
3 14 15 13
3 16 15 14
3 16 17 15
3 18 17 16
3 18 19 17
3 20 19 18
3 20 21 19
3 22 21 20
3 22 23 21
3 24 23 22
3 24 25 23
3 26 25 24
3 26 27 25
3 28 27 26
3 28 29 27
3 30 29 28
3 30 31 29
3 32 31 30
3 33 31 32
3 33 34 31
3 35 34 33
3 35 36 34
3 37 36 35
3 37 38 36
3 39 40 41
3 42 38 37
3 42 43 38
3 44 43 42
3 44 45 43
3 46 45 44
3 46 47 45
3 48 47 46
3 48 49 47
3 50 49 48
3 50 51 49
3 52 51 50
3 52 53 51
3 54 53 52
3 54 55 53
3 56 55 54
3 56 57 55
3 58 57 56
3 59 39 60
3 59 40 39
3 0 7 6
3 0 5 7
