ply
format ascii 1.0
comment Created by Blender 2.91.0 - www.blender.org
element vertex 178
property float x
property float y
property float z
element face 176
property list uchar uint vertex_indices
end_header
-0.007848 0.007826 0.000000
-0.006431 0.036270 0.000000
-0.007848 0.036270 0.000000
-0.004848 0.036270 0.000000
-0.003156 0.036270 0.000000
-0.001410 0.036270 0.000000
0.000337 0.036270 0.000000
0.002029 0.036270 0.000000
0.003612 0.036270 0.000000
0.005029 0.036270 0.000000
0.006227 0.036270 0.000000
0.007151 0.036270 0.000000
0.007746 0.036270 0.000000
0.007956 0.036270 0.000000
0.007956 0.007826 0.000000
-0.044254 0.028970 0.000000
-0.041697 0.028916 0.000000
-0.042967 0.029065 0.000000
0.041804 0.028897 0.000000
0.044362 0.028951 0.000000
0.043074 0.029046 0.000000
-0.045523 0.028615 0.000000
0.045631 0.028597 0.000000
-0.040480 0.028538 0.000000
0.040587 0.028519 0.000000
-0.046737 0.027987 0.000000
0.046845 0.027968 0.000000
-0.039351 0.027945 0.000000
0.039459 0.027926 0.000000
-0.047861 0.027070 0.000000
0.047969 0.027051 0.000000
-0.038348 0.027152 0.000000
0.038455 0.027133 0.000000
-0.037505 0.026175 0.000000
0.037612 0.026156 0.000000
-0.048301 0.026630 0.000000
0.048408 0.026611 0.000000
-0.049517 0.025415 0.000000
0.049624 0.025396 0.000000
-0.036858 0.025027 0.000000
0.036966 0.025008 0.000000
-0.051354 0.023578 0.000000
0.051461 0.023559 0.000000
-0.036444 0.023724 0.000000
0.036552 0.023705 0.000000
-0.036298 0.022281 0.000000
0.036406 0.022262 0.000000
-0.053656 0.021276 0.000000
0.053763 0.021257 0.000000
-0.036298 0.021997 0.000000
0.036406 0.007826 0.000000
-0.036298 0.021211 0.000000
-0.056269 0.018664 0.000000
0.056376 0.018645 0.000000
-0.036298 0.020023 0.000000
-0.036298 0.018534 0.000000
-0.059037 0.015897 0.000000
0.059144 0.015878 0.000000
-0.036298 0.016844 0.000000
-0.036298 0.015054 0.000000
-0.061805 0.013129 0.000000
0.061912 0.013110 0.000000
-0.036298 0.013263 0.000000
-0.036298 0.011574 0.000000
-0.064418 0.010517 0.000000
0.064525 0.010498 0.000000
-0.036298 0.010085 0.000000
-0.066720 0.008215 0.000000
0.066828 0.008196 0.000000
-0.036298 0.008897 0.000000
-0.036298 0.008110 0.000000
-0.068557 0.006379 0.000000
0.068664 0.006360 0.000000
-0.036298 0.007826 0.000000
-0.069773 0.005163 0.000000
0.069880 0.005144 0.000000
-0.070213 0.004723 0.000000
0.070320 0.004704 0.000000
-0.070819 0.004030 0.000000
0.070926 0.004011 0.000000
-0.071315 0.003279 0.000000
0.071422 0.003260 0.000000
-0.071701 0.002483 0.000000
0.071808 0.002464 0.000000
-0.071976 0.001653 0.000000
0.072084 0.001634 0.000000
-0.072142 0.000800 0.000000
0.072249 0.000780 0.000000
-0.072197 -0.000065 0.000000
0.072304 -0.000084 0.000000
-0.072142 -0.000930 0.000000
0.072249 -0.000949 0.000000
-0.071976 -0.001783 0.000000
0.072084 -0.001802 0.000000
-0.071701 -0.002613 0.000000
0.071808 -0.002633 0.000000
-0.071315 -0.003410 0.000000
0.071422 -0.003429 0.000000
-0.070819 -0.004160 0.000000
0.070926 -0.004179 0.000000
-0.070213 -0.004854 0.000000
0.070320 -0.004873 0.000000
-0.069773 -0.005293 0.000000
0.069880 -0.005312 0.000000
-0.068557 -0.006509 0.000000
0.068664 -0.006528 0.000000
-0.066720 -0.008345 0.000000
-0.036298 -0.007975 0.000000
-0.007848 -0.007975 0.000000
0.007956 -0.007975 0.000000
0.036406 -0.007975 0.000000
0.066828 -0.008364 0.000000
-0.036298 -0.022412 0.000000
-0.007848 -0.036419 0.000000
-0.007043 -0.036419 0.000000
-0.001921 -0.036419 0.000000
0.007956 -0.036419 0.000000
0.036406 -0.008260 0.000000
0.036406 -0.009046 0.000000
-0.064418 -0.010647 0.000000
0.064525 -0.010666 0.000000
0.036406 -0.010234 0.000000
0.036406 -0.011723 0.000000
-0.061805 -0.013260 0.000000
0.061912 -0.013278 0.000000
0.036406 -0.013413 0.000000
-0.059037 -0.016027 0.000000
0.059144 -0.016046 0.000000
0.036406 -0.015203 0.000000
0.036406 -0.016993 0.000000
-0.056269 -0.018795 0.000000
0.056376 -0.018813 0.000000
0.036406 -0.018683 0.000000
0.036406 -0.020172 0.000000
-0.053656 -0.021407 0.000000
0.053763 -0.021426 0.000000
0.036406 -0.021360 0.000000
0.036406 -0.022146 0.000000
-0.051354 -0.023709 0.000000
0.051461 -0.023728 0.000000
0.036406 -0.022431 0.000000
-0.036444 -0.023855 0.000000
0.036552 -0.023874 0.000000
-0.049517 -0.025545 0.000000
0.049624 -0.025564 0.000000
-0.036858 -0.025158 0.000000
0.036966 -0.025176 0.000000
-0.037505 -0.026305 0.000000
0.037612 -0.026324 0.000000
-0.048301 -0.026761 0.000000
0.048408 -0.026780 0.000000
-0.038348 -0.027283 0.000000
0.038455 -0.027302 0.000000
-0.047861 -0.027200 0.000000
0.047969 -0.027219 0.000000
-0.046737 -0.028118 0.000000
0.046845 -0.028136 0.000000
-0.039351 -0.028075 0.000000
0.039459 -0.028094 0.000000
-0.040479 -0.028668 0.000000
0.040587 -0.028687 0.000000
-0.045523 -0.028746 0.000000
0.045631 -0.028765 0.000000
-0.041697 -0.029047 0.000000
0.041804 -0.029066 0.000000
-0.044254 -0.029100 0.000000
0.044362 -0.029119 0.000000
-0.042967 -0.029196 0.000000
0.043074 -0.029215 0.000000
-0.000229 -0.036419 0.000000
0.006539 -0.036419 0.000000
0.004956 -0.036419 0.000000
0.001517 -0.036419 0.000000
0.003264 -0.036419 0.000000
-0.003504 -0.036419 0.000000
-0.004921 -0.036419 0.000000
-0.006120 -0.036419 0.000000
-0.007638 -0.036419 0.000000
3 0 1 2
3 0 3 1
3 0 4 3
3 0 5 4
3 0 6 5
3 0 7 6
3 0 8 7
3 0 9 8
3 0 10 9
3 0 11 10
3 0 12 11
3 0 13 12
3 0 14 13
3 15 16 17
3 18 19 20
3 21 16 15
3 18 22 19
3 21 23 16
3 24 22 18
3 25 23 21
3 24 26 22
3 25 27 23
3 28 26 24
3 29 27 25
3 28 30 26
3 29 31 27
3 32 30 28
3 29 33 31
3 34 30 32
3 35 33 29
3 34 36 30
3 37 33 35
3 34 38 36
3 37 39 33
3 40 38 34
3 41 39 37
3 40 42 38
3 41 43 39
3 44 42 40
3 41 45 43
3 46 42 44
3 47 45 41
3 46 48 42
3 47 49 45
3 50 48 46
3 47 51 49
3 52 51 47
3 50 53 48
3 52 54 51
3 52 55 54
3 56 55 52
3 50 57 53
3 56 58 55
3 56 59 58
3 60 59 56
3 50 61 57
3 60 62 59
3 60 63 62
3 64 63 60
3 50 65 61
3 64 66 63
3 67 66 64
3 50 68 65
3 67 69 66
3 67 70 69
3 71 70 67
3 50 72 68
3 71 73 70
3 71 0 73
3 71 14 0
3 71 50 14
3 71 72 50
3 74 72 71
3 74 75 72
3 76 75 74
3 76 77 75
3 78 77 76
3 78 79 77
3 80 79 78
3 80 81 79
3 82 81 80
3 82 83 81
3 84 83 82
3 84 85 83
3 86 85 84
3 86 87 85
3 88 87 86
3 88 89 87
3 90 89 88
3 90 91 89
3 92 91 90
3 92 93 91
3 94 93 92
3 94 95 93
3 96 95 94
3 96 97 95
3 98 97 96
3 98 99 97
3 100 99 98
3 100 101 99
3 102 101 100
3 102 103 101
3 104 103 102
3 104 105 103
3 106 105 104
3 106 107 105
3 107 108 105
3 108 109 105
3 109 110 105
3 110 111 105
3 106 112 107
3 113 109 108
3 113 114 109
3 114 115 109
3 115 116 109
3 117 111 110
3 118 111 117
3 119 112 106
3 118 120 111
3 121 120 118
3 122 120 121
3 123 112 119
3 122 124 120
3 125 124 122
3 126 112 123
3 125 127 124
3 128 127 125
3 129 127 128
3 130 112 126
3 129 131 127
3 132 131 129
3 133 131 132
3 134 112 130
3 133 135 131
3 136 135 133
3 137 135 136
3 138 112 134
3 137 139 135
3 140 139 137
3 138 141 112
3 142 139 140
3 143 141 138
3 142 144 139
3 143 145 141
3 146 144 142
3 143 147 145
3 148 144 146
3 149 147 143
3 148 150 144
3 149 151 147
3 152 150 148
3 153 151 149
3 152 154 150
3 155 151 153
3 152 156 154
3 155 157 151
3 158 156 152
3 155 159 157
3 160 156 158
3 161 159 155
3 160 162 156
3 161 163 159
3 164 162 160
3 165 163 161
3 164 166 162
3 165 167 163
3 168 166 164
3 115 169 116
3 169 170 116
3 169 171 170
3 169 172 171
3 172 173 171
3 114 174 115
3 114 175 174
3 114 176 175
3 113 177 114
