ply
format ascii 1.0
comment Created by Blender 2.82 (sub 7) - www.blender.org, source file: 'icons.blend'
element vertex 92
property float x
property float y
property float z
element face 90
property list uchar uint vertex_indices
end_header
-0.116905 1.125589 0.000000
-0.100567 1.256263 0.000000
-0.116905 1.272597 0.000000
0.054982 1.272597 0.000000
0.038644 1.256263 0.000000
0.054982 1.223594 0.000000
-0.100567 1.141923 0.000000
0.038644 1.223594 0.000000
-0.041609 1.209188 0.000000
-0.036139 1.212243 0.000000
-0.042252 1.223594 0.000000
-0.022795 1.222064 0.000000
-0.022482 1.223594 0.000000
-0.023709 1.223594 0.000000
-0.019090 1.223594 0.000000
-0.013966 1.223594 0.000000
-0.007543 1.223594 0.000000
-0.000255 1.223594 0.000000
0.007467 1.223594 0.000000
0.015189 1.223594 0.000000
0.022478 1.223594 0.000000
0.028901 1.223594 0.000000
0.034025 1.223594 0.000000
0.037417 1.223594 0.000000
0.118059 1.223594 0.000000
0.101721 1.207260 0.000000
0.118059 1.076586 0.000000
-0.021857 1.220566 0.000000
-0.020893 1.219098 0.000000
-0.019907 1.217661 0.000000
-0.018898 1.216255 0.000000
-0.017867 1.214879 0.000000
-0.016816 1.213534 0.000000
-0.015745 1.212219 0.000000
-0.029078 1.202373 0.000000
-0.014656 1.210934 0.000000
-0.013548 1.209680 0.000000
-0.012424 1.208455 0.000000
-0.038572 1.196078 0.000000
-0.011284 1.207260 0.000000
0.101721 1.092920 0.000000
-0.021350 1.193891 0.000000
-0.033610 1.184258 0.000000
-0.013237 1.186702 0.000000
-0.005022 1.180712 0.000000
-0.027188 1.173717 0.000000
0.031643 1.164432 0.000000
0.060520 1.136688 0.000000
0.038481 1.182759 0.000000
0.003012 1.175827 0.000000
0.010585 1.171952 0.000000
-0.019773 1.164448 0.000000
0.017414 1.168993 0.000000
0.023216 1.166856 0.000000
-0.043045 1.141923 0.000000
-0.041805 1.165492 0.000000
-0.043045 1.167437 0.000000
0.027710 1.165446 0.000000
-0.040537 1.163581 0.000000
0.030613 1.164670 0.000000
-0.011833 1.156443 0.000000
-0.039243 1.161704 0.000000
-0.037925 1.159861 0.000000
-0.036584 1.158053 0.000000
-0.035222 1.156281 0.000000
-0.003833 1.149693 0.000000
-0.033841 1.154544 0.000000
-0.032442 1.152842 0.000000
-0.031028 1.151177 0.000000
-0.029599 1.149547 0.000000
0.003759 1.144189 0.000000
-0.028158 1.147955 0.000000
-0.026707 1.146399 0.000000
-0.026707 1.145346 0.000000
-0.026707 1.142437 0.000000
0.010476 1.139922 0.000000
-0.026707 1.138043 0.000000
0.015852 1.136886 0.000000
-0.026707 1.132534 0.000000
0.019420 1.135070 0.000000
0.020713 1.134466 0.000000
0.014137 1.116254 0.000000
-0.026707 1.126282 0.000000
-0.043045 1.125589 0.000000
-0.026707 1.119659 0.000000
-0.043045 1.076586 0.000000
-0.026707 1.113037 0.000000
-0.026707 1.106785 0.000000
-0.026707 1.101276 0.000000
-0.026707 1.096882 0.000000
-0.026707 1.093972 0.000000
-0.026707 1.092920 0.000000
3 0 1 2
3 1 3 2
3 1 4 3
3 4 5 3
3 0 6 1
3 7 5 4
3 8 9 10
3 11 12 13
3 11 14 12
3 11 15 14
3 11 16 15
3 11 17 16
3 11 18 17
3 11 19 18
3 11 20 19
3 11 21 20
3 11 22 21
3 11 23 22
3 11 7 23
3 11 5 7
3 11 24 5
3 11 25 24
3 25 26 24
3 27 25 11
3 28 25 27
3 29 25 28
3 30 25 29
3 31 25 30
3 32 25 31
3 33 25 32
3 8 34 9
3 35 25 33
3 36 25 35
3 37 25 36
3 38 34 8
3 39 25 37
3 40 26 25
3 38 41 34
3 42 41 38
3 42 43 41
3 42 44 43
3 45 44 42
3 46 47 48
3 45 49 44
3 45 50 49
3 51 50 45
3 51 52 50
3 51 53 52
3 54 55 56
3 51 57 53
3 54 58 55
3 51 59 57
3 51 46 59
3 60 46 51
3 60 47 46
3 54 61 58
3 54 62 61
3 54 63 62
3 54 64 63
3 65 47 60
3 54 66 64
3 54 67 66
3 54 68 67
3 54 69 68
3 70 47 65
3 54 71 69
3 54 72 71
3 54 73 72
3 54 74 73
3 75 47 70
3 54 76 74
3 0 54 6
3 0 76 54
3 77 47 75
3 0 78 76
3 79 47 77
3 79 80 47
3 80 81 47
3 0 82 78
3 0 83 82
3 83 84 82
3 85 84 83
3 85 86 84
3 85 87 86
3 85 88 87
3 85 89 88
3 85 90 89
3 85 91 90
3 85 40 91
3 85 26 40
