ply
format ascii 1.0
comment Created by Blender 2.83.2 - www.blender.org, source file: 'icons.blend'
element vertex 144
property float x
property float y
property float z
property uchar red
property uchar green
property uchar blue
property uchar alpha
element face 138
property list uchar uint vertex_indices
end_header
-0.100451 0.019553 0.000000 255 255 255 255
-0.095145 0.019553 0.000000 255 255 255 255
-0.097798 0.019732 0.000000 255 255 255 255
-0.102996 0.019033 0.000000 255 255 255 255
-0.092601 0.019033 0.000000 255 255 255 255
-0.105409 0.018194 0.000000 255 255 255 255
-0.090187 0.018194 0.000000 255 255 255 255
-0.107668 0.017061 0.000000 255 255 255 255
-0.087929 0.017061 0.000000 255 255 255 255
-0.109748 0.015656 0.000000 255 255 255 255
-0.085848 0.015655 0.000000 255 255 255 255
-0.111627 0.014002 0.000000 255 255 255 255
-0.083970 0.014002 0.000000 255 255 255 255
-0.113281 0.012124 0.000000 255 255 255 255
-0.082316 0.012124 0.000000 255 255 255 255
-0.080911 0.010044 0.000000 255 255 255 255
-0.114686 0.010044 0.000000 255 255 255 255
-0.079777 0.007786 0.000000 255 255 255 255
-0.115820 0.007786 0.000000 255 255 255 255
-0.078938 0.005373 0.000000 255 255 255 255
-0.116659 0.005373 0.000000 255 255 255 255
-0.078418 0.002829 0.000000 255 255 255 255
-0.117179 0.002829 0.000000 255 255 255 255
-0.078239 0.000176 0.000000 255 255 255 255
-0.117358 0.000176 0.000000 255 255 255 255
-0.117179 -0.002478 0.000000 255 255 255 255
-0.078418 -0.002478 0.000000 255 255 255 255
-0.078938 -0.005024 0.000000 255 255 255 255
-0.116659 -0.005024 0.000000 255 255 255 255
-0.079777 -0.007437 0.000000 255 255 255 255
-0.115820 -0.007437 0.000000 255 255 255 255
-0.080911 -0.009695 0.000000 255 255 255 255
-0.114686 -0.009695 0.000000 255 255 255 255
-0.082316 -0.011775 0.000000 255 255 255 255
-0.113281 -0.011775 0.000000 255 255 255 255
-0.083970 -0.013653 0.000000 255 255 255 255
-0.111627 -0.013653 0.000000 255 255 255 255
-0.085848 -0.015306 0.000000 255 255 255 255
-0.109748 -0.015306 0.000000 255 255 255 255
-0.087929 -0.016710 0.000000 255 255 255 255
-0.107668 -0.016710 0.000000 255 255 255 255
-0.090187 -0.017843 0.000000 255 255 255 255
-0.105409 -0.017843 0.000000 255 255 255 255
-0.092601 -0.018681 0.000000 255 255 255 255
-0.102996 -0.018681 0.000000 255 255 255 255
-0.095145 -0.019200 0.000000 255 255 255 255
-0.100451 -0.019200 0.000000 255 255 255 255
-0.097798 -0.019379 0.000000 255 255 255 255
0.092979 0.018972 0.000000 255 255 255 255
0.098284 0.018972 0.000000 255 255 255 255
0.095631 0.019150 0.000000 255 255 255 255
0.090434 0.018452 0.000000 255 255 255 255
0.100829 0.018452 0.000000 255 255 255 255
0.088020 0.017614 0.000000 255 255 255 255
0.103243 0.017613 0.000000 255 255 255 255
0.085762 0.016482 0.000000 255 255 255 255
0.105501 0.016479 0.000000 255 255 255 255
0.083682 0.015077 0.000000 255 255 255 255
0.107581 0.015074 0.000000 255 255 255 255
0.081803 0.013424 0.000000 255 255 255 255
0.109460 0.013421 0.000000 255 255 255 255
0.080149 0.011547 0.000000 255 255 255 255
0.111114 0.011542 0.000000 255 255 255 255
0.078744 0.009467 0.000000 255 255 255 255
0.112519 0.009463 0.000000 255 255 255 255
0.077610 0.007209 0.000000 255 255 255 255
0.113653 0.007205 0.000000 255 255 255 255
0.076771 0.004795 0.000000 255 255 255 255
0.114492 0.004792 0.000000 255 255 255 255
0.076251 0.002250 0.000000 255 255 255 255
0.115012 0.002247 0.000000 255 255 255 255
0.076072 -0.000405 0.000000 255 255 255 255
0.115191 -0.000405 0.000000 255 255 255 255
0.076251 -0.003059 0.000000 255 255 255 255
0.115012 -0.003057 0.000000 255 255 255 255
0.114492 -0.005602 0.000000 255 255 255 255
0.076771 -0.005605 0.000000 255 255 255 255
0.113653 -0.008014 0.000000 255 255 255 255
0.077610 -0.008018 0.000000 255 255 255 255
0.112519 -0.010272 0.000000 255 255 255 255
0.078743 -0.010277 0.000000 255 255 255 255
0.111113 -0.012352 0.000000 255 255 255 255
0.080148 -0.012356 0.000000 255 255 255 255
0.109459 -0.014231 0.000000 255 255 255 255
0.081802 -0.014234 0.000000 255 255 255 255
0.107579 -0.015884 0.000000 255 255 255 255
0.083680 -0.015887 0.000000 255 255 255 255
0.105498 -0.017289 0.000000 255 255 255 255
0.085759 -0.017291 0.000000 255 255 255 255
0.103238 -0.018423 0.000000 255 255 255 255
0.088016 -0.018424 0.000000 255 255 255 255
0.100824 -0.019261 0.000000 255 255 255 255
0.090428 -0.019262 0.000000 255 255 255 255
0.098277 -0.019782 0.000000 255 255 255 255
0.092971 -0.019782 0.000000 255 255 255 255
0.095622 -0.019960 0.000000 255 255 255 255
-0.002654 0.019054 0.000000 255 255 255 255
0.002652 0.019054 0.000000 255 255 255 255
-0.000001 0.019233 0.000000 255 255 255 255
-0.005199 0.018534 0.000000 255 255 255 255
0.005197 0.018534 0.000000 255 255 255 255
-0.007612 0.017695 0.000000 255 255 255 255
0.007610 0.017695 0.000000 255 255 255 255
-0.009871 0.016561 0.000000 255 255 255 255
0.009869 0.016561 0.000000 255 255 255 255
-0.011951 0.015156 0.000000 255 255 255 255
0.011949 0.015156 0.000000 255 255 255 255
-0.013829 0.013503 0.000000 255 255 255 255
0.013828 0.013503 0.000000 255 255 255 255
-0.015483 0.011625 0.000000 255 255 255 255
0.015481 0.011625 0.000000 255 255 255 255
-0.016889 0.009545 0.000000 255 255 255 255
0.016887 0.009545 0.000000 255 255 255 255
-0.018023 0.007287 0.000000 255 255 255 255
0.018021 0.007287 0.000000 255 255 255 255
-0.018861 0.004874 0.000000 255 255 255 255
0.018859 0.004874 0.000000 255 255 255 255
-0.019382 0.002330 0.000000 255 255 255 255
0.019380 0.002330 0.000000 255 255 255 255
-0.019560 -0.000323 0.000000 255 255 255 255
0.019559 -0.000323 0.000000 255 255 255 255
-0.019382 -0.002975 0.000000 255 255 255 255
0.019380 -0.002975 0.000000 255 255 255 255
-0.018861 -0.005519 0.000000 255 255 255 255
0.018859 -0.005519 0.000000 255 255 255 255
-0.018023 -0.007932 0.000000 255 255 255 255
0.018021 -0.007932 0.000000 255 255 255 255
-0.016889 -0.010190 0.000000 255 255 255 255
0.016887 -0.010190 0.000000 255 255 255 255
-0.015483 -0.012270 0.000000 255 255 255 255
0.015481 -0.012270 0.000000 255 255 255 255
-0.013829 -0.014148 0.000000 255 255 255 255
0.013828 -0.014148 0.000000 255 255 255 255
-0.011951 -0.015802 0.000000 255 255 255 255
0.011949 -0.015802 0.000000 255 255 255 255
-0.009871 -0.017207 0.000000 255 255 255 255
0.009869 -0.017207 0.000000 255 255 255 255
-0.007612 -0.018341 0.000000 255 255 255 255
0.007610 -0.018341 0.000000 255 255 255 255
-0.005199 -0.019179 0.000000 255 255 255 255
0.005197 -0.019179 0.000000 255 255 255 255
-0.002654 -0.019700 0.000000 255 255 255 255
0.002652 -0.019700 0.000000 255 255 255 255
-0.000001 -0.019878 0.000000 255 255 255 255
3 0 1 2
3 3 1 0
3 3 4 1
3 5 4 3
3 5 6 4
3 7 6 5
3 7 8 6
3 9 8 7
3 9 10 8
3 11 10 9
3 11 12 10
3 13 12 11
3 13 14 12
3 13 15 14
3 16 15 13
3 16 17 15
3 18 17 16
3 18 19 17
3 20 19 18
3 20 21 19
3 22 21 20
3 22 23 21
3 24 23 22
3 25 23 24
3 25 26 23
3 25 27 26
3 28 27 25
3 28 29 27
3 30 29 28
3 30 31 29
3 32 31 30
3 32 33 31
3 34 33 32
3 34 35 33
3 36 35 34
3 36 37 35
3 38 37 36
3 38 39 37
3 40 39 38
3 40 41 39
3 42 41 40
3 42 43 41
3 44 43 42
3 44 45 43
3 46 45 44
3 46 47 45
3 48 49 50
3 51 49 48
3 51 52 49
3 53 52 51
3 53 54 52
3 55 54 53
3 55 56 54
3 57 56 55
3 57 58 56
3 59 58 57
3 59 60 58
3 61 60 59
3 61 62 60
3 63 62 61
3 63 64 62
3 65 64 63
3 65 66 64
3 67 66 65
3 67 68 66
3 69 68 67
3 69 70 68
3 71 70 69
3 71 72 70
3 73 72 71
3 73 74 72
3 73 75 74
3 76 75 73
3 76 77 75
3 78 77 76
3 78 79 77
3 80 79 78
3 80 81 79
3 82 81 80
3 82 83 81
3 84 83 82
3 84 85 83
3 86 85 84
3 86 87 85
3 88 87 86
3 88 89 87
3 90 89 88
3 90 91 89
3 92 91 90
3 92 93 91
3 94 93 92
3 94 95 93
3 96 97 98
3 99 97 96
3 99 100 97
3 101 100 99
3 101 102 100
3 103 102 101
3 103 104 102
3 105 104 103
3 105 106 104
3 107 106 105
3 107 108 106
3 109 108 107
3 109 110 108
3 111 110 109
3 111 112 110
3 113 112 111
3 113 114 112
3 115 114 113
3 115 116 114
3 117 116 115
3 117 118 116
3 119 118 117
3 119 120 118
3 121 120 119
3 121 122 120
3 123 122 121
3 123 124 122
3 125 124 123
3 125 126 124
3 127 126 125
3 127 128 126
3 129 128 127
3 129 130 128
3 131 130 129
3 131 132 130
3 133 132 131
3 133 134 132
3 135 134 133
3 135 136 134
3 137 136 135
3 137 138 136
3 139 138 137
3 139 140 138
3 141 140 139
3 141 142 140
3 143 142 141
