ply
format ascii 1.0
comment Created by Blender 2.90.0 - www.blender.org
element vertex 164
property float x
property float y
property float z
property uchar red
property uchar green
property uchar blue
property uchar alpha
element face 82
property list uchar uint vertex_indices
end_header
-0.009185 0.309212 0.000000 255 255 255 255
0.009185 0.291011 0.000000 255 255 255 255
0.009185 0.309212 0.000000 255 255 255 255
-0.009185 0.291011 0.000000 255 255 255 255
-0.009185 0.209212 0.000000 255 255 255 255
0.009185 0.191011 0.000000 255 255 255 255
0.009185 0.209212 0.000000 255 255 255 255
-0.009185 0.191011 0.000000 255 255 255 255
-0.009185 0.109212 0.000000 255 255 255 255
0.009185 0.091011 0.000000 255 255 255 255
0.009185 0.109212 0.000000 255 255 255 255
-0.009185 0.091011 0.000000 255 255 255 255
-0.009185 0.009212 0.000000 255 255 255 255
0.009185 -0.008989 0.000000 255 255 255 255
0.009185 0.009212 0.000000 255 255 255 255
-0.009185 -0.008989 0.000000 255 255 255 255
0.090815 0.009212 0.000000 255 255 255 255
0.109185 -0.008989 0.000000 255 255 255 255
0.109185 0.009212 0.000000 255 255 255 255
0.090815 -0.008989 0.000000 255 255 255 255
0.190815 0.009212 0.000000 255 255 255 255
0.209185 -0.008989 0.000000 255 255 255 255
0.209185 0.009212 0.000000 255 255 255 255
0.190815 -0.008989 0.000000 255 255 255 255
0.290815 0.009212 0.000000 255 255 255 255
0.309185 -0.008989 0.000000 255 255 255 255
0.309185 0.009212 0.000000 255 255 255 255
0.290815 -0.008989 0.000000 255 255 255 255
0.390815 0.009212 0.000000 255 255 255 255
0.409185 -0.008989 0.000000 255 255 255 255
0.409185 0.009212 0.000000 255 255 255 255
0.390815 -0.008989 0.000000 255 255 255 255
0.490815 0.009212 0.000000 255 255 255 255
0.509185 -0.008989 0.000000 255 255 255 255
0.509185 0.009212 0.000000 255 255 255 255
0.490815 -0.008989 0.000000 255 255 255 255
-0.609185 0.009212 0.000000 255 255 255 255
-0.590815 -0.008989 0.000000 255 255 255 255
-0.590815 0.009212 0.000000 255 255 255 255
-0.609185 -0.008989 0.000000 255 255 255 255
-0.509185 0.009212 0.000000 255 255 255 255
-0.490815 -0.008989 0.000000 255 255 255 255
-0.490815 0.009212 0.000000 255 255 255 255
-0.509185 -0.008989 0.000000 255 255 255 255
-0.409185 0.009212 0.000000 255 255 255 255
-0.390815 -0.008989 0.000000 255 255 255 255
-0.390815 0.009212 0.000000 255 255 255 255
-0.409185 -0.008989 0.000000 255 255 255 255
-0.309185 0.009212 0.000000 255 255 255 255
-0.290815 -0.008989 0.000000 255 255 255 255
-0.290815 0.009212 0.000000 255 255 255 255
-0.309185 -0.008989 0.000000 255 255 255 255
-0.209185 0.009212 0.000000 255 255 255 255
-0.190815 -0.008989 0.000000 255 255 255 255
-0.190815 0.009212 0.000000 255 255 255 255
-0.209185 -0.008989 0.000000 255 255 255 255
-0.109185 0.009212 0.000000 255 255 255 255
-0.090815 -0.008989 0.000000 255 255 255 255
-0.090815 0.009212 0.000000 255 255 255 255
-0.109185 -0.008989 0.000000 255 255 255 255
0.590815 0.009212 0.000000 255 255 255 255
0.609185 -0.008989 0.000000 255 255 255 255
0.609185 0.009212 0.000000 255 255 255 255
0.590815 -0.008989 0.000000 255 255 255 255
0.690815 0.009212 0.000000 255 255 255 255
0.709185 -0.008989 0.000000 255 255 255 255
0.709185 0.009212 0.000000 255 255 255 255
0.690815 -0.008989 0.000000 255 255 255 255
0.790815 0.009212 0.000000 255 255 255 255
0.809185 -0.008989 0.000000 255 255 255 255
0.809185 0.009212 0.000000 255 255 255 255
0.790815 -0.008989 0.000000 255 255 255 255
0.890815 0.009212 0.000000 255 255 255 255
0.909185 -0.008989 0.000000 255 255 255 255
0.909185 0.009212 0.000000 255 255 255 255
0.890815 -0.008989 0.000000 255 255 255 255
0.990815 0.009212 0.000000 255 255 255 255
1.009185 -0.008989 0.000000 255 255 255 255
1.009185 0.009212 0.000000 255 255 255 255
0.990815 -0.008989 0.000000 255 255 255 255
-1.009185 0.009212 0.000000 255 255 255 255
-0.990815 -0.008989 0.000000 255 255 255 255
-0.990815 0.009212 0.000000 255 255 255 255
-1.009185 -0.008989 0.000000 255 255 255 255
-0.909185 0.009212 0.000000 255 255 255 255
-0.890815 -0.008989 0.000000 255 255 255 255
-0.890815 0.009212 0.000000 255 255 255 255
-0.909185 -0.008989 0.000000 255 255 255 255
-0.809185 0.009212 0.000000 255 255 255 255
-0.790815 -0.008989 0.000000 255 255 255 255
-0.790815 0.009212 0.000000 255 255 255 255
-0.809185 -0.008989 0.000000 255 255 255 255
-0.709185 0.009212 0.000000 255 255 255 255
-0.690815 -0.008989 0.000000 255 255 255 255
-0.690815 0.009212 0.000000 255 255 255 255
-0.709185 -0.008989 0.000000 255 255 255 255
-0.009185 0.409212 0.000000 255 255 255 255
0.009185 0.391011 0.000000 255 255 255 255
0.009185 0.409212 0.000000 255 255 255 255
-0.009185 0.391011 0.000000 255 255 255 255
-0.009185 0.809212 0.000000 255 255 255 255
0.009185 0.791011 0.000000 255 255 255 255
0.009185 0.809212 0.000000 255 255 255 255
-0.009185 0.791011 0.000000 255 255 255 255
-0.009185 0.709212 0.000000 255 255 255 255
0.009185 0.691011 0.000000 255 255 255 255
0.009185 0.709212 0.000000 255 255 255 255
-0.009185 0.691011 0.000000 255 255 255 255
-0.009185 0.609212 0.000000 255 255 255 255
0.009185 0.591011 0.000000 255 255 255 255
0.009185 0.609212 0.000000 255 255 255 255
-0.009185 0.591011 0.000000 255 255 255 255
-0.009185 0.509212 0.000000 255 255 255 255
0.009185 0.491011 0.000000 255 255 255 255
0.009185 0.509212 0.000000 255 255 255 255
-0.009185 0.491011 0.000000 255 255 255 255
-0.009185 0.909212 0.000000 255 255 255 255
0.009185 0.891011 0.000000 255 255 255 255
0.009185 0.909212 0.000000 255 255 255 255
-0.009185 0.891011 0.000000 255 255 255 255
-0.009185 -0.190788 0.000000 255 255 255 255
0.009185 -0.208989 0.000000 255 255 255 255
0.009185 -0.190788 0.000000 255 255 255 255
-0.009185 -0.208989 0.000000 255 255 255 255
-0.009185 -0.290788 0.000000 255 255 255 255
0.009185 -0.308989 0.000000 255 255 255 255
0.009185 -0.290788 0.000000 255 255 255 255
-0.009185 -0.308989 0.000000 255 255 255 255
-0.009185 -0.390788 0.000000 255 255 255 255
0.009185 -0.408989 0.000000 255 255 255 255
0.009185 -0.390788 0.000000 255 255 255 255
-0.009185 -0.408989 0.000000 255 255 255 255
-0.009185 -0.490788 0.000000 255 255 255 255
0.009185 -0.508989 0.000000 255 255 255 255
0.009185 -0.490788 0.000000 255 255 255 255
-0.009185 -0.508989 0.000000 255 255 255 255
-0.009185 -0.090788 0.000000 255 255 255 255
0.009185 -0.108989 0.000000 255 255 255 255
0.009185 -0.090788 0.000000 255 255 255 255
-0.009185 -0.108989 0.000000 255 255 255 255
-0.009185 -0.690788 0.000000 255 255 255 255
0.009185 -0.708989 0.000000 255 255 255 255
0.009185 -0.690788 0.000000 255 255 255 255
-0.009185 -0.708989 0.000000 255 255 255 255
-0.009185 -0.790788 0.000000 255 255 255 255
0.009185 -0.808989 0.000000 255 255 255 255
0.009185 -0.790788 0.000000 255 255 255 255
-0.009185 -0.808989 0.000000 255 255 255 255
-0.009185 -0.890788 0.000000 255 255 255 255
0.009185 -0.908989 0.000000 255 255 255 255
0.009185 -0.890788 0.000000 255 255 255 255
-0.009185 -0.908989 0.000000 255 255 255 255
-0.009185 -0.990788 0.000000 255 255 255 255
0.009185 -1.008989 0.000000 255 255 255 255
0.009185 -0.990788 0.000000 255 255 255 255
-0.009185 -1.008989 0.000000 255 255 255 255
-0.009185 -0.590788 0.000000 255 255 255 255
0.009185 -0.608989 0.000000 255 255 255 255
0.009185 -0.590788 0.000000 255 255 255 255
-0.009185 -0.608989 0.000000 255 255 255 255
-0.009185 1.009212 0.000000 255 255 255 255
0.009185 0.991011 0.000000 255 255 255 255
0.009185 1.009212 0.000000 255 255 255 255
-0.009185 0.991011 0.000000 255 255 255 255
3 0 1 2
3 0 3 1
3 4 5 6
3 4 7 5
3 8 9 10
3 8 11 9
3 12 13 14
3 12 15 13
3 16 17 18
3 16 19 17
3 20 21 22
3 20 23 21
3 24 25 26
3 24 27 25
3 28 29 30
3 28 31 29
3 32 33 34
3 32 35 33
3 36 37 38
3 36 39 37
3 40 41 42
3 40 43 41
3 44 45 46
3 44 47 45
3 48 49 50
3 48 51 49
3 52 53 54
3 52 55 53
3 56 57 58
3 56 59 57
3 60 61 62
3 60 63 61
3 64 65 66
3 64 67 65
3 68 69 70
3 68 71 69
3 72 73 74
3 72 75 73
3 76 77 78
3 76 79 77
3 80 81 82
3 80 83 81
3 84 85 86
3 84 87 85
3 88 89 90
3 88 91 89
3 92 93 94
3 92 95 93
3 96 97 98
3 96 99 97
3 100 101 102
3 100 103 101
3 104 105 106
3 104 107 105
3 108 109 110
3 108 111 109
3 112 113 114
3 112 115 113
3 116 117 118
3 116 119 117
3 120 121 122
3 120 123 121
3 124 125 126
3 124 127 125
3 128 129 130
3 128 131 129
3 132 133 134
3 132 135 133
3 136 137 138
3 136 139 137
3 140 141 142
3 140 143 141
3 144 145 146
3 144 147 145
3 148 149 150
3 148 151 149
3 152 153 154
3 152 155 153
3 156 157 158
3 156 159 157
3 160 161 162
3 160 163 161
