ply
format ascii 1.0
comment Created by Blender 2.82 (sub 7) - www.blender.org, source file: 'icons.blend'
element vertex 61
property float x
property float y
property float z
property uchar red
property uchar green
property uchar blue
property uchar alpha
element face 57
property list uchar uint vertex_indices
end_header
-0.122426 -0.092926 0.000000 255 255 255 255
-0.102131 0.069404 0.000000 255 255 255 255
-0.122426 0.089695 0.000000 255 255 255 255
0.121121 0.089695 0.000000 255 255 255 255
0.100825 0.069404 0.000000 255 255 255 255
0.121121 -0.092926 0.000000 255 255 255 255
-0.102131 -0.072635 0.000000 255 255 255 255
0.100825 -0.072635 0.000000 255 255 255 255
-0.058530 0.048974 0.000000 255 255 255 255
-0.054401 0.048974 0.000000 255 255 255 255
-0.056466 0.049113 0.000000 255 255 255 255
-0.052421 0.048569 0.000000 255 255 255 255
-0.060511 0.048569 0.000000 255 255 255 255
-0.050543 0.047916 0.000000 255 255 255 255
-0.062389 0.047916 0.000000 255 255 255 255
-0.048785 0.047034 0.000000 255 255 255 255
-0.064146 0.047034 0.000000 255 255 255 255
-0.047166 0.045941 0.000000 255 255 255 255
-0.065765 0.045940 0.000000 255 255 255 255
-0.045704 0.044654 0.000000 255 255 255 255
-0.067227 0.044654 0.000000 255 255 255 255
-0.044417 0.043192 0.000000 255 255 255 255
-0.068514 0.043192 0.000000 255 255 255 255
-0.043323 0.041573 0.000000 255 255 255 255
-0.069608 0.041573 0.000000 255 255 255 255
-0.042441 0.039816 0.000000 255 255 255 255
-0.070491 0.039816 0.000000 255 255 255 255
-0.041788 0.037939 0.000000 255 255 255 255
-0.071143 0.037938 0.000000 255 255 255 255
-0.041383 0.035958 0.000000 255 255 255 255
-0.071548 0.035958 0.000000 255 255 255 255
-0.041244 0.033894 0.000000 255 255 255 255
-0.071687 0.033894 0.000000 255 255 255 255
-0.071548 0.031828 0.000000 255 255 255 255
-0.041383 0.031828 0.000000 255 255 255 255
-0.071143 0.029847 0.000000 255 255 255 255
-0.041788 0.029847 0.000000 255 255 255 255
-0.070491 0.027968 0.000000 255 255 255 255
-0.042441 0.027968 0.000000 255 255 255 255
-0.005920 -0.011761 0.000000 255 255 255 255
0.070382 -0.052344 0.000000 255 255 255 255
0.019643 0.028821 0.000000 255 255 255 255
-0.069608 0.026211 0.000000 255 255 255 255
-0.043323 0.026211 0.000000 255 255 255 255
-0.068514 0.024592 0.000000 255 255 255 255
-0.044417 0.024592 0.000000 255 255 255 255
-0.067227 0.023131 0.000000 255 255 255 255
-0.045704 0.023131 0.000000 255 255 255 255
-0.065765 0.021845 0.000000 255 255 255 255
-0.047166 0.021845 0.000000 255 255 255 255
-0.064146 0.020752 0.000000 255 255 255 255
-0.048785 0.020752 0.000000 255 255 255 255
-0.062389 0.019871 0.000000 255 255 255 255
-0.050543 0.019871 0.000000 255 255 255 255
-0.060511 0.019219 0.000000 255 255 255 255
-0.052421 0.019219 0.000000 255 255 255 255
-0.058530 0.018815 0.000000 255 255 255 255
-0.054401 0.018815 0.000000 255 255 255 255
-0.056466 0.018676 0.000000 255 255 255 255
-0.071687 -0.052344 0.000000 255 255 255 255
-0.031096 0.008124 0.000000 255 255 255 255
3 0 1 2
3 1 3 2
3 1 4 3
3 4 5 3
3 0 6 1
3 7 5 4
3 8 9 10
3 8 11 9
3 12 11 8
3 12 13 11
3 14 13 12
3 14 15 13
3 16 15 14
3 16 17 15
3 18 17 16
3 18 19 17
3 20 19 18
3 20 21 19
3 22 21 20
3 22 23 21
3 24 23 22
3 24 25 23
3 26 25 24
3 26 27 25
3 28 27 26
3 28 29 27
3 30 29 28
3 30 31 29
3 32 31 30
3 33 31 32
3 33 34 31
3 35 34 33
3 35 36 34
3 37 36 35
3 37 38 36
3 39 40 41
3 42 38 37
3 42 43 38
3 44 43 42
3 44 45 43
3 46 45 44
3 46 47 45
3 48 47 46
3 48 49 47
3 50 49 48
3 50 51 49
3 52 51 50
3 52 53 51
3 54 53 52
3 54 55 53
3 56 55 54
3 56 57 55
3 58 57 56
3 59 39 60
3 59 40 39
3 0 7 6
3 0 5 7
