ply
format ascii 1.0
comment Created by Blender 2.82 (sub 7) - www.blender.org, source file: 'icons.blend'
element vertex 302
property float x
property float y
property float z
property uchar red
property uchar green
property uchar blue
property uchar alpha
element face 302
property list uchar uint vertex_indices
end_header
-0.123051 -0.093821 0.000000 255 255 255 255
-0.102755 0.068509 0.000000 255 255 255 255
-0.123051 0.088801 0.000000 255 255 255 255
0.120496 0.088801 0.000000 255 255 255 255
0.100201 0.068509 0.000000 255 255 255 255
0.120496 -0.093821 0.000000 255 255 255 255
-0.102755 -0.073529 0.000000 255 255 255 255
0.100201 -0.073529 0.000000 255 255 255 255
0.016169 0.057077 0.000000 255 255 255 255
0.021054 0.057210 0.000000 255 255 255 255
0.019233 0.057283 0.000000 255 255 255 255
0.022834 0.056993 0.000000 255 255 255 255
0.013231 0.056477 0.000000 255 255 255 255
0.024566 0.056639 0.000000 255 255 255 255
0.026246 0.056154 0.000000 255 255 255 255
0.010445 0.055509 0.000000 255 255 255 255
0.027869 0.055543 0.000000 255 255 255 255
0.029430 0.054813 0.000000 255 255 255 255
0.007838 0.054201 0.000000 255 255 255 255
0.030922 0.053969 0.000000 255 255 255 255
0.005436 0.052580 0.000000 255 255 255 255
0.032342 0.053018 0.000000 255 255 255 255
0.033685 0.051965 0.000000 255 255 255 255
0.003268 0.050672 0.000000 255 255 255 255
0.034944 0.050816 0.000000 255 255 255 255
0.036116 0.049577 0.000000 255 255 255 255
0.001359 0.048504 0.000000 255 255 255 255
0.037194 0.048254 0.000000 255 255 255 255
-0.000263 0.046103 0.000000 255 255 255 255
0.041811 0.048254 0.000000 255 255 255 255
0.045488 0.048089 0.000000 255 255 255 255
0.049014 0.047609 0.000000 255 255 255 255
0.052357 0.046835 0.000000 255 255 255 255
0.055486 0.045789 0.000000 255 255 255 255
-0.001571 0.043496 0.000000 255 255 255 255
0.058368 0.044492 0.000000 255 255 255 255
0.060970 0.042965 0.000000 255 255 255 255
-0.002539 0.040711 0.000000 255 255 255 255
0.019233 0.041482 0.000000 255 255 255 255
0.063260 0.041231 0.000000 255 255 255 255
0.018314 0.041420 0.000000 255 255 255 255
0.020152 0.041420 0.000000 255 255 255 255
0.017433 0.041240 0.000000 255 255 255 255
0.021033 0.041240 0.000000 255 255 255 255
0.016597 0.040950 0.000000 255 255 255 255
0.021869 0.040950 0.000000 255 255 255 255
0.065206 0.039310 0.000000 255 255 255 255
0.015815 0.040558 0.000000 255 255 255 255
0.022651 0.040558 0.000000 255 255 255 255
-0.003139 0.037773 0.000000 255 255 255 255
0.015095 0.040071 0.000000 255 255 255 255
0.023371 0.040071 0.000000 255 255 255 255
0.014444 0.039499 0.000000 255 255 255 255
0.024022 0.039499 0.000000 255 255 255 255
0.013871 0.038849 0.000000 255 255 255 255
0.024595 0.038849 0.000000 255 255 255 255
0.066776 0.037225 0.000000 255 255 255 255
0.013385 0.038129 0.000000 255 255 255 255
0.025081 0.038129 0.000000 255 255 255 255
0.012992 0.037347 0.000000 255 255 255 255
0.025474 0.037347 0.000000 255 255 255 255
-0.003345 0.034710 0.000000 255 255 255 255
0.012702 0.036511 0.000000 255 255 255 255
0.025764 0.036511 0.000000 255 255 255 255
0.067937 0.034996 0.000000 255 255 255 255
0.012521 0.035629 0.000000 255 255 255 255
0.025945 0.035629 0.000000 255 255 255 255
0.012460 0.034710 0.000000 255 255 255 255
0.026006 0.034710 0.000000 255 255 255 255
0.068658 0.032646 0.000000 255 255 255 255
-0.003345 0.034594 0.000000 255 255 255 255
0.012521 0.033791 0.000000 255 255 255 255
0.025945 0.033791 0.000000 255 255 255 255
-0.003345 0.034271 0.000000 255 255 255 255
-0.003345 0.033785 0.000000 255 255 255 255
0.012702 0.032910 0.000000 255 255 255 255
0.025764 0.032910 0.000000 255 255 255 255
-0.003345 0.033175 0.000000 255 255 255 255
-0.003345 0.032483 0.000000 255 255 255 255
0.012992 0.032075 0.000000 255 255 255 255
0.025474 0.032075 0.000000 255 255 255 255
0.068905 0.030195 0.000000 255 255 255 255
-0.003345 0.031750 0.000000 255 255 255 255
0.013385 0.031293 0.000000 255 255 255 255
0.025081 0.031293 0.000000 255 255 255 255
-0.003345 0.031017 0.000000 255 255 255 255
0.013871 0.030572 0.000000 255 255 255 255
0.024595 0.030572 0.000000 255 255 255 255
-0.003345 0.030325 0.000000 255 255 255 255
0.014444 0.029922 0.000000 255 255 255 255
0.024022 0.029922 0.000000 255 255 255 255
-0.003345 0.029715 0.000000 255 255 255 255
0.041811 0.025681 0.000000 255 255 255 255
0.015094 0.029349 0.000000 255 255 255 255
0.023371 0.029349 0.000000 255 255 255 255
-0.003345 0.029229 0.000000 255 255 255 255
0.015815 0.028863 0.000000 255 255 255 255
0.022651 0.028863 0.000000 255 255 255 255
-0.003345 0.028907 0.000000 255 255 255 255
-0.003345 0.028790 0.000000 255 255 255 255
0.016597 0.028470 0.000000 255 255 255 255
0.021869 0.028470 0.000000 255 255 255 255
-0.108309 -0.053770 0.000000 255 255 255 255
0.017433 0.028180 0.000000 255 255 255 255
0.021033 0.028180 0.000000 255 255 255 255
0.018314 0.028000 0.000000 255 255 255 255
0.020152 0.028000 0.000000 255 255 255 255
0.019233 0.027938 0.000000 255 255 255 255
0.041811 0.025236 0.000000 255 255 255 255
0.041811 0.024008 0.000000 255 255 255 255
0.041811 0.022153 0.000000 255 255 255 255
0.041811 0.019828 0.000000 255 255 255 255
0.041811 0.017189 0.000000 255 255 255 255
0.041811 0.014394 0.000000 255 255 255 255
0.041811 0.011598 0.000000 255 255 255 255
0.041811 0.008960 0.000000 255 255 255 255
0.041811 0.006634 0.000000 255 255 255 255
0.041811 0.004779 0.000000 255 255 255 255
0.041811 0.003551 0.000000 255 255 255 255
0.041811 0.003107 0.000000 255 255 255 255
0.041475 -0.002962 0.000000 255 255 255 255
0.040489 -0.008834 0.000000 255 255 255 255
0.038891 -0.014473 0.000000 255 255 255 255
0.036715 -0.019843 0.000000 255 255 255 255
0.033999 -0.024909 0.000000 255 255 255 255
0.030778 -0.029636 0.000000 255 255 255 255
0.027088 -0.033986 0.000000 255 255 255 255
0.022966 -0.037925 0.000000 255 255 255 255
0.018447 -0.041417 0.000000 255 255 255 255
0.013568 -0.044426 0.000000 255 255 255 255
-0.065077 -0.051069 0.000000 255 255 255 255
0.008364 -0.046916 0.000000 255 255 255 255
0.002872 -0.048851 0.000000 255 255 255 255
0.003101 -0.049471 0.000000 255 255 255 255
-0.010779 -0.050987 0.000000 255 255 255 255
0.003734 -0.051182 0.000000 255 255 255 255
-0.010913 -0.050993 0.000000 255 255 255 255
-0.010532 -0.051656 0.000000 255 255 255 255
-0.011046 -0.050999 0.000000 255 255 255 255
-0.011179 -0.051007 0.000000 255 255 255 255
-0.011312 -0.051016 0.000000 255 255 255 255
-0.011444 -0.051025 0.000000 255 255 255 255
-0.011577 -0.051035 0.000000 255 255 255 255
-0.011709 -0.051044 0.000000 255 255 255 255
-0.011842 -0.051052 0.000000 255 255 255 255
-0.011975 -0.051059 0.000000 255 255 255 255
-0.012108 -0.051064 0.000000 255 255 255 255
-0.012242 -0.051068 0.000000 255 255 255 255
-0.012377 -0.051069 0.000000 255 255 255 255
-0.065752 -0.051407 0.000000 255 255 255 255
-0.037845 -0.051069 0.000000 255 255 255 255
-0.025311 -0.084958 0.000000 255 255 255 255
-0.023400 -0.051069 0.000000 255 255 255 255
-0.023188 -0.051645 0.000000 255 255 255 255
0.004691 -0.053769 0.000000 255 255 255 255
-0.067618 -0.052339 0.000000 255 255 255 255
-0.022599 -0.053236 0.000000 255 255 255 255
-0.009849 -0.053503 0.000000 255 255 255 255
-0.070437 -0.053748 0.000000 255 255 255 255
-0.021710 -0.055640 0.000000 255 255 255 255
-0.008816 -0.056295 0.000000 255 255 255 255
-0.073970 -0.055515 0.000000 255 255 255 255
0.005890 -0.057010 0.000000 255 255 255 255
-0.108569 -0.053973 0.000000 255 255 255 255
-0.108821 -0.054186 0.000000 255 255 255 255
-0.109065 -0.054408 0.000000 255 255 255 255
-0.109299 -0.054639 0.000000 255 255 255 255
-0.109524 -0.054879 0.000000 255 255 255 255
-0.109739 -0.055127 0.000000 255 255 255 255
-0.109945 -0.055383 0.000000 255 255 255 255
-0.110141 -0.055648 0.000000 255 255 255 255
-0.077980 -0.057519 0.000000 255 255 255 255
-0.020596 -0.058654 0.000000 255 255 255 255
-0.110327 -0.055919 0.000000 255 255 255 255
-0.110502 -0.056198 0.000000 255 255 255 255
-0.110666 -0.056484 0.000000 255 255 255 255
-0.007522 -0.059794 0.000000 255 255 255 255
-0.110820 -0.056777 0.000000 255 255 255 255
-0.110962 -0.057075 0.000000 255 255 255 255
0.007250 -0.060689 0.000000 255 255 255 255
-0.111092 -0.057378 0.000000 255 255 255 255
-0.111210 -0.057686 0.000000 255 255 255 255
-0.082228 -0.059643 0.000000 255 255 255 255
-0.111317 -0.057997 0.000000 255 255 255 255
-0.111411 -0.058312 0.000000 255 255 255 255
-0.111492 -0.058631 0.000000 255 255 255 255
-0.111562 -0.058952 0.000000 255 255 255 255
-0.019331 -0.062074 0.000000 255 255 255 255
-0.111619 -0.059276 0.000000 255 255 255 255
-0.111663 -0.059602 0.000000 255 255 255 255
-0.111695 -0.059930 0.000000 255 255 255 255
-0.086476 -0.061766 0.000000 255 255 255 255
-0.006054 -0.063764 0.000000 255 255 255 255
-0.111714 -0.060259 0.000000 255 255 255 255
-0.111721 -0.060590 0.000000 255 255 255 255
-0.111586 -0.062125 0.000000 255 255 255 255
0.008692 -0.064586 0.000000 255 255 255 255
-0.090486 -0.063771 0.000000 255 255 255 255
-0.017991 -0.065697 0.000000 255 255 255 255
-0.111200 -0.063552 0.000000 255 255 255 255
-0.110590 -0.064853 0.000000 255 255 255 255
-0.004498 -0.067971 0.000000 255 255 255 255
-0.094019 -0.065537 0.000000 255 255 255 255
0.010133 -0.068484 0.000000 255 255 255 255
-0.109781 -0.066013 0.000000 255 255 255 255
-0.096838 -0.066946 0.000000 255 255 255 255
-0.016652 -0.069320 0.000000 255 255 255 255
-0.108801 -0.067015 0.000000 255 255 255 255
-0.098704 -0.067879 0.000000 255 255 255 255
-0.107676 -0.067842 0.000000 255 255 255 255
-0.106433 -0.068478 0.000000 255 255 255 255
-0.099379 -0.068217 0.000000 255 255 255 255
-0.002942 -0.072178 0.000000 255 255 255 255
-0.100813 -0.068783 0.000000 255 255 255 255
-0.105099 -0.068907 0.000000 255 255 255 255
0.011494 -0.072163 0.000000 255 255 255 255
-0.102262 -0.069075 0.000000 255 255 255 255
-0.103699 -0.069111 0.000000 255 255 255 255
-0.015387 -0.072740 0.000000 255 255 255 255
0.012693 -0.075404 0.000000 255 255 255 255
-0.001474 -0.076148 0.000000 255 255 255 255
-0.014273 -0.075753 0.000000 255 255 255 255
0.013649 -0.077990 0.000000 255 255 255 255
-0.013384 -0.078157 0.000000 255 255 255 255
-0.000180 -0.079647 0.000000 255 255 255 255
0.014282 -0.079702 0.000000 255 255 255 255
-0.012795 -0.079749 0.000000 255 255 255 255
0.000852 -0.082439 0.000000 255 255 255 255
0.014511 -0.080322 0.000000 255 255 255 255
-0.012583 -0.080324 0.000000 255 255 255 255
0.014640 -0.080764 0.000000 255 255 255 255
-0.012454 -0.080767 0.000000 255 255 255 255
0.014706 -0.081209 0.000000 255 255 255 255
-0.012388 -0.081212 0.000000 255 255 255 255
0.014713 -0.081651 0.000000 255 255 255 255
-0.012381 -0.081654 0.000000 255 255 255 255
0.014662 -0.082086 0.000000 255 255 255 255
-0.012432 -0.082088 0.000000 255 255 255 255
0.014557 -0.082507 0.000000 255 255 255 255
-0.012537 -0.082510 0.000000 255 255 255 255
0.001536 -0.084286 0.000000 255 255 255 255
0.014399 -0.082910 0.000000 255 255 255 255
-0.012695 -0.082913 0.000000 255 255 255 255
0.014191 -0.083291 0.000000 255 255 255 255
-0.012902 -0.083293 0.000000 255 255 255 255
0.013936 -0.083642 0.000000 255 255 255 255
-0.013158 -0.083645 0.000000 255 255 255 255
0.013636 -0.083960 0.000000 255 255 255 255
-0.013458 -0.083963 0.000000 255 255 255 255
0.013293 -0.084240 0.000000 255 255 255 255
-0.013801 -0.084242 0.000000 255 255 255 255
0.012909 -0.084475 0.000000 255 255 255 255
-0.014185 -0.084478 0.000000 255 255 255 255
0.001783 -0.084955 0.000000 255 255 255 255
0.012488 -0.084661 0.000000 255 255 255 255
-0.014606 -0.084664 0.000000 255 255 255 255
0.012363 -0.084707 0.000000 255 255 255 255
-0.014731 -0.084710 0.000000 255 255 255 255
0.012016 -0.084833 0.000000 255 255 255 255
-0.015078 -0.084836 0.000000 255 255 255 255
0.011493 -0.085023 0.000000 255 255 255 255
-0.015601 -0.085026 0.000000 255 255 255 255
0.001969 -0.085376 0.000000 255 255 255 255
-0.025125 -0.085379 0.000000 255 255 255 255
0.010838 -0.085262 0.000000 255 255 255 255
-0.016256 -0.085265 0.000000 255 255 255 255
0.010094 -0.085533 0.000000 255 255 255 255
-0.017000 -0.085536 0.000000 255 255 255 255
0.002205 -0.085760 0.000000 255 255 255 255
-0.024889 -0.085762 0.000000 255 255 255 255
0.009306 -0.085820 0.000000 255 255 255 255
-0.017788 -0.085822 0.000000 255 255 255 255
0.002484 -0.086103 0.000000 255 255 255 255
-0.024610 -0.086105 0.000000 255 255 255 255
0.008517 -0.086107 0.000000 255 255 255 255
-0.018576 -0.086109 0.000000 255 255 255 255
0.002802 -0.086403 0.000000 255 255 255 255
-0.024292 -0.086406 0.000000 255 255 255 255
0.007773 -0.086377 0.000000 255 255 255 255
-0.019320 -0.086380 0.000000 255 255 255 255
0.007118 -0.086616 0.000000 255 255 255 255
-0.019976 -0.086619 0.000000 255 255 255 255
0.003154 -0.086658 0.000000 255 255 255 255
-0.023940 -0.086661 0.000000 255 255 255 255
0.006595 -0.086806 0.000000 255 255 255 255
-0.020499 -0.086809 0.000000 255 255 255 255
0.003534 -0.086866 0.000000 255 255 255 255
-0.023560 -0.086869 0.000000 255 255 255 255
0.006249 -0.086932 0.000000 255 255 255 255
-0.020845 -0.086935 0.000000 255 255 255 255
0.003937 -0.087023 0.000000 255 255 255 255
-0.023156 -0.087026 0.000000 255 255 255 255
0.006123 -0.086978 0.000000 255 255 255 255
-0.020970 -0.086981 0.000000 255 255 255 255
0.005681 -0.087106 0.000000 255 255 255 255
-0.021413 -0.087109 0.000000 255 255 255 255
0.004359 -0.087129 0.000000 255 255 255 255
-0.022735 -0.087132 0.000000 255 255 255 255
0.005236 -0.087173 0.000000 255 255 255 255
-0.021858 -0.087175 0.000000 255 255 255 255
0.004794 -0.087179 0.000000 255 255 255 255
-0.022300 -0.087182 0.000000 255 255 255 255
3 0 1 2
3 1 3 2
3 1 4 3
3 4 5 3
3 0 6 1
3 7 5 4
3 0 7 6
3 0 5 7
3 8 9 10
3 8 11 9
3 12 11 8
3 12 13 11
3 12 14 13
3 15 14 12
3 15 16 14
3 15 17 16
3 18 17 15
3 18 19 17
3 20 19 18
3 20 21 19
3 20 22 21
3 23 22 20
3 23 24 22
3 23 25 24
3 26 25 23
3 26 27 25
3 28 27 26
3 28 29 27
3 28 30 29
3 28 31 30
3 28 32 31
3 28 33 32
3 34 33 28
3 34 35 33
3 34 36 35
3 37 36 34
3 37 38 36
3 38 39 36
3 37 40 38
3 41 39 38
3 37 42 40
3 43 39 41
3 37 44 42
3 45 39 43
3 45 46 39
3 37 47 44
3 48 46 45
3 49 47 37
3 49 50 47
3 51 46 48
3 49 52 50
3 53 46 51
3 49 54 52
3 55 46 53
3 55 56 46
3 49 57 54
3 58 56 55
3 49 59 57
3 60 56 58
3 61 59 49
3 61 62 59
3 63 56 60
3 63 64 56
3 61 65 62
3 66 64 63
3 61 67 65
3 68 64 66
3 68 69 64
3 70 67 61
3 70 71 67
3 72 69 68
3 73 71 70
3 74 71 73
3 74 75 71
3 76 69 72
3 77 75 74
3 78 75 77
3 78 79 75
3 80 69 76
3 80 81 69
3 82 79 78
3 82 83 79
3 84 81 80
3 85 83 82
3 85 86 83
3 87 81 84
3 88 86 85
3 88 89 86
3 90 81 87
3 91 89 88
3 90 92 81
3 91 93 89
3 94 92 90
3 95 93 91
3 95 96 93
3 97 92 94
3 98 96 95
3 99 96 98
3 99 100 96
3 101 92 97
3 102 100 99
3 102 103 100
3 104 92 101
3 102 105 103
3 106 92 104
3 102 107 105
3 107 92 106
3 102 92 107
3 102 108 92
3 102 109 108
3 102 110 109
3 102 111 110
3 102 112 111
3 102 113 112
3 102 114 113
3 102 115 114
3 102 116 115
3 102 117 116
3 102 118 117
3 102 119 118
3 102 120 119
3 102 121 120
3 102 122 121
3 102 123 122
3 102 124 123
3 102 125 124
3 102 126 125
3 102 127 126
3 102 128 127
3 102 129 128
3 102 130 129
3 130 131 129
3 130 132 131
3 130 133 132
3 130 134 133
3 134 135 133
3 130 136 134
3 137 135 134
3 130 138 136
3 130 139 138
3 130 140 139
3 130 141 140
3 130 142 141
3 130 143 142
3 130 144 143
3 130 145 144
3 130 146 145
3 130 147 146
3 130 148 147
3 102 149 130
3 150 148 130
3 151 152 150
3 152 148 150
3 151 153 152
3 137 154 135
3 102 155 149
3 151 156 153
3 157 154 137
3 102 158 155
3 151 159 156
3 160 154 157
3 102 161 158
3 160 162 154
3 163 161 102
3 164 161 163
3 165 161 164
3 166 161 165
3 167 161 166
3 168 161 167
3 169 161 168
3 170 161 169
3 170 171 161
3 151 172 159
3 173 171 170
3 174 171 173
3 175 171 174
3 176 162 160
3 177 171 175
3 178 171 177
3 176 179 162
3 180 171 178
3 181 171 180
3 181 182 171
3 183 182 181
3 184 182 183
3 185 182 184
3 186 182 185
3 151 187 172
3 188 182 186
3 189 182 188
3 190 182 189
3 190 191 182
3 192 179 176
3 193 191 190
3 194 191 193
3 195 191 194
3 192 196 179
3 195 197 191
3 151 198 187
3 199 197 195
3 200 197 199
3 201 196 192
3 200 202 197
3 201 203 196
3 204 202 200
3 204 205 202
3 151 206 198
3 207 205 204
3 207 208 205
3 209 208 207
3 210 208 209
3 210 211 208
3 212 203 201
3 210 213 211
3 214 213 210
3 212 215 203
3 214 216 213
3 217 216 214
3 151 218 206
3 212 219 215
3 220 219 212
3 151 221 218
3 220 222 219
3 151 223 221
3 224 222 220
3 224 225 222
3 151 226 223
3 227 225 224
3 227 228 225
3 151 229 226
3 227 230 228
3 151 231 229
3 227 232 230
3 151 233 231
3 227 234 232
3 151 235 233
3 227 236 234
3 151 237 235
3 227 238 236
3 151 239 237
3 240 238 227
3 240 241 238
3 151 242 239
3 240 243 241
3 151 244 242
3 240 245 243
3 151 246 244
3 240 247 245
3 151 248 246
3 240 249 247
3 151 250 248
3 240 251 249
3 151 252 250
3 253 251 240
3 253 254 251
3 151 255 252
3 253 256 254
3 151 257 255
3 253 258 256
3 151 259 257
3 253 260 258
3 151 261 259
3 262 260 253
3 263 261 151
3 262 264 260
3 263 265 261
3 262 266 264
3 263 267 265
3 268 266 262
3 269 267 263
3 268 270 266
3 269 271 267
3 272 270 268
3 273 271 269
3 272 274 270
3 273 275 271
3 276 274 272
3 277 275 273
3 276 278 274
3 277 279 275
3 276 280 278
3 277 281 279
3 282 280 276
3 283 281 277
3 282 284 280
3 283 285 281
3 286 284 282
3 287 285 283
3 286 288 284
3 287 289 285
3 290 288 286
3 291 289 287
3 290 292 288
3 291 293 289
3 290 294 292
3 291 295 293
3 296 294 290
3 297 295 291
3 296 298 294
3 297 299 295
3 300 298 296
3 301 299 297
