ply
format ascii 1.0
comment Created by Blender 2.91.2 - www.blender.org
element vertex 14
property float x
property float y
property float z
element face 16
property list uchar uint vertex_indices
end_header
-0.100035 0.057779 0.000000
-0.002114 0.090894 0.000000
-0.002069 0.111204 0.000000
0.095897 0.057200 0.000000
-0.072133 0.052704 0.000000
0.068377 0.052027 0.000000
-0.100035 -0.050237 0.000000
0.078085 0.037024 0.000000
0.095897 -0.050237 0.000000
-0.002025 0.014469 0.000000
0.006837 -0.000988 0.000000
0.078085 -0.039552 0.000000
0.006837 -0.077564 0.000000
-0.002069 -0.102495 0.000000
3 0 1 2
3 1 3 2
3 0 4 1
3 5 3 1
3 6 4 0
3 5 7 3
3 7 8 3
3 6 9 4
3 9 7 5
3 9 10 7
3 11 8 7
3 6 10 9
3 6 12 10
3 12 8 11
3 13 12 6
3 12 13 8
