ply
format ascii 1.0
comment Created by Blender 2.90.0 - www.blender.org
element vertex 393
property float x
property float y
property float z
property uchar red
property uchar green
property uchar blue
property uchar alpha
element face 393
property list uchar uint vertex_indices
end_header
-0.122248 -0.092391 0.000000 255 255 255 255
-0.101952 0.069939 0.000000 255 255 255 255
-0.122248 0.090230 0.000000 255 255 255 255
0.121299 0.090230 0.000000 255 255 255 255
0.101003 0.069939 0.000000 255 255 255 255
0.121299 -0.092391 0.000000 255 255 255 255
-0.101952 -0.072100 0.000000 255 255 255 255
0.101003 -0.072100 0.000000 255 255 255 255
-0.009900 0.059027 0.000000 255 255 255 255
-0.008882 0.061032 0.000000 255 255 255 255
-0.009204 0.061032 0.000000 255 255 255 255
-0.007993 0.061032 0.000000 255 255 255 255
-0.006651 0.061032 0.000000 255 255 255 255
-0.004968 0.061032 0.000000 255 255 255 255
-0.003058 0.061032 0.000000 255 255 255 255
-0.001035 0.061032 0.000000 255 255 255 255
0.000988 0.061032 0.000000 255 255 255 255
0.002898 0.061032 0.000000 255 255 255 255
0.004581 0.061032 0.000000 255 255 255 255
0.005924 0.061032 0.000000 255 255 255 255
0.006812 0.061032 0.000000 255 255 255 255
0.007134 0.061032 0.000000 255 255 255 255
0.007832 0.059019 0.000000 255 255 255 255
-0.010535 0.057143 0.000000 255 255 255 255
0.008469 0.057129 0.000000 255 255 255 255
-0.011137 0.055379 0.000000 255 255 255 255
0.009072 0.055361 0.000000 255 255 255 255
-0.011730 0.053734 0.000000 255 255 255 255
0.009666 0.053715 0.000000 255 255 255 255
-0.012343 0.052208 0.000000 255 255 255 255
0.010279 0.052189 0.000000 255 255 255 255
-0.013002 0.050798 0.000000 255 255 255 255
0.010938 0.050781 0.000000 255 255 255 255
-0.013734 0.049506 0.000000 255 255 255 255
0.011669 0.049492 0.000000 255 255 255 255
-0.014564 0.048329 0.000000 255 255 255 255
0.012499 0.048318 0.000000 255 255 255 255
-0.038380 0.048818 0.000000 255 255 255 255
-0.036234 0.048114 0.000000 255 255 255 255
-0.038153 0.049045 0.000000 255 255 255 255
0.034180 0.048122 0.000000 255 255 255 255
0.036310 0.048818 0.000000 255 255 255 255
0.036083 0.049045 0.000000 255 255 255 255
-0.039008 0.048189 0.000000 255 255 255 255
0.036938 0.048189 0.000000 255 255 255 255
-0.015520 0.047268 0.000000 255 255 255 255
0.013454 0.047260 0.000000 255 255 255 255
-0.039957 0.047240 0.000000 255 255 255 255
0.037888 0.047240 0.000000 255 255 255 255
0.032402 0.047240 0.000000 255 255 255 255
-0.034446 0.047228 0.000000 255 255 255 255
-0.016629 0.046320 0.000000 255 255 255 255
0.014561 0.046316 0.000000 255 255 255 255
-0.041147 0.046051 0.000000 255 255 255 255
0.039077 0.046051 0.000000 255 255 255 255
0.030732 0.046419 0.000000 255 255 255 255
-0.032770 0.046404 0.000000 255 255 255 255
0.029149 0.045675 0.000000 255 255 255 255
-0.031184 0.045660 0.000000 255 255 255 255
-0.017916 0.045486 0.000000 255 255 255 255
0.015848 0.045484 0.000000 255 255 255 255
-0.042497 0.044701 0.000000 255 255 255 255
0.040428 0.044701 0.000000 255 255 255 255
0.027635 0.045029 0.000000 255 255 255 255
-0.029670 0.045014 0.000000 255 255 255 255
-0.019409 0.044764 0.000000 255 255 255 255
0.017339 0.044764 0.000000 255 255 255 255
0.026170 0.044498 0.000000 255 255 255 255
-0.028207 0.044484 0.000000 255 255 255 255
-0.020981 0.044216 0.000000 255 255 255 255
-0.019414 0.044764 0.000000 255 255 255 255
-0.019414 0.044764 0.000000 255 255 255 255
-0.019414 0.044764 0.000000 255 255 255 255
-0.019414 0.044764 0.000000 255 255 255 255
-0.019413 0.044764 0.000000 255 255 255 255
-0.019412 0.044764 0.000000 255 255 255 255
-0.019412 0.044764 0.000000 255 255 255 255
-0.019411 0.044764 0.000000 255 255 255 255
-0.019411 0.044764 0.000000 255 255 255 255
-0.019410 0.044764 0.000000 255 255 255 255
-0.019410 0.044764 0.000000 255 255 255 255
-0.019409 0.044764 0.000000 255 255 255 255
0.017340 0.044764 0.000000 255 255 255 255
0.017340 0.044764 0.000000 255 255 255 255
0.017340 0.044764 0.000000 255 255 255 255
0.017341 0.044764 0.000000 255 255 255 255
0.017341 0.044764 0.000000 255 255 255 255
0.017342 0.044764 0.000000 255 255 255 255
0.017343 0.044764 0.000000 255 255 255 255
0.017343 0.044764 0.000000 255 255 255 255
0.017344 0.044764 0.000000 255 255 255 255
0.017344 0.044764 0.000000 255 255 255 255
0.017344 0.044764 0.000000 255 255 255 255
0.017345 0.044764 0.000000 255 255 255 255
0.018915 0.044216 0.000000 255 255 255 255
-0.043928 0.043271 0.000000 255 255 255 255
0.041858 0.043271 0.000000 255 255 255 255
0.024735 0.044100 0.000000 255 255 255 255
-0.026777 0.044089 0.000000 255 255 255 255
0.020421 0.043894 0.000000 255 255 255 255
-0.022480 0.043892 0.000000 255 255 255 255
0.023311 0.043855 0.000000 255 255 255 255
-0.025359 0.043847 0.000000 255 255 255 255
0.021880 0.043780 0.000000 255 255 255 255
-0.023933 0.043775 0.000000 255 255 255 255
-0.045358 0.041841 0.000000 255 255 255 255
0.043288 0.041841 0.000000 255 255 255 255
-0.046708 0.040491 0.000000 255 255 255 255
0.044639 0.040491 0.000000 255 255 255 255
-0.047898 0.039301 0.000000 255 255 255 255
0.045828 0.039301 0.000000 255 255 255 255
-0.048847 0.038352 0.000000 255 255 255 255
0.046778 0.038352 0.000000 255 255 255 255
-0.049476 0.037724 0.000000 255 255 255 255
0.047406 0.037724 0.000000 255 255 255 255
-0.049703 0.037497 0.000000 255 255 255 255
0.047633 0.037497 0.000000 255 255 255 255
-0.048777 0.035587 0.000000 255 255 255 255
0.046705 0.035581 0.000000 255 255 255 255
-0.047893 0.033804 0.000000 255 255 255 255
0.045820 0.033795 0.000000 255 255 255 255
-0.047070 0.032131 0.000000 255 255 255 255
0.044997 0.032119 0.000000 255 255 255 255
-0.046326 0.030548 0.000000 255 255 255 255
0.044253 0.030534 0.000000 255 255 255 255
-0.045680 0.029034 0.000000 255 255 255 255
0.043607 0.029020 0.000000 255 255 255 255
-0.045149 0.027571 0.000000 255 255 255 255
0.043077 0.027557 0.000000 255 255 255 255
-0.044753 0.026139 0.000000 255 255 255 255
0.042682 0.026127 0.000000 255 255 255 255
-0.044508 0.024718 0.000000 255 255 255 255
0.042439 0.024708 0.000000 255 255 255 255
-0.044435 0.023290 0.000000 255 255 255 255
0.042366 0.023282 0.000000 255 255 255 255
-0.044550 0.021834 0.000000 255 255 255 255
0.042482 0.021829 0.000000 255 255 255 255
-0.044873 0.020331 0.000000 255 255 255 255
-0.001035 0.020602 0.000000 255 255 255 255
0.042804 0.020329 0.000000 255 255 255 255
-0.003778 0.020418 0.000000 255 255 255 255
0.001709 0.020418 0.000000 255 255 255 255
0.004340 0.019880 0.000000 255 255 255 255
-0.006410 0.019880 0.000000 255 255 255 255
-0.045421 0.018763 0.000000 255 255 255 255
0.043352 0.018763 0.000000 255 255 255 255
0.006835 0.019013 0.000000 255 255 255 255
-0.008905 0.019013 0.000000 255 255 255 255
0.009170 0.017842 0.000000 255 255 255 255
-0.011240 0.017842 0.000000 255 255 255 255
-0.046143 0.017269 0.000000 255 255 255 255
0.043352 0.018762 0.000000 255 255 255 255
0.043352 0.018762 0.000000 255 255 255 255
0.043352 0.018762 0.000000 255 255 255 255
0.043352 0.018761 0.000000 255 255 255 255
0.043352 0.018761 0.000000 255 255 255 255
0.043352 0.018760 0.000000 255 255 255 255
0.043352 0.018759 0.000000 255 255 255 255
0.043352 0.018759 0.000000 255 255 255 255
0.043352 0.018758 0.000000 255 255 255 255
0.043352 0.018758 0.000000 255 255 255 255
0.043352 0.018758 0.000000 255 255 255 255
0.043352 0.018758 0.000000 255 255 255 255
0.044070 0.017268 0.000000 255 255 255 255
0.011320 0.016390 0.000000 255 255 255 255
-0.013390 0.016390 0.000000 255 255 255 255
-0.046978 0.015980 0.000000 255 255 255 255
0.044899 0.015984 0.000000 255 255 255 255
0.013262 0.014681 0.000000 255 255 255 255
-0.015332 0.014681 0.000000 255 255 255 255
0.045840 0.014879 0.000000 255 255 255 255
-0.047926 0.014871 0.000000 255 255 255 255
0.046895 0.013926 0.000000 255 255 255 255
-0.048987 0.013915 0.000000 255 255 255 255
0.014971 0.012740 0.000000 255 255 255 255
-0.017041 0.012740 0.000000 255 255 255 255
0.048066 0.013097 0.000000 255 255 255 255
-0.050164 0.013084 0.000000 255 255 255 255
0.049353 0.012367 0.000000 255 255 255 255
-0.051457 0.012352 0.000000 255 255 255 255
0.016424 0.010590 0.000000 255 255 255 255
-0.018494 0.010590 0.000000 255 255 255 255
0.050759 0.011708 0.000000 255 255 255 255
-0.052866 0.011694 0.000000 255 255 255 255
0.052285 0.011095 0.000000 255 255 255 255
-0.054393 0.011080 0.000000 255 255 255 255
0.053933 0.010499 0.000000 255 255 255 255
-0.056039 0.010487 0.000000 255 255 255 255
0.017595 0.008255 0.000000 255 255 255 255
-0.019665 0.008255 0.000000 255 255 255 255
0.055704 0.009895 0.000000 255 255 255 255
-0.057803 0.009885 0.000000 255 255 255 255
0.057601 0.009256 0.000000 255 255 255 255
-0.059688 0.009250 0.000000 255 255 255 255
0.059623 0.008554 0.000000 255 255 255 255
-0.061693 0.008554 0.000000 255 255 255 255
-0.061693 0.008233 0.000000 255 255 255 255
0.059623 -0.007780 0.000000 255 255 255 255
-0.020532 0.005761 0.000000 255 255 255 255
0.018462 0.005761 0.000000 255 255 255 255
-0.061693 0.007344 0.000000 255 255 255 255
-0.061693 0.006002 0.000000 255 255 255 255
-0.061693 0.004319 0.000000 255 255 255 255
-0.021070 0.003130 0.000000 255 255 255 255
0.019000 0.003130 0.000000 255 255 255 255
-0.061693 0.002410 0.000000 255 255 255 255
-0.021254 0.000387 0.000000 255 255 255 255
0.019184 0.000387 0.000000 255 255 255 255
-0.061693 0.000387 0.000000 255 255 255 255
-0.061693 -0.001636 0.000000 255 255 255 255
-0.021070 -0.002356 0.000000 255 255 255 255
0.019000 -0.002356 0.000000 255 255 255 255
-0.061693 -0.003545 0.000000 255 255 255 255
0.018462 -0.004987 0.000000 255 255 255 255
-0.020532 -0.004987 0.000000 255 255 255 255
-0.061693 -0.005228 0.000000 255 255 255 255
0.017595 -0.007481 0.000000 255 255 255 255
-0.019665 -0.007481 0.000000 255 255 255 255
-0.061693 -0.006570 0.000000 255 255 255 255
-0.061693 -0.007459 0.000000 255 255 255 255
-0.061693 -0.007780 0.000000 255 255 255 255
0.016424 -0.009816 0.000000 255 255 255 255
-0.018494 -0.009816 0.000000 255 255 255 255
-0.059691 -0.008474 0.000000 255 255 255 255
0.057620 -0.008475 0.000000 255 255 255 255
-0.057808 -0.009108 0.000000 255 255 255 255
0.055736 -0.009110 0.000000 255 255 255 255
-0.056045 -0.009708 0.000000 255 255 255 255
0.053971 -0.009711 0.000000 255 255 255 255
-0.054400 -0.010302 0.000000 255 255 255 255
0.052325 -0.010305 0.000000 255 255 255 255
0.014971 -0.011966 0.000000 255 255 255 255
-0.017041 -0.011966 0.000000 255 255 255 255
-0.052873 -0.010915 0.000000 255 255 255 255
0.050797 -0.010919 0.000000 255 255 255 255
-0.051463 -0.011574 0.000000 255 255 255 255
0.049386 -0.011579 0.000000 255 255 255 255
-0.050169 -0.012306 0.000000 255 255 255 255
0.048091 -0.012312 0.000000 255 255 255 255
0.013262 -0.013907 0.000000 255 255 255 255
-0.015332 -0.013907 0.000000 255 255 255 255
-0.048991 -0.013137 0.000000 255 255 255 255
0.046912 -0.013143 0.000000 255 255 255 255
-0.047928 -0.014094 0.000000 255 255 255 255
0.045849 -0.014101 0.000000 255 255 255 255
0.011320 -0.015616 0.000000 255 255 255 255
-0.013390 -0.015616 0.000000 255 255 255 255
-0.046979 -0.015203 0.000000 255 255 255 255
0.044899 -0.015211 0.000000 255 255 255 255
-0.046144 -0.016490 0.000000 255 255 255 255
0.044064 -0.016499 0.000000 255 255 255 255
0.009170 -0.017068 0.000000 255 255 255 255
-0.011240 -0.017068 0.000000 255 255 255 255
-0.045421 -0.017983 0.000000 255 255 255 255
0.043342 -0.017994 0.000000 255 255 255 255
0.006835 -0.018239 0.000000 255 255 255 255
-0.008905 -0.018239 0.000000 255 255 255 255
-0.044872 -0.019564 0.000000 255 255 255 255
0.042795 -0.019563 0.000000 255 255 255 255
0.004340 -0.019106 0.000000 255 255 255 255
-0.006410 -0.019106 0.000000 255 255 255 255
0.001709 -0.019644 0.000000 255 255 255 255
-0.003778 -0.019644 0.000000 255 255 255 255
0.042473 -0.021066 0.000000 255 255 255 255
-0.044551 -0.021080 0.000000 255 255 255 255
-0.001035 -0.019828 0.000000 255 255 255 255
0.042359 -0.022523 0.000000 255 255 255 255
-0.044439 -0.022549 0.000000 255 255 255 255
0.042433 -0.023953 0.000000 255 255 255 255
-0.044517 -0.023989 0.000000 255 255 255 255
0.042678 -0.025375 0.000000 255 255 255 255
-0.044767 -0.025420 0.000000 255 255 255 255
0.043076 -0.026809 0.000000 255 255 255 255
-0.045168 -0.026860 0.000000 255 255 255 255
0.043607 -0.028272 0.000000 255 255 255 255
-0.045703 -0.028327 0.000000 255 255 255 255
0.044253 -0.029786 0.000000 255 255 255 255
-0.046351 -0.029839 0.000000 255 255 255 255
0.044997 -0.031369 0.000000 255 255 255 255
-0.047094 -0.031416 0.000000 255 255 255 255
0.045820 -0.033040 0.000000 255 255 255 255
-0.047913 -0.033076 0.000000 255 255 255 255
0.046703 -0.034818 0.000000 255 255 255 255
-0.048789 -0.034837 0.000000 255 255 255 255
0.047628 -0.036723 0.000000 255 255 255 255
-0.049703 -0.036718 0.000000 255 255 255 255
-0.049476 -0.036945 0.000000 255 255 255 255
0.047401 -0.036950 0.000000 255 255 255 255
-0.048847 -0.037574 0.000000 255 255 255 255
0.046773 -0.037579 0.000000 255 255 255 255
-0.047898 -0.038523 0.000000 255 255 255 255
0.045823 -0.038528 0.000000 255 255 255 255
-0.046708 -0.039713 0.000000 255 255 255 255
0.044634 -0.039718 0.000000 255 255 255 255
-0.045358 -0.041064 0.000000 255 255 255 255
0.043283 -0.041069 0.000000 255 255 255 255
-0.043928 -0.042494 0.000000 255 255 255 255
0.041853 -0.042499 0.000000 255 255 255 255
-0.042497 -0.043925 0.000000 255 255 255 255
-0.023947 -0.043005 0.000000 255 255 255 255
0.021875 -0.042997 0.000000 255 255 255 255
0.040423 -0.043930 0.000000 255 255 255 255
0.020431 -0.043111 0.000000 255 255 255 255
0.023294 -0.043071 0.000000 255 255 255 255
-0.025378 -0.043080 0.000000 255 255 255 255
-0.022488 -0.043120 0.000000 255 255 255 255
0.024706 -0.043315 0.000000 255 255 255 255
-0.026801 -0.043325 0.000000 255 255 255 255
0.018941 -0.043431 0.000000 255 255 255 255
-0.020984 -0.043442 0.000000 255 255 255 255
0.026132 -0.043711 0.000000 255 255 255 255
-0.028236 -0.043722 0.000000 255 255 255 255
0.017385 -0.043975 0.000000 255 255 255 255
-0.019414 -0.043990 0.000000 255 255 255 255
0.017380 -0.043975 0.000000 255 255 255 255
0.027592 -0.044241 0.000000 255 255 255 255
-0.029701 -0.044253 0.000000 255 255 255 255
-0.041147 -0.045276 0.000000 255 255 255 255
0.039072 -0.045281 0.000000 255 255 255 255
-0.019414 -0.043990 0.000000 255 255 255 255
-0.019414 -0.043990 0.000000 255 255 255 255
-0.019414 -0.043990 0.000000 255 255 255 255
-0.019412 -0.043990 0.000000 255 255 255 255
-0.019412 -0.043990 0.000000 255 255 255 255
-0.019411 -0.043990 0.000000 255 255 255 255
-0.019411 -0.043990 0.000000 255 255 255 255
-0.019410 -0.043990 0.000000 255 255 255 255
-0.019409 -0.043990 0.000000 255 255 255 255
-0.019409 -0.043990 0.000000 255 255 255 255
0.015878 -0.044702 0.000000 255 255 255 255
0.017380 -0.043975 0.000000 255 255 255 255
0.017380 -0.043975 0.000000 255 255 255 255
0.017381 -0.043975 0.000000 255 255 255 255
0.017381 -0.043975 0.000000 255 255 255 255
0.017382 -0.043975 0.000000 255 255 255 255
0.017382 -0.043975 0.000000 255 255 255 255
0.017383 -0.043975 0.000000 255 255 255 255
0.017384 -0.043975 0.000000 255 255 255 255
0.017384 -0.043975 0.000000 255 255 255 255
0.017385 -0.043975 0.000000 255 255 255 255
0.017385 -0.043975 0.000000 255 255 255 255
-0.019413 -0.043990 0.000000 255 255 255 255
-0.019410 -0.043990 0.000000 255 255 255 255
-0.017916 -0.044710 0.000000 255 255 255 255
0.029104 -0.044888 0.000000 255 255 255 255
-0.031215 -0.044899 0.000000 255 255 255 255
0.014584 -0.045541 0.000000 255 255 255 255
-0.016629 -0.045543 0.000000 255 255 255 255
0.030689 -0.045632 0.000000 255 255 255 255
-0.032799 -0.045643 0.000000 255 255 255 255
-0.039957 -0.046466 0.000000 255 255 255 255
0.037883 -0.046471 0.000000 255 255 255 255
0.013469 -0.046491 0.000000 255 255 255 255
-0.015521 -0.046488 0.000000 255 255 255 255
0.032366 -0.046457 0.000000 255 255 255 255
-0.034470 -0.046465 0.000000 255 255 255 255
0.034156 -0.047344 0.000000 255 255 255 255
-0.036248 -0.047347 0.000000 255 255 255 255
-0.039008 -0.047415 0.000000 255 255 255 255
0.036933 -0.047420 0.000000 255 255 255 255
-0.014565 -0.047548 0.000000 255 255 255 255
0.012508 -0.047554 0.000000 255 255 255 255
0.036078 -0.048276 0.000000 255 255 255 255
-0.038380 -0.048043 0.000000 255 255 255 255
-0.038153 -0.048271 0.000000 255 255 255 255
0.036305 -0.048049 0.000000 255 255 255 255
-0.013735 -0.048722 0.000000 255 255 255 255
0.011674 -0.048732 0.000000 255 255 255 255
-0.013004 -0.050013 0.000000 255 255 255 255
0.010939 -0.050024 0.000000 255 255 255 255
-0.012346 -0.051421 0.000000 255 255 255 255
0.010278 -0.051433 0.000000 255 255 255 255
-0.011733 -0.052948 0.000000 255 255 255 255
0.009663 -0.052960 0.000000 255 255 255 255
-0.011139 -0.054594 0.000000 255 255 255 255
0.009068 -0.054604 0.000000 255 255 255 255
-0.010537 -0.056360 0.000000 255 255 255 255
0.008466 -0.056368 0.000000 255 255 255 255
-0.009901 -0.058248 0.000000 255 255 255 255
0.007830 -0.058252 0.000000 255 255 255 255
-0.009204 -0.060258 0.000000 255 255 255 255
0.007134 -0.060258 0.000000 255 255 255 255
-0.008882 -0.060258 0.000000 255 255 255 255
-0.007993 -0.060258 0.000000 255 255 255 255
-0.006651 -0.060258 0.000000 255 255 255 255
-0.004968 -0.060258 0.000000 255 255 255 255
-0.003058 -0.060258 0.000000 255 255 255 255
-0.001035 -0.060258 0.000000 255 255 255 255
0.000988 -0.060258 0.000000 255 255 255 255
0.002898 -0.060258 0.000000 255 255 255 255
0.004581 -0.060258 0.000000 255 255 255 255
0.005924 -0.060258 0.000000 255 255 255 255
0.006812 -0.060258 0.000000 255 255 255 255
3 0 1 2
3 1 3 2
3 1 4 3
3 4 5 3
3 0 6 1
3 7 5 4
3 0 7 6
3 0 5 7
3 8 9 10
3 8 11 9
3 8 12 11
3 8 13 12
3 8 14 13
3 8 15 14
3 8 16 15
3 8 17 16
3 8 18 17
3 8 19 18
3 8 20 19
3 8 21 20
3 8 22 21
3 23 22 8
3 23 24 22
3 25 24 23
3 25 26 24
3 27 26 25
3 27 28 26
3 29 28 27
3 29 30 28
3 31 30 29
3 31 32 30
3 33 32 31
3 33 34 32
3 35 34 33
3 35 36 34
3 37 38 39
3 40 41 42
3 43 38 37
3 40 44 41
3 45 36 35
3 45 46 36
3 47 38 43
3 40 48 44
3 49 48 40
3 47 50 38
3 51 46 45
3 51 52 46
3 53 50 47
3 49 54 48
3 55 54 49
3 53 56 50
3 57 54 55
3 53 58 56
3 59 52 51
3 59 60 52
3 61 58 53
3 57 62 54
3 63 62 57
3 61 64 58
3 65 60 59
3 65 66 60
3 67 62 63
3 61 68 64
3 69 70 71
3 69 72 70
3 69 73 72
3 69 74 73
3 69 75 74
3 69 76 75
3 69 77 76
3 69 78 77
3 69 79 78
3 69 80 79
3 69 81 80
3 69 65 81
3 69 66 65
3 69 82 66
3 69 83 82
3 69 84 83
3 69 85 84
3 69 86 85
3 69 87 86
3 69 88 87
3 69 89 88
3 69 90 89
3 69 91 90
3 69 92 91
3 69 93 92
3 69 94 93
3 95 68 61
3 67 96 62
3 97 96 67
3 95 98 68
3 69 99 94
3 100 99 69
3 101 96 97
3 95 102 98
3 100 103 99
3 104 103 100
3 103 96 101
3 95 104 102
3 104 96 103
3 95 96 104
3 105 96 95
3 105 106 96
3 107 106 105
3 107 108 106
3 109 108 107
3 109 110 108
3 111 110 109
3 111 112 110
3 113 112 111
3 113 114 112
3 115 114 113
3 115 116 114
3 117 116 115
3 117 118 116
3 119 118 117
3 119 120 118
3 121 120 119
3 121 122 120
3 123 122 121
3 123 124 122
3 125 124 123
3 125 126 124
3 127 126 125
3 127 128 126
3 129 128 127
3 129 130 128
3 131 130 129
3 131 132 130
3 133 132 131
3 133 134 132
3 135 134 133
3 135 136 134
3 137 136 135
3 137 138 136
3 138 139 136
3 137 140 138
3 141 139 138
3 142 139 141
3 137 143 140
3 144 143 137
3 142 145 139
3 146 145 142
3 144 147 143
3 148 145 146
3 144 149 147
3 150 149 144
3 148 151 145
3 148 152 151
3 148 153 152
3 148 154 153
3 148 155 154
3 148 156 155
3 148 157 156
3 148 158 157
3 148 159 158
3 148 160 159
3 148 161 160
3 148 162 161
3 148 163 162
3 164 163 148
3 150 165 149
3 166 165 150
3 164 167 163
3 168 167 164
3 166 169 165
3 168 170 167
3 171 169 166
3 168 172 170
3 173 169 171
3 174 172 168
3 173 175 169
3 174 176 172
3 177 175 173
3 174 178 176
3 179 175 177
3 180 178 174
3 179 181 175
3 180 182 178
3 183 181 179
3 180 184 182
3 185 181 183
3 180 186 184
3 187 181 185
3 188 186 180
3 187 189 181
3 188 190 186
3 191 189 187
3 188 192 190
3 193 189 191
3 188 194 192
3 195 189 193
3 196 189 195
3 188 197 194
3 196 198 189
3 199 197 188
3 200 198 196
3 201 198 200
3 202 198 201
3 202 203 198
3 204 197 199
3 205 203 202
3 205 206 203
3 207 197 204
3 208 206 205
3 209 206 208
3 209 210 206
3 211 197 207
3 212 210 209
3 213 197 211
3 212 214 210
3 215 214 212
3 216 197 213
3 215 217 214
3 218 217 215
3 219 217 218
3 220 217 219
3 221 197 216
3 220 222 217
3 223 222 220
3 221 224 197
3 225 222 223
3 221 226 224
3 227 222 225
3 221 228 226
3 229 222 227
3 221 230 228
3 231 230 221
3 229 232 222
3 233 232 229
3 231 234 230
3 235 232 233
3 231 236 234
3 237 232 235
3 231 238 236
3 239 238 231
3 237 240 232
3 241 240 237
3 239 242 238
3 243 240 241
3 239 244 242
3 245 244 239
3 243 246 240
3 247 246 243
3 245 248 244
3 249 246 247
3 245 250 248
3 251 250 245
3 249 252 246
3 253 252 249
3 251 254 250
3 255 254 251
3 253 256 252
3 257 256 253
3 255 258 254
3 259 258 255
3 257 260 256
3 261 258 259
3 257 262 260
3 261 263 258
3 264 262 257
3 265 263 261
3 264 265 262
3 264 263 265
3 264 266 263
3 267 266 264
3 267 268 266
3 269 268 267
3 269 270 268
3 271 270 269
3 271 272 270
3 273 272 271
3 273 274 272
3 275 274 273
3 275 276 274
3 277 276 275
3 277 278 276
3 279 278 277
3 279 280 278
3 281 280 279
3 281 282 280
3 283 282 281
3 283 284 282
3 285 284 283
3 286 284 285
3 286 287 284
3 288 287 286
3 288 289 287
3 290 289 288
3 290 291 289
3 292 291 290
3 292 293 291
3 294 293 292
3 294 295 293
3 296 295 294
3 296 297 295
3 298 299 296
3 299 297 296
3 299 300 297
3 300 301 297
3 299 302 300
3 303 301 300
3 298 304 299
3 305 302 299
3 306 301 303
3 298 307 304
3 305 308 302
3 309 308 305
3 310 301 306
3 298 311 307
3 309 312 308
3 313 314 309
3 314 312 309
3 315 301 310
3 298 316 311
3 317 316 298
3 315 318 301
3 313 319 314
3 319 320 314
3 320 321 314
3 321 322 314
3 322 323 314
3 323 324 314
3 324 325 314
3 325 326 314
3 326 327 314
3 327 328 314
3 328 329 314
3 330 312 314
3 331 312 330
3 332 312 331
3 333 312 332
3 334 312 333
3 335 312 334
3 336 312 335
3 337 312 336
3 338 312 337
3 339 312 338
3 340 312 339
3 341 322 321
3 342 326 325
3 343 329 328
3 344 318 315
3 317 345 316
3 343 346 329
3 347 346 343
3 348 318 344
3 317 349 345
3 350 349 317
3 348 351 318
3 347 352 346
3 353 352 347
3 354 351 348
3 350 355 349
3 356 351 354
3 350 357 355
3 358 357 350
3 356 359 351
3 360 352 353
3 360 361 352
3 362 359 356
3 358 363 357
3 363 364 357
3 362 365 359
3 366 361 360
3 366 367 361
3 368 367 366
3 368 369 367
3 370 369 368
3 370 371 369
3 372 371 370
3 372 373 371
3 374 373 372
3 374 375 373
3 376 375 374
3 376 377 375
3 378 377 376
3 378 379 377
3 380 379 378
3 380 381 379
3 382 381 380
3 383 381 382
3 384 381 383
3 385 381 384
3 386 381 385
3 387 381 386
3 388 381 387
3 389 381 388
3 390 381 389
3 391 381 390
3 392 381 391
