ply
format ascii 1.0
comment Created by Blender 3.4.1 - www.blender.org
element vertex 391
property float x
property float y
property float z
element face 387
property list uchar uint vertex_indices
end_header
-0.074560 0.075085 0.000000
-0.072225 0.075085 0.000000
-0.073393 0.075159 0.000000
-0.075712 0.074862 0.000000
-0.071073 0.074862 0.000000
-0.076833 0.074490 0.000000
-0.069952 0.074490 0.000000
-0.077908 0.073969 0.000000
-0.068877 0.073969 0.000000
-0.078921 0.073300 0.000000
-0.067864 0.073300 0.000000
-0.079857 0.072482 0.000000
-0.066927 0.072482 0.000000
-0.080612 0.071727 0.000000
-0.066173 0.071727 0.000000
-0.064086 0.069641 0.000000
-0.082699 0.069641 0.000000
-0.060934 0.066490 0.000000
-0.085851 0.066490 0.000000
-0.056983 0.062540 0.000000
-0.089802 0.062540 0.000000
-0.052499 0.058057 0.000000
-0.094286 0.058057 0.000000
-0.018788 0.061512 0.000000
-0.015014 0.061709 0.000000
-0.016840 0.061709 0.000000
-0.009967 0.061709 0.000000
-0.002343 0.061709 0.000000
0.007215 0.061709 0.000000
0.018060 0.061709 0.000000
0.029551 0.061709 0.000000
0.041041 0.061709 0.000000
0.051887 0.061709 0.000000
0.061444 0.061709 0.000000
0.069068 0.061709 0.000000
0.074115 0.061709 0.000000
0.075941 0.061709 0.000000
0.077182 0.061626 0.000000
0.078372 0.061383 0.000000
-0.020547 0.060953 0.000000
0.079500 0.060991 0.000000
0.080556 0.060461 0.000000
-0.022096 0.060081 0.000000
0.081528 0.059805 0.000000
-0.023416 0.058943 0.000000
0.082406 0.059032 0.000000
0.083179 0.058154 0.000000
-0.024486 0.057589 0.000000
0.083836 0.057182 0.000000
-0.047749 0.053308 0.000000
-0.099036 0.053308 0.000000
-0.025287 0.056066 0.000000
0.084365 0.056126 0.000000
0.084757 0.054998 0.000000
-0.025798 0.054424 0.000000
0.085000 0.053809 0.000000
-0.025999 0.052710 0.000000
0.085084 0.052568 0.000000
-0.042999 0.048559 0.000000
-0.103786 0.048558 0.000000
-0.025870 0.050972 0.000000
0.085084 0.050904 0.000000
-0.025392 0.049260 0.000000
0.085084 0.046302 0.000000
-0.024543 0.047621 0.000000
-0.038515 0.044076 0.000000
-0.108270 0.044075 0.000000
-0.023305 0.046104 0.000000
0.085084 0.039350 0.000000
-0.023185 0.045985 0.000000
-0.022853 0.045653 0.000000
-0.022353 0.045152 0.000000
-0.021725 0.044525 0.000000
-0.021012 0.043812 0.000000
-0.034564 0.040126 0.000000
-0.112221 0.040125 0.000000
-0.020257 0.043057 0.000000
-0.019502 0.042303 0.000000
-0.018790 0.041590 0.000000
-0.018162 0.040963 0.000000
-0.017661 0.040462 0.000000
-0.017330 0.040130 0.000000
-0.017210 0.040010 0.000000
-0.031412 0.036974 0.000000
-0.115373 0.036974 0.000000
-0.016769 0.039598 0.000000
-0.016304 0.039217 0.000000
0.060703 0.037334 0.000000
0.085084 0.030635 0.000000
-0.015817 0.038869 0.000000
-0.015310 0.038555 0.000000
-0.014785 0.038275 0.000000
-0.014243 0.038030 0.000000
-0.013687 0.037820 0.000000
-0.013117 0.037647 0.000000
-0.012536 0.037511 0.000000
-0.011946 0.037413 0.000000
-0.011348 0.037354 0.000000
-0.010745 0.037334 0.000000
0.060703 -0.032030 0.000000
-0.029326 0.034888 0.000000
-0.117460 0.034888 0.000000
-0.028571 0.034134 0.000000
-0.118214 0.034133 0.000000
-0.061202 0.033570 0.000000
-0.027753 0.033198 0.000000
-0.119033 0.033197 0.000000
-0.085583 0.033570 0.000000
-0.061202 -0.035794 0.000000
-0.045806 0.017272 0.000000
-0.085886 0.033249 0.000000
-0.085583 -0.051029 0.000000
-0.086724 0.032362 0.000000
-0.027083 0.032185 0.000000
-0.119702 0.032184 0.000000
-0.087989 0.031023 0.000000
-0.026562 0.031110 0.000000
-0.120223 0.031109 0.000000
-0.026190 0.029989 0.000000
-0.120595 0.029988 0.000000
-0.089575 0.029344 0.000000
0.085084 0.020746 0.000000
-0.025967 0.028838 0.000000
-0.120818 0.028837 0.000000
-0.091375 0.027439 0.000000
-0.025893 0.027670 0.000000
-0.120892 0.027670 0.000000
-0.025967 0.026503 0.000000
-0.120818 0.026502 0.000000
-0.093281 0.025420 0.000000
-0.026190 0.025352 0.000000
-0.120595 0.025351 0.000000
-0.095188 0.023402 0.000000
-0.026562 0.024231 0.000000
-0.120223 0.024230 0.000000
-0.027083 0.023156 0.000000
-0.119702 0.023155 0.000000
-0.096988 0.021497 0.000000
-0.027753 0.022143 0.000000
-0.119033 0.022142 0.000000
-0.028571 0.021207 0.000000
-0.118214 0.021206 0.000000
-0.098574 0.019818 0.000000
-0.028652 0.021126 0.000000
-0.118133 0.021125 0.000000
-0.028876 0.020901 0.000000
-0.117909 0.020901 0.000000
-0.029215 0.020563 0.000000
-0.117570 0.020562 0.000000
0.085084 0.010269 0.000000
-0.029640 0.020138 0.000000
-0.117146 0.020137 0.000000
-0.030122 0.019656 0.000000
-0.116664 0.019656 0.000000
-0.099839 0.018478 0.000000
-0.030632 0.019146 0.000000
-0.116153 0.019145 0.000000
-0.031143 0.018635 0.000000
-0.115643 0.018635 0.000000
-0.031625 0.018153 0.000000
-0.115161 0.018153 0.000000
-0.100677 0.017592 0.000000
-0.032049 0.017729 0.000000
-0.114736 0.017728 0.000000
-0.032388 0.017390 0.000000
-0.114397 0.017390 0.000000
-0.100980 0.017271 0.000000
-0.032612 0.017166 0.000000
-0.114173 0.017165 0.000000
-0.044874 0.016412 0.000000
-0.101911 0.016411 0.000000
-0.032693 0.017085 0.000000
-0.114092 0.017084 0.000000
-0.033649 0.016252 0.000000
-0.113136 0.016251 0.000000
-0.043859 0.015705 0.000000
-0.102926 0.015704 0.000000
-0.034684 0.015574 0.000000
-0.112101 0.015574 0.000000
-0.042777 0.015151 0.000000
-0.104009 0.015150 0.000000
-0.035782 0.015051 0.000000
-0.111004 0.015050 0.000000
-0.041643 0.014750 0.000000
-0.105142 0.014749 0.000000
-0.036926 0.014682 0.000000
-0.109859 0.014682 0.000000
-0.040475 0.014502 0.000000
-0.106310 0.014502 0.000000
-0.038100 0.014468 0.000000
-0.108685 0.014468 0.000000
-0.039289 0.014408 0.000000
-0.107496 0.014408 0.000000
0.085084 -0.000208 0.000000
0.085084 -0.010097 0.000000
0.085084 -0.018812 0.000000
0.037601 -0.012928 0.000000
0.039977 -0.012962 0.000000
0.038790 -0.012868 0.000000
0.105810 -0.012963 0.000000
0.108185 -0.012929 0.000000
0.106997 -0.012869 0.000000
0.036427 -0.013142 0.000000
0.109360 -0.013143 0.000000
0.041144 -0.013210 0.000000
0.104642 -0.013210 0.000000
0.035283 -0.013511 0.000000
0.110504 -0.013511 0.000000
0.042278 -0.013611 0.000000
0.103509 -0.013611 0.000000
0.034185 -0.014034 0.000000
0.111602 -0.014034 0.000000
0.043360 -0.014165 0.000000
0.102427 -0.014165 0.000000
0.033150 -0.014712 0.000000
0.112637 -0.014712 0.000000
0.044375 -0.014872 0.000000
0.101412 -0.014872 0.000000
0.032195 -0.015545 0.000000
0.113592 -0.015545 0.000000
0.045307 -0.015732 0.000000
0.100480 -0.015732 0.000000
0.032113 -0.015626 0.000000
0.113674 -0.015626 0.000000
0.031889 -0.015850 0.000000
0.113898 -0.015851 0.000000
0.045610 -0.016052 0.000000
0.085084 -0.032030 0.000000
0.031550 -0.016189 0.000000
0.114237 -0.016189 0.000000
0.046447 -0.016939 0.000000
0.031126 -0.016613 0.000000
0.114661 -0.016614 0.000000
0.030644 -0.017095 0.000000
0.115143 -0.017096 0.000000
0.047712 -0.018278 0.000000
0.030133 -0.017606 0.000000
0.115654 -0.017606 0.000000
0.029622 -0.018116 0.000000
0.116165 -0.018117 0.000000
0.029140 -0.018598 0.000000
0.116647 -0.018599 0.000000
0.049298 -0.019957 0.000000
0.028716 -0.019023 0.000000
0.117071 -0.019023 0.000000
0.085084 -0.025764 0.000000
0.028377 -0.019362 0.000000
0.117410 -0.019362 0.000000
0.028153 -0.019586 0.000000
0.117634 -0.019586 0.000000
0.028072 -0.019667 0.000000
0.117716 -0.019667 0.000000
0.027253 -0.020603 0.000000
0.118534 -0.020603 0.000000
0.051098 -0.021862 0.000000
0.026584 -0.021616 0.000000
0.119203 -0.021617 0.000000
0.026063 -0.022691 0.000000
0.119724 -0.022691 0.000000
0.053005 -0.023881 0.000000
0.025691 -0.023812 0.000000
0.120096 -0.023812 0.000000
0.025468 -0.024963 0.000000
0.120319 -0.024964 0.000000
0.054911 -0.025899 0.000000
0.025394 -0.026130 0.000000
0.120393 -0.026131 0.000000
0.085084 -0.030366 0.000000
0.056711 -0.027804 0.000000
0.025468 -0.027297 0.000000
0.120319 -0.027298 0.000000
0.025691 -0.028449 0.000000
0.120096 -0.028450 0.000000
0.058297 -0.029483 0.000000
0.026063 -0.029570 0.000000
0.119724 -0.029571 0.000000
0.059562 -0.030823 0.000000
0.026584 -0.030645 0.000000
0.119203 -0.030646 0.000000
0.027253 -0.031658 0.000000
0.118533 -0.031659 0.000000
0.060400 -0.031709 0.000000
0.028072 -0.032594 0.000000
0.117715 -0.032594 0.000000
0.117715 -0.032594 0.000000
0.117715 -0.032594 0.000000
0.117715 -0.032594 0.000000
0.117715 -0.032594 0.000000
0.117715 -0.032594 0.000000
0.117715 -0.032594 0.000000
0.117715 -0.032594 0.000000
0.117715 -0.032595 0.000000
0.117715 -0.032595 0.000000
0.117715 -0.032595 0.000000
0.117715 -0.032595 0.000000
0.117715 -0.032595 0.000000
0.028826 -0.033349 0.000000
0.079359 -0.070943 0.000000
0.030913 -0.035435 0.000000
0.034065 -0.038586 0.000000
-0.059796 -0.035794 0.000000
-0.055910 -0.035794 0.000000
-0.050039 -0.035794 0.000000
-0.042679 -0.035794 0.000000
-0.034327 -0.035794 0.000000
-0.025479 -0.035794 0.000000
-0.016630 -0.035794 0.000000
-0.008278 -0.035794 0.000000
-0.000919 -0.035794 0.000000
0.004953 -0.035794 0.000000
0.008839 -0.035794 0.000000
0.010245 -0.035794 0.000000
0.010849 -0.035814 0.000000
0.011447 -0.035873 0.000000
0.012037 -0.035971 0.000000
0.012618 -0.036107 0.000000
0.013187 -0.036280 0.000000
0.013744 -0.036490 0.000000
0.014286 -0.036735 0.000000
0.014811 -0.037015 0.000000
0.015317 -0.037330 0.000000
0.015804 -0.037678 0.000000
0.016269 -0.038059 0.000000
0.016710 -0.038471 0.000000
0.016830 -0.038591 0.000000
0.038016 -0.042536 0.000000
0.017162 -0.038923 0.000000
0.017662 -0.039424 0.000000
0.018290 -0.040051 0.000000
0.019003 -0.040764 0.000000
0.019758 -0.041518 0.000000
0.020513 -0.042273 0.000000
0.021225 -0.042986 0.000000
0.042500 -0.047019 0.000000
0.021853 -0.043613 0.000000
0.022354 -0.044114 0.000000
0.022686 -0.044446 0.000000
0.022806 -0.044566 0.000000
0.024044 -0.046082 0.000000
0.024892 -0.047721 0.000000
0.047250 -0.051768 0.000000
0.025371 -0.049433 0.000000
0.025499 -0.051171 0.000000
-0.085500 -0.052270 0.000000
0.025298 -0.052885 0.000000
0.052000 -0.056518 0.000000
-0.085257 -0.053459 0.000000
0.024788 -0.054527 0.000000
-0.084865 -0.054587 0.000000
0.023987 -0.056050 0.000000
-0.084335 -0.055643 0.000000
-0.083678 -0.056615 0.000000
0.022917 -0.057404 0.000000
0.056484 -0.061000 0.000000
-0.082905 -0.057493 0.000000
0.021597 -0.058542 0.000000
-0.082027 -0.058266 0.000000
-0.081055 -0.058922 0.000000
0.020048 -0.059414 0.000000
-0.079999 -0.059452 0.000000
0.018289 -0.059973 0.000000
-0.078871 -0.059844 0.000000
-0.077681 -0.060087 0.000000
0.016340 -0.060170 0.000000
-0.076440 -0.060170 0.000000
-0.074615 -0.060170 0.000000
-0.069568 -0.060170 0.000000
-0.061943 -0.060170 0.000000
-0.052386 -0.060170 0.000000
-0.041540 -0.060170 0.000000
-0.030050 -0.060170 0.000000
-0.018560 -0.060170 0.000000
-0.007714 -0.060170 0.000000
0.001843 -0.060170 0.000000
0.009468 -0.060170 0.000000
0.014515 -0.060170 0.000000
0.060435 -0.064951 0.000000
0.063587 -0.068102 0.000000
0.065674 -0.070188 0.000000
0.066429 -0.070943 0.000000
0.067365 -0.071761 0.000000
0.078422 -0.071761 0.000000
0.068378 -0.072430 0.000000
0.077409 -0.072430 0.000000
0.069453 -0.072951 0.000000
0.076334 -0.072951 0.000000
0.070574 -0.073322 0.000000
0.075213 -0.073322 0.000000
0.071726 -0.073545 0.000000
0.074061 -0.073545 0.000000
0.072894 -0.073620 0.000000
3 0 1 2
3 3 1 0
3 3 4 1
3 5 4 3
3 5 6 4
3 7 6 5
3 7 8 6
3 9 8 7
3 9 10 8
3 11 10 9
3 11 12 10
3 13 12 11
3 13 14 12
3 13 15 14
3 16 15 13
3 16 17 15
3 18 17 16
3 18 19 17
3 20 19 18
3 20 21 19
3 22 21 20
3 23 24 25
3 23 26 24
3 23 27 26
3 23 28 27
3 23 29 28
3 23 30 29
3 23 31 30
3 23 32 31
3 23 33 32
3 23 34 33
3 23 35 34
3 23 36 35
3 23 37 36
3 23 38 37
3 39 38 23
3 39 40 38
3 39 41 40
3 42 41 39
3 42 43 41
3 44 43 42
3 44 45 43
3 44 46 45
3 47 46 44
3 47 48 46
3 22 49 21
3 50 49 22
3 51 48 47
3 51 52 48
3 51 53 52
3 54 53 51
3 54 55 53
3 56 55 54
3 56 57 55
3 50 58 49
3 59 58 50
3 60 57 56
3 60 61 57
3 62 61 60
3 62 63 61
3 64 63 62
3 59 65 58
3 66 65 59
3 67 63 64
3 67 68 63
3 69 68 67
3 70 68 69
3 71 68 70
3 72 68 71
3 73 68 72
3 66 74 65
3 75 74 66
3 76 68 73
3 77 68 76
3 78 68 77
3 79 68 78
3 80 68 79
3 81 68 80
3 82 68 81
3 75 83 74
3 84 83 75
3 85 68 82
3 86 68 85
3 86 87 68
3 87 88 68
3 89 87 86
3 90 87 89
3 91 87 90
3 92 87 91
3 93 87 92
3 94 87 93
3 95 87 94
3 96 87 95
3 97 87 96
3 98 87 97
3 99 88 87
3 84 100 83
3 101 100 84
3 101 102 100
3 103 102 101
3 103 104 102
3 104 105 102
3 106 107 103
3 107 104 103
3 107 108 104
3 109 105 104
3 106 110 107
3 111 108 107
3 106 112 110
3 109 113 105
3 114 112 106
3 114 115 112
3 109 116 113
3 117 115 114
3 109 118 116
3 119 115 117
3 119 120 115
3 99 121 88
3 109 122 118
3 123 120 119
3 123 124 120
3 109 125 122
3 126 124 123
3 109 127 125
3 128 124 126
3 128 129 124
3 109 130 127
3 131 129 128
3 131 132 129
3 109 133 130
3 134 132 131
3 109 135 133
3 136 132 134
3 136 137 132
3 109 138 135
3 139 137 136
3 109 140 138
3 141 137 139
3 141 142 137
3 109 143 140
3 144 142 141
3 109 145 143
3 146 142 144
3 109 147 145
3 148 142 146
3 99 149 121
3 109 150 147
3 151 142 148
3 109 152 150
3 153 142 151
3 153 154 142
3 109 155 152
3 156 154 153
3 109 157 155
3 158 154 156
3 109 159 157
3 160 154 158
3 160 161 154
3 109 162 159
3 163 161 160
3 109 164 162
3 165 161 163
3 165 166 161
3 109 167 164
3 168 166 165
3 169 167 109
3 168 170 166
3 169 171 167
3 172 170 168
3 169 173 171
3 174 170 172
3 175 173 169
3 174 176 170
3 175 177 173
3 178 176 174
3 179 177 175
3 178 180 176
3 179 181 177
3 182 180 178
3 183 181 179
3 182 184 180
3 183 185 181
3 186 184 182
3 187 185 183
3 186 188 184
3 187 189 185
3 190 188 186
3 191 189 187
3 190 192 188
3 99 193 149
3 99 194 193
3 99 195 194
3 196 197 198
3 199 200 201
3 202 197 196
3 199 203 200
3 202 204 197
3 205 203 199
3 206 204 202
3 205 207 203
3 206 208 204
3 209 207 205
3 210 208 206
3 209 211 207
3 210 212 208
3 213 211 209
3 214 212 210
3 213 215 211
3 214 216 212
3 217 215 213
3 218 216 214
3 217 219 215
3 218 220 216
3 221 219 217
3 222 220 218
3 221 223 219
3 224 220 222
3 221 225 223
3 224 226 220
3 227 225 221
3 228 226 224
3 227 229 225
3 228 230 226
3 231 230 228
3 227 232 229
3 233 230 231
3 227 234 232
3 233 235 230
3 236 235 233
3 227 237 234
3 238 235 236
3 227 239 237
3 240 235 238
3 227 241 239
3 240 242 235
3 243 242 240
3 227 244 241
3 99 245 195
3 246 242 243
3 227 247 244
3 248 242 246
3 227 249 247
3 250 242 248
3 227 251 249
3 252 242 250
3 227 253 251
3 252 254 242
3 255 254 252
3 227 256 253
3 257 254 255
3 227 258 256
3 257 259 254
3 260 259 257
3 227 261 258
3 262 259 260
3 227 263 261
3 262 264 259
3 265 264 262
3 227 266 263
3 99 267 245
3 265 268 264
3 269 268 265
3 227 270 266
3 271 268 269
3 227 272 270
3 271 273 268
3 274 273 271
3 227 275 272
3 274 276 273
3 277 276 274
3 227 278 275
3 99 227 267
3 279 276 277
3 227 280 278
3 279 281 276
3 282 281 279
3 227 283 280
3 283 284 280
3 284 285 280
3 285 286 280
3 286 287 280
3 287 288 280
3 288 289 280
3 289 290 280
3 290 291 280
3 291 292 280
3 292 293 280
3 293 294 280
3 294 295 280
3 282 99 281
3 282 227 99
3 282 283 227
3 296 283 282
3 296 297 283
3 298 297 296
3 299 297 298
3 111 300 108
3 111 301 300
3 111 302 301
3 111 303 302
3 111 304 303
3 111 305 304
3 111 306 305
3 111 307 306
3 111 308 307
3 111 309 308
3 111 310 309
3 111 311 310
3 111 312 311
3 111 313 312
3 111 314 313
3 111 315 314
3 111 316 315
3 111 317 316
3 111 318 317
3 111 319 318
3 111 320 319
3 111 321 320
3 111 322 321
3 111 323 322
3 111 324 323
3 325 297 299
3 111 326 324
3 111 327 326
3 111 328 327
3 111 329 328
3 111 330 329
3 111 331 330
3 111 332 331
3 333 297 325
3 111 334 332
3 111 335 334
3 111 336 335
3 111 337 336
3 111 338 337
3 111 339 338
3 340 297 333
3 111 341 339
3 111 342 341
3 343 342 111
3 343 344 342
3 345 297 340
3 346 344 343
3 346 347 344
3 348 347 346
3 348 349 347
3 350 349 348
3 351 349 350
3 351 352 349
3 353 297 345
3 354 352 351
3 354 355 352
3 356 355 354
3 357 355 356
3 357 358 355
3 359 358 357
3 359 360 358
3 361 360 359
3 362 360 361
3 362 363 360
3 364 363 362
3 365 363 364
3 366 363 365
3 367 363 366
3 368 363 367
3 369 363 368
3 370 363 369
3 371 363 370
3 372 363 371
3 373 363 372
3 374 363 373
3 375 363 374
3 376 297 353
3 377 297 376
3 378 297 377
3 379 297 378
3 380 297 379
3 380 381 297
3 382 381 380
3 382 383 381
3 384 383 382
3 384 385 383
3 386 385 384
3 386 387 385
3 388 387 386
3 388 389 387
3 390 389 388
