ply
format ascii 1.0
comment Created by Blender 2.92.0 - www.blender.org
element vertex 73
property float x
property float y
property float z
element face 61
property list uchar uint vertex_indices
end_header
-0.073338 -0.096730 0.001250
0.088477 -0.052608 0.001250
-0.088049 -0.052608 0.001250
0.073767 -0.096730 0.001250
-0.080068 -0.037900 0.001250
-0.071205 0.006222 0.001250
-0.088049 0.020929 0.001250
0.088477 0.020929 0.001250
0.071568 0.006222 0.001250
0.080254 -0.037900 0.001250
-0.065218 -0.037900 0.001250
0.065397 -0.037900 0.001250
-0.038191 -0.001199 0.001250
-0.035936 -0.001199 0.001250
-0.037069 -0.001132 0.001250
-0.034843 -0.001395 0.001250
-0.039256 -0.001396 0.001250
-0.033799 -0.001711 0.001250
-0.040255 -0.001712 0.001250
-0.032816 -0.002139 0.001250
-0.041178 -0.002141 0.001250
-0.031903 -0.002669 0.001250
-0.042017 -0.002672 0.001250
-0.031070 -0.003293 0.001250
-0.042761 -0.003296 0.001250
-0.030329 -0.004002 0.001250
-0.043403 -0.004006 0.001250
-0.029690 -0.004787 0.001250
-0.043932 -0.004792 0.001250
-0.029162 -0.005639 0.001250
-0.044340 -0.005646 0.001250
-0.028756 -0.006551 0.001250
-0.044617 -0.006558 0.001250
-0.028484 -0.007512 0.001250
-0.044753 -0.007519 0.001250
-0.002441 -0.026583 0.001250
0.036991 -0.037900 0.001250
0.010975 -0.006875 0.001250
-0.028353 -0.008515 0.001250
-0.044741 -0.008522 0.001250
-0.028373 -0.009518 0.001250
-0.044580 -0.009525 0.001250
-0.028536 -0.010479 0.001250
-0.044282 -0.010486 0.001250
-0.028833 -0.011391 0.001250
-0.043857 -0.011398 0.001250
-0.029256 -0.012245 0.001250
-0.043315 -0.012250 0.001250
-0.029794 -0.013031 0.001250
-0.042667 -0.013035 0.001250
-0.030439 -0.013740 0.001250
-0.041923 -0.013744 0.001250
-0.031181 -0.014365 0.001250
-0.041094 -0.014368 0.001250
-0.032011 -0.014896 0.001250
-0.040189 -0.014898 0.001250
-0.032921 -0.015324 0.001250
-0.039221 -0.015326 0.001250
-0.033901 -0.015641 0.001250
-0.038198 -0.015642 0.001250
-0.034941 -0.015838 0.001250
-0.037132 -0.015838 0.001250
-0.036032 -0.015905 0.001250
-0.036562 -0.037900 0.001250
-0.015776 -0.016935 0.001250
-0.074375 0.035637 0.001250
0.078371 0.050344 0.001250
-0.077972 0.050344 0.001250
0.074760 0.035637 0.001250
-0.062747 0.065052 0.001250
0.066375 0.079759 0.001250
-0.065976 0.079759 0.001250
0.063146 0.065052 0.001250
3 0 1 2
3 0 3 1
3 4 5 6
3 5 7 6
3 5 8 7
3 8 9 7
3 4 10 5
3 11 9 8
3 12 13 14
3 12 15 13
3 16 15 12
3 16 17 15
3 18 17 16
3 18 19 17
3 20 19 18
3 20 21 19
3 22 21 20
3 22 23 21
3 24 23 22
3 24 25 23
3 26 25 24
3 26 27 25
3 28 27 26
3 28 29 27
3 30 29 28
3 30 31 29
3 32 31 30
3 32 33 31
3 34 33 32
3 35 36 37
3 34 38 33
3 39 38 34
3 39 40 38
3 41 40 39
3 41 42 40
3 43 42 41
3 43 44 42
3 45 44 43
3 45 46 44
3 47 46 45
3 47 48 46
3 49 48 47
3 49 50 48
3 51 50 49
3 51 52 50
3 53 52 51
3 53 54 52
3 55 54 53
3 55 56 54
3 57 56 55
3 57 58 56
3 59 58 57
3 59 60 58
3 61 60 59
3 61 62 60
3 63 35 64
3 63 36 35
3 65 66 67
3 65 68 66
3 69 70 71
3 69 72 70
