ply
format ascii 1.0
comment Created by Blender 2.83.2 - www.blender.org, source file: 'icons.blend'
element vertex 384
property float x
property float y
property float z
property uchar red
property uchar green
property uchar blue
property uchar alpha
element face 368
property list uchar uint vertex_indices
end_header
-0.100451 0.019553 0.000000 255 255 255 255
-0.095145 0.019553 0.000000 255 255 255 255
-0.097798 0.019732 0.000000 255 255 255 255
-0.102996 0.019033 0.000000 255 255 255 255
-0.092601 0.019033 0.000000 255 255 255 255
-0.105409 0.018194 0.000000 255 255 255 255
-0.090187 0.018194 0.000000 255 255 255 255
-0.107668 0.017061 0.000000 255 255 255 255
-0.087929 0.017061 0.000000 255 255 255 255
-0.109748 0.015656 0.000000 255 255 255 255
-0.085848 0.015655 0.000000 255 255 255 255
-0.111627 0.014002 0.000000 255 255 255 255
-0.083970 0.014002 0.000000 255 255 255 255
-0.113281 0.012124 0.000000 255 255 255 255
-0.082316 0.012124 0.000000 255 255 255 255
-0.080911 0.010044 0.000000 255 255 255 255
-0.114686 0.010044 0.000000 255 255 255 255
-0.079777 0.007786 0.000000 255 255 255 255
-0.115820 0.007786 0.000000 255 255 255 255
-0.078938 0.005373 0.000000 255 255 255 255
-0.116659 0.005373 0.000000 255 255 255 255
-0.078418 0.002829 0.000000 255 255 255 255
-0.117179 0.002829 0.000000 255 255 255 255
-0.078239 0.000176 0.000000 255 255 255 255
-0.117358 0.000176 0.000000 255 255 255 255
-0.117179 -0.002478 0.000000 255 255 255 255
-0.078418 -0.002478 0.000000 255 255 255 255
-0.078938 -0.005024 0.000000 255 255 255 255
-0.116659 -0.005024 0.000000 255 255 255 255
-0.079777 -0.007437 0.000000 255 255 255 255
-0.115820 -0.007437 0.000000 255 255 255 255
-0.080911 -0.009695 0.000000 255 255 255 255
-0.114686 -0.009695 0.000000 255 255 255 255
-0.082316 -0.011775 0.000000 255 255 255 255
-0.113281 -0.011775 0.000000 255 255 255 255
-0.083970 -0.013653 0.000000 255 255 255 255
-0.111627 -0.013653 0.000000 255 255 255 255
-0.085848 -0.015306 0.000000 255 255 255 255
-0.109748 -0.015306 0.000000 255 255 255 255
-0.087929 -0.016710 0.000000 255 255 255 255
-0.107668 -0.016710 0.000000 255 255 255 255
-0.090187 -0.017843 0.000000 255 255 255 255
-0.105409 -0.017843 0.000000 255 255 255 255
-0.092601 -0.018681 0.000000 255 255 255 255
-0.102996 -0.018681 0.000000 255 255 255 255
-0.095145 -0.019200 0.000000 255 255 255 255
-0.100451 -0.019200 0.000000 255 255 255 255
-0.097798 -0.019379 0.000000 255 255 255 255
-0.071112 -0.048890 0.000000 255 255 255 255
-0.065806 -0.048891 0.000000 255 255 255 255
-0.068459 -0.048712 0.000000 255 255 255 255
-0.073657 -0.049410 0.000000 255 255 255 255
-0.063261 -0.049411 0.000000 255 255 255 255
-0.076070 -0.050248 0.000000 255 255 255 255
-0.060848 -0.050249 0.000000 255 255 255 255
-0.078329 -0.051381 0.000000 255 255 255 255
-0.058590 -0.051383 0.000000 255 255 255 255
-0.080409 -0.052785 0.000000 255 255 255 255
-0.056509 -0.052788 0.000000 255 255 255 255
-0.082288 -0.054438 0.000000 255 255 255 255
-0.054631 -0.054442 0.000000 255 255 255 255
-0.083941 -0.056316 0.000000 255 255 255 255
-0.052977 -0.056320 0.000000 255 255 255 255
-0.085347 -0.058395 0.000000 255 255 255 255
-0.051571 -0.058400 0.000000 255 255 255 255
-0.086481 -0.060654 0.000000 255 255 255 255
-0.050437 -0.060658 0.000000 255 255 255 255
-0.087320 -0.063067 0.000000 255 255 255 255
-0.049599 -0.063071 0.000000 255 255 255 255
-0.087840 -0.065613 0.000000 255 255 255 255
-0.049078 -0.065615 0.000000 255 255 255 255
-0.088019 -0.068267 0.000000 255 255 255 255
-0.048900 -0.068267 0.000000 255 255 255 255
-0.087840 -0.070922 0.000000 255 255 255 255
-0.049078 -0.070920 0.000000 255 255 255 255
-0.049599 -0.073464 0.000000 255 255 255 255
-0.087320 -0.073467 0.000000 255 255 255 255
-0.050438 -0.075877 0.000000 255 255 255 255
-0.086481 -0.075881 0.000000 255 255 255 255
-0.051572 -0.078135 0.000000 255 255 255 255
-0.085347 -0.078139 0.000000 255 255 255 255
-0.052977 -0.080215 0.000000 255 255 255 255
-0.083942 -0.080219 0.000000 255 255 255 255
-0.054632 -0.082093 0.000000 255 255 255 255
-0.082289 -0.082097 0.000000 255 255 255 255
-0.056511 -0.083746 0.000000 255 255 255 255
-0.080411 -0.083749 0.000000 255 255 255 255
-0.058592 -0.085152 0.000000 255 255 255 255
-0.078332 -0.085154 0.000000 255 255 255 255
-0.060852 -0.086285 0.000000 255 255 255 255
-0.076074 -0.086286 0.000000 255 255 255 255
-0.063267 -0.087124 0.000000 255 255 255 255
-0.073663 -0.087124 0.000000 255 255 255 255
-0.065814 -0.087644 0.000000 255 255 255 255
-0.071120 -0.087644 0.000000 255 255 255 255
-0.068469 -0.087823 0.000000 255 255 255 255
-0.071112 0.087997 0.000000 255 255 255 255
-0.065806 0.087997 0.000000 255 255 255 255
-0.068459 0.088176 0.000000 255 255 255 255
-0.073657 0.087477 0.000000 255 255 255 255
-0.063261 0.087477 0.000000 255 255 255 255
-0.076070 0.086639 0.000000 255 255 255 255
-0.060848 0.086638 0.000000 255 255 255 255
-0.078329 0.085507 0.000000 255 255 255 255
-0.058590 0.085504 0.000000 255 255 255 255
-0.080409 0.084102 0.000000 255 255 255 255
-0.056509 0.084099 0.000000 255 255 255 255
-0.082288 0.082449 0.000000 255 255 255 255
-0.054631 0.082446 0.000000 255 255 255 255
-0.083941 0.080572 0.000000 255 255 255 255
-0.052977 0.080567 0.000000 255 255 255 255
-0.085347 0.078492 0.000000 255 255 255 255
-0.051571 0.078488 0.000000 255 255 255 255
-0.086481 0.076234 0.000000 255 255 255 255
-0.050437 0.076230 0.000000 255 255 255 255
-0.087320 0.073820 0.000000 255 255 255 255
-0.049599 0.073817 0.000000 255 255 255 255
-0.087840 0.071275 0.000000 255 255 255 255
-0.049078 0.071273 0.000000 255 255 255 255
-0.088019 0.068620 0.000000 255 255 255 255
-0.048900 0.068620 0.000000 255 255 255 255
-0.087840 0.065966 0.000000 255 255 255 255
-0.049078 0.065968 0.000000 255 255 255 255
-0.049599 0.063424 0.000000 255 255 255 255
-0.087320 0.063420 0.000000 255 255 255 255
-0.050438 0.061011 0.000000 255 255 255 255
-0.086481 0.061007 0.000000 255 255 255 255
-0.051572 0.058753 0.000000 255 255 255 255
-0.085347 0.058748 0.000000 255 255 255 255
-0.052977 0.056673 0.000000 255 255 255 255
-0.083942 0.056669 0.000000 255 255 255 255
-0.054632 0.054795 0.000000 255 255 255 255
-0.082289 0.054791 0.000000 255 255 255 255
-0.056511 0.053141 0.000000 255 255 255 255
-0.080411 0.053138 0.000000 255 255 255 255
-0.058592 0.051736 0.000000 255 255 255 255
-0.078332 0.051734 0.000000 255 255 255 255
-0.060852 0.050602 0.000000 255 255 255 255
-0.076074 0.050601 0.000000 255 255 255 255
-0.063267 0.049764 0.000000 255 255 255 255
-0.073663 0.049763 0.000000 255 255 255 255
-0.065814 0.049243 0.000000 255 255 255 255
-0.071120 0.049243 0.000000 255 255 255 255
-0.068469 0.049065 0.000000 255 255 255 255
-0.002654 0.117330 0.000000 255 255 255 255
0.002652 0.117330 0.000000 255 255 255 255
-0.000001 0.117509 0.000000 255 255 255 255
-0.005199 0.116810 0.000000 255 255 255 255
0.005197 0.116810 0.000000 255 255 255 255
-0.007612 0.115971 0.000000 255 255 255 255
0.007610 0.115971 0.000000 255 255 255 255
-0.009871 0.114837 0.000000 255 255 255 255
0.009869 0.114837 0.000000 255 255 255 255
-0.011951 0.113432 0.000000 255 255 255 255
0.011949 0.113432 0.000000 255 255 255 255
-0.013829 0.111779 0.000000 255 255 255 255
0.013828 0.111779 0.000000 255 255 255 255
-0.015483 0.109901 0.000000 255 255 255 255
0.015481 0.109901 0.000000 255 255 255 255
-0.016889 0.107821 0.000000 255 255 255 255
0.016887 0.107821 0.000000 255 255 255 255
-0.018023 0.105563 0.000000 255 255 255 255
0.018021 0.105563 0.000000 255 255 255 255
-0.018861 0.103150 0.000000 255 255 255 255
0.018859 0.103150 0.000000 255 255 255 255
-0.019382 0.100606 0.000000 255 255 255 255
0.019380 0.100606 0.000000 255 255 255 255
-0.019560 0.097953 0.000000 255 255 255 255
0.019559 0.097953 0.000000 255 255 255 255
-0.019382 0.095301 0.000000 255 255 255 255
0.019380 0.095301 0.000000 255 255 255 255
-0.018861 0.092757 0.000000 255 255 255 255
0.018859 0.092757 0.000000 255 255 255 255
-0.018023 0.090344 0.000000 255 255 255 255
0.018021 0.090344 0.000000 255 255 255 255
-0.016889 0.088086 0.000000 255 255 255 255
0.016887 0.088086 0.000000 255 255 255 255
-0.015483 0.086006 0.000000 255 255 255 255
0.015481 0.086006 0.000000 255 255 255 255
-0.013829 0.084128 0.000000 255 255 255 255
0.013828 0.084128 0.000000 255 255 255 255
-0.011951 0.082474 0.000000 255 255 255 255
0.011949 0.082474 0.000000 255 255 255 255
-0.009871 0.081069 0.000000 255 255 255 255
0.009869 0.081069 0.000000 255 255 255 255
-0.007612 0.079935 0.000000 255 255 255 255
0.007610 0.079935 0.000000 255 255 255 255
-0.005199 0.079097 0.000000 255 255 255 255
0.005197 0.079097 0.000000 255 255 255 255
-0.002654 0.078576 0.000000 255 255 255 255
0.002652 0.078576 0.000000 255 255 255 255
-0.000001 0.078398 0.000000 255 255 255 255
-0.002324 -0.080646 0.000000 255 255 255 255
0.002322 -0.080646 0.000000 255 255 255 255
-0.000001 -0.080489 0.000000 255 255 255 255
-0.004552 -0.081101 0.000000 255 255 255 255
0.004550 -0.081101 0.000000 255 255 255 255
-0.006665 -0.081835 0.000000 255 255 255 255
0.006663 -0.081835 0.000000 255 255 255 255
-0.008641 -0.082827 0.000000 255 255 255 255
0.008639 -0.082827 0.000000 255 255 255 255
-0.010461 -0.084056 0.000000 255 255 255 255
0.010459 -0.084056 0.000000 255 255 255 255
-0.012105 -0.085503 0.000000 255 255 255 255
0.012103 -0.085503 0.000000 255 255 255 255
-0.013551 -0.087146 0.000000 255 255 255 255
0.013549 -0.087146 0.000000 255 255 255 255
-0.014780 -0.088966 0.000000 255 255 255 255
0.014778 -0.088966 0.000000 255 255 255 255
-0.015771 -0.090942 0.000000 255 255 255 255
0.015769 -0.090942 0.000000 255 255 255 255
-0.016504 -0.093053 0.000000 255 255 255 255
0.016503 -0.093053 0.000000 255 255 255 255
-0.016959 -0.095279 0.000000 255 255 255 255
0.016957 -0.095279 0.000000 255 255 255 255
-0.017115 -0.097600 0.000000 255 255 255 255
0.017114 -0.097600 0.000000 255 255 255 255
-0.016959 -0.099921 0.000000 255 255 255 255
0.016957 -0.099921 0.000000 255 255 255 255
-0.016504 -0.102147 0.000000 255 255 255 255
0.016503 -0.102147 0.000000 255 255 255 255
-0.015771 -0.104259 0.000000 255 255 255 255
0.015769 -0.104259 0.000000 255 255 255 255
-0.014780 -0.106234 0.000000 255 255 255 255
0.014778 -0.106234 0.000000 255 255 255 255
-0.013551 -0.108054 0.000000 255 255 255 255
0.013549 -0.108054 0.000000 255 255 255 255
-0.012105 -0.109698 0.000000 255 255 255 255
0.012103 -0.109698 0.000000 255 255 255 255
-0.010461 -0.111144 0.000000 255 255 255 255
0.010459 -0.111144 0.000000 255 255 255 255
-0.008641 -0.112374 0.000000 255 255 255 255
0.008639 -0.112374 0.000000 255 255 255 255
-0.006665 -0.113366 0.000000 255 255 255 255
0.006663 -0.113366 0.000000 255 255 255 255
-0.004552 -0.114100 0.000000 255 255 255 255
0.004550 -0.114100 0.000000 255 255 255 255
-0.002324 -0.114555 0.000000 255 255 255 255
0.002322 -0.114555 0.000000 255 255 255 255
-0.000001 -0.114711 0.000000 255 255 255 255
0.066468 -0.053735 0.000000 255 255 255 200
0.070447 -0.053735 0.000000 255 255 255 200
0.068457 -0.053601 0.000000 255 255 255 200
0.064559 -0.054125 0.000000 255 255 255 200
0.072356 -0.054125 0.000000 255 255 255 200
0.074166 -0.054754 0.000000 255 255 255 200
0.062749 -0.054754 0.000000 255 255 255 200
0.075859 -0.055604 0.000000 255 255 255 200
0.061055 -0.055604 0.000000 255 255 255 200
0.077420 -0.056658 0.000000 255 255 255 200
0.059495 -0.056659 0.000000 255 255 255 200
0.078829 -0.057898 0.000000 255 255 255 200
0.058086 -0.057899 0.000000 255 255 255 200
0.080069 -0.059307 0.000000 255 255 255 200
0.056846 -0.059309 0.000000 255 255 255 200
0.081123 -0.060867 0.000000 255 255 255 200
0.055791 -0.060870 0.000000 255 255 255 200
0.081973 -0.062560 0.000000 255 255 255 200
0.054941 -0.062564 0.000000 255 255 255 200
0.082603 -0.064370 0.000000 255 255 255 200
0.054312 -0.064375 0.000000 255 255 255 200
0.082993 -0.066278 0.000000 255 255 255 200
0.053922 -0.066286 0.000000 255 255 255 200
0.083127 -0.068267 0.000000 255 255 255 200
0.053788 -0.068277 0.000000 255 255 255 200
0.082993 -0.070257 0.000000 255 255 255 200
0.053922 -0.070266 0.000000 255 255 255 200
0.082602 -0.072165 0.000000 255 255 255 200
0.054312 -0.072174 0.000000 255 255 255 200
0.081973 -0.073976 0.000000 255 255 255 200
0.054941 -0.073983 0.000000 255 255 255 200
0.081122 -0.075670 0.000000 255 255 255 200
0.055791 -0.075675 0.000000 255 255 255 200
0.080068 -0.077231 0.000000 255 255 255 200
0.056844 -0.077234 0.000000 255 255 255 200
0.078826 -0.078640 0.000000 255 255 255 200
0.058083 -0.078641 0.000000 255 255 255 200
0.077416 -0.079881 0.000000 255 255 255 200
0.059491 -0.079880 0.000000 255 255 255 200
0.061049 -0.080933 0.000000 255 255 255 200
0.075854 -0.080935 0.000000 255 255 255 200
0.062741 -0.081782 0.000000 255 255 255 200
0.074157 -0.081785 0.000000 255 255 255 200
0.064548 -0.082410 0.000000 255 255 255 200
0.072344 -0.082413 0.000000 255 255 255 200
0.066452 -0.082800 0.000000 255 255 255 200
0.070432 -0.082802 0.000000 255 255 255 200
0.068438 -0.082934 0.000000 255 255 255 200
0.067133 0.078308 0.000000 255 255 255 100
0.069782 0.078308 0.000000 255 255 255 100
0.068457 0.078398 0.000000 255 255 255 100
0.071053 0.078048 0.000000 255 255 255 100
0.065862 0.078048 0.000000 255 255 255 100
0.072259 0.077628 0.000000 255 255 255 100
0.064656 0.077627 0.000000 255 255 255 100
0.073388 0.077060 0.000000 255 255 255 100
0.063527 0.077059 0.000000 255 255 255 100
0.074428 0.076357 0.000000 255 255 255 100
0.062486 0.076355 0.000000 255 255 255 100
0.075368 0.075529 0.000000 255 255 255 100
0.061547 0.075527 0.000000 255 255 255 100
0.076195 0.074590 0.000000 255 255 255 100
0.060719 0.074586 0.000000 255 255 255 100
0.076899 0.073550 0.000000 255 255 255 100
0.060016 0.073544 0.000000 255 255 255 100
0.077467 0.072421 0.000000 255 255 255 100
0.059448 0.072413 0.000000 255 255 255 100
0.077887 0.071215 0.000000 255 255 255 100
0.059028 0.071204 0.000000 255 255 255 100
0.078147 0.069944 0.000000 255 255 255 100
0.058767 0.069929 0.000000 255 255 255 100
0.078237 0.068620 0.000000 255 255 255 100
0.058678 0.068601 0.000000 255 255 255 100
0.078147 0.067292 0.000000 255 255 255 100
0.058767 0.067277 0.000000 255 255 255 100
0.077887 0.066017 0.000000 255 255 255 100
0.059028 0.066007 0.000000 255 255 255 100
0.077467 0.064809 0.000000 255 255 255 100
0.059448 0.064803 0.000000 255 255 255 100
0.076899 0.063678 0.000000 255 255 255 100
0.060016 0.063676 0.000000 255 255 255 100
0.076195 0.062636 0.000000 255 255 255 100
0.060719 0.062638 0.000000 255 255 255 100
0.061547 0.061701 0.000000 255 255 255 100
0.075368 0.061696 0.000000 255 255 255 100
0.062486 0.060876 0.000000 255 255 255 100
0.074428 0.060869 0.000000 255 255 255 100
0.063527 0.060175 0.000000 255 255 255 100
0.073388 0.060167 0.000000 255 255 255 100
0.064656 0.059610 0.000000 255 255 255 100
0.072259 0.059602 0.000000 255 255 255 100
0.065862 0.059191 0.000000 255 255 255 100
0.071053 0.059184 0.000000 255 255 255 100
0.067133 0.058932 0.000000 255 255 255 100
0.069782 0.058928 0.000000 255 255 255 100
0.068457 0.058842 0.000000 255 255 255 100
0.096139 0.012287 0.000000 255 255 255 150
0.099452 0.012287 0.000000 255 255 255 150
0.097796 0.012399 0.000000 255 255 255 150
0.094549 0.011961 0.000000 255 255 255 150
0.101041 0.011961 0.000000 255 255 255 150
0.093041 0.011436 0.000000 255 255 255 150
0.102548 0.011436 0.000000 255 255 255 150
0.091631 0.010727 0.000000 255 255 255 150
0.103958 0.010727 0.000000 255 255 255 150
0.090331 0.009848 0.000000 255 255 255 150
0.105257 0.009848 0.000000 255 255 255 150
0.089158 0.008814 0.000000 255 255 255 150
0.106431 0.008814 0.000000 255 255 255 150
0.088126 0.007639 0.000000 255 255 255 150
0.107464 0.007639 0.000000 255 255 255 150
0.108342 0.006339 0.000000 255 255 255 150
0.087249 0.006339 0.000000 255 255 255 150
0.109050 0.004928 0.000000 255 255 255 150
0.086541 0.004928 0.000000 255 255 255 150
0.109574 0.003421 0.000000 255 255 255 150
0.086018 0.003421 0.000000 255 255 255 150
0.109900 0.001832 0.000000 255 255 255 150
0.085693 0.001832 0.000000 255 255 255 150
0.110011 0.000176 0.000000 255 255 255 150
0.085582 0.000176 0.000000 255 255 255 150
0.085693 -0.001483 0.000000 255 255 255 150
0.109900 -0.001481 0.000000 255 255 255 150
0.109574 -0.003071 0.000000 255 255 255 150
0.086018 -0.003075 0.000000 255 255 255 150
0.109050 -0.004579 0.000000 255 255 255 150
0.086541 -0.004584 0.000000 255 255 255 150
0.108342 -0.005991 0.000000 255 255 255 150
0.087249 -0.005995 0.000000 255 255 255 150
0.107464 -0.007291 0.000000 255 255 255 150
0.088126 -0.007295 0.000000 255 255 255 150
0.106431 -0.008465 0.000000 255 255 255 150
0.089159 -0.008468 0.000000 255 255 255 150
0.105257 -0.009498 0.000000 255 255 255 150
0.090331 -0.009501 0.000000 255 255 255 150
0.103958 -0.010376 0.000000 255 255 255 150
0.091631 -0.010378 0.000000 255 255 255 150
0.102548 -0.011085 0.000000 255 255 255 150
0.093041 -0.011086 0.000000 255 255 255 150
0.101041 -0.011609 0.000000 255 255 255 150
0.094549 -0.011610 0.000000 255 255 255 150
0.099452 -0.011934 0.000000 255 255 255 150
0.096139 -0.011934 0.000000 255 255 255 150
0.097796 -0.012046 0.000000 255 255 255 150
3 0 1 2
3 3 1 0
3 3 4 1
3 5 4 3
3 5 6 4
3 7 6 5
3 7 8 6
3 9 8 7
3 9 10 8
3 11 10 9
3 11 12 10
3 13 12 11
3 13 14 12
3 13 15 14
3 16 15 13
3 16 17 15
3 18 17 16
3 18 19 17
3 20 19 18
3 20 21 19
3 22 21 20
3 22 23 21
3 24 23 22
3 25 23 24
3 25 26 23
3 25 27 26
3 28 27 25
3 28 29 27
3 30 29 28
3 30 31 29
3 32 31 30
3 32 33 31
3 34 33 32
3 34 35 33
3 36 35 34
3 36 37 35
3 38 37 36
3 38 39 37
3 40 39 38
3 40 41 39
3 42 41 40
3 42 43 41
3 44 43 42
3 44 45 43
3 46 45 44
3 46 47 45
3 48 49 50
3 51 49 48
3 51 52 49
3 53 52 51
3 53 54 52
3 55 54 53
3 55 56 54
3 57 56 55
3 57 58 56
3 59 58 57
3 59 60 58
3 61 60 59
3 61 62 60
3 63 62 61
3 63 64 62
3 65 64 63
3 65 66 64
3 67 66 65
3 67 68 66
3 69 68 67
3 69 70 68
3 71 70 69
3 71 72 70
3 73 72 71
3 73 74 72
3 73 75 74
3 76 75 73
3 76 77 75
3 78 77 76
3 78 79 77
3 80 79 78
3 80 81 79
3 82 81 80
3 82 83 81
3 84 83 82
3 84 85 83
3 86 85 84
3 86 87 85
3 88 87 86
3 88 89 87
3 90 89 88
3 90 91 89
3 92 91 90
3 92 93 91
3 94 93 92
3 94 95 93
3 96 97 98
3 99 97 96
3 99 100 97
3 101 100 99
3 101 102 100
3 103 102 101
3 103 104 102
3 105 104 103
3 105 106 104
3 107 106 105
3 107 108 106
3 109 108 107
3 109 110 108
3 111 110 109
3 111 112 110
3 113 112 111
3 113 114 112
3 115 114 113
3 115 116 114
3 117 116 115
3 117 118 116
3 119 118 117
3 119 120 118
3 121 120 119
3 121 122 120
3 121 123 122
3 124 123 121
3 124 125 123
3 126 125 124
3 126 127 125
3 128 127 126
3 128 129 127
3 130 129 128
3 130 131 129
3 132 131 130
3 132 133 131
3 134 133 132
3 134 135 133
3 136 135 134
3 136 137 135
3 138 137 136
3 138 139 137
3 140 139 138
3 140 141 139
3 142 141 140
3 142 143 141
3 144 145 146
3 147 145 144
3 147 148 145
3 149 148 147
3 149 150 148
3 151 150 149
3 151 152 150
3 153 152 151
3 153 154 152
3 155 154 153
3 155 156 154
3 157 156 155
3 157 158 156
3 159 158 157
3 159 160 158
3 161 160 159
3 161 162 160
3 163 162 161
3 163 164 162
3 165 164 163
3 165 166 164
3 167 166 165
3 167 168 166
3 169 168 167
3 169 170 168
3 171 170 169
3 171 172 170
3 173 172 171
3 173 174 172
3 175 174 173
3 175 176 174
3 177 176 175
3 177 178 176
3 179 178 177
3 179 180 178
3 181 180 179
3 181 182 180
3 183 182 181
3 183 184 182
3 185 184 183
3 185 186 184
3 187 186 185
3 187 188 186
3 189 188 187
3 189 190 188
3 191 190 189
3 192 193 194
3 195 193 192
3 195 196 193
3 197 196 195
3 197 198 196
3 199 198 197
3 199 200 198
3 201 200 199
3 201 202 200
3 203 202 201
3 203 204 202
3 205 204 203
3 205 206 204
3 207 206 205
3 207 208 206
3 209 208 207
3 209 210 208
3 211 210 209
3 211 212 210
3 213 212 211
3 213 214 212
3 215 214 213
3 215 216 214
3 217 216 215
3 217 218 216
3 219 218 217
3 219 220 218
3 221 220 219
3 221 222 220
3 223 222 221
3 223 224 222
3 225 224 223
3 225 226 224
3 227 226 225
3 227 228 226
3 229 228 227
3 229 230 228
3 231 230 229
3 231 232 230
3 233 232 231
3 233 234 232
3 235 234 233
3 235 236 234
3 237 236 235
3 237 238 236
3 239 238 237
3 240 241 242
3 243 241 240
3 243 244 241
3 243 245 244
3 246 245 243
3 246 247 245
3 248 247 246
3 248 249 247
3 250 249 248
3 250 251 249
3 252 251 250
3 252 253 251
3 254 253 252
3 254 255 253
3 256 255 254
3 256 257 255
3 258 257 256
3 258 259 257
3 260 259 258
3 260 261 259
3 262 261 260
3 262 263 261
3 264 263 262
3 264 265 263
3 266 265 264
3 266 267 265
3 268 267 266
3 268 269 267
3 270 269 268
3 270 271 269
3 272 271 270
3 272 273 271
3 274 273 272
3 274 275 273
3 276 275 274
3 276 277 275
3 278 277 276
3 279 277 278
3 279 280 277
3 281 280 279
3 281 282 280
3 283 282 281
3 283 284 282
3 285 284 283
3 285 286 284
3 287 286 285
3 288 289 290
3 288 291 289
3 292 291 288
3 292 293 291
3 294 293 292
3 294 295 293
3 296 295 294
3 296 297 295
3 298 297 296
3 298 299 297
3 300 299 298
3 300 301 299
3 302 301 300
3 302 303 301
3 304 303 302
3 304 305 303
3 306 305 304
3 306 307 305
3 308 307 306
3 308 309 307
3 310 309 308
3 310 311 309
3 312 311 310
3 312 313 311
3 314 313 312
3 314 315 313
3 316 315 314
3 316 317 315
3 318 317 316
3 318 319 317
3 320 319 318
3 320 321 319
3 322 321 320
3 323 321 322
3 323 324 321
3 325 324 323
3 325 326 324
3 327 326 325
3 327 328 326
3 329 328 327
3 329 330 328
3 331 330 329
3 331 332 330
3 333 332 331
3 333 334 332
3 335 334 333
3 336 337 338
3 339 337 336
3 339 340 337
3 341 340 339
3 341 342 340
3 343 342 341
3 343 344 342
3 345 344 343
3 345 346 344
3 347 346 345
3 347 348 346
3 349 348 347
3 349 350 348
3 349 351 350
3 352 351 349
3 352 353 351
3 354 353 352
3 354 355 353
3 356 355 354
3 356 357 355
3 358 357 356
3 358 359 357
3 360 359 358
3 361 359 360
3 361 362 359
3 361 363 362
3 364 363 361
3 364 365 363
3 366 365 364
3 366 367 365
3 368 367 366
3 368 369 367
3 370 369 368
3 370 371 369
3 372 371 370
3 372 373 371
3 374 373 372
3 374 375 373
3 376 375 374
3 376 377 375
3 378 377 376
3 378 379 377
3 380 379 378
3 380 381 379
3 382 381 380
3 382 383 381
