ply
format ascii 1.0
comment Created by Blender 3.4.1 - www.blender.org
element vertex 6
property float x
property float y
property float z
property float nx
property float ny
property float nz
element face 4
property list uchar uint vertex_indices
end_header
0.864086 -0.043969 0.000000 0.000000 0.000000 1.000000
2.903103 0.040299 0.000000 0.000000 0.000000 1.000000
0.864086 0.040300 0.000000 0.000000 0.000000 1.000000
2.903103 -0.043970 0.000000 0.000000 0.000000 1.000000
2.998506 0.005674 0.000000 0.000000 0.000000 1.000000
2.998506 -0.009345 0.000000 0.000000 0.000000 1.000000
3 0 1 2
3 0 3 1
3 3 4 1
3 3 5 4
