ply
format ascii 1.0
comment Created by Blender 2.82 (sub 7) - www.blender.org, source file: 'icons.blend'
element vertex 92
property float x
property float y
property float z
element face 90
property list uchar uint vertex_indices
end_header
-0.119976 -0.050005 0.000000
-0.103382 0.082723 0.000000
-0.119976 0.099314 0.000000
0.054611 0.099314 0.000000
0.038017 0.082723 0.000000
0.054611 0.049541 0.000000
-0.103382 -0.033414 0.000000
0.038017 0.049541 0.000000
-0.043497 0.034908 0.000000
-0.037942 0.038011 0.000000
-0.044151 0.049541 0.000000
-0.024388 0.047987 0.000000
-0.024070 0.049541 0.000000
-0.025316 0.049541 0.000000
-0.020625 0.049541 0.000000
-0.015420 0.049541 0.000000
-0.008896 0.049541 0.000000
-0.001493 0.049541 0.000000
0.006350 0.049541 0.000000
0.014194 0.049541 0.000000
0.021597 0.049541 0.000000
0.028121 0.049541 0.000000
0.033325 0.049541 0.000000
0.036771 0.049541 0.000000
0.118680 0.049541 0.000000
0.102085 0.032950 0.000000
0.118680 -0.099778 0.000000
-0.023434 0.046464 0.000000
-0.022456 0.044973 0.000000
-0.021454 0.043514 0.000000
-0.020429 0.042086 0.000000
-0.019382 0.040688 0.000000
-0.018315 0.039322 0.000000
-0.017227 0.037987 0.000000
-0.030769 0.027986 0.000000
-0.016120 0.036682 0.000000
-0.014996 0.035408 0.000000
-0.013854 0.034164 0.000000
-0.040413 0.021592 0.000000
-0.012696 0.032950 0.000000
0.102085 -0.083187 0.000000
-0.022919 0.019370 0.000000
-0.035372 0.009586 0.000000
-0.014679 0.012069 0.000000
-0.006336 0.005985 0.000000
-0.028849 -0.001120 0.000000
0.030906 -0.010552 0.000000
0.060237 -0.038731 0.000000
0.037851 0.008063 0.000000
0.001825 0.001023 0.000000
0.009517 -0.002913 0.000000
-0.021318 -0.010535 0.000000
0.016453 -0.005918 0.000000
0.022346 -0.008089 0.000000
-0.044955 -0.033414 0.000000
-0.043696 -0.009475 0.000000
-0.044955 -0.007499 0.000000
0.026911 -0.009521 0.000000
-0.042408 -0.011416 0.000000
0.029859 -0.010310 0.000000
-0.013253 -0.018666 0.000000
-0.041094 -0.013323 0.000000
-0.039755 -0.015194 0.000000
-0.038393 -0.017030 0.000000
-0.037010 -0.018830 0.000000
-0.005127 -0.025522 0.000000
-0.035607 -0.020595 0.000000
-0.034186 -0.022323 0.000000
-0.032750 -0.024015 0.000000
-0.031299 -0.025670 0.000000
0.002584 -0.031113 0.000000
-0.029835 -0.027288 0.000000
-0.028361 -0.028868 0.000000
-0.028361 -0.029937 0.000000
-0.028361 -0.032892 0.000000
0.009407 -0.035446 0.000000
-0.028361 -0.037355 0.000000
0.014867 -0.038530 0.000000
-0.028361 -0.042951 0.000000
0.018491 -0.040375 0.000000
0.019804 -0.040988 0.000000
0.013125 -0.059487 0.000000
-0.028361 -0.049300 0.000000
-0.044955 -0.050005 0.000000
-0.028361 -0.056027 0.000000
-0.044955 -0.099778 0.000000
-0.028361 -0.062754 0.000000
-0.028361 -0.069104 0.000000
-0.028361 -0.074699 0.000000
-0.028361 -0.079163 0.000000
-0.028361 -0.082118 0.000000
-0.028361 -0.083187 0.000000
3 0 1 2
3 1 3 2
3 1 4 3
3 4 5 3
3 0 6 1
3 7 5 4
3 8 9 10
3 11 12 13
3 11 14 12
3 11 15 14
3 11 16 15
3 11 17 16
3 11 18 17
3 11 19 18
3 11 20 19
3 11 21 20
3 11 22 21
3 11 23 22
3 11 7 23
3 11 5 7
3 11 24 5
3 11 25 24
3 25 26 24
3 27 25 11
3 28 25 27
3 29 25 28
3 30 25 29
3 31 25 30
3 32 25 31
3 33 25 32
3 8 34 9
3 35 25 33
3 36 25 35
3 37 25 36
3 38 34 8
3 39 25 37
3 40 26 25
3 38 41 34
3 42 41 38
3 42 43 41
3 42 44 43
3 45 44 42
3 46 47 48
3 45 49 44
3 45 50 49
3 51 50 45
3 51 52 50
3 51 53 52
3 54 55 56
3 51 57 53
3 54 58 55
3 51 59 57
3 51 46 59
3 60 46 51
3 60 47 46
3 54 61 58
3 54 62 61
3 54 63 62
3 54 64 63
3 65 47 60
3 54 66 64
3 54 67 66
3 54 68 67
3 54 69 68
3 70 47 65
3 54 71 69
3 54 72 71
3 54 73 72
3 54 74 73
3 75 47 70
3 54 76 74
3 0 54 6
3 0 76 54
3 77 47 75
3 0 78 76
3 79 47 77
3 79 80 47
3 80 81 47
3 0 82 78
3 0 83 82
3 83 84 82
3 85 84 83
3 85 86 84
3 85 87 86
3 85 88 87
3 85 89 88
3 85 90 89
3 85 91 90
3 85 40 91
3 85 26 40
