ply
format ascii 1.0
comment Created by Blender 2.82 (sub 7) - www.blender.org, source file: 'icons.blend'
element vertex 61
property float x
property float y
property float z
property uchar red
property uchar green
property uchar blue
property uchar alpha
element face 57
property list uchar uint vertex_indices
end_header
0.640531 -0.899390 0.000000 255 255 255 255
0.662011 -0.727588 0.000000 255 255 255 255
0.640531 -0.706113 0.000000 255 255 255 255
0.898289 -0.706113 0.000000 255 255 255 255
0.876809 -0.727588 0.000000 255 255 255 255
0.898289 -0.899390 0.000000 255 255 255 255
0.662011 -0.877915 0.000000 255 255 255 255
0.876809 -0.877915 0.000000 255 255 255 255
0.708155 -0.749211 0.000000 255 255 255 255
0.712525 -0.749211 0.000000 255 255 255 255
0.710340 -0.749063 0.000000 255 255 255 255
0.714621 -0.749639 0.000000 255 255 255 255
0.706059 -0.749639 0.000000 255 255 255 255
0.716609 -0.750330 0.000000 255 255 255 255
0.704072 -0.750330 0.000000 255 255 255 255
0.718469 -0.751263 0.000000 255 255 255 255
0.702211 -0.751263 0.000000 255 255 255 255
0.720183 -0.752421 0.000000 255 255 255 255
0.700498 -0.752421 0.000000 255 255 255 255
0.721730 -0.753783 0.000000 255 255 255 255
0.698951 -0.753783 0.000000 255 255 255 255
0.723092 -0.755330 0.000000 255 255 255 255
0.697589 -0.755330 0.000000 255 255 255 255
0.724250 -0.757043 0.000000 255 255 255 255
0.696431 -0.757043 0.000000 255 255 255 255
0.725183 -0.758902 0.000000 255 255 255 255
0.695497 -0.758902 0.000000 255 255 255 255
0.725874 -0.760890 0.000000 255 255 255 255
0.694806 -0.760890 0.000000 255 255 255 255
0.726303 -0.762985 0.000000 255 255 255 255
0.694378 -0.762985 0.000000 255 255 255 255
0.726450 -0.765170 0.000000 255 255 255 255
0.694230 -0.765170 0.000000 255 255 255 255
0.694378 -0.767357 0.000000 255 255 255 255
0.726303 -0.767357 0.000000 255 255 255 255
0.694806 -0.769454 0.000000 255 255 255 255
0.725874 -0.769454 0.000000 255 255 255 255
0.695497 -0.771442 0.000000 255 255 255 255
0.725183 -0.771442 0.000000 255 255 255 255
0.763836 -0.813489 0.000000 255 255 255 255
0.844589 -0.856440 0.000000 255 255 255 255
0.790890 -0.770539 0.000000 255 255 255 255
0.696431 -0.773302 0.000000 255 255 255 255
0.724250 -0.773302 0.000000 255 255 255 255
0.697589 -0.775015 0.000000 255 255 255 255
0.723092 -0.775015 0.000000 255 255 255 255
0.698951 -0.776561 0.000000 255 255 255 255
0.721730 -0.776561 0.000000 255 255 255 255
0.700498 -0.777922 0.000000 255 255 255 255
0.720183 -0.777922 0.000000 255 255 255 255
0.702211 -0.779079 0.000000 255 255 255 255
0.718469 -0.779079 0.000000 255 255 255 255
0.704072 -0.780011 0.000000 255 255 255 255
0.716609 -0.780011 0.000000 255 255 255 255
0.706059 -0.780701 0.000000 255 255 255 255
0.714621 -0.780701 0.000000 255 255 255 255
0.708155 -0.781129 0.000000 255 255 255 255
0.712525 -0.781129 0.000000 255 255 255 255
0.710340 -0.781276 0.000000 255 255 255 255
0.694230 -0.856440 0.000000 255 255 255 255
0.737190 -0.792443 0.000000 255 255 255 255
3 0 1 2
3 1 3 2
3 1 4 3
3 4 5 3
3 0 6 1
3 7 5 4
3 8 9 10
3 8 11 9
3 12 11 8
3 12 13 11
3 14 13 12
3 14 15 13
3 16 15 14
3 16 17 15
3 18 17 16
3 18 19 17
3 20 19 18
3 20 21 19
3 22 21 20
3 22 23 21
3 24 23 22
3 24 25 23
3 26 25 24
3 26 27 25
3 28 27 26
3 28 29 27
3 30 29 28
3 30 31 29
3 32 31 30
3 33 31 32
3 33 34 31
3 35 34 33
3 35 36 34
3 37 36 35
3 37 38 36
3 39 40 41
3 42 38 37
3 42 43 38
3 44 43 42
3 44 45 43
3 46 45 44
3 46 47 45
3 48 47 46
3 48 49 47
3 50 49 48
3 50 51 49
3 52 51 50
3 52 53 51
3 54 53 52
3 54 55 53
3 56 55 54
3 56 57 55
3 58 57 56
3 59 39 60
3 59 40 39
3 0 7 6
3 0 5 7
