ply
format ascii 1.0
comment Created by Blender 3.6.2 - www.blender.org
element vertex 302
property float x
property float y
property float z
property float nx
property float ny
property float nz
property float s
property float t
element face 290
property list uchar uint vertex_indices
end_header
-0.007533 0.129787 0.000000 0.000000 0.000000 1.000000 0.232558 0.000000
-0.005399 0.129663 0.000000 0.000000 0.000000 1.000000 0.225914 0.000000
-0.006301 0.130781 0.000000 0.000000 0.000000 1.000000 0.229236 0.000000
-0.011014 0.126977 0.000000 0.000000 0.000000 1.000000 0.235880 0.000000
-0.002908 0.126571 0.000000 0.000000 0.000000 1.000000 0.222591 0.000000
-0.016421 0.122611 0.000000 0.000000 0.000000 1.000000 0.239203 0.000000
0.000856 0.121901 0.000000 0.000000 0.000000 1.000000 0.219269 0.000000
0.050520 0.123496 0.000000 0.000000 0.000000 1.000000 0.956811 0.000000
0.087661 0.113801 0.000000 0.000000 0.000000 1.000000 0.950166 0.000000
0.086803 0.126056 0.000000 0.000000 0.000000 1.000000 0.953488 0.000000
0.051378 0.111241 0.000000 0.000000 0.000000 1.000000 0.960133 0.000000
-0.023433 0.116948 0.000000 0.000000 0.000000 1.000000 0.242525 0.000000
0.005574 0.116046 0.000000 0.000000 0.000000 1.000000 0.215947 0.000000
-0.031724 0.110247 0.000000 0.000000 0.000000 1.000000 0.245847 0.000000
0.010928 0.109402 0.000000 0.000000 0.000000 1.000000 0.212625 0.000000
-0.040974 0.102768 0.000000 0.000000 0.000000 1.000000 0.249169 0.000000
0.016601 0.102363 0.000000 0.000000 0.000000 1.000000 0.209302 0.000000
-0.050860 0.094770 0.000000 0.000000 0.000000 1.000000 0.252492 0.000000
0.022273 0.095324 0.000000 0.000000 0.000000 1.000000 0.205980 0.000000
0.027627 0.088680 0.000000 0.000000 0.000000 1.000000 0.202658 0.000000
-0.061057 0.086512 0.000000 0.000000 0.000000 1.000000 0.255814 0.000000
0.032345 0.082826 0.000000 0.000000 0.000000 1.000000 0.199336 0.000000
0.111291 0.051246 0.000000 0.000000 0.000000 1.000000 0.963455 0.000000
0.125918 0.086745 0.000000 0.000000 0.000000 1.000000 0.970100 0.000000
0.113647 0.087548 0.000000 0.000000 0.000000 1.000000 0.973422 0.000000
0.123562 0.050456 0.000000 0.000000 0.000000 1.000000 0.966777 0.000000
-0.071245 0.078253 0.000000 0.000000 0.000000 1.000000 0.259136 0.000000
-0.027234 0.084757 0.000000 0.000000 0.000000 1.000000 0.627907 0.000000
-0.031745 0.081099 0.000000 0.000000 0.000000 1.000000 0.624585 0.000000
-0.026900 0.084328 0.000000 0.000000 0.000000 1.000000 0.631229 0.000000
-0.025976 0.083144 0.000000 0.000000 0.000000 1.000000 0.634551 0.000000
-0.024580 0.081355 0.000000 0.000000 0.000000 1.000000 0.637874 0.000000
0.036109 0.078155 0.000000 0.000000 0.000000 1.000000 0.196013 0.000000
-0.022831 0.079112 0.000000 0.000000 0.000000 1.000000 0.641196 0.000000
-0.036434 0.077297 0.000000 0.000000 0.000000 1.000000 0.621262 0.000000
-0.020845 0.076567 0.000000 0.000000 0.000000 1.000000 0.644518 0.000000
-0.081100 0.070253 0.000000 0.000000 0.000000 1.000000 0.262458 0.000000
0.038601 0.075063 0.000000 0.000000 0.000000 1.000000 0.192691 0.000000
-0.041260 0.073383 0.000000 0.000000 0.000000 1.000000 0.617940 0.000000
-0.018742 0.073870 0.000000 0.000000 0.000000 1.000000 0.647841 0.000000
0.039502 0.073945 0.000000 0.000000 0.000000 1.000000 0.189369 0.000000
0.038591 0.073213 0.000000 0.000000 0.000000 1.000000 0.186047 0.000000
-0.016639 0.071174 0.000000 0.000000 0.000000 1.000000 0.651163 0.000000
-0.046182 0.069390 0.000000 0.000000 0.000000 1.000000 0.614618 0.000000
0.035958 0.071094 0.000000 0.000000 0.000000 1.000000 0.182724 0.000000
-0.014653 0.068628 0.000000 0.000000 0.000000 1.000000 0.654485 0.000000
0.031754 0.067708 0.000000 0.000000 0.000000 1.000000 0.179402 0.000000
-0.090298 0.062771 0.000000 0.000000 0.000000 1.000000 0.265781 0.000000
-0.051160 0.065350 0.000000 0.000000 0.000000 1.000000 0.611296 0.000000
-0.012904 0.066386 0.000000 0.000000 0.000000 1.000000 0.657807 0.000000
0.026130 0.063174 0.000000 0.000000 0.000000 1.000000 0.176080 0.000000
-0.011508 0.064596 0.000000 0.000000 0.000000 1.000000 0.661130 0.000000
-0.056153 0.061295 0.000000 0.000000 0.000000 1.000000 0.607973 0.000000
-0.010584 0.063412 0.000000 0.000000 0.000000 1.000000 0.664452 0.000000
-0.010250 0.062984 0.000000 0.000000 0.000000 1.000000 0.667774 0.000000
0.019234 0.057609 0.000000 0.000000 0.000000 1.000000 0.172757 0.000000
-0.014008 0.059940 0.000000 0.000000 0.000000 1.000000 0.671096 0.000000
-0.098519 0.056066 0.000000 0.000000 0.000000 1.000000 0.269103 0.000000
-0.061121 0.057259 0.000000 0.000000 0.000000 1.000000 0.604651 0.000000
-0.017960 0.056737 0.000000 0.000000 0.000000 1.000000 0.674419 0.000000
0.011219 0.051134 0.000000 0.000000 0.000000 1.000000 0.169435 0.000000
-0.066023 0.053273 0.000000 0.000000 0.000000 1.000000 0.601329 0.000000
-0.022099 0.053380 0.000000 0.000000 0.000000 1.000000 0.677741 0.000000
-0.106740 0.048827 0.000000 0.000000 0.000000 1.000000 0.272425 0.000000
-0.026416 0.049876 0.000000 0.000000 0.000000 1.000000 0.681063 0.000000
-0.070819 0.049370 0.000000 0.000000 0.000000 1.000000 0.598007 0.000000
0.002235 0.043865 0.000000 0.000000 0.000000 1.000000 0.166113 0.000000
-0.030903 0.046232 0.000000 0.000000 0.000000 1.000000 0.684385 0.000000
-0.075468 0.045583 0.000000 0.000000 0.000000 1.000000 0.594684 0.000000
-0.113875 0.041492 0.000000 0.000000 0.000000 1.000000 0.275748 0.000000
-0.035550 0.042455 0.000000 0.000000 0.000000 1.000000 0.687708 0.000000
-0.079930 0.041945 0.000000 0.000000 0.000000 1.000000 0.591362 0.000000
-0.007569 0.035923 0.000000 0.000000 0.000000 1.000000 0.162791 0.000000
-0.040350 0.038550 0.000000 0.000000 0.000000 1.000000 0.691030 0.000000
-0.084164 0.038487 0.000000 0.000000 0.000000 1.000000 0.588040 0.000000
-0.119995 0.034109 0.000000 0.000000 0.000000 1.000000 0.279070 0.000000
0.000169 -0.052404 0.000000 0.000000 0.000000 1.000000 0.029900 0.000000
0.075529 0.038158 0.000000 0.000000 0.000000 1.000000 0.465116 0.000000
0.074409 0.039059 0.000000 0.000000 0.000000 1.000000 0.026578 0.000000
-0.045294 0.034524 0.000000 0.000000 0.000000 1.000000 0.694352 0.000000
-0.089537 0.033832 0.000000 0.000000 0.000000 1.000000 0.584718 0.000000
0.078626 0.035667 0.000000 0.000000 0.000000 1.000000 0.461794 0.000000
-0.018042 0.027426 0.000000 0.000000 0.000000 1.000000 0.159468 0.000000
0.083304 0.031904 0.000000 0.000000 0.000000 1.000000 0.458472 0.000000
-0.050373 0.030383 0.000000 0.000000 0.000000 1.000000 0.697674 0.000000
-0.125169 0.026725 0.000000 0.000000 0.000000 1.000000 0.282392 0.000000
-0.094466 0.029007 0.000000 0.000000 0.000000 1.000000 0.581395 0.000000
0.089169 0.027187 0.000000 0.000000 0.000000 1.000000 0.455150 0.000000
-0.055579 0.026135 0.000000 0.000000 0.000000 1.000000 0.700997 0.000000
-0.098945 0.024023 0.000000 0.000000 0.000000 1.000000 0.578073 0.000000
-0.029033 0.018492 0.000000 0.000000 0.000000 1.000000 0.156146 0.000000
0.095824 0.021834 0.000000 0.000000 0.000000 1.000000 0.451827 0.000000
-0.129470 0.019389 0.000000 0.000000 0.000000 1.000000 0.285714 0.000000
-0.060902 0.021785 0.000000 0.000000 0.000000 1.000000 0.704319 0.000000
-0.102972 0.018887 0.000000 0.000000 0.000000 1.000000 0.574751 0.000000
0.102874 0.016163 0.000000 0.000000 0.000000 1.000000 0.448505 0.000000
-0.066336 0.017340 0.000000 0.000000 0.000000 1.000000 0.707641 0.000000
-0.132968 0.012147 0.000000 0.000000 0.000000 1.000000 0.289037 0.000000
-0.106541 0.013607 0.000000 0.000000 0.000000 1.000000 0.571429 0.000000
-0.040391 0.009240 0.000000 0.000000 0.000000 1.000000 0.152824 0.000000
-0.071072 0.013102 0.000000 0.000000 0.000000 1.000000 0.710963 0.000000
0.063472 -0.010424 0.000000 0.000000 0.000000 1.000000 0.906977 0.000000
0.109924 0.010491 0.000000 0.000000 0.000000 1.000000 0.445183 0.000000
-0.109648 0.008192 0.000000 0.000000 0.000000 1.000000 0.568106 0.000000
-0.075258 0.008590 0.000000 0.000000 0.000000 1.000000 0.714286 0.000000
-0.135733 0.005048 0.000000 0.000000 0.000000 1.000000 0.292359 0.000000
0.116579 0.005138 0.000000 0.000000 0.000000 1.000000 0.441860 0.000000
-0.051967 -0.000212 0.000000 0.000000 0.000000 1.000000 0.149502 0.000000
-0.078887 0.003829 0.000000 0.000000 0.000000 1.000000 0.717608 0.000000
-0.112288 0.002650 0.000000 0.000000 0.000000 1.000000 0.564784 0.000000
0.122444 0.000421 0.000000 0.000000 0.000000 1.000000 0.438538 0.000000
-0.137837 -0.001862 0.000000 0.000000 0.000000 1.000000 0.295681 0.000000
-0.081950 -0.001152 0.000000 0.000000 0.000000 1.000000 0.720930 0.000000
-0.114459 -0.003011 0.000000 0.000000 0.000000 1.000000 0.561462 0.000000
0.127122 -0.003342 0.000000 0.000000 0.000000 1.000000 0.435216 0.000000
-0.055834 -0.003730 0.000000 0.000000 0.000000 1.000000 0.146179 0.000000
-0.084439 -0.006328 0.000000 0.000000 0.000000 1.000000 0.724252 0.000000
-0.139350 -0.008535 0.000000 0.000000 0.000000 1.000000 0.299003 0.000000
-0.116154 -0.008781 0.000000 0.000000 0.000000 1.000000 0.558140 0.000000
0.130219 -0.005833 0.000000 0.000000 0.000000 1.000000 0.431894 0.000000
-0.058958 -0.007294 0.000000 0.000000 0.000000 1.000000 0.142857 0.000000
0.131339 -0.006734 0.000000 0.000000 0.000000 1.000000 0.428571 0.000000
-0.086346 -0.011672 0.000000 0.000000 0.000000 1.000000 0.727575 0.000000
0.130343 -0.007967 0.000000 0.000000 0.000000 1.000000 0.425249 0.000000
-0.061406 -0.010868 0.000000 0.000000 0.000000 1.000000 0.139535 0.000000
0.127530 -0.011450 0.000000 0.000000 0.000000 1.000000 0.421927 0.000000
-0.140343 -0.014923 0.000000 0.000000 0.000000 1.000000 0.302326 0.000000
-0.117371 -0.014653 0.000000 0.000000 0.000000 1.000000 0.554817 0.000000
0.062573 -0.011532 0.000000 0.000000 0.000000 1.000000 0.903654 0.000000
0.084882 -0.028044 0.000000 0.000000 0.000000 1.000000 0.910299 0.000000
-0.063242 -0.014421 0.000000 0.000000 0.000000 1.000000 0.136213 0.000000
0.123158 -0.016861 0.000000 0.000000 0.000000 1.000000 0.418605 0.000000
0.060088 -0.014594 0.000000 0.000000 0.000000 1.000000 0.900332 0.000000
-0.087664 -0.017156 0.000000 0.000000 0.000000 1.000000 0.730897 0.000000
-0.064531 -0.017920 0.000000 0.000000 0.000000 1.000000 0.132890 0.000000
0.056333 -0.019220 0.000000 0.000000 0.000000 1.000000 0.897010 0.000000
-0.118104 -0.020618 0.000000 0.000000 0.000000 1.000000 0.551495 0.000000
-0.140887 -0.020979 0.000000 0.000000 0.000000 1.000000 0.305648 0.000000
0.117486 -0.023875 0.000000 0.000000 0.000000 1.000000 0.415282 0.000000
-0.088384 -0.022755 0.000000 0.000000 0.000000 1.000000 0.734219 0.000000
-0.065340 -0.021331 0.000000 0.000000 0.000000 1.000000 0.129568 0.000000
0.051626 -0.025018 0.000000 0.000000 0.000000 1.000000 0.893688 0.000000
-0.118349 -0.026669 0.000000 0.000000 0.000000 1.000000 0.548173 0.000000
-0.141053 -0.026655 0.000000 0.000000 0.000000 1.000000 0.308970 0.000000
-0.065733 -0.024622 0.000000 0.000000 0.000000 1.000000 0.126246 0.000000
-0.088499 -0.028442 0.000000 0.000000 0.000000 1.000000 0.737542 0.000000
0.110775 -0.032171 0.000000 0.000000 0.000000 1.000000 0.411960 0.000000
-0.065775 -0.027760 0.000000 0.000000 0.000000 1.000000 0.122924 0.000000
0.046284 -0.031598 0.000000 0.000000 0.000000 1.000000 0.890365 0.000000
-0.139942 -0.041548 0.000000 0.000000 0.000000 1.000000 0.312292 0.000000
-0.117442 -0.038437 0.000000 0.000000 0.000000 1.000000 0.544850 0.000000
-0.065533 -0.030711 0.000000 0.000000 0.000000 1.000000 0.119601 0.000000
0.081247 -0.032538 0.000000 0.000000 0.000000 1.000000 0.913621 0.000000
-0.088000 -0.034189 0.000000 0.000000 0.000000 1.000000 0.740864 0.000000
-0.065071 -0.033444 0.000000 0.000000 0.000000 1.000000 0.116279 0.000000
0.040626 -0.038570 0.000000 0.000000 0.000000 1.000000 0.887043 0.000000
0.103284 -0.041424 0.000000 0.000000 0.000000 1.000000 0.408638 0.000000
0.077470 -0.037203 0.000000 0.000000 0.000000 1.000000 0.916944 0.000000
-0.064454 -0.035925 0.000000 0.000000 0.000000 1.000000 0.112957 0.000000
-0.086880 -0.039971 0.000000 0.000000 0.000000 1.000000 0.744186 0.000000
-0.063748 -0.038120 0.000000 0.000000 0.000000 1.000000 0.109635 0.000000
0.073585 -0.042000 0.000000 0.000000 0.000000 1.000000 0.920266 0.000000
-0.062089 -0.042090 0.000000 0.000000 0.000000 1.000000 0.106312 0.000000
-0.114819 -0.049952 0.000000 0.000000 0.000000 1.000000 0.541528 0.000000
0.034967 -0.045541 0.000000 0.000000 0.000000 1.000000 0.883721 0.000000
-0.085131 -0.045759 0.000000 0.000000 0.000000 1.000000 0.747508 0.000000
0.095272 -0.051312 0.000000 0.000000 0.000000 1.000000 0.405316 0.000000
-0.136725 -0.056045 0.000000 0.000000 0.000000 1.000000 0.315615 0.000000
0.069622 -0.046889 0.000000 0.000000 0.000000 1.000000 0.923588 0.000000
-0.060038 -0.045865 0.000000 0.000000 0.000000 1.000000 0.102990 0.000000
0.029625 -0.052121 0.000000 0.000000 0.000000 1.000000 0.880399 0.000000
-0.082561 -0.051916 0.000000 0.000000 0.000000 1.000000 0.750831 0.000000
-0.057633 -0.049417 0.000000 0.000000 0.000000 1.000000 0.099668 0.000000
0.065614 -0.051831 0.000000 0.000000 0.000000 1.000000 0.926910 0.000000
-0.054911 -0.052716 0.000000 0.000000 0.000000 1.000000 0.096346 0.000000
-0.110626 -0.061066 0.000000 0.000000 0.000000 1.000000 0.538206 0.000000
0.087000 -0.061511 0.000000 0.000000 0.000000 1.000000 0.401993 0.000000
0.061591 -0.056786 0.000000 0.000000 0.000000 1.000000 0.930233 0.000000
-0.079388 -0.057745 0.000000 0.000000 0.000000 1.000000 0.754153 0.000000
0.024918 -0.057920 0.000000 0.000000 0.000000 1.000000 0.877076 0.000000
-0.001767 -0.054660 0.000000 0.000000 0.000000 1.000000 0.033223 0.000000
-0.051910 -0.055734 0.000000 0.000000 0.000000 1.000000 0.093023 0.000000
-0.003755 -0.056722 0.000000 0.000000 0.000000 1.000000 0.036545 0.000000
-0.048668 -0.058443 0.000000 0.000000 0.000000 1.000000 0.089701 0.000000
-0.131573 -0.069976 0.000000 0.000000 0.000000 1.000000 0.318937 0.000000
-0.005793 -0.058591 0.000000 0.000000 0.000000 1.000000 0.039867 0.000000
0.057587 -0.061714 0.000000 0.000000 0.000000 1.000000 0.933555 0.000000
-0.075665 -0.063206 0.000000 0.000000 0.000000 1.000000 0.757475 0.000000
0.021164 -0.062546 0.000000 0.000000 0.000000 1.000000 0.873754 0.000000
-0.045222 -0.060814 0.000000 0.000000 0.000000 1.000000 0.086379 0.000000
-0.007880 -0.060265 0.000000 0.000000 0.000000 1.000000 0.043189 0.000000
-0.010016 -0.061744 0.000000 0.000000 0.000000 1.000000 0.046512 0.000000
-0.041610 -0.062818 0.000000 0.000000 0.000000 1.000000 0.083056 0.000000
-0.105009 -0.071633 0.000000 0.000000 0.000000 1.000000 0.534884 0.000000
0.078725 -0.071699 0.000000 0.000000 0.000000 1.000000 0.398671 0.000000
0.053632 -0.066575 0.000000 0.000000 0.000000 1.000000 0.936877 0.000000
-0.012200 -0.063027 0.000000 0.000000 0.000000 1.000000 0.049834 0.000000
0.018678 -0.065608 0.000000 0.000000 0.000000 1.000000 0.870432 0.000000
-0.037869 -0.064427 0.000000 0.000000 0.000000 1.000000 0.079734 0.000000
-0.014430 -0.064114 0.000000 0.000000 0.000000 1.000000 0.053156 0.000000
-0.071447 -0.068260 0.000000 0.000000 0.000000 1.000000 0.760797 0.000000
-0.016706 -0.065005 0.000000 0.000000 0.000000 1.000000 0.056478 0.000000
-0.034038 -0.065611 0.000000 0.000000 0.000000 1.000000 0.076412 0.000000
-0.019028 -0.065699 0.000000 0.000000 0.000000 1.000000 0.059801 0.000000
0.017779 -0.066716 0.000000 0.000000 0.000000 1.000000 0.867110 0.000000
-0.030153 -0.066343 0.000000 0.000000 0.000000 1.000000 0.073090 0.000000
-0.021393 -0.066195 0.000000 0.000000 0.000000 1.000000 0.063123 0.000000
-0.023802 -0.066493 0.000000 0.000000 0.000000 1.000000 0.066445 0.000000
-0.026253 -0.066593 0.000000 0.000000 0.000000 1.000000 0.069767 0.000000
0.049759 -0.071331 0.000000 0.000000 0.000000 1.000000 0.940199 0.000000
0.013957 -0.071079 0.000000 0.000000 0.000000 1.000000 0.863787 0.000000
-0.066786 -0.072867 0.000000 0.000000 0.000000 1.000000 0.764120 0.000000
-0.124657 -0.083169 0.000000 0.000000 0.000000 1.000000 0.322259 0.000000
0.010077 -0.074865 0.000000 0.000000 0.000000 1.000000 0.860465 0.000000
0.045998 -0.075941 0.000000 0.000000 0.000000 1.000000 0.943522 0.000000
-0.098115 -0.081506 0.000000 0.000000 0.000000 1.000000 0.531561 0.000000
0.070708 -0.081552 0.000000 0.000000 0.000000 1.000000 0.395349 0.000000
-0.061736 -0.076988 0.000000 0.000000 0.000000 1.000000 0.767442 0.000000
0.006162 -0.078113 0.000000 0.000000 0.000000 1.000000 0.857143 0.000000
0.042383 -0.080367 0.000000 0.000000 0.000000 1.000000 0.946844 0.000000
-0.056350 -0.080583 0.000000 0.000000 0.000000 1.000000 0.770764 0.000000
0.002241 -0.080860 0.000000 0.000000 0.000000 1.000000 0.853821 0.000000
0.038944 -0.084567 0.000000 0.000000 0.000000 1.000000 0.468439 0.000000
-0.050683 -0.083613 0.000000 0.000000 0.000000 1.000000 0.774086 0.000000
-0.001662 -0.083143 0.000000 0.000000 0.000000 1.000000 0.850498 0.000000
-0.090090 -0.090538 0.000000 0.000000 0.000000 1.000000 0.528239 0.000000
0.063208 -0.090746 0.000000 0.000000 0.000000 1.000000 0.392027 0.000000
-0.005519 -0.084999 0.000000 0.000000 0.000000 1.000000 0.847176 0.000000
-0.116148 -0.095452 0.000000 0.000000 0.000000 1.000000 0.325581 0.000000
-0.044788 -0.086038 0.000000 0.000000 0.000000 1.000000 0.777409 0.000000
0.034252 -0.089953 0.000000 0.000000 0.000000 1.000000 0.471761 0.000000
-0.009305 -0.086467 0.000000 0.000000 0.000000 1.000000 0.843854 0.000000
-0.038718 -0.087820 0.000000 0.000000 0.000000 1.000000 0.780731 0.000000
-0.012994 -0.087584 0.000000 0.000000 0.000000 1.000000 0.840532 0.000000
-0.016560 -0.088388 0.000000 0.000000 0.000000 1.000000 0.837209 0.000000
-0.032526 -0.088917 0.000000 0.000000 0.000000 1.000000 0.784053 0.000000
-0.019976 -0.088915 0.000000 0.000000 0.000000 1.000000 0.833887 0.000000
-0.023215 -0.089204 0.000000 0.000000 0.000000 1.000000 0.830565 0.000000
-0.026267 -0.089292 0.000000 0.000000 0.000000 1.000000 0.787375 0.000000
-0.026253 -0.089292 0.000000 0.000000 0.000000 1.000000 0.827243 0.000000
-0.026267 -0.089292 0.000000 -0.282209 -0.959353 0.000000 0.790698 0.000000
-0.026266 -0.089292 0.000000 -0.282202 -0.959355 0.000000 0.794020 0.000000
-0.026265 -0.089292 0.000000 -0.282190 -0.959358 0.000000 0.797342 0.000000
-0.026263 -0.089292 0.000000 -0.282177 -0.959362 0.000000 0.800664 0.000000
-0.026262 -0.089292 0.000000 -0.282161 -0.959367 0.000000 0.803987 0.000000
-0.026260 -0.089292 0.000000 -0.282144 -0.959372 0.000000 0.807309 0.000000
-0.026258 -0.089292 0.000000 -0.282128 -0.959377 0.000000 0.810631 0.000000
-0.026257 -0.089292 0.000000 -0.282112 -0.959382 0.000000 0.813953 0.000000
-0.026255 -0.089292 0.000000 -0.282098 -0.959386 0.000000 0.817276 0.000000
-0.026254 -0.089292 0.000000 -0.282087 -0.959389 0.000000 0.820598 0.000000
-0.026254 -0.089292 0.000000 -0.282080 -0.959391 0.000000 0.823920 0.000000
0.029396 -0.094895 0.000000 0.000000 0.000000 1.000000 0.475083 0.000000
-0.081080 -0.098583 0.000000 0.000000 0.000000 1.000000 0.524917 0.000000
0.056486 -0.098960 0.000000 0.000000 0.000000 1.000000 0.388704 0.000000
0.024384 -0.099388 0.000000 0.000000 0.000000 1.000000 0.478405 0.000000
-0.106217 -0.106653 0.000000 0.000000 0.000000 1.000000 0.328904 0.000000
-0.071231 -0.105494 0.000000 0.000000 0.000000 1.000000 0.521595 0.000000
0.049204 -0.107192 0.000000 0.000000 0.000000 1.000000 0.385382 0.000000
0.019224 -0.103427 0.000000 0.000000 0.000000 1.000000 0.481728 0.000000
0.013925 -0.107009 0.000000 0.000000 0.000000 1.000000 0.485050 0.000000
-0.060690 -0.111125 0.000000 0.000000 0.000000 1.000000 0.518272 0.000000
-0.095037 -0.116602 0.000000 0.000000 0.000000 1.000000 0.332226 0.000000
0.008495 -0.110127 0.000000 0.000000 0.000000 1.000000 0.488372 0.000000
0.041835 -0.114337 0.000000 0.000000 0.000000 1.000000 0.382060 0.000000
0.002942 -0.112779 0.000000 0.000000 0.000000 1.000000 0.491694 0.000000
-0.049603 -0.115329 0.000000 0.000000 0.000000 1.000000 0.514950 0.000000
-0.002725 -0.114959 0.000000 0.000000 0.000000 1.000000 0.495017 0.000000
0.034424 -0.120465 0.000000 0.000000 0.000000 1.000000 0.378738 0.000000
-0.008499 -0.116662 0.000000 0.000000 0.000000 1.000000 0.498339 0.000000
-0.038116 -0.117958 0.000000 0.000000 0.000000 1.000000 0.511628 0.000000
-0.082777 -0.125127 0.000000 0.000000 0.000000 1.000000 0.335548 0.000000
-0.014371 -0.117884 0.000000 0.000000 0.000000 1.000000 0.501661 0.000000
-0.020333 -0.118621 0.000000 0.000000 0.000000 1.000000 0.504983 0.000000
-0.026376 -0.118867 0.000000 0.000000 0.000000 1.000000 0.508306 0.000000
0.027019 -0.125647 0.000000 0.000000 0.000000 1.000000 0.375415 0.000000
-0.069610 -0.132056 0.000000 0.000000 0.000000 1.000000 0.338870 0.000000
0.019667 -0.129953 0.000000 0.000000 0.000000 1.000000 0.372093 0.000000
0.012414 -0.133456 0.000000 0.000000 0.000000 1.000000 0.368771 0.000000
-0.055707 -0.137218 0.000000 0.000000 0.000000 1.000000 0.342193 0.000000
0.005309 -0.136225 0.000000 0.000000 0.000000 1.000000 0.365449 0.000000
-0.001603 -0.138332 0.000000 0.000000 0.000000 1.000000 0.362126 0.000000
-0.041238 -0.140441 0.000000 0.000000 0.000000 1.000000 0.345515 0.000000
-0.008275 -0.139848 0.000000 0.000000 0.000000 1.000000 0.358804 0.000000
-0.014659 -0.140842 0.000000 0.000000 0.000000 1.000000 0.355482 0.000000
-0.026376 -0.141553 0.000000 0.000000 0.000000 1.000000 0.348837 0.000000
-0.020708 -0.141387 0.000000 0.000000 0.000000 1.000000 0.352159 0.000000
0.019726 0.150280 0.000000 0.000000 0.000000 1.000000 0.990033 0.000000
0.041545 0.181857 0.000000 0.000000 0.000000 1.000000 0.996678 0.000000
0.029737 0.185248 0.000000 0.000000 0.000000 1.000000 1.000000 0.000000
0.031548 0.146890 0.000000 0.000000 0.000000 1.000000 0.993355 0.000000
0.038576 0.141130 0.000000 0.000000 0.000000 1.000000 0.980066 0.000000
0.074572 0.154474 0.000000 0.000000 0.000000 1.000000 0.986711 0.000000
0.066837 0.164033 0.000000 0.000000 0.000000 1.000000 0.983389 0.000000
0.046325 0.131585 0.000000 0.000000 0.000000 1.000000 0.976744 0.000000
0.131679 0.046303 0.000000 0.000000 0.000000 1.000000 0.003322 0.000000
0.164026 0.067001 0.000000 0.000000 0.000000 1.000000 0.009967 0.000000
0.154438 0.074680 0.000000 0.000000 0.000000 1.000000 0.006645 0.000000
0.141268 0.038623 0.000000 0.000000 0.000000 1.000000 0.000000 0.000000
0.147083 0.031624 0.000000 0.000000 0.000000 1.000000 0.019934 0.000000
0.185817 0.030031 0.000000 0.000000 0.000000 1.000000 0.013289 0.000000
0.181990 0.041823 0.000000 0.000000 0.000000 1.000000 0.016611 0.000000
0.150529 0.019832 0.000000 0.000000 0.000000 1.000000 0.023256 0.000000
3 0 1 2
3 3 1 0
3 3 4 1
3 5 4 3
3 5 6 4
3 7 8 9
3 10 8 7
3 11 6 5
3 11 12 6
3 13 12 11
3 13 14 12
3 15 14 13
3 15 16 14
3 17 16 15
3 17 18 16
3 17 19 18
3 20 19 17
3 20 21 19
3 22 23 24
3 22 25 23
3 26 27 20
3 27 21 20
3 26 28 27
3 29 21 27
3 30 21 29
3 31 21 30
3 31 32 21
3 33 32 31
3 26 34 28
3 35 32 33
3 36 34 26
3 35 37 32
3 36 38 34
3 39 37 35
3 39 40 37
3 39 41 40
3 42 41 39
3 36 43 38
3 42 44 41
3 45 44 42
3 45 46 44
3 47 43 36
3 47 48 43
3 49 46 45
3 49 50 46
3 51 50 49
3 47 52 48
3 53 50 51
3 54 50 53
3 54 55 50
3 56 55 54
3 57 52 47
3 57 58 52
3 59 55 56
3 59 60 55
3 57 61 58
3 62 60 59
3 63 61 57
3 64 60 62
3 63 65 61
3 64 66 60
3 67 66 64
3 63 68 65
3 69 68 63
3 70 66 67
3 69 71 68
3 70 72 66
3 73 72 70
3 69 74 71
3 75 74 69
3 76 77 78
3 79 72 73
3 75 80 74
3 76 81 77
3 79 82 72
3 76 83 81
3 84 82 79
3 85 80 75
3 85 86 80
3 76 87 83
3 88 82 84
3 85 89 86
3 88 90 82
3 76 91 87
3 92 89 85
3 93 90 88
3 92 94 89
3 76 95 91
3 96 90 93
3 97 94 92
3 97 98 94
3 96 99 90
3 100 99 96
3 76 101 95
3 101 102 95
3 97 103 98
3 104 99 100
3 105 103 97
3 101 106 102
3 104 107 99
3 108 107 104
3 105 109 103
3 101 110 106
3 111 109 105
3 112 107 108
3 111 113 109
3 101 114 110
3 112 115 107
3 116 115 112
3 117 113 111
3 117 118 113
3 101 119 114
3 116 120 115
3 101 121 119
3 122 120 116
3 101 123 121
3 122 124 120
3 101 125 123
3 126 118 117
3 126 127 118
3 76 128 101
3 129 125 101
3 122 130 124
3 129 131 125
3 76 132 128
3 133 130 122
3 133 134 130
3 76 135 132
3 126 136 127
3 137 136 126
3 129 138 131
3 139 134 133
3 139 140 134
3 76 141 135
3 137 142 136
3 143 142 137
3 139 144 140
3 145 144 139
3 129 146 138
3 145 147 144
3 76 148 141
3 149 142 143
3 149 150 142
3 145 151 147
3 152 146 129
3 153 151 145
3 153 154 151
3 76 155 148
3 152 156 146
3 157 156 152
3 153 158 154
3 159 158 153
3 159 160 158
3 161 156 157
3 159 162 160
3 149 163 150
3 76 164 155
3 165 162 159
3 161 166 156
3 167 163 149
3 168 166 161
3 165 169 162
3 76 170 164
3 171 169 165
3 171 172 169
3 173 166 168
3 171 174 172
3 167 175 163
3 173 176 166
3 177 176 173
3 178 174 171
3 76 179 170
3 180 179 76
3 178 181 174
3 182 179 180
3 178 183 181
3 184 175 167
3 185 179 182
3 186 176 177
3 187 183 178
3 185 188 179
3 187 189 183
3 190 188 185
3 191 188 190
3 187 192 189
3 184 193 175
3 186 194 176
3 195 194 186
3 196 188 191
3 196 197 188
3 187 198 192
3 199 197 196
3 200 198 187
3 201 197 199
3 200 202 198
3 203 197 201
3 203 204 197
3 200 205 202
3 206 204 203
3 207 204 206
3 200 208 205
3 208 204 207
3 209 194 195
3 200 204 208
3 200 210 204
3 211 210 200
3 212 193 184
3 211 213 210
3 214 194 209
3 212 215 193
3 214 216 194
3 217 213 211
3 217 218 213
3 219 216 214
3 220 218 217
3 220 221 218
3 222 216 219
3 223 221 220
3 223 224 221
3 212 225 215
3 222 226 216
3 223 227 224
3 228 225 212
3 229 227 223
3 230 226 222
3 229 231 227
3 232 231 229
3 232 233 231
3 232 234 233
3 235 234 232
3 235 236 234
3 235 237 236
3 238 237 235
3 238 239 237
3 240 239 238
3 241 239 240
3 242 239 241
3 243 239 242
3 244 239 243
3 245 239 244
3 246 239 245
3 247 239 246
3 248 239 247
3 249 239 248
3 250 239 249
3 251 226 230
3 228 252 225
3 251 253 226
3 254 253 251
3 255 252 228
3 255 256 252
3 254 257 253
3 258 257 254
3 259 257 258
3 255 260 256
3 261 260 255
3 262 257 259
3 262 263 257
3 264 263 262
3 261 265 260
3 266 263 264
3 266 267 263
3 268 267 266
3 261 269 265
3 270 269 261
3 271 267 268
3 272 267 271
3 270 273 269
3 273 267 272
3 270 267 273
3 270 274 267
3 275 274 270
3 275 276 274
3 275 277 276
3 278 277 275
3 278 279 277
3 278 280 279
3 281 280 278
3 281 282 280
3 281 283 282
3 284 283 281
3 284 285 283
3 286 287 288
3 286 289 287
3 290 291 292
3 290 293 291
3 294 295 296
3 294 297 295
3 298 299 300
3 301 299 298
