ply
format ascii 1.0
comment Created by Blender 2.82 (sub 7) - www.blender.org, source file: 'icons.blend'
element vertex 61
property float x
property float y
property float z
property uchar red
property uchar green
property uchar blue
property uchar alpha
element face 57
property list uchar uint vertex_indices
end_header
0.656711 -0.879600 0.000000 255 255 255 255
0.677007 -0.717270 0.000000 255 255 255 255
0.656711 -0.696979 0.000000 255 255 255 255
0.900258 -0.696979 0.000000 255 255 255 255
0.879962 -0.717270 0.000000 255 255 255 255
0.900258 -0.879600 0.000000 255 255 255 255
0.677007 -0.859309 0.000000 255 255 255 255
0.879962 -0.859309 0.000000 255 255 255 255
0.720607 -0.737700 0.000000 255 255 255 255
0.724736 -0.737700 0.000000 255 255 255 255
0.722672 -0.737561 0.000000 255 255 255 255
0.726717 -0.738105 0.000000 255 255 255 255
0.718627 -0.738105 0.000000 255 255 255 255
0.728595 -0.738758 0.000000 255 255 255 255
0.716749 -0.738758 0.000000 255 255 255 255
0.730353 -0.739640 0.000000 255 255 255 255
0.714991 -0.739640 0.000000 255 255 255 255
0.731971 -0.740733 0.000000 255 255 255 255
0.713372 -0.740733 0.000000 255 255 255 255
0.733433 -0.742020 0.000000 255 255 255 255
0.711910 -0.742020 0.000000 255 255 255 255
0.734720 -0.743482 0.000000 255 255 255 255
0.710623 -0.743482 0.000000 255 255 255 255
0.735814 -0.745100 0.000000 255 255 255 255
0.709529 -0.745100 0.000000 255 255 255 255
0.736697 -0.746858 0.000000 255 255 255 255
0.708647 -0.746858 0.000000 255 255 255 255
0.737349 -0.748735 0.000000 255 255 255 255
0.707994 -0.748735 0.000000 255 255 255 255
0.737754 -0.750715 0.000000 255 255 255 255
0.707589 -0.750715 0.000000 255 255 255 255
0.737893 -0.752780 0.000000 255 255 255 255
0.707450 -0.752780 0.000000 255 255 255 255
0.707589 -0.754846 0.000000 255 255 255 255
0.737754 -0.754846 0.000000 255 255 255 255
0.707994 -0.756827 0.000000 255 255 255 255
0.737349 -0.756827 0.000000 255 255 255 255
0.708647 -0.758706 0.000000 255 255 255 255
0.736697 -0.758706 0.000000 255 255 255 255
0.773218 -0.798435 0.000000 255 255 255 255
0.849519 -0.839018 0.000000 255 255 255 255
0.798780 -0.757852 0.000000 255 255 255 255
0.709529 -0.760463 0.000000 255 255 255 255
0.735814 -0.760463 0.000000 255 255 255 255
0.710623 -0.762082 0.000000 255 255 255 255
0.734720 -0.762082 0.000000 255 255 255 255
0.711910 -0.763543 0.000000 255 255 255 255
0.733433 -0.763543 0.000000 255 255 255 255
0.713372 -0.764829 0.000000 255 255 255 255
0.731971 -0.764829 0.000000 255 255 255 255
0.714991 -0.765922 0.000000 255 255 255 255
0.730353 -0.765922 0.000000 255 255 255 255
0.716749 -0.766803 0.000000 255 255 255 255
0.728595 -0.766803 0.000000 255 255 255 255
0.718627 -0.767455 0.000000 255 255 255 255
0.726717 -0.767455 0.000000 255 255 255 255
0.720607 -0.767859 0.000000 255 255 255 255
0.724736 -0.767859 0.000000 255 255 255 255
0.722672 -0.767998 0.000000 255 255 255 255
0.707450 -0.839018 0.000000 255 255 255 255
0.748041 -0.778550 0.000000 255 255 255 255
3 0 1 2
3 1 3 2
3 1 4 3
3 4 5 3
3 0 6 1
3 7 5 4
3 8 9 10
3 8 11 9
3 12 11 8
3 12 13 11
3 14 13 12
3 14 15 13
3 16 15 14
3 16 17 15
3 18 17 16
3 18 19 17
3 20 19 18
3 20 21 19
3 22 21 20
3 22 23 21
3 24 23 22
3 24 25 23
3 26 25 24
3 26 27 25
3 28 27 26
3 28 29 27
3 30 29 28
3 30 31 29
3 32 31 30
3 33 31 32
3 33 34 31
3 35 34 33
3 35 36 34
3 37 36 35
3 37 38 36
3 39 40 41
3 42 38 37
3 42 43 38
3 44 43 42
3 44 45 43
3 46 45 44
3 46 47 45
3 48 47 46
3 48 49 47
3 50 49 48
3 50 51 49
3 52 51 50
3 52 53 51
3 54 53 52
3 54 55 53
3 56 55 54
3 56 57 55
3 58 57 56
3 59 39 60
3 59 40 39
3 0 7 6
3 0 5 7
