ply
format ascii 1.0
comment Created in Blender version 4.2.2 LTS
element vertex 22
property float x
property float y
property float z
property float s
property float t
element face 20
property list uchar uint vertex_indices
end_header
-0.073128715 0.0914061 0 0.04761905 0
0.109534174 0.10966853 0 0.23809524 0
-0.073128715 0.10966853 0 0 0
0.091267884 0.0914061 0 0.0952381 0
0.109534174 -0.07295578 0 0.1904762 0
0.091267884 -0.07295578 0 0.14285715 0
-0.109661296 -0.10948064 0 0.33333334 0
-0.054309446 0.006318152 0 1 0
-0.109661296 0.07314367 0 0.2857143 0
-0.042411387 0.018338539 0 0.47619048 0
0.07300159 0.07314367 0 0.42857143 0
0.006108448 0.018071033 0 0.5714286 0
0.017935157 0.0060684755 0 0.61904764 0
0.07300159 -0.10948064 0 0.3809524 0
-0.018329851 -0.0065226182 0 0.52380955 0
-0.0547554 -0.042191423 0 0.9047619 0
-0.030263595 -0.018168487 0 0.95238096 0
-0.0063782707 -0.018168487 0 0.6666667 0
0.018060029 -0.042690784 0 0.71428573 0
-0.04273247 -0.05408698 0 0.85714287 0
0.0060549304 -0.054515004 0 0.7619048 0
-0.018329851 -0.030402884 0 0.8095238 0
3 0 1 2
3 0 3 1
3 3 4 1
3 5 4 3
3 6 7 8
3 7 9 8
3 9 10 8
3 9 11 10
3 11 12 10
3 12 13 10
3 14 11 9
3 6 15 7
3 15 16 7
3 17 18 12
3 18 13 12
3 19 20 21
3 6 19 15
3 20 13 18
3 6 20 19
3 6 13 20
