ply
format ascii 1.0
comment Created by Blender 3.6.2 - www.blender.org
element vertex 128
property float x
property float y
property float z
property float nx
property float ny
property float nz
property float s
property float t
element face 126
property list uchar uint vertex_indices
end_header
-0.097202 0.041461 0.000000 0.000000 0.000000 1.000000 0.015748 0.000000
-0.065577 0.065123 0.000000 0.000000 0.000000 1.000000 0.062992 0.000000
-0.081445 0.088699 0.000000 0.000000 0.000000 1.000000 0.007874 0.000000
-0.060589 0.068724 0.000000 0.000000 0.000000 1.000000 0.070866 0.000000
-0.055407 0.071740 0.000000 0.000000 0.000000 1.000000 0.078740 0.000000
-0.050016 0.074183 0.000000 0.000000 0.000000 1.000000 0.086614 0.000000
-0.044397 0.076063 0.000000 0.000000 0.000000 1.000000 0.094488 0.000000
-0.038536 0.077392 0.000000 0.000000 0.000000 1.000000 0.102362 0.000000
-0.032414 0.078181 0.000000 0.000000 0.000000 1.000000 0.110236 0.000000
0.082027 0.088699 0.000000 0.000000 0.000000 1.000000 0.000000 0.000000
-0.026016 0.078442 0.000000 0.000000 0.000000 1.000000 0.118110 0.000000
0.025754 0.078442 0.000000 0.000000 0.000000 1.000000 0.811024 0.000000
0.031937 0.078156 0.000000 0.000000 0.000000 1.000000 0.818898 0.000000
0.037960 0.077298 0.000000 0.000000 0.000000 1.000000 0.826772 0.000000
0.043814 0.075873 0.000000 0.000000 0.000000 1.000000 0.834646 0.000000
0.049493 0.073883 0.000000 0.000000 0.000000 1.000000 0.842520 0.000000
0.054988 0.071330 0.000000 0.000000 0.000000 1.000000 0.850394 0.000000
0.060292 0.068218 0.000000 0.000000 0.000000 1.000000 0.858268 0.000000
0.097784 0.041461 0.000000 0.000000 0.000000 1.000000 1.000000 0.000000
-0.023822 0.078384 0.000000 0.000000 0.000000 1.000000 0.125984 0.000000
0.023642 0.078389 0.000000 0.000000 0.000000 1.000000 0.803150 0.000000
0.021795 0.078218 0.000000 0.000000 0.000000 1.000000 0.795276 0.000000
-0.021875 0.078204 0.000000 0.000000 0.000000 1.000000 0.133858 0.000000
0.020198 0.077915 0.000000 0.000000 0.000000 1.000000 0.787402 0.000000
-0.020165 0.077894 0.000000 0.000000 0.000000 1.000000 0.141732 0.000000
0.018835 0.077462 0.000000 0.000000 0.000000 1.000000 0.779528 0.000000
-0.018680 0.077442 0.000000 0.000000 0.000000 1.000000 0.149606 0.000000
0.017691 0.076845 0.000000 0.000000 0.000000 1.000000 0.771654 0.000000
-0.017410 0.076841 0.000000 0.000000 0.000000 1.000000 0.157480 0.000000
0.016751 0.076046 0.000000 0.000000 0.000000 1.000000 0.763780 0.000000
-0.016345 0.076080 0.000000 0.000000 0.000000 1.000000 0.165354 0.000000
-0.015472 0.075150 0.000000 0.000000 0.000000 1.000000 0.173228 0.000000
0.015998 0.075051 0.000000 0.000000 0.000000 1.000000 0.755906 0.000000
-0.014783 0.074043 0.000000 0.000000 0.000000 1.000000 0.181102 0.000000
0.015417 0.073843 0.000000 0.000000 0.000000 1.000000 0.748031 0.000000
-0.014265 0.072748 0.000000 0.000000 0.000000 1.000000 0.188976 0.000000
0.014992 0.072406 0.000000 0.000000 0.000000 1.000000 0.740157 0.000000
-0.013909 0.071256 0.000000 0.000000 0.000000 1.000000 0.196850 0.000000
0.014708 0.070725 0.000000 0.000000 0.000000 1.000000 0.732283 0.000000
-0.013703 0.069558 0.000000 0.000000 0.000000 1.000000 0.204724 0.000000
0.014549 0.068783 0.000000 0.000000 0.000000 1.000000 0.724409 0.000000
-0.013636 0.067644 0.000000 0.000000 0.000000 1.000000 0.212598 0.000000
0.014500 0.066565 0.000000 0.000000 0.000000 1.000000 0.716535 0.000000
0.065396 0.064549 0.000000 0.000000 0.000000 1.000000 0.866142 0.000000
-0.013636 0.065207 0.000000 0.000000 0.000000 1.000000 0.220472 0.000000
0.014500 0.064148 0.000000 0.000000 0.000000 1.000000 0.708661 0.000000
-0.013636 0.058467 0.000000 0.000000 0.000000 1.000000 0.228346 0.000000
-0.070389 0.060926 0.000000 0.000000 0.000000 1.000000 0.055118 0.000000
0.070293 0.060326 0.000000 0.000000 0.000000 1.000000 0.874016 0.000000
0.014500 0.057467 0.000000 0.000000 0.000000 1.000000 0.700787 0.000000
-0.075040 0.056122 0.000000 0.000000 0.000000 1.000000 0.047244 0.000000
0.074976 0.055552 0.000000 0.000000 0.000000 1.000000 0.881890 0.000000
-0.013636 0.048285 0.000000 0.000000 0.000000 1.000000 0.236220 0.000000
0.014500 0.047374 0.000000 0.000000 0.000000 1.000000 0.692913 0.000000
-0.079547 0.050699 0.000000 0.000000 0.000000 1.000000 0.039370 0.000000
0.079435 0.050230 0.000000 0.000000 0.000000 1.000000 0.889764 0.000000
-0.083928 0.044646 0.000000 0.000000 0.000000 1.000000 0.031496 0.000000
0.083664 0.044362 0.000000 0.000000 0.000000 1.000000 0.897638 0.000000
-0.013636 0.035522 0.000000 0.000000 0.000000 1.000000 0.244094 0.000000
0.014500 0.034722 0.000000 0.000000 0.000000 1.000000 0.685039 0.000000
-0.088198 0.037952 0.000000 0.000000 0.000000 1.000000 0.023622 0.000000
0.087654 0.037952 0.000000 0.000000 0.000000 1.000000 0.905512 0.000000
0.089237 0.038500 0.000000 0.000000 0.000000 -1.000000 0.929134 0.000000
0.090281 0.038861 0.000000 0.000000 0.000000 1.000000 0.937008 0.000000
0.091465 0.039272 0.000000 0.000000 0.000000 -1.000000 0.944882 0.000000
0.092719 0.039706 0.000000 0.000000 0.000000 1.000000 0.952756 0.000000
0.096201 0.040912 0.000000 0.000000 0.000000 1.000000 0.976378 0.000000
0.097033 0.041201 0.000000 0.000000 0.000000 1.000000 0.984252 0.000000
0.097584 0.041392 0.000000 0.000000 0.000000 1.000000 0.992126 0.000000
0.095158 0.040551 0.000000 0.000000 0.000000 -1.000000 0.968504 0.000000
0.093973 0.040141 0.000000 0.000000 0.000000 1.000000 0.960630 0.000000
0.087854 0.038021 0.000000 0.000000 0.000000 -1.000000 0.913386 0.000000
0.088405 0.038212 0.000000 0.000000 0.000000 1.000000 0.921260 0.000000
-0.013636 0.021038 0.000000 0.000000 0.000000 1.000000 0.251969 0.000000
0.014500 0.020365 0.000000 0.000000 0.000000 1.000000 0.677165 0.000000
-0.013636 0.005694 0.000000 0.000000 0.000000 1.000000 0.259843 0.000000
0.014500 0.005154 0.000000 0.000000 0.000000 1.000000 0.669291 0.000000
-0.013636 -0.009650 0.000000 0.000000 0.000000 1.000000 0.267717 0.000000
0.014500 -0.010056 0.000000 0.000000 0.000000 1.000000 0.661417 0.000000
-0.013636 -0.024133 0.000000 0.000000 0.000000 1.000000 0.275591 0.000000
0.014500 -0.024413 0.000000 0.000000 0.000000 1.000000 0.653543 0.000000
-0.013636 -0.036896 0.000000 0.000000 0.000000 1.000000 0.283465 0.000000
0.014500 -0.037065 0.000000 0.000000 0.000000 1.000000 0.645669 0.000000
-0.013636 -0.047078 0.000000 0.000000 0.000000 1.000000 0.291339 0.000000
0.014500 -0.047158 0.000000 0.000000 0.000000 1.000000 0.637795 0.000000
-0.013636 -0.053818 0.000000 0.000000 0.000000 1.000000 0.299213 0.000000
0.014500 -0.053839 0.000000 0.000000 0.000000 1.000000 0.629921 0.000000
-0.013636 -0.056256 0.000000 0.000000 0.000000 1.000000 0.307087 0.000000
0.014500 -0.056256 0.000000 0.000000 0.000000 1.000000 0.622047 0.000000
-0.013782 -0.061521 0.000000 0.000000 0.000000 1.000000 0.314961 0.000000
0.014580 -0.061516 0.000000 0.000000 0.000000 1.000000 0.614173 0.000000
0.014839 -0.066122 0.000000 0.000000 0.000000 1.000000 0.606299 0.000000
-0.014094 -0.066141 0.000000 0.000000 0.000000 1.000000 0.322835 0.000000
0.015300 -0.070119 0.000000 0.000000 0.000000 1.000000 0.598425 0.000000
-0.014599 -0.070157 0.000000 0.000000 0.000000 1.000000 0.330709 0.000000
0.015990 -0.073552 0.000000 0.000000 0.000000 1.000000 0.590551 0.000000
-0.015325 -0.073612 0.000000 0.000000 0.000000 1.000000 0.338583 0.000000
0.016934 -0.076463 0.000000 0.000000 0.000000 1.000000 0.582677 0.000000
-0.016296 -0.076545 0.000000 0.000000 0.000000 1.000000 0.346457 0.000000
0.018158 -0.078897 0.000000 0.000000 0.000000 1.000000 0.574803 0.000000
-0.017540 -0.078998 0.000000 0.000000 0.000000 1.000000 0.354331 0.000000
0.019686 -0.080897 0.000000 0.000000 0.000000 1.000000 0.566929 0.000000
-0.019083 -0.081012 0.000000 0.000000 0.000000 1.000000 0.362205 0.000000
0.021544 -0.082509 0.000000 0.000000 0.000000 1.000000 0.559055 0.000000
-0.020952 -0.082629 0.000000 0.000000 0.000000 1.000000 0.370079 0.000000
0.023759 -0.083776 0.000000 0.000000 0.000000 1.000000 0.551181 0.000000
-0.023172 -0.083890 0.000000 0.000000 0.000000 1.000000 0.377953 0.000000
0.026354 -0.084743 0.000000 0.000000 0.000000 1.000000 0.543307 0.000000
-0.025770 -0.084836 0.000000 0.000000 0.000000 1.000000 0.385827 0.000000
0.029355 -0.085452 0.000000 0.000000 0.000000 1.000000 0.535433 0.000000
-0.028773 -0.085509 0.000000 0.000000 0.000000 1.000000 0.393701 0.000000
0.032789 -0.085949 0.000000 0.000000 0.000000 1.000000 0.527559 0.000000
-0.032206 -0.085949 0.000000 0.000000 0.000000 1.000000 0.401575 0.000000
-0.032417 -0.085965 0.000000 0.000000 0.000000 1.000000 0.409449 0.000000
0.043762 -0.086758 0.000000 0.000000 0.000000 1.000000 0.519685 0.000000
-0.032998 -0.086009 0.000000 0.000000 0.000000 1.000000 0.417323 0.000000
-0.033877 -0.086075 0.000000 0.000000 0.000000 1.000000 0.425197 0.000000
-0.034978 -0.086159 0.000000 0.000000 0.000000 1.000000 0.433071 0.000000
-0.036228 -0.086253 0.000000 0.000000 0.000000 1.000000 0.440945 0.000000
-0.037552 -0.086354 0.000000 0.000000 0.000000 1.000000 0.448819 0.000000
-0.038876 -0.086454 0.000000 0.000000 0.000000 1.000000 0.456693 0.000000
-0.040126 -0.086548 0.000000 0.000000 0.000000 1.000000 0.464567 0.000000
-0.041228 -0.086632 0.000000 0.000000 0.000000 1.000000 0.472441 0.000000
-0.042106 -0.086698 0.000000 0.000000 0.000000 1.000000 0.480315 0.000000
-0.042688 -0.086743 0.000000 0.000000 0.000000 1.000000 0.488189 0.000000
-0.042898 -0.086758 0.000000 0.000000 0.000000 1.000000 0.496063 0.000000
-0.042898 -0.095126 0.000000 0.000000 0.000000 1.000000 0.503937 0.000000
0.043762 -0.095126 0.000000 0.000000 0.000000 1.000000 0.511811 0.000000
3 0 1 2
3 1 3 2
3 3 4 2
3 4 5 2
3 5 6 2
3 6 7 2
3 7 8 2
3 8 9 2
3 8 10 9
3 10 11 9
3 11 12 9
3 12 13 9
3 13 14 9
3 14 15 9
3 15 16 9
3 16 17 9
3 17 18 9
3 19 11 10
3 19 20 11
3 19 21 20
3 22 21 19
3 22 23 21
3 24 23 22
3 24 25 23
3 26 25 24
3 26 27 25
3 28 27 26
3 28 29 27
3 30 29 28
3 31 29 30
3 31 32 29
3 33 32 31
3 33 34 32
3 35 34 33
3 35 36 34
3 37 36 35
3 37 38 36
3 39 38 37
3 39 40 38
3 41 40 39
3 41 42 40
3 43 18 17
3 44 42 41
3 44 45 42
3 46 45 44
3 0 47 1
3 48 18 43
3 46 49 45
3 0 50 47
3 51 18 48
3 52 49 46
3 52 53 49
3 0 54 50
3 55 18 51
3 0 56 54
3 57 18 55
3 58 53 52
3 58 59 53
3 0 60 56
3 61 18 57
3 61 62 18
3 62 63 18
3 63 64 18
3 64 65 18
3 65 66 18
3 66 67 18
3 67 68 18
3 65 69 66
3 65 70 69
3 61 71 62
3 71 72 62
3 73 59 58
3 73 74 59
3 75 74 73
3 75 76 74
3 77 76 75
3 77 78 76
3 79 78 77
3 79 80 78
3 81 80 79
3 81 82 80
3 83 82 81
3 83 84 82
3 85 84 83
3 85 86 84
3 87 86 85
3 87 88 86
3 89 88 87
3 89 90 88
3 89 91 90
3 92 91 89
3 92 93 91
3 94 93 92
3 94 95 93
3 96 95 94
3 96 97 95
3 98 97 96
3 98 99 97
3 100 99 98
3 100 101 99
3 102 101 100
3 102 103 101
3 104 103 102
3 104 105 103
3 106 105 104
3 106 107 105
3 108 107 106
3 108 109 107
3 110 109 108
3 110 111 109
3 112 111 110
3 113 111 112
3 113 114 111
3 115 114 113
3 116 114 115
3 117 114 116
3 118 114 117
3 119 114 118
3 120 114 119
3 121 114 120
3 122 114 121
3 123 114 122
3 124 114 123
3 125 114 124
3 126 114 125
3 126 127 114
