ply
format ascii 1.0
comment Created by Blender 2.90.0 - www.blender.org
element vertex 80
property float x
property float y
property float z
property uchar red
property uchar green
property uchar blue
property uchar alpha
element face 40
property list uchar uint vertex_indices
end_header
-0.009185 0.712606 0.000000 255 255 255 255
0.009185 0.611799 0.000000 255 255 255 255
0.009185 0.712606 0.000000 255 255 255 255
-0.009185 0.611799 0.000000 255 255 255 255
0.190815 0.712606 0.000000 255 255 255 255
0.209185 0.611800 0.000000 255 255 255 255
0.209185 0.712606 0.000000 255 255 255 255
0.190815 0.611800 0.000000 255 255 255 255
0.390815 0.712606 0.000000 255 255 255 255
0.409185 0.611800 0.000000 255 255 255 255
0.409185 0.712606 0.000000 255 255 255 255
0.390815 0.611800 0.000000 255 255 255 255
-0.409185 0.712606 0.000000 255 255 255 255
-0.390815 0.611799 0.000000 255 255 255 255
-0.390815 0.712606 0.000000 255 255 255 255
-0.409185 0.611799 0.000000 255 255 255 255
-0.209185 0.712606 0.000000 255 255 255 255
-0.190815 0.611799 0.000000 255 255 255 255
-0.190815 0.712606 0.000000 255 255 255 255
-0.209185 0.611799 0.000000 255 255 255 255
0.714442 0.007350 0.000000 255 255 255 255
0.613635 -0.011021 0.000000 255 255 255 255
0.714442 -0.011021 0.000000 255 255 255 255
0.613635 0.007350 0.000000 255 255 255 255
0.714442 -0.192650 0.000000 255 255 255 255
0.613635 -0.211021 0.000000 255 255 255 255
0.714442 -0.211021 0.000000 255 255 255 255
0.613635 -0.192650 0.000000 255 255 255 255
0.714442 -0.392650 0.000000 255 255 255 255
0.613635 -0.411021 0.000000 255 255 255 255
0.714442 -0.411021 0.000000 255 255 255 255
0.613635 -0.392650 0.000000 255 255 255 255
0.714441 0.407350 0.000000 255 255 255 255
0.613635 0.388979 0.000000 255 255 255 255
0.714441 0.388979 0.000000 255 255 255 255
0.613635 0.407350 0.000000 255 255 255 255
0.714442 0.207350 0.000000 255 255 255 255
0.613635 0.188979 0.000000 255 255 255 255
0.714442 0.188979 0.000000 255 255 255 255
0.613635 0.207350 0.000000 255 255 255 255
0.009185 -0.716277 0.000000 255 255 255 255
-0.009185 -0.615470 0.000000 255 255 255 255
-0.009185 -0.716277 0.000000 255 255 255 255
0.009185 -0.615470 0.000000 255 255 255 255
-0.190815 -0.716277 0.000000 255 255 255 255
-0.209185 -0.615470 0.000000 255 255 255 255
-0.209185 -0.716277 0.000000 255 255 255 255
-0.190815 -0.615470 0.000000 255 255 255 255
-0.390815 -0.716277 0.000000 255 255 255 255
-0.409185 -0.615470 0.000000 255 255 255 255
-0.409185 -0.716277 0.000000 255 255 255 255
-0.390815 -0.615470 0.000000 255 255 255 255
0.409185 -0.716277 0.000000 255 255 255 255
0.390815 -0.615470 0.000000 255 255 255 255
0.390815 -0.716277 0.000000 255 255 255 255
0.409185 -0.615470 0.000000 255 255 255 255
0.209185 -0.716277 0.000000 255 255 255 255
0.190815 -0.615470 0.000000 255 255 255 255
0.190815 -0.716277 0.000000 255 255 255 255
0.209185 -0.615470 0.000000 255 255 255 255
-0.714441 -0.011020 0.000000 255 255 255 255
-0.613635 0.007350 0.000000 255 255 255 255
-0.714441 0.007350 0.000000 255 255 255 255
-0.613635 -0.011020 0.000000 255 255 255 255
-0.714442 0.188980 0.000000 255 255 255 255
-0.613635 0.207350 0.000000 255 255 255 255
-0.714442 0.207350 0.000000 255 255 255 255
-0.613635 0.188980 0.000000 255 255 255 255
-0.714442 0.388980 0.000000 255 255 255 255
-0.613635 0.407350 0.000000 255 255 255 255
-0.714442 0.407350 0.000000 255 255 255 255
-0.613635 0.388980 0.000000 255 255 255 255
-0.714441 -0.411020 0.000000 255 255 255 255
-0.613635 -0.392650 0.000000 255 255 255 255
-0.714441 -0.392650 0.000000 255 255 255 255
-0.613635 -0.411020 0.000000 255 255 255 255
-0.714441 -0.211020 0.000000 255 255 255 255
-0.613635 -0.192650 0.000000 255 255 255 255
-0.714441 -0.192650 0.000000 255 255 255 255
-0.613635 -0.211020 0.000000 255 255 255 255
3 0 1 2
3 0 3 1
3 4 5 6
3 4 7 5
3 8 9 10
3 8 11 9
3 12 13 14
3 12 15 13
3 16 17 18
3 16 19 17
3 20 21 22
3 20 23 21
3 24 25 26
3 24 27 25
3 28 29 30
3 28 31 29
3 32 33 34
3 32 35 33
3 36 37 38
3 36 39 37
3 40 41 42
3 40 43 41
3 44 45 46
3 44 47 45
3 48 49 50
3 48 51 49
3 52 53 54
3 52 55 53
3 56 57 58
3 56 59 57
3 60 61 62
3 60 63 61
3 64 65 66
3 64 67 65
3 68 69 70
3 68 71 69
3 72 73 74
3 72 75 73
3 76 77 78
3 76 79 77
