ply
format ascii 1.0
comment Created by Blender 2.91.0 - www.blender.org
element vertex 81
property float x
property float y
property float z
element face 101
property list uchar uint vertex_indices
end_header
-1.005000 -2.010402 0.000000
-0.997299 -2.010402 0.000000
-1.016821 -2.006961 0.000000
-1.012701 -2.042907 0.000000
-1.012701 -2.010402 0.000000
-1.005000 -2.140421 0.000000
-1.012701 -2.140421 0.000000
-0.993243 -2.143901 0.000000
-5.016935 -6.134262 0.000000
-5.012702 -6.172815 0.000000
-5.012702 -6.140421 0.000000
-5.005000 -6.269996 0.000000
-5.012702 -6.269996 0.000000
-4.993124 -6.271469 0.000000
-0.993107 -2.007656 0.000000
-0.025000 -1.026536 0.000000
-0.040402 -1.029598 0.000000
-1.016843 -2.042907 0.000000
-4.997299 -6.140421 0.000000
-4.992839 -6.146410 0.000000
-1.016888 -2.130304 0.000000
-5.017002 -6.172815 0.000000
-5.016947 -6.272215 0.000000
-6.051421 -7.308137 0.000000
-6.029597 -7.308137 0.000000
-0.014928 -1.028372 0.000000
-0.023242 -1.023197 0.000000
-0.014320 -1.024299 0.000000
-5.005000 -6.205208 0.000000
-5.005000 -6.237602 0.000000
-4.997299 -6.237602 0.000000
-5.012702 -6.205208 0.000000
-5.017002 -6.205208 0.000000
-5.017002 -6.237602 0.000000
-5.012702 -6.237602 0.000000
-5.005000 -6.140421 0.000000
-4.997299 -6.172815 0.000000
-5.005000 -6.172815 0.000000
-4.997299 -6.205208 0.000000
-4.992999 -6.237602 0.000000
-4.992999 -6.205208 0.000000
-4.992999 -6.172815 0.000000
-4.997299 -6.269996 0.000000
-1.005000 -2.075412 0.000000
-1.005000 -2.107916 0.000000
-0.997299 -2.107916 0.000000
-1.012701 -2.075412 0.000000
-1.016843 -2.075412 0.000000
-1.016843 -2.107916 0.000000
-1.012701 -2.107916 0.000000
-0.997299 -2.042907 0.000000
-1.005000 -2.042907 0.000000
-0.997299 -2.075412 0.000000
-0.993157 -2.107916 0.000000
-0.993157 -2.075412 0.000000
-0.993157 -2.042907 0.000000
-0.997299 -2.140421 0.000000
-0.024245 -1.019051 0.000000
-0.029970 -1.019912 0.000000
-0.017730 -1.020603 0.000000
-0.033926 -1.023085 0.000000
-4.771169 -7.309363 0.000000
-6.041811 -7.295620 0.000000
-6.041811 -7.309363 0.000000
-4.771169 -7.295620 0.000000
-3.725413 -6.272977 0.000000
-5.004570 -6.259233 0.000000
-5.004570 -6.272977 0.000000
-3.725413 -6.259233 0.000000
-3.722498 -6.151754 0.000000
-5.003956 -6.129984 0.000000
-5.003956 -6.151754 0.000000
-3.722498 -6.129984 0.000000
0.262578 -2.147450 0.000000
-1.004861 -2.126240 0.000000
-1.004861 -2.147450 0.000000
0.262578 -2.126240 0.000000
0.268543 -2.021173 0.000000
-1.004861 -2.007429 0.000000
-1.004861 -2.021173 0.000000
0.268543 -2.007429 0.000000
3 0 1 2
3 2 3 4
3 5 6 7
3 8 9 10
3 11 12 13
3 14 15 16
3 2 17 3
3 18 19 20
3 8 21 9
3 22 23 24
3 25 26 15
3 25 27 26
3 28 29 30
3 28 31 29
3 32 33 34
3 35 36 18
3 35 37 36
3 28 30 38
3 38 39 40
3 38 30 39
3 30 13 39
3 36 38 40
3 36 37 38
3 37 28 38
3 18 41 19
3 18 36 41
3 36 40 41
3 34 12 11
3 34 33 12
3 33 22 12
3 29 34 11
3 29 31 34
3 31 32 34
3 30 42 13
3 30 29 42
3 29 11 42
3 9 31 28
3 9 21 31
3 21 32 31
3 10 37 35
3 10 9 37
3 9 28 37
3 43 44 45
3 43 46 44
3 47 48 49
3 0 50 1
3 0 51 50
3 43 45 52
3 52 53 54
3 52 45 53
3 45 7 53
3 50 52 54
3 50 51 52
3 51 43 52
3 1 55 14
3 1 50 55
3 50 54 55
3 49 6 5
3 49 48 6
3 48 20 6
3 44 49 5
3 44 46 49
3 46 47 49
3 45 56 7
3 45 44 56
3 44 5 56
3 3 46 43
3 3 17 46
3 17 47 46
3 4 51 0
3 4 3 51
3 3 43 51
3 1 14 16
3 16 2 1
3 2 4 0
3 6 20 19
3 19 7 6
3 7 56 5
3 12 22 24
3 24 13 12
3 13 42 11
3 20 8 18
3 8 10 35
3 35 18 8
3 26 57 58
3 26 27 57
3 27 59 57
3 15 60 16
3 15 26 60
3 26 58 60
3 14 25 15
3 61 62 63
3 61 64 62
3 65 66 67
3 65 68 66
3 69 70 71
3 69 72 70
3 73 74 75
3 73 76 74
3 77 78 79
3 77 80 78
