ply
format ascii 1.0
comment Created by Blender 2.91.0 - www.blender.org
element vertex 20
property float x
property float y
property float z
element face 10
property list uchar uint vertex_indices
end_header
1.001107 -2.119227 0.000000
-0.998893 -2.105483 0.000000
-0.998893 -2.119227 0.000000
1.001107 -2.105483 0.000000
-2.998893 -6.127666 0.000000
-4.998893 -6.113922 0.000000
-4.998893 -6.127666 0.000000
-2.998893 -6.113922 0.000000
-2.998893 -6.247665 0.000000
-4.998893 -6.233922 0.000000
-4.998893 -6.247665 0.000000
-2.998893 -6.233922 0.000000
-4.028101 -7.298446 0.000000
-6.029685 -7.284703 0.000000
-6.029685 -7.298446 0.000000
-4.028101 -7.284703 0.000000
1.001107 -2.008962 0.000000
-0.998893 -1.995219 0.000000
-0.998893 -2.008962 0.000000
1.001107 -1.995219 0.000000
3 0 1 2
3 0 3 1
3 4 5 6
3 4 7 5
3 8 9 10
3 8 11 9
3 12 13 14
3 12 15 13
3 16 17 18
3 16 19 17
