ply
format ascii 1.0
comment Created by Blender 2.82 (sub 7) - www.blender.org, source file: 'perspective_layer.blend'
element vertex 16
property float x
property float y
property float z
property uchar red
property uchar green
property uchar blue
property uchar alpha
element face 12
property list uchar uint vertex_indices
end_header
-6.690000 -6.700000 0.000000 255 0 255 100
-1.010000 -1.000000 0.000000 255 0 255 100
-6.710000 -6.700000 0.000000 255 0 255 100
-0.990000 -1.000000 0.000000 255 0 255 100
-6.610000 -6.710000 0.000000 255 0 255 100
-6.500000 -6.700000 0.000000 255 0 255 100
-6.705731 -6.710000 0.000000 255 0 255 100
-6.510000 -6.710000 0.000000 255 0 255 100
-4.690000 -6.700000 0.000000 255 0 255 100
0.990000 -1.000000 0.000000 255 0 255 100
-4.710000 -6.700000 0.000000 255 0 255 100
1.010000 -1.000000 0.000000 255 0 255 100
-4.706754 -6.710000 0.000000 255 0 255 100
-4.910000 -6.710000 0.000000 255 0 255 100
-4.810000 -6.710000 0.000000 255 0 255 100
-4.900000 -6.700000 0.000000 255 0 255 100
3 0 1 2
3 0 3 1
3 2 4 0
3 4 5 0
3 2 6 4
3 4 7 5
3 8 9 10
3 8 11 9
3 10 12 8
3 10 13 14
3 10 14 12
3 10 15 13
