ply
format ascii 1.0
comment Created by Blender 2.91.0 - www.blender.org
element vertex 76
property float x
property float y
property float z
element face 94
property list uchar uint vertex_indices
end_header
-1.005000 -2.010402 0.000000
-0.997299 -2.010402 0.000000
-1.016821 -2.006961 0.000000
-1.012701 -2.042907 0.000000
-1.012701 -2.010402 0.000000
-1.005000 -2.140421 0.000000
-1.012701 -2.140421 0.000000
-0.993243 -2.143901 0.000000
-5.016935 -6.136959 0.000000
-5.012702 -6.172815 0.000000
-5.012702 -6.140421 0.000000
-5.005000 -6.269996 0.000000
-5.012702 -6.269996 0.000000
-4.993124 -6.273297 0.000000
-0.993107 -2.015248 0.000000
-0.009598 -1.029598 0.000000
-0.040402 -1.029598 0.000000
-1.016843 -2.042907 0.000000
-4.997299 -6.140421 0.000000
-4.992839 -6.143410 0.000000
-1.016888 -2.136960 0.000000
-5.017002 -6.172815 0.000000
-5.016947 -6.266515 0.000000
-6.060402 -7.309995 0.000000
-6.029597 -7.309995 0.000000
-0.030402 -1.019598 0.000000
-0.019598 -1.019598 0.000000
-5.005000 -6.205208 0.000000
-5.005000 -6.237602 0.000000
-4.997299 -6.237602 0.000000
-5.012702 -6.205208 0.000000
-5.017002 -6.205208 0.000000
-5.017002 -6.237602 0.000000
-5.012702 -6.237602 0.000000
-5.005000 -6.140421 0.000000
-4.997299 -6.172815 0.000000
-5.005000 -6.172815 0.000000
-4.997299 -6.205208 0.000000
-4.992999 -6.237602 0.000000
-4.992999 -6.205208 0.000000
-4.992999 -6.172815 0.000000
-4.997299 -6.269996 0.000000
-1.005000 -2.075412 0.000000
-1.005000 -2.107916 0.000000
-0.997299 -2.107916 0.000000
-1.012701 -2.075412 0.000000
-1.016843 -2.075412 0.000000
-1.016843 -2.107916 0.000000
-1.012701 -2.107916 0.000000
-0.997299 -2.042907 0.000000
-1.005000 -2.042907 0.000000
-0.997299 -2.075412 0.000000
-0.993157 -2.107916 0.000000
-0.993157 -2.075412 0.000000
-0.993157 -2.042907 0.000000
-0.997299 -2.140421 0.000000
-4.771169 -7.309363 0.000000
-6.041811 -7.295620 0.000000
-6.041811 -7.309363 0.000000
-4.771169 -7.295620 0.000000
-3.725413 -6.272977 0.000000
-5.004570 -6.259233 0.000000
-5.004570 -6.272977 0.000000
-3.725413 -6.259233 0.000000
-3.722498 -6.150967 0.000000
-5.003956 -6.137224 0.000000
-5.003956 -6.150967 0.000000
-3.722498 -6.137224 0.000000
0.262578 -2.143717 0.000000
-1.004861 -2.129973 0.000000
-1.004861 -2.143717 0.000000
0.262578 -2.129973 0.000000
0.268543 -2.021173 0.000000
-1.004861 -2.007429 0.000000
-1.004861 -2.021173 0.000000
0.268543 -2.007429 0.000000
3 0 1 2
3 2 3 4
3 5 6 7
3 8 9 10
3 11 12 13
3 14 15 16
3 2 17 3
3 18 19 20
3 8 21 9
3 22 23 24
3 15 25 16
3 15 26 25
3 27 28 29
3 27 30 28
3 31 32 33
3 34 35 18
3 34 36 35
3 27 29 37
3 37 38 39
3 37 29 38
3 29 13 38
3 35 37 39
3 35 36 37
3 36 27 37
3 18 40 19
3 18 35 40
3 35 39 40
3 33 12 11
3 33 32 12
3 32 22 12
3 28 33 11
3 28 30 33
3 30 31 33
3 29 41 13
3 29 28 41
3 28 11 41
3 9 30 27
3 9 21 30
3 21 31 30
3 10 36 34
3 10 9 36
3 9 27 36
3 42 43 44
3 42 45 43
3 46 47 48
3 0 49 1
3 0 50 49
3 42 44 51
3 51 52 53
3 51 44 52
3 44 7 52
3 49 51 53
3 49 50 51
3 50 42 51
3 1 54 14
3 1 49 54
3 49 53 54
3 48 6 5
3 48 47 6
3 47 20 6
3 43 48 5
3 43 45 48
3 45 46 48
3 44 55 7
3 44 43 55
3 43 5 55
3 3 45 42
3 3 17 45
3 17 46 45
3 4 50 0
3 4 3 50
3 3 42 50
3 1 14 16
3 16 2 1
3 2 4 0
3 6 20 19
3 19 7 6
3 7 55 5
3 12 22 24
3 24 13 12
3 13 41 11
3 20 8 18
3 8 10 34
3 34 18 8
3 56 57 58
3 56 59 57
3 60 61 62
3 60 63 61
3 64 65 66
3 64 67 65
3 68 69 70
3 68 71 69
3 72 73 74
3 72 75 73
