ply
format ascii 1.0
comment Created by Blender 2.82 (sub 7) - www.blender.org, source file: 'point.blend'
element vertex 97
property float x
property float y
property float z
property float nx
property float ny
property float nz
property float s
property float t
property uchar red
property uchar green
property uchar blue
property uchar alpha
element face 160
property list uchar uint vertex_indices
end_header
0.828712 -0.553724 0.000000 0.000000 -0.000000 -1.000000 0.000000 0.000000 255 255 255 255
0.681950 -0.681947 0.000000 0.000000 -0.000000 -1.000000 0.000000 0.000000 255 255 255 255
0.801889 -0.535801 0.000000 0.000000 -0.000000 -1.000000 0.000000 0.000000 255 255 255 255
-0.977535 0.194448 0.000000 0.000000 0.000000 -1.000000 0.000000 0.000000 255 255 255 255
-0.964426 0.000004 0.000000 0.000000 0.000000 -1.000000 0.000000 0.000000 255 255 255 255
-0.996686 0.000004 0.000000 0.000000 0.000000 -1.000000 0.000000 0.000000 255 255 255 255
0.891011 -0.369065 0.000000 -0.000000 0.000000 -1.000000 0.000000 0.000000 255 255 255 255
0.920816 -0.381410 0.000000 -0.000000 0.000000 -1.000000 0.000000 0.000000 255 255 255 255
-0.945895 -0.188146 0.000000 0.000000 0.000000 -1.000000 0.000000 0.000000 255 255 255 255
-0.977535 -0.194439 0.000000 0.000000 0.000000 -1.000000 0.000000 0.000000 255 255 255 255
0.977532 -0.194439 0.000000 0.000000 -0.000000 -1.000000 0.000000 0.000000 255 255 255 255
0.945892 -0.188145 0.000000 0.000000 -0.000000 -1.000000 0.000000 0.000000 255 255 255 255
-0.891014 -0.369065 0.000000 0.000000 0.000000 -1.000000 0.000000 0.000000 255 255 255 255
-0.920818 -0.381411 0.000000 0.000000 0.000000 -1.000000 0.000000 0.000000 255 255 255 255
0.996683 0.000005 0.000000 0.000000 -0.000000 -1.000000 0.000000 0.000000 255 255 255 255
0.964423 0.000005 0.000000 0.000000 -0.000000 -1.000000 0.000000 0.000000 255 255 255 255
-0.801891 -0.535801 0.000000 0.000000 0.000000 -1.000000 0.000000 0.000000 255 255 255 255
-0.828714 -0.553724 0.000000 0.000000 0.000000 -1.000000 0.000000 0.000000 255 255 255 255
0.977532 0.194449 0.000000 0.000000 0.000000 -1.000000 0.000000 0.000000 255 255 255 255
0.945892 0.188155 0.000000 0.000000 0.000000 -1.000000 0.000000 0.000000 255 255 255 255
-0.681953 -0.681947 0.000000 0.000000 0.000000 -1.000000 0.000000 0.000000 255 255 255 255
-0.704764 -0.704759 0.000000 0.000000 0.000000 -1.000000 0.000000 0.000000 255 255 255 255
0.920815 0.381420 0.000000 0.000000 0.000000 -1.000000 0.000000 0.000000 255 255 255 255
0.891010 0.369074 0.000000 0.000000 0.000000 -1.000000 0.000000 0.000000 255 255 255 255
-0.535807 -0.801886 0.000000 0.000000 0.000000 -1.000000 0.000000 0.000000 255 255 255 255
-0.553730 -0.828709 0.000000 0.000000 0.000000 -1.000000 0.000000 0.000000 255 255 255 255
0.801888 0.535811 0.000000 0.000000 -0.000000 -1.000000 0.000000 0.000000 255 255 255 255
0.828711 0.553733 0.000000 0.000000 -0.000000 -1.000000 0.000000 0.000000 255 255 255 255
-0.369071 -0.891008 0.000000 0.000000 0.000000 -1.000000 0.000000 0.000000 255 255 255 255
-0.381416 -0.920813 0.000000 0.000000 0.000000 -1.000000 0.000000 0.000000 255 255 255 255
-0.194445 0.977538 0.000000 0.000000 0.000000 -1.000000 0.000000 0.000000 255 255 255 255
-0.000002 0.964428 0.000000 0.000000 0.000000 -1.000000 0.000000 0.000000 255 255 255 255
-0.188151 0.945897 0.000000 0.000000 0.000000 -1.000000 0.000000 0.000000 255 255 255 255
0.704760 0.704768 0.000000 0.000000 0.000000 -1.000000 0.000000 0.000000 255 255 255 255
0.681949 0.681956 0.000000 0.000000 0.000000 -1.000000 0.000000 0.000000 255 255 255 255
-0.188151 -0.945889 0.000000 0.000000 0.000000 -1.000000 0.000000 0.000000 255 255 255 255
-0.194445 -0.977530 0.000000 0.000000 0.000000 -1.000000 0.000000 0.000000 255 255 255 255
-0.369071 0.891016 0.000000 0.000000 0.000000 -1.000000 0.000000 0.000000 255 255 255 255
-0.381416 0.920821 0.000000 0.000000 0.000000 -1.000000 0.000000 0.000000 255 255 255 255
0.553726 0.828718 0.000000 0.000000 0.000000 -1.000000 0.000000 0.000000 255 255 255 255
0.535803 0.801894 0.000000 0.000000 0.000000 -1.000000 0.000000 0.000000 255 255 255 255
-0.000001 -0.964421 0.000000 -0.000000 0.000000 -1.000000 0.000000 0.000000 255 255 255 255
-0.000001 -0.996681 0.000000 -0.000000 0.000000 -1.000000 0.000000 0.000000 255 255 255 255
-0.535807 0.801894 0.000000 0.000000 0.000000 -1.000000 0.000000 0.000000 255 255 255 255
-0.553730 0.828717 0.000000 0.000000 0.000000 -1.000000 0.000000 0.000000 255 255 255 255
0.381412 0.920821 0.000000 0.000000 0.000000 -1.000000 0.000000 0.000000 255 255 255 255
0.369066 0.891017 0.000000 0.000000 0.000000 -1.000000 0.000000 0.000000 255 255 255 255
0.188149 -0.945889 0.000000 -0.000000 0.000000 -1.000000 0.000000 0.000000 255 255 255 255
0.194442 -0.977530 0.000000 -0.000000 0.000000 -1.000000 0.000000 0.000000 255 255 255 255
-0.704764 0.704767 0.000000 -0.000000 0.000000 -1.000000 0.000000 0.000000 255 255 255 255
-0.681953 0.681955 0.000000 -0.000000 0.000000 -1.000000 0.000000 0.000000 255 255 255 255
0.194441 0.977538 0.000000 0.000000 0.000000 -1.000000 0.000000 0.000000 255 255 255 255
0.188147 0.945897 0.000000 0.000000 0.000000 -1.000000 0.000000 0.000000 255 255 255 255
0.381414 -0.920812 0.000000 0.000000 -0.000000 -1.000000 0.000000 0.000000 255 255 255 255
0.369068 -0.891008 0.000000 0.000000 -0.000000 -1.000000 0.000000 0.000000 255 255 255 255
-0.801891 0.535810 0.000000 0.000000 0.000000 -1.000000 0.000000 0.000000 255 255 255 255
-0.828714 0.553732 0.000000 0.000000 0.000000 -1.000000 0.000000 0.000000 255 255 255 255
-0.000001 0.996689 0.000000 0.000000 -0.000000 -1.000000 0.000000 0.000000 255 255 255 255
0.535805 -0.801885 0.000000 -0.000000 0.000000 -1.000000 0.000000 0.000000 255 255 255 255
0.553728 -0.828709 0.000000 -0.000000 0.000000 -1.000000 0.000000 0.000000 255 255 255 255
-0.891014 0.369073 0.000000 0.000000 0.000000 -1.000000 0.000000 0.000000 255 255 255 255
-0.920818 0.381419 0.000000 0.000000 0.000000 -1.000000 0.000000 0.000000 255 255 255 255
0.704762 -0.704758 0.000000 0.000000 -0.000000 -1.000000 0.000000 0.000000 255 255 255 255
-0.945895 0.188154 0.000000 0.000000 0.000000 -1.000000 0.000000 0.000000 255 255 255 255
0.785846 -0.525082 0.000000 0.000000 -0.000000 -1.000000 0.000000 0.000000 255 255 255 65
0.873186 -0.361681 0.000000 0.000000 -0.000000 -1.000000 0.000000 0.000000 255 255 255 65
-0.926972 -0.184382 0.000000 0.000000 0.000000 -1.000000 0.000000 0.000000 255 255 255 65
0.926969 -0.184381 0.000000 -0.000000 0.000000 -1.000000 0.000000 0.000000 255 255 255 65
-0.873189 -0.361682 0.000000 0.000000 0.000000 -1.000000 0.000000 0.000000 255 255 255 65
0.945129 0.000005 0.000000 0.000000 -0.000000 -1.000000 0.000000 0.000000 255 255 255 65
-0.785849 -0.525082 0.000000 0.000000 0.000000 -1.000000 0.000000 0.000000 255 255 255 65
0.926968 0.184391 0.000000 0.000000 0.000000 -1.000000 0.000000 0.000000 255 255 255 65
-0.668310 -0.668304 0.000000 0.000000 0.000000 -1.000000 0.000000 0.000000 255 255 255 65
0.873185 0.361691 0.000000 0.000000 0.000000 -1.000000 0.000000 0.000000 255 255 255 65
-0.525088 -0.785844 0.000000 0.000000 0.000000 -1.000000 0.000000 0.000000 255 255 255 65
0.785845 0.525092 0.000000 0.000000 -0.000000 -1.000000 0.000000 0.000000 255 255 255 65
-0.361687 -0.873183 0.000000 0.000000 0.000000 -1.000000 0.000000 0.000000 255 255 255 65
-0.000002 0.945134 0.000000 0.000000 0.000000 -1.000000 0.000000 0.000000 255 255 255 65
-0.184387 0.926974 0.000000 0.000000 0.000000 -1.000000 0.000000 0.000000 255 255 255 65
0.668306 0.668313 0.000000 0.000000 0.000000 -1.000000 0.000000 0.000000 255 255 255 65
-0.184387 -0.926966 0.000000 0.000000 0.000000 -1.000000 0.000000 0.000000 255 255 255 65
-0.361687 0.873191 0.000000 -0.000000 0.000000 -1.000000 0.000000 0.000000 255 255 255 65
0.525084 0.785852 0.000000 0.000000 -0.000000 -1.000000 0.000000 0.000000 255 255 255 65
-0.000001 -0.945127 0.000000 -0.000000 0.000000 -1.000000 0.000000 0.000000 255 255 255 65
-0.525088 0.785852 0.000000 -0.000000 0.000000 -1.000000 0.000000 0.000000 255 255 255 65
0.361683 0.873192 0.000000 0.000000 -0.000000 -1.000000 0.000000 0.000000 255 255 255 65
0.184385 -0.926966 0.000000 -0.000000 0.000000 -1.000000 0.000000 0.000000 255 255 255 65
-0.668310 0.668312 0.000000 0.000000 0.000000 -1.000000 0.000000 0.000000 255 255 255 65
0.184383 0.926975 0.000000 0.000000 0.000000 -1.000000 0.000000 0.000000 255 255 255 65
0.361685 -0.873183 0.000000 0.000000 -0.000000 -1.000000 0.000000 0.000000 255 255 255 65
-0.785849 0.525090 0.000000 0.000000 0.000000 -1.000000 0.000000 0.000000 255 255 255 65
0.525085 -0.785843 0.000000 -0.000000 0.000000 -1.000000 0.000000 0.000000 255 255 255 65
-0.873189 0.361690 0.000000 0.000000 0.000000 -1.000000 0.000000 0.000000 255 255 255 65
0.668307 -0.668304 0.000000 0.000000 -0.000000 -1.000000 0.000000 0.000000 255 255 255 65
-0.926972 0.184390 0.000000 0.000000 0.000000 -1.000000 0.000000 0.000000 255 255 255 65
-0.945132 0.000004 0.000000 0.000000 0.000000 -1.000000 0.000000 0.000000 255 255 255 65
-0.000002 0.000004 0.000000 0.000000 -0.000000 -1.000000 0.000000 0.000000 255 255 255 65
3 0 1 2
3 3 4 5
3 0 6 7
3 5 8 9
3 10 6 11
3 9 12 13
3 14 11 15
3 13 16 17
3 18 15 19
3 17 20 21
3 22 19 23
3 21 24 25
3 22 26 27
3 25 28 29
3 30 31 32
3 33 26 34
3 29 35 36
3 30 37 38
3 39 34 40
3 36 41 42
3 38 43 44
3 45 40 46
3 42 47 48
3 49 43 50
3 51 46 52
3 53 47 54
3 49 55 56
3 51 31 57
3 53 58 59
3 56 60 61
3 62 58 1
3 61 63 3
3 6 64 65
3 4 66 8
3 6 67 11
3 8 68 12
3 11 69 15
3 12 70 16
3 19 69 71
3 16 72 20
3 23 71 73
3 20 74 24
3 23 75 26
3 24 76 28
3 32 77 78
3 34 75 79
3 28 80 35
3 37 78 81
3 34 82 40
3 35 83 41
3 43 81 84
3 40 85 46
3 41 86 47
3 43 87 50
3 52 85 88
3 54 86 89
3 50 90 55
3 52 77 31
3 54 91 58
3 55 92 60
3 1 91 93
3 60 94 63
3 1 64 2
3 63 95 4
3 69 96 71
3 72 96 74
3 73 96 75
3 74 96 76
3 78 96 81
3 79 96 82
3 80 96 83
3 81 96 84
3 82 96 85
3 87 96 90
3 88 96 77
3 90 96 92
3 91 96 93
3 92 96 94
3 93 96 64
3 94 96 95
3 65 96 67
3 66 96 68
3 67 96 69
3 68 96 70
3 0 62 1
3 3 63 4
3 0 2 6
3 5 4 8
3 10 7 6
3 9 8 12
3 14 10 11
3 13 12 16
3 18 14 15
3 17 16 20
3 22 18 19
3 21 20 24
3 22 23 26
3 25 24 28
3 30 57 31
3 33 27 26
3 29 28 35
3 30 32 37
3 39 33 34
3 36 35 41
3 38 37 43
3 45 39 40
3 42 41 47
3 49 44 43
3 51 45 46
3 53 48 47
3 49 50 55
3 51 52 31
3 53 54 58
3 56 55 60
3 62 59 58
3 61 60 63
3 6 2 64
3 4 95 66
3 6 65 67
3 8 66 68
3 11 67 69
3 12 68 70
3 19 15 69
3 16 70 72
3 23 19 71
3 20 72 74
3 23 73 75
3 24 74 76
3 32 31 77
3 34 26 75
3 28 76 80
3 37 32 78
3 34 79 82
3 35 80 83
3 43 37 81
3 40 82 85
3 41 83 86
3 43 84 87
3 52 46 85
3 54 47 86
3 50 87 90
3 52 88 77
3 54 89 91
3 55 90 92
3 1 58 91
3 60 92 94
3 1 93 64
3 63 94 95
3 72 70 96
3 73 71 96
3 78 77 96
3 79 75 96
3 80 76 96
3 86 83 96
3 87 84 96
3 88 85 96
3 89 86 96
3 91 89 96
3 65 64 96
3 66 95 96
