ply
format ascii 1.0
comment Created by Blender 2.82 (sub 7) - www.blender.org, source file: 'square.blend'
element vertex 8
property float x
property float y
property float z
property float s
property float t
property uchar red
property uchar green
property uchar blue
property uchar alpha
element face 8
property list uchar uint vertex_indices
end_header
1.000000 -1.000000 0.000000 0.202616 0.797384 255 255 255 255
-1.300000 -1.300000 0.000000 1.000000 1.000000 255 255 255 65
1.300000 -1.300000 0.000000 0.000000 1.000000 255 255 255 65
-1.000000 -1.000000 0.000000 0.797384 0.797384 255 255 255 255
-1.300000 1.300000 0.000000 1.000000 0.000000 255 255 255 65
1.000000 1.000000 0.000000 0.202616 0.202616 255 255 255 255
1.300000 1.300000 0.000000 0.000000 0.000000 255 255 255 65
-1.000000 1.000000 0.000000 0.797384 0.202616 255 255 255 255
3 0 1 2
3 3 4 1
3 5 2 6
3 7 6 4
3 0 3 1
3 3 7 4
3 5 0 2
3 7 5 6
