ply
format ascii 1.0
comment Created by Blender 2.82 (sub 7) - www.blender.org, source file: 'perspective_layer.blend'
element vertex 18
property float x
property float y
property float z
property float nx
property float ny
property float nz
property float s
property float t
property uchar red
property uchar green
property uchar blue
property uchar alpha
element face 14
property list uchar uint vertex_indices
end_header
-5.590000 -6.600000 0.000000 -0.000000 0.000000 1.000000 1.000000 0.000000 255 255 255 0
-0.010000 -1.000000 0.000000 -0.000000 0.000000 1.000000 0.000000 1.000000 255 255 255 0
-5.610000 -6.600000 0.000000 -0.000000 0.000000 1.000000 0.000000 0.000000 255 255 255 0
0.010000 -1.000000 0.000000 -0.000000 0.000000 1.000000 1.000000 1.000000 255 255 255 0
-5.510000 -6.610000 0.000000 0.000000 0.000000 1.000000 1.000000 0.000000 255 255 255 0
-5.400000 -6.600000 0.000000 -0.000000 0.000000 1.000000 1.000000 0.000000 255 255 255 0
-5.810000 -6.610000 0.000000 0.000000 -0.000000 1.000000 0.000000 0.000000 255 255 255 0
-5.710000 -6.610000 0.000000 0.000000 -0.000000 1.000000 0.000000 0.000000 255 255 255 0
-5.410000 -6.610000 0.000000 0.000000 0.000000 1.000000 1.000000 0.000000 255 255 255 0
-5.800000 -6.600000 0.000000 0.000000 0.000000 1.000000 0.000000 0.000000 255 255 255 0
2.000000 -1.000000 0.000000 -0.000000 0.000000 1.000000 0.997287 0.092069 255 255 255 0
1.000000 0.000000 0.000000 -0.000000 0.000000 1.000000 0.664620 0.536899 255 255 255 255
1.000000 -1.000000 0.000000 -0.000000 0.000000 1.000000 0.664620 0.092069 255 255 255 255
2.000000 0.000000 0.000000 -0.000000 0.000000 1.000000 0.997287 0.536899 255 255 255 0
2.000000 -1.200000 0.000000 0.000000 0.000000 1.000000 0.997287 0.003103 255 255 255 0
-0.800000 -1.200000 0.000000 0.000000 -0.000000 1.000000 0.065820 0.003103 255 255 255 0
1.000000 -1.200000 0.000000 0.000000 -0.000000 1.000000 0.664620 0.003103 255 255 255 0
-0.800000 -1.000000 0.000000 0.000000 0.000000 1.000000 0.065820 0.092069 255 255 255 255
3 0 1 2
3 0 3 1
3 2 4 0
3 4 5 0
3 2 6 7
3 2 7 4
3 4 8 5
3 2 9 6
3 10 11 12
3 10 13 11
3 12 14 10
3 12 15 16
3 12 16 14
3 12 17 15
