ply
format ascii 1.0
comment Created by Blender 2.90.0 - www.blender.org
element vertex 25
property float x
property float y
property float z
property uchar red
property uchar green
property uchar blue
property uchar alpha
element face 28
property list uchar uint vertex_indices
end_header
0.037335 0.043924 0.000000 255 255 255 255
0.041042 0.041042 0.000000 255 255 255 255
0.041042 0.043101 0.000000 255 255 255 255
-0.043924 0.037335 0.000000 255 255 255 255
-0.041042 0.041042 0.000000 255 255 255 255
-0.043101 0.041042 0.000000 255 255 255 255
0.000000 0.000000 0.000000 255 255 255 255
-0.043924 -0.037335 0.000000 255 255 255 255
-0.037335 -0.043924 0.000000 255 255 255 255
0.037335 -0.043924 0.000000 255 255 255 255
0.041042 -0.043101 0.000000 255 255 255 255
0.041042 -0.041042 0.000000 255 255 255 255
0.043924 -0.037335 0.000000 255 255 255 255
-0.037335 0.043924 0.000000 255 255 255 255
0.043924 0.037335 0.000000 255 255 255 255
-0.043101 -0.041042 0.000000 255 255 255 255
-0.041042 -0.041042 0.000000 255 255 255 255
-0.041042 -0.043101 0.000000 255 255 255 255
0.043101 -0.041042 0.000000 255 255 255 255
-0.041042 0.043101 0.000000 255 255 255 255
0.043101 0.041042 0.000000 255 255 255 255
0.000000 -0.043924 0.000000 255 255 255 255
-0.043924 0.000000 0.000000 255 255 255 255
0.043924 0.000000 0.000000 255 255 255 255
0.000000 0.043924 0.000000 255 255 255 255
3 0 1 2
3 3 4 5
3 6 7 8
3 9 10 11
3 9 12 6
3 6 13 3
3 6 14 0
3 15 16 7
3 15 17 16
3 17 8 16
3 11 18 12
3 11 10 18
3 5 4 19
3 4 13 19
3 2 1 20
3 1 14 20
3 16 8 7
3 8 21 6
3 6 22 7
3 6 21 9
3 9 11 12
3 12 23 6
3 3 22 6
3 6 24 13
3 13 4 3
3 24 6 0
3 6 23 14
3 0 14 1
