ply
format ascii 1.0
comment Created by Blender 2.82 (sub 7) - www.blender.org, source file: 'target.blend'
element vertex 160
property float x
property float y
property float z
property uchar red
property uchar green
property uchar blue
property uchar alpha
element face 160
property list uchar uint vertex_indices
end_header
-0.828712 -0.553724 0.000000 255 255 255 255
-0.696734 -0.696731 0.000000 255 255 255 255
-0.819273 -0.547417 0.000000 255 255 255 255
0.977535 0.194448 0.000000 255 255 255 255
0.985334 0.000004 0.000000 255 255 255 255
0.996686 0.000004 0.000000 255 255 255 255
-0.910327 -0.377066 0.000000 255 255 255 255
-0.920816 -0.381410 0.000000 255 255 255 255
0.966401 -0.192225 0.000000 255 255 255 255
0.977535 -0.194439 0.000000 255 255 255 255
-0.977532 -0.194439 0.000000 255 255 255 255
-0.966398 -0.192224 0.000000 255 255 255 255
0.910330 -0.377066 0.000000 255 255 255 255
0.920818 -0.381411 0.000000 255 255 255 255
-0.996683 0.000005 0.000000 255 255 255 255
-0.985331 0.000005 0.000000 255 255 255 255
0.819275 -0.547417 0.000000 255 255 255 255
0.828714 -0.553724 0.000000 255 255 255 255
-0.977532 0.194449 0.000000 255 255 255 255
-0.966398 0.192234 0.000000 255 255 255 255
0.696737 -0.696731 0.000000 255 255 255 255
0.704764 -0.704759 0.000000 255 255 255 255
-0.920815 0.381420 0.000000 255 255 255 255
-0.910327 0.377075 0.000000 255 255 255 255
0.547423 -0.819270 0.000000 255 255 255 255
0.553730 -0.828709 0.000000 255 255 255 255
-0.819272 0.547426 0.000000 255 255 255 255
-0.828711 0.553733 0.000000 255 255 255 255
0.377072 -0.910325 0.000000 255 255 255 255
0.381416 -0.920813 0.000000 255 255 255 255
0.194445 0.977538 0.000000 255 255 255 255
0.000002 0.985337 0.000000 255 255 255 255
0.192230 0.966404 0.000000 255 255 255 255
-0.704760 0.704768 0.000000 255 255 255 255
-0.696733 0.696740 0.000000 255 255 255 255
0.192230 -0.966396 0.000000 255 255 255 255
0.194445 -0.977530 0.000000 255 255 255 255
0.377072 0.910332 0.000000 255 255 255 255
0.381416 0.920821 0.000000 255 255 255 255
-0.553726 0.828718 0.000000 255 255 255 255
-0.547419 0.819279 0.000000 255 255 255 255
0.000001 -0.985329 0.000000 255 255 255 255
0.000001 -0.996681 0.000000 255 255 255 255
0.547423 0.819278 0.000000 255 255 255 255
0.553730 0.828717 0.000000 255 255 255 255
-0.381412 0.920821 0.000000 255 255 255 255
-0.377068 0.910333 0.000000 255 255 255 255
-0.192228 -0.966396 0.000000 255 255 255 255
-0.194442 -0.977530 0.000000 255 255 255 255
0.704764 0.704767 0.000000 255 255 255 255
0.696737 0.696740 0.000000 255 255 255 255
-0.194441 0.977538 0.000000 255 255 255 255
-0.192226 0.966404 0.000000 255 255 255 255
-0.381414 -0.920812 0.000000 255 255 255 255
-0.377069 -0.910324 0.000000 255 255 255 255
0.819275 0.547425 0.000000 255 255 255 255
0.828714 0.553732 0.000000 255 255 255 255
0.000001 0.996689 0.000000 255 255 255 255
-0.547421 -0.819269 0.000000 255 255 255 255
-0.553728 -0.828709 0.000000 255 255 255 255
0.910330 0.377075 0.000000 255 255 255 255
0.920818 0.381419 0.000000 255 255 255 255
-0.704762 -0.704758 0.000000 255 255 255 255
0.966401 0.192233 0.000000 255 255 255 255
-0.802883 -0.536465 0.000000 255 255 255 128
-0.892116 -0.369522 0.000000 255 255 255 128
0.947068 -0.188379 0.000000 255 255 255 128
-0.947065 -0.188378 0.000000 255 255 255 128
0.892119 -0.369523 0.000000 255 255 255 128
-0.965619 0.000005 0.000000 255 255 255 128
0.802886 -0.536466 0.000000 255 255 255 128
-0.947065 0.188388 0.000000 255 255 255 128
0.682798 -0.682793 0.000000 255 255 255 128
-0.892115 0.369532 0.000000 255 255 255 128
0.536471 -0.802880 0.000000 255 255 255 128
-0.802882 0.536475 0.000000 255 255 255 128
0.369528 -0.892113 0.000000 255 255 255 128
0.000002 0.965624 0.000000 255 255 255 128
0.188385 0.947070 0.000000 255 255 255 128
-0.682795 0.682802 0.000000 255 255 255 128
0.188385 -0.947062 0.000000 255 255 255 128
0.369528 0.892121 0.000000 255 255 255 128
-0.536467 0.802889 0.000000 255 255 255 128
0.000001 -0.965616 0.000000 255 255 255 128
0.536472 0.802888 0.000000 255 255 255 128
-0.369524 0.892122 0.000000 255 255 255 128
-0.188382 -0.947062 0.000000 255 255 255 128
0.682798 0.682801 0.000000 255 255 255 128
-0.188380 0.947071 0.000000 255 255 255 128
-0.369526 -0.892113 0.000000 255 255 255 128
0.802886 0.536474 0.000000 255 255 255 128
-0.536469 -0.802880 0.000000 255 255 255 128
0.892119 0.369531 0.000000 255 255 255 128
-0.682796 -0.682792 0.000000 255 255 255 128
0.947068 0.188387 0.000000 255 255 255 128
0.965622 0.000004 0.000000 255 255 255 128
0.798841 -0.020279 0.000000 255 255 255 128
0.947146 0.020279 0.000000 255 255 255 128
0.947146 -0.020279 0.000000 255 255 255 128
0.798841 0.020279 0.000000 255 255 255 128
0.598522 -0.020279 0.000000 255 255 255 128
0.699328 0.020279 0.000000 255 255 255 128
0.699328 -0.020279 0.000000 255 255 255 128
0.598522 0.020279 0.000000 255 255 255 128
0.399188 -0.020279 0.000000 255 255 255 128
0.499995 0.020279 0.000000 255 255 255 128
0.499995 -0.020279 0.000000 255 255 255 128
0.399188 0.020279 0.000000 255 255 255 128
0.201310 -0.020279 0.000000 255 255 255 128
0.302116 0.020279 0.000000 255 255 255 128
0.302116 -0.020279 0.000000 255 255 255 128
0.201310 0.020279 0.000000 255 255 255 128
-0.797386 0.020279 0.000000 255 255 255 128
-0.945691 -0.020279 0.000000 255 255 255 128
-0.945691 0.020279 0.000000 255 255 255 128
-0.797386 -0.020279 0.000000 255 255 255 128
-0.597067 0.020279 0.000000 255 255 255 128
-0.697873 -0.020279 0.000000 255 255 255 128
-0.697873 0.020279 0.000000 255 255 255 128
-0.597067 -0.020279 0.000000 255 255 255 128
-0.397733 0.020279 0.000000 255 255 255 128
-0.498540 -0.020279 0.000000 255 255 255 128
-0.498540 0.020279 0.000000 255 255 255 128
-0.397733 -0.020279 0.000000 255 255 255 128
-0.199855 0.020279 0.000000 255 255 255 128
-0.300662 -0.020279 0.000000 255 255 255 128
-0.300662 0.020279 0.000000 255 255 255 128
-0.199855 -0.020279 0.000000 255 255 255 128
-0.020279 -0.700783 0.000000 255 255 255 128
0.020279 -0.599977 0.000000 255 255 255 128
0.020279 -0.700783 0.000000 255 255 255 128
-0.020279 -0.501450 0.000000 255 255 255 128
0.020279 -0.400643 0.000000 255 255 255 128
0.020279 -0.501450 0.000000 255 255 255 128
0.020279 0.947145 0.000000 255 255 255 128
-0.020279 0.798841 0.000000 255 255 255 128
-0.020279 0.947145 0.000000 255 255 255 128
-0.020279 -0.303571 0.000000 255 255 255 128
0.020279 -0.202765 0.000000 255 255 255 128
0.020279 -0.303571 0.000000 255 255 255 128
0.020279 0.302116 0.000000 255 255 255 128
-0.020279 0.201310 0.000000 255 255 255 128
-0.020279 0.302116 0.000000 255 255 255 128
0.020279 0.699328 0.000000 255 255 255 128
-0.020279 0.598522 0.000000 255 255 255 128
-0.020279 0.699328 0.000000 255 255 255 128
0.020279 0.499995 0.000000 255 255 255 128
-0.020279 0.399188 0.000000 255 255 255 128
-0.020279 0.499995 0.000000 255 255 255 128
-0.020279 -0.948601 0.000000 255 255 255 128
0.020279 -0.800296 0.000000 255 255 255 128
0.020279 -0.948601 0.000000 255 255 255 128
0.020279 0.798841 0.000000 255 255 255 128
0.020279 0.201310 0.000000 255 255 255 128
0.020279 0.598522 0.000000 255 255 255 128
0.020279 0.399188 0.000000 255 255 255 128
-0.020279 -0.599977 0.000000 255 255 255 128
-0.020279 -0.400643 0.000000 255 255 255 128
-0.020279 -0.202765 0.000000 255 255 255 128
-0.020279 -0.800296 0.000000 255 255 255 128
3 0 1 2
3 3 4 5
3 0 6 7
3 5 8 9
3 10 6 11
3 9 12 13
3 14 11 15
3 13 16 17
3 18 15 19
3 17 20 21
3 22 19 23
3 21 24 25
3 22 26 27
3 25 28 29
3 30 31 32
3 33 26 34
3 29 35 36
3 30 37 38
3 39 34 40
3 36 41 42
3 38 43 44
3 45 40 46
3 42 47 48
3 49 43 50
3 51 46 52
3 53 47 54
3 49 55 56
3 51 31 57
3 53 58 59
3 56 60 61
3 62 58 1
3 61 63 3
3 6 64 65
3 4 66 8
3 6 67 11
3 8 68 12
3 11 69 15
3 12 70 16
3 19 69 71
3 16 72 20
3 23 71 73
3 20 74 24
3 23 75 26
3 24 76 28
3 32 77 78
3 34 75 79
3 28 80 35
3 37 78 81
3 34 82 40
3 35 83 41
3 43 81 84
3 40 85 46
3 41 86 47
3 43 87 50
3 52 85 88
3 54 86 89
3 50 90 55
3 52 77 31
3 54 91 58
3 55 92 60
3 1 91 93
3 60 94 63
3 1 64 2
3 63 95 4
3 0 62 1
3 3 63 4
3 0 2 6
3 5 4 8
3 10 7 6
3 9 8 12
3 14 10 11
3 13 12 16
3 18 14 15
3 17 16 20
3 22 18 19
3 21 20 24
3 22 23 26
3 25 24 28
3 30 57 31
3 33 27 26
3 29 28 35
3 30 32 37
3 39 33 34
3 36 35 41
3 38 37 43
3 45 39 40
3 42 41 47
3 49 44 43
3 51 45 46
3 53 48 47
3 49 50 55
3 51 52 31
3 53 54 58
3 56 55 60
3 62 59 58
3 61 60 63
3 6 2 64
3 4 95 66
3 6 65 67
3 8 66 68
3 11 67 69
3 12 68 70
3 19 15 69
3 16 70 72
3 23 19 71
3 20 72 74
3 23 73 75
3 24 74 76
3 32 31 77
3 34 26 75
3 28 76 80
3 37 32 78
3 34 79 82
3 35 80 83
3 43 37 81
3 40 82 85
3 41 83 86
3 43 84 87
3 52 46 85
3 54 47 86
3 50 87 90
3 52 88 77
3 54 89 91
3 55 90 92
3 1 58 91
3 60 92 94
3 1 93 64
3 63 94 95
3 96 97 98
3 96 99 97
3 100 101 102
3 100 103 101
3 104 105 106
3 104 107 105
3 108 109 110
3 108 111 109
3 112 113 114
3 112 115 113
3 116 117 118
3 116 119 117
3 120 121 122
3 120 123 121
3 124 125 126
3 124 127 125
3 128 129 130
3 131 132 133
3 134 135 136
3 137 138 139
3 140 141 142
3 143 144 145
3 146 147 148
3 149 150 151
3 134 152 135
3 140 153 141
3 143 154 144
3 146 155 147
3 128 156 129
3 131 157 132
3 137 158 138
3 149 159 150
