ply
format ascii 1.0
comment Created by Blender 2.93.3 - www.blender.org
element vertex 54
property float x
property float y
property float z
property float nx
property float ny
property float nz
element face 76
property list uchar uint vertex_indices
end_header
0.057448 0.004658 0.000000 0.000000 0.000000 1.000000
0.057742 0.002329 0.000000 0.000000 0.000000 1.000000
0.058884 0.002939 0.000000 0.000000 0.000000 1.000000
-0.004658 0.057448 0.000000 0.000000 0.000000 1.000000
-0.002329 0.057742 0.000000 0.000000 0.000000 1.000000
-0.003079 0.058745 0.000000 0.000000 0.000000 1.000000
0.000139 -0.000883 0.000000 -0.000000 -0.000000 1.000000
-0.028728 0.002329 0.000000 -0.000000 -0.000000 1.000000
-0.028724 -0.002329 0.000000 -0.000000 -0.000000 1.000000
0.002329 0.028729 0.000000 -0.000000 0.000000 1.000000
-0.002329 0.028729 0.000000 -0.000000 0.000000 1.000000
0.028724 -0.002329 0.000000 0.000000 0.000000 1.000000
0.028728 0.002329 0.000000 0.000000 0.000000 1.000000
-0.059486 0.001456 0.000000 0.000000 0.000000 1.000000
-0.058759 0.000728 0.000000 0.000000 0.000000 1.000000
-0.058884 0.002939 0.000000 0.000000 0.000000 1.000000
-0.059486 -0.000000 0.000000 0.000000 0.000000 1.000000
-0.059486 -0.001456 0.000000 0.000000 0.000000 1.000000
-0.058884 -0.003218 0.000000 0.000000 0.000000 1.000000
-0.058759 -0.000728 0.000000 0.000000 0.000000 1.000000
-0.001456 0.059486 0.000000 0.000000 0.000000 1.000000
-0.000728 0.058759 0.000000 0.000000 0.000000 1.000000
-0.000000 0.059486 0.000000 0.000000 0.000000 1.000000
-0.000000 0.058032 0.000000 0.000000 0.000000 1.000000
0.002329 0.057742 0.000000 0.000000 0.000000 1.000000
0.000728 0.058759 0.000000 0.000000 0.000000 1.000000
0.059486 0.001456 0.000000 0.000000 -0.000000 1.000000
0.058759 0.000728 0.000000 0.000000 -0.000000 1.000000
0.059486 0.000000 0.000000 0.000000 -0.000000 1.000000
0.058032 0.000000 0.000000 0.000000 -0.000000 1.000000
0.057742 -0.002329 0.000000 0.000000 -0.000000 1.000000
0.058759 -0.000728 0.000000 0.000000 -0.000000 1.000000
-0.058032 0.000000 0.000000 0.000000 0.000000 1.000000
-0.057742 -0.002329 0.000000 0.000000 0.000000 1.000000
-0.057742 0.002329 0.000000 0.000000 0.000000 1.000000
-0.015529 0.015529 0.000000 -0.000000 0.000000 1.000000
-0.017855 0.044250 0.000000 0.000000 -0.000000 1.000000
0.015529 0.015529 0.000000 0.000000 0.000000 1.000000
0.004658 0.057448 0.000000 -0.000000 0.000000 1.000000
-0.000000 0.057453 0.000000 -0.000000 0.000000 1.000000
0.031053 0.031053 0.000000 0.000000 -0.000000 1.000000
0.044250 0.017855 0.000000 0.000000 -0.000000 1.000000
0.057453 0.000000 0.000000 0.000000 0.000000 1.000000
0.057448 -0.004658 0.000000 0.000000 -0.000000 1.000000
0.017855 0.044250 0.000000 0.000000 0.000000 1.000000
-0.031053 0.031053 0.000000 0.000000 -0.000000 1.000000
-0.044250 0.017855 0.000000 -0.000000 0.000000 1.000000
-0.057448 0.004658 0.000000 -0.000000 0.000000 1.000000
-0.057453 0.000000 0.000000 0.000000 0.000000 1.000000
-0.057448 -0.004658 0.000000 0.000000 0.000000 1.000000
0.058884 -0.003218 0.000000 0.000000 0.000000 1.000000
0.059486 -0.001456 0.000000 0.000000 0.000000 1.000000
0.003079 0.058745 0.000000 0.000000 0.000000 1.000000
0.001456 0.059486 0.000000 0.000000 0.000000 1.000000
3 0 1 2
3 3 4 5
3 6 7 8
3 6 9 10
3 6 11 12
3 13 14 15
3 13 16 14
3 17 18 19
3 20 21 22
3 23 24 25
3 26 27 28
3 29 30 31
3 32 33 34
3 6 35 7
3 3 36 10
3 6 37 9
3 38 24 39
3 40 37 41
3 0 42 1
3 1 30 29
3 1 42 30
3 42 43 30
3 41 12 0
3 41 37 12
3 37 6 12
3 39 4 3
3 39 24 4
3 24 23 4
3 9 44 38
3 9 37 44
3 37 40 44
3 10 35 6
3 10 36 35
3 36 45 35
3 7 46 47
3 7 35 46
3 35 45 46
3 34 48 47
3 34 33 48
3 33 49 48
3 31 50 51
3 31 30 50
3 30 43 50
3 28 31 51
3 28 27 31
3 27 29 31
3 25 52 53
3 25 24 52
3 24 38 52
3 22 25 53
3 22 21 25
3 21 23 25
3 19 33 32
3 19 18 33
3 18 49 33
3 14 19 32
3 14 16 19
3 16 17 19
3 15 34 47
3 15 14 34
3 14 32 34
3 12 42 0
3 12 11 42
3 11 43 42
3 10 39 3
3 10 9 39
3 9 38 39
3 8 48 49
3 8 7 48
3 7 47 48
3 5 21 20
3 5 4 21
3 4 23 21
3 2 27 26
3 2 1 27
3 1 29 27
